<svg xmlns="http://www.w3.org/2000/svg" viewBox="0 0 35 34" width="36" xmlns:xlink="http://www.w3.org/1999/xlink">
  <defs>
    <path id="a" d="M0 35.625h35.625V0H0z"/>
  </defs>
  <g fill="none" fill-rule="evenodd" transform="matrix(1 0 0 -1 0 34.625)">
    <mask id="b" fill="#fff">
      <use xlink:href="#a"/>
    </mask>
    <g mask="url(#b)">
      <path fill="#DD2E44" d="M11.837 27.667c-.105-.105-.185-.23-.25-.37l-.01.007L1.064 3.618l.01-.01c-.195-.378.132-1.146.8-1.816.668-.667 1.436-.994 1.814-.8l.01-.008 23.687 10.514-.007.01c.14.064.264.144.37.25 1.465 1.464-.91 6.213-5.303 10.606-4.393 4.394-9.143 6.768-10.607 5.303"/>
      <path fill="#EA596E" d="M13.125 23.438L1.328 4.212l-.265-.595.01-.01c-.195-.378.132-1.146.8-1.816.218-.21.443-.38.665-.52l14.337 17.48-3.75 4.69z"/>
      <path fill="#A0041E" d="M22.51 22.438c4.38-4.38 6.81-9.05 5.428-10.43-1.38-1.38-6.05 1.05-10.43 5.428-4.38 4.38-6.81 9.05-5.43 10.43 1.383 1.382 6.052-1.05 10.433-5.428"/>
      <path fill="#AA8DD8" d="M18.365 21.93c-.186-.152-.43-.23-.688-.203-.813.088-1.498.37-1.977.82-.507.472-.757 1.107-.69 1.744.12 1.12 1.242 2.15 3.154 1.94.743-.08 1.075.16 1.086.28.013.12-.26.42-1.003.5-.814.09-1.498.37-1.978.82-.51.48-.76 1.11-.69 1.75.12 1.12 1.24 2.15 3.15 1.94.54-.06.82.06.95.13.09.06.13.118.14.15.01.115-.26.42-1.01.5-.52.056-.89.518-.83 1.033.05.51.51.884 1.03.83 1.91-.207 2.78-1.45 2.66-2.566-.12-1.116-1.24-2.14-3.16-1.934-.54.06-.83-.056-.95-.128-.096-.06-.135-.118-.14-.15-.01-.113.26-.42 1.005-.5 1.91-.204 2.787-1.444 2.666-2.563-.12-1.12-1.24-2.146-3.15-1.94-.54.06-.83-.052-.95-.124-.096-.06-.133-.117-.137-.15-.01-.11.26-.42 1-.5.51-.05.884-.515.83-1.03-.03-.26-.16-.48-.35-.63"/>
      <path fill="#77B255" d="M29.682 13.26c1.85.52 3.126-.304 3.43-1.387.303-1.082-.355-2.452-2.203-2.97-.73-.203-.94-.548-.91-.66.03-.11.4-.292 1.12-.087 1.84.52 3.12-.306 3.42-1.388.3-1.082-.36-2.45-2.21-2.972-.72-.202-.94-.548-.91-.658.03-.11.39-.29 1.12-.09.5.142 1.01-.15 1.15-.647.14-.49-.15-1.01-.65-1.15-1.85-.52-3.128.3-3.43 1.39-.307 1.09.352 2.45 2.203 2.97.72.21.94.55.91.66-.03.11-.396.3-1.117.09-1.85-.52-3.126.3-3.43 1.39-.305 1.09.354 2.45 2.204 2.97.72.2.937.55.906.66-.03.11-.397.29-1.12.09-.5-.14-1.02.15-1.16.65-.14.5.15 1.02.648 1.16"/>
      <path fill="#AA8DD8" d="M22.5 15.787c-.275 0-.547.12-.732.352-.324.4-.258.99.146 1.31.204.16 5.08 3.99 11.97 3.01.512-.08.867-.55.794-1.06-.073-.52-.544-.88-1.06-.8-6.088.86-10.49-2.59-10.532-2.62-.173-.14-.38-.21-.585-.21"/>
      <path fill="#77B255" d="M6.332 19.688c-.09 0-.18.013-.27.04-.496.148-.777.67-.628 1.167 1.062 3.537 2.025 9.182.842 10.653-.133.167-.332.33-.79.296-.88-.067-.795-1.923-.794-1.942.04-.516-.35-.966-.865-1.005-.524-.03-.967.35-1.005.866-.097 1.293.306 3.783 2.523 3.95.99.075 1.812-.27 2.394-.99 2.22-2.767-.04-10.788-.51-12.368-.13-.406-.5-.668-.9-.668"/>
      <path fill="#5C913B" d="M26.25 25.78c0-.775-.63-1.405-1.406-1.405-.777 0-1.407.63-1.407 1.406 0 .78.63 1.41 1.407 1.41.776 0 1.406-.63 1.406-1.4"/>
      <path fill="#9266CC" d="M4.688 17.813c0-1.035-.84-1.875-1.875-1.875-1.036 0-1.876.84-1.876 1.874 0 1.035.84 1.875 1.875 1.875 1.036 0 1.876-.84 1.876-1.875"/>
      <path fill="#5C913B" d="M32.813 16.406c0-.776-.63-1.406-1.407-1.406-.776 0-1.406.63-1.406 1.406 0 .777.63 1.407 1.406 1.407.777 0 1.407-.63 1.407-1.407m-8.438-11.25c0-.776-.63-1.406-1.406-1.406-.78 0-1.41.63-1.41 1.406 0 .777.63 1.407 1.4 1.407s1.4-.63 1.4-1.407"/>
      <path fill="#FFCC4D" d="M29.063 30.938c0-1.035-.84-1.875-1.875-1.875-1.035 0-1.875.84-1.875 1.875 0 1.035.84 1.875 1.875 1.875 1.035 0 1.875-.84 1.875-1.876m3.75-4.217c0-.777-.63-1.407-1.407-1.407-.776 0-1.406.63-1.406 1.406 0 .77.63 1.4 1.406 1.4.777 0 1.407-.63 1.407-1.41M30 22.97c0-.777-.63-1.407-1.406-1.407-.777 0-1.407.63-1.407 1.406 0 .77.63 1.4 1.407 1.4.776 0 1.406-.63 1.406-1.41M9.375 12.65c0-.772-.63-1.402-1.406-1.402-.78 0-1.41.63-1.41 1.407 0 .776.63 1.406 1.4 1.406s1.4-.63 1.4-1.4"/>
    </g>
  </g>
</svg>
