<svg xmlns="http://www.w3.org/2000/svg" width="161" height="158" xmlns:xlink="http://www.w3.org/1999/xlink" viewBox="0 0 161 158">
  <defs>
    <circle id="a" cx="86" cy="86" r="74"/>
    <path id="c" d="M0 11.875h11.875V0H0v11.875z"/>
    <path id="e" d="M0 19.792h19.792V0H0v19.792z"/>
    <path id="g" d="M0 24.235h23.75V0H0v24.235z"/>
    <path id="i" d="M0 17.812h17.812V0H0v17.812z"/>
    <path id="k" d="M0 13.854h13.854V0H0v13.854z"/>
    <path id="m" d="M0 13.854h13.854V0H0v13.854z"/>
    <path id="o" d="M0 17.812h17.812V0H0v17.812z"/>
    <path id="q" d="M0 23.75h23.75V0H0v23.75z"/>
    <path id="s" d="M0 23.75h23.75V0H0v23.75z"/>
  </defs>
  <g fill="none" fill-rule="evenodd">
    <g>
      <g>
        <g transform="translate(-545 -171) translate(420 148) translate(119 21)">
          <mask id="b" fill="#fff">
            <use xlink:href="#a"/>
          </mask>
          <use fill="#9BADE3" fill-opacity=".3" xlink:href="#a"/>
          <g stroke="#58402C" mask="url(#b)">
            <g transform="translate(29 42)">
              <rect width="5" height="15" x="56" y="4" fill="#58402C" rx="8" transform="translate(58.5 11.5) scale(1 -1) translate(-58.5 -11.5)"/>
              <ellipse cx="58.5" cy="4.5" fill="#F3CFB1" rx="4.5" ry="4.5"/>
              <rect width="35" height="28" x="41" y="15" fill="#58402C" rx="8"/>
              <rect width="16" height="28" x="50" y="50" fill="#58402C" rx="8" transform="translate(58 64) scale(1 -1) translate(-58 -64)"/>
              <rect width="52" height="42" x="32" y="19" fill="#F3CFB1" rx="13"/>
              <circle cx="45" cy="36" r="8" fill="#FFAF6C"/>
              <circle cx="71" cy="36" r="8" fill="#FFAF6C"/>
              <path fill="#fff" d="M45 31l4.33 2.5v5L45 41l-4.33-2.5v-5z"/>
              <circle cx="45" cy="36" r="2" fill="#58402C"/>
              <path fill="#fff" d="M71 31l4.33 2.5v5L71 41l-4.33-2.5v-5z"/>
              <circle cx="71" cy="36" r="2" fill="#58402C"/>
              <path fill="#58402C" d="M100.89 70.23l-6.847-1.456 7.9-37.17 6.848 1.456zm-88.358 7.84l6.983.49-2.65 37.907-6.984-.488zm95.388 14.986l-6.982-.488 2.22-31.75 6.984.49z"/>
              <ellipse cx="114.68" cy="64" fill="#F3CFB1" rx="6.5" transform="translate(114.68 64) rotate(184) translate(-114.68 -64)" ry="6.5"/>
              <ellipse cx="91.5" cy="88.5" fill="#FFAF6C" rx="9.5" ry="9.5"/>
              <ellipse cx="24.5" cy="88.5" fill="#FFAF6C" rx="9.5" ry="9.5"/>
              <path fill="#F3CFB1" d="M81.788 25.328c2.76-.636 5.777.12 7.928 2.272 3.32 3.32 3.32 8.7 0 12.02-3.32 3.32-8.702 3.32-12.02 0-2.15-2.15-2.91-5.168-2.273-7.928l7.575 7.575 6.364-6.364-7.574-7.575zm-55.43 94.686l63.288-.03 4.746-38.09c.888-7.12-4.214-12.89-11.392-12.89H33c-7.18 0-12.28 5.77-11.392 12.9l4.75 38.11z"/>
              <path fill="#9BADE3" d="M40.5 120h35l4.776-22.29C81.78 90.69 77.18 85 69.994 85H46.006c-7.183 0-11.788 5.68-10.282 12.71L40.5 120zM58 50.008c-3.314 0-6-.314-6 3h12c0-3.314-2.686-3-6-3z"/>
            </g>
          </g>
          <g>
            <g>
              <g>
                <g transform="translate(55 49) rotate(-33) translate(-6 -6) translate(5.9375 5.9375) scale(1 -1) translate(-5.9375 -5.9375)">
                  <mask id="d" fill="#fff">
                    <use xlink:href="#c"/>
                  </mask>
                  <g mask="url(#d)">
                    <g>
                      <g>
                        <path fill="#FFD983" d="M9.375 8.106c0-2.012-1.563-2.325-1.563-4.2 0-.968-.975-1.05-1.718-1.05-.642 0-2.058.244-2.058 1.05 0 1.875-1.536 2.188-1.536 4.2 0 1.885 1.652 3.413 3.463 3.413 1.813 0 3.412-1.53 3.412-3.42"/>
                      </g>
                      <g>
                        <path fill="#CCD6DD" d="M7.24 1.406c0-.258-.698-.78-1.303-.78-.604 0-1.3.52-1.3.78s.696.157 1.3.157c.605 0 1.303.102 1.303-.157"/>
                      </g>
                      <g>
                        <path fill="#FFCC4D" d="M7.408 8.346c-.122.122-.32.122-.442 0l-1.03-1.03-1.028 1.03c-.122.122-.32.122-.44 0-.124-.122-.124-.32 0-.442l1.157-1.158v-3.31c0-.17.14-.31.313-.31.172 0 .312.14.312.31v3.31l1.158 1.158c.123.122.123.32 0 .442"/>
                      </g>
                      <g>
                        <path fill="#99AAB5" d="M7.813 1.875c0-.345-.28-.625-.625-.625h-2.5c-.345 0-.625.28-.625.625V3.75h3.75V1.875z"/>
                      </g>
                      <g>
                        <path fill="#CCD6DD" d="M4.062 1.563c-.15 0-.282.108-.308.26-.028.17.087.332.257.36l3.75.625c.17.03.34-.086.36-.257.03-.17-.08-.33-.25-.35l-3.75-.62h-.05"/>
                      </g>
                      <g>
                        <path fill="#CCD6DD" d="M4.062 2.813c-.15 0-.282.108-.308.26-.028.17.087.332.257.36l3.75.625c.17.03.34-.086.36-.257.03-.17-.08-.33-.25-.35l-3.75-.62h-.05"/>
                      </g>
                    </g>
                  </g>
                </g>
              </g>
            </g>
          </g>
          <g>
            <g>
              <g>
                <g transform="translate(138.82 27.595) rotate(29) translate(-10 -10) translate(9.8958 9.8958) scale(1 -1) translate(-9.8958 -9.8958)">
                  <mask id="f" fill="#fff">
                    <use xlink:href="#e"/>
                  </mask>
                  <g mask="url(#f)">
                    <g>
                      <g>
                        <path fill="#FFD983" d="M15.625 13.51c0-3.353-2.604-3.874-2.604-7 0-1.613-1.62-1.75-2.86-1.75-1.07 0-3.43.407-3.43 1.75 0 3.126-2.56 3.647-2.56 7 0 3.14 2.76 5.688 5.78 5.688s5.69-2.547 5.69-5.688"/>
                      </g>
                      <g>
                        <path fill="#CCD6DD" d="M12.066 2.344c0-.432-1.163-1.302-2.17-1.302s-2.17.87-2.17 1.302 1.163.26 2.17.26 2.17.17 2.17-.26"/>
                      </g>
                      <g>
                        <path fill="#FFCC4D" d="M12.347 13.91c-.203.204-.532.204-.736 0L9.9 12.195 8.18 13.91c-.203.204-.532.204-.736 0-.203-.204-.203-.533 0-.737l1.93-1.93V5.73c0-.29.234-.522.522-.522s.52.233.52.52v5.515l1.93 1.93c.205.204.205.533 0 .737"/>
                      </g>
                      <g>
                        <path fill="#99AAB5" d="M13.02 3.125c0-.575-.466-1.042-1.04-1.042H7.812c-.575 0-1.042.467-1.042 1.042V6.25h6.25V3.125z"/>
                      </g>
                      <g>
                        <path fill="#CCD6DD" d="M6.77 2.604c-.25 0-.47.18-.513.436-.047.283.145.552.428.6l6.25 1.04c.284.05.552-.144.6-.428.047-.283-.145-.552-.43-.6l-6.248-1.04c-.03-.006-.06-.008-.087-.008"/>
                      </g>
                      <g>
                        <path fill="#CCD6DD" d="M6.77 4.688c-.25 0-.47.18-.513.435-.047.283.145.552.428.6l6.25 1.04c.284.05.552-.144.6-.428.047-.283-.145-.552-.43-.598L6.858 4.695c-.03-.005-.06-.007-.087-.007"/>
                      </g>
                    </g>
                  </g>
                </g>
              </g>
            </g>
          </g>
          <g>
            <g>
              <g>
                <g transform="translate(107 15.5) rotate(13) translate(-12 -12.5) translate(12 12.5) scale(1 -1) translate(-12 -12.245)">
                  <mask id="h" fill="#fff">
                    <use xlink:href="#g"/>
                  </mask>
                  <g mask="url(#h)">
                    <g>
                      <g>
                        <path fill="#CCD6DD" d="M22.5 3.19c0-1.41-1.12-2.552-2.5-2.552H3.75c-1.38 0-2.5 1.142-2.5 2.55v17.858c0 1.41 1.12 2.55 2.5 2.55H20c1.38 0 2.5-1.14 2.5-2.55V3.19z"/>
                      </g>
                      <path fill="#E1E8ED" d="M16.875 7.015H20V3.827h-3.125v3.188zm-4.375 0h3.125V3.827H12.5v3.188zm-4.375 0h3.125V3.827H8.125v3.188zm-4.375 0h3.125V3.827H3.75v3.188zM6.875 17.22H3.75v3.187h3.125V17.22zm4.375 0H8.125v3.187h3.125V17.22zm4.375 0H12.5v3.187h3.125V17.22zm1.25 3.187H20V17.22h-3.125v3.187zm0-4.464H20v-3.19h-3.125v3.19zm0-4.464H20V8.29h-3.125v3.19zm-4.375 0h3.125V8.29H12.5v3.19zm-4.375 0h3.125V8.29H8.125v3.19zm-1.25-3.19H3.75v3.19h3.125V8.29zm0 4.46H3.75v3.19h3.125v-3.19zm5.625 3.19h3.125v-3.19H12.5v3.19zm-1.25-3.19H8.125v3.19h3.125v-3.19zm9.375 8.93h-17.5c-.346 0-.625-.29-.625-.64V3.19c0-.352.28-.637.625-.637h17.5c.346 0 .625.286.625.638v17.86c0 .36-.28.64-.625.64z"/>
                      <g>
                        <path fill="#5C913B" d="M9.375 3.827c0-.705-.56-1.276-1.25-1.276h-1.25c-.69 0-1.25.58-1.25 1.28v9.57c0 .71.56 1.28 1.25 1.28h1.25c.69 0 1.25-.57 1.25-1.27V3.83z"/>
                      </g>
                      <g>
                        <path fill="#9266CC" d="M18.125 3.827c0-.705-.56-1.276-1.25-1.276h-1.25c-.69 0-1.25.58-1.25 1.28v14.03c0 .71.56 1.28 1.25 1.28h1.25c.69 0 1.25-.57 1.25-1.27V3.83z"/>
                      </g>
                      <g>
                        <path fill="#DD2E44" d="M13.75 3.827c0-.705-.56-1.276-1.25-1.276h-1.25c-.69 0-1.25.58-1.25 1.28v5.1c0 .71.56 1.28 1.25 1.28h1.25c.69 0 1.25-.57 1.25-1.27V3.83z"/>
                      </g>
                    </g>
                  </g>
                </g>
              </g>
            </g>
          </g>
          <g>
            <g>
              <g>
                <g transform="translate(68 7) translate(9 9.8125) scale(1 -1) translate(-9 -9)">
                  <mask id="j" fill="#fff">
                    <use xlink:href="#i"/>
                  </mask>
                  <g mask="url(#j)">
                    <g>
                      <g>
                        <path fill="#58402C" d="M17.04 5.506c.102 1.12-.24 2.137-.964 2.86L8.453 15.99c-.183.182-.48.182-.663 0-.183-.184-.183-.48 0-.664l7.623-7.623c.524-.524.77-1.273.693-2.112-.074-.81-.448-1.62-1.025-2.19-.57-.57-1.37-.95-2.19-1.02-.83-.07-1.59.17-2.11.7l-8.62 8.61c-.46.46-.49 1.04-.44 1.44.07.56.35 1.13.78 1.55.8.8 2.17 1.15 2.99.33l6.96-6.96c.524-.52.01-1.31-.333-1.66-.345-.34-1.135-.85-1.66-.33l-5.302 5.3c-.183.18-.48.18-.663 0-.19-.18-.186-.48 0-.66l5.3-5.3c.87-.87 2.155-.49 2.98.33.82.827 1.2 2.116.33 2.987l-6.96 6.96c-1.23 1.228-3.194.784-4.31-.33-.57-.57-.95-1.335-1.045-2.1-.107-.86.147-1.645.715-2.212l8.61-8.63c.64-.64 1.507-.982 2.474-.982.127 0 .255.007.385.018 1.033.096 2.044.568 2.773 1.297.73.73 1.202 1.75 1.296 2.78"/>
                      </g>
                    </g>
                  </g>
                </g>
              </g>
            </g>
          </g>
          <g>
            <g>
              <g>
                <g transform="translate(23 49) rotate(-42) translate(-7 -7) translate(6.9271 6.9271) scale(1 -1) translate(-6.9271 -6.9271)">
                  <mask id="l" fill="#fff">
                    <use xlink:href="#k"/>
                  </mask>
                  <g mask="url(#l)">
                    <g>
                      <g>
                        <path fill="#CCD6DD" d="M11.667 1.823c0-.805-.653-1.458-1.46-1.458h-8.02C1.382.365.73 1.018.73 1.823v10.21c0 .804.652 1.457 1.457 1.457h8.02c.807 0 1.46-.653 1.46-1.458V1.822z"/>
                      </g>
                      <g>
                        <path fill="#99AAB5" d="M10.208 4.74c0-.202-.163-.365-.364-.365H2.552c-.2 0-.365.163-.365.365 0 .2.164.364.365.364h7.292c.2 0 .364-.163.364-.364"/>
                      </g>
                      <g>
                        <path fill="#99AAB5" d="M4.375 3.28c0-.2-.163-.363-.365-.363H2.552c-.2 0-.365.163-.365.364 0 .21.164.37.365.37H4.01c.202 0 .365-.16.365-.36"/>
                      </g>
                      <g>
                        <path fill="#99AAB5" d="M10.208 10.573c0-.2-.163-.365-.364-.365H2.552c-.2 0-.365.164-.365.365s.164.365.365.365h7.292c.2 0 .364-.164.364-.365"/>
                      </g>
                      <g>
                        <path fill="#99AAB5" d="M10.208 9.115c0-.202-.163-.365-.364-.365H2.552c-.2 0-.365.163-.365.365 0 .2.164.364.365.364h7.292c.2 0 .364-.17.364-.37"/>
                      </g>
                      <g>
                        <path fill="#99AAB5" d="M10.208 7.656c0-.2-.163-.364-.364-.364H2.552c-.2 0-.365.163-.365.364 0 .202.164.365.365.365h7.292c.2 0 .364-.16.364-.36"/>
                      </g>
                      <g>
                        <path fill="#99AAB5" d="M10.208 6.198c0-.202-.163-.365-.364-.365H2.552c-.2 0-.365.163-.365.365 0 .202.164.365.365.365h7.292c.2 0 .364-.163.364-.365"/>
                      </g>
                      <g>
                        <path fill="#66757F" d="M11.667 11.203c-.302.195-.67.21-.92.008l-.288-.23-.55-.44-.04-.03-.87-.7-4.33-3.53c-.16-.13-.29-.44-.43-.75s-.36-1.04-.53-1.6c-.06-.09-.39-.67-.2-.89.19-.22.84 0 .93.03.59.068 1.36.14 1.69.21.34.08.68.15.84.28.003 0 .004.008.01.01l4.32 3.526.29.235.054.043v3.865z"/>
                      </g>
                      <g>
                        <path fill="#D99E82" d="M6.98 5.277s-.465.686-.772.93c-.245.308-.93.772-.93.772-.163.16-.434.17-.593.01-.16-.16-.29-.5-.428-.84-.172-.42-.465-1.52-.645-2.1-.03-.1.19.16.184.07-.004-.07.01-.15.027-.22l-.053-.05.076-.03.025-.078.06.053c.07-.01.15-.03.21-.02.09.006-.17-.213-.07-.18.58.18 1.68.472 2.1.643.34.14.68.27.84.426.16.16.15.43-.01.594"/>
                      </g>
                      <g>
                        <path fill="#EA596E" d="M9.593 11.903c-.32-.32-.32-.836 0-1.155l1.155-1.155c.32-.318.836-.318 1.155 0l1.155 1.155c.32.32.32.836 0 1.155l-1.155 1.155c-.32.32-.836.32-1.155 0l-1.155-1.155z"/>
                      </g>
                      <g>
                        <path fill="#FFCC4D" d="M4.685 6.995L5.84 5.84l1.154-1.155 4.33 4.33-2.31 2.31-4.33-4.33z"/>
                      </g>
                      <g>
                        <path fill="#292F33" d="M4.484 3.74s-.75-.413-.954-.21c-.203.203.212.952.212.952s.71-.013.742-.742"/>
                      </g>
                      <g>
                        <path fill="#CCD6DD" d="M10.46 12.77l2.31-2.31-1.444-1.444-2.31 2.31 1.443 1.443z"/>
                      </g>
                      <g>
                        <path fill="#99AAB5" d="M9.88 12.192l2.31-2.31.29.29-2.31 2.31-.29-.29z"/>
                      </g>
                      <g>
                        <path fill="#99AAB5" d="M9.304 11.614l2.31-2.31.29.29-2.31 2.31-.29-.29z"/>
                      </g>
                    </g>
                  </g>
                </g>
              </g>
            </g>
          </g>
          <g>
            <g>
              <g>
                <g transform="translate(114.17 44.456) rotate(35) translate(-7 -7) translate(6.9271 6.9271) scale(1 -1) translate(-6.9271 -6.9271)">
                  <mask id="n" fill="#fff">
                    <use xlink:href="#m"/>
                  </mask>
                  <g mask="url(#n)">
                    <g>
                      <g>
                        <path fill="#FFE8B6" d="M8.02 6.927c0 .73 1.184 1.228 1.824 2.188.73 1.093.73 3.646.73 3.646H3.28s0-2.55.73-3.64c.64-.96 1.823-1.46 1.823-2.19S4.65 5.7 4.01 4.75c-.73-1.1-.73-3.65-.73-3.65h7.294s0 2.55-.73 3.645c-.64.96-1.822 1.46-1.822 2.188"/>
                      </g>
                      <g>
                        <path fill="#FFAC33" d="M8.02 4.74c-.364 0-.75.364-.75.73.02.623.022 1.036.022 1.457 0 1.174 1.106 1.663 1.786 2.552H4.776c.68-.89 1.786-1.38 1.786-2.56 0-.42 0-.84.022-1.46 0-.37-.386-.73-.75-.73-.73 0-1.31-.65-1.46-1.1-.364-1.09-.364-2.55-.364-2.55h5.834s0 1.45-.365 2.55c-.15.44-.73 1.09-1.46 1.09"/>
                      </g>
                      <g>
                        <path fill="#3B88C3" d="M11.302 1.094c0-.403-.327-.73-.73-.73h-7.29c-.403 0-.73.327-.73.73 0 .402.327.73.73.73h7.29c.403 0 .73-.328.73-.73"/>
                      </g>
                      <g>
                        <path fill="#3B88C3" d="M11.302 12.76c0-.402-.327-.728-.73-.728h-7.29c-.403 0-.73.326-.73.73 0 .4.327.728.73.728h7.29c.403 0 .73-.327.73-.73"/>
                      </g>
                    </g>
                  </g>
                </g>
              </g>
            </g>
          </g>
          <g>
            <g>
              <g>
                <g transform="translate(44 28) rotate(-25) translate(-9 -9) translate(8.9062 8.9062) scale(1 -1) translate(-8.9062 -8.9062)">
                  <mask id="p" fill="#fff">
                    <use xlink:href="#o"/>
                  </mask>
                  <g mask="url(#p)">
                    <g>
                      <g>
                        <path fill="#BDDDF4" d="M8.906 16.876c-4.66 0-8.437-2.94-8.437-6.563 0-2.048 1.2-3.876 3.09-5.08C3.32 4.153 2.74 2.547 1.4.94c2.7.45 4.425 1.763 5.492 3.007.645-.123 1.315-.195 2.008-.195 4.66 0 8.438 2.938 8.438 6.563 0 3.624-3.777 6.563-8.437 6.563"/>
                      </g>
                      <g>
                        <path fill="#2A6797" d="M9.844 10.313c0-.518-.42-.938-.938-.938s-.937.42-.937.938.42.937.93.937.94-.42.94-.938"/>
                      </g>
                      <g>
                        <path fill="#2A6797" d="M13.594 10.313c0-.518-.42-.938-.938-.938s-.937.42-.937.938.42.937.93.937.94-.42.94-.938"/>
                      </g>
                      <g>
                        <path fill="#2A6797" d="M6.094 10.313c0-.518-.42-.938-.938-.938s-.937.42-.937.938.42.937.93.937.94-.42.94-.938"/>
                      </g>
                    </g>
                  </g>
                </g>
              </g>
            </g>
          </g>
          <g>
            <g>
              <g>
                <g transform="translate(153.94 55.821) rotate(18) translate(-12 -12) translate(11.875 11.875) scale(1 -1) translate(-11.875 -11.875)">
                  <mask id="r" fill="#fff">
                    <use xlink:href="#q"/>
                  </mask>
                  <g mask="url(#r)">
                    <g>
                      <g>
                        <path fill="#BE1931" d="M8.693 3.906C8.52 2.526 7.26 2.03 5.88 2.03s-2.36 1.12-2.187 2.5l.625 5.626c.172 1.38 1.432 2.5 2.812 2.5s4.043 0 2.188-2.5-.625-6.25-.625-6.25"/>
                      </g>
                      <g>
                        <path fill="#CCD6DD" d="M23.016 13.906c0-4.314-.965-7.812-2.156-7.812S8.078 9.592 8.078 13.906s11.59 7.813 12.782 7.813 2.156-3.5 2.156-7.82"/>
                      </g>
                      <g>
                        <path fill="#66757F" d="M23.016 13.906c0-4.314-.965-7.812-2.156-7.812-1.19 0-2.156 3.498-2.156 7.812s.965 7.813 2.156 7.813c1.19 0 2.156-3.5 2.156-7.82"/>
                      </g>
                      <g>
                        <path fill="#DD2E44" d="M11.828 9.53l-8.75.626c-3.125 0-3.125 7.5 0 7.5l8.75.625c-1.875-1.87-1.875-6.87 0-8.75"/>
                      </g>
                      <g>
                        <path fill="#99AAB5" d="M21.14 13.906c0-1.5-.42-2.717-.937-2.717s-.937 1.21-.937 2.71.42 2.72.938 2.72.937-1.22.937-2.72"/>
                      </g>
                    </g>
                  </g>
                </g>
              </g>
            </g>
          </g>
          <g>
            <g>
              <g>
                <g transform="translate(16.573 92.634) rotate(-29) translate(-12 -12) translate(11.875 11.875) scale(1 -1) translate(-11.875 -11.875)">
                  <mask id="t" fill="#fff">
                    <use xlink:href="#s"/>
                  </mask>
                  <g mask="url(#t)">
                    <g>
                      <g>
                        <path fill="#3B88C3" d="M9.375 5c-1.38 0-2.5 1.12-2.5 2.5s1.12 2.5 2.5 2.5 2.5-1.12 2.5-2.5-1.12-2.5-2.5-2.5m0 6.25c-2.07 0-3.75-1.68-3.75-3.75s1.68-3.75 3.75-3.75 3.75 1.68 3.75 3.75-1.68 3.75-3.75 3.75"/>
                      </g>
                      <g>
                        <path fill="#55ACEE" d="M1.74 14.36v-.013C1.114 14.21.625 13.163.625 11.875s.49-2.336 1.115-2.473V9.39l17.938-4.983v14.927L1.738 14.36z"/>
                      </g>
                      <g>
                        <path fill="#269" d="M23.125 11.875c0-4.142-1.4-7.5-3.125-7.5s-3.125 3.358-3.125 7.5c0 4.142 1.4 7.5 3.125 7.5s3.125-3.358 3.125-7.5"/>
                      </g>
                    </g>
                  </g>
                </g>
              </g>
            </g>
          </g>
        </g>
      </g>
    </g>
  </g>
</svg>
