<svg xmlns="http://www.w3.org/2000/svg" width="173" height="239" viewBox="0 0 173 239">
  <g fill="none" fill-rule="evenodd">
    <g transform="translate(-869.000000, -156.000000) translate(207.000000, 131.000000) translate(662.000000, 25.000000) translate(86.500000, 123.000000) scale(-1, 1) translate(-86.500000, -123.000000) translate(94.864707, 122.829817) rotate(-7.000000) translate(-94.864707, -122.829817) translate(34.364707, 6.829817)">
      <path fill="#FFF" stroke="#58402C" stroke-width=".96" d="M58.068 63.952c0-16.635-5.136-35.082-12.66-50.058-1.582-3.15-2.988-9.646-6.315-8.48-4.02 1.41-3.548 7.886-4.04 12.113-3.267 27.984-1.747 35.523 10.354 58.788m37.623-12.92c0-16.668 3.61-24.905 12.932-41.13 2.553-4.444 29.194-40.77 21.535-8.897-2.248 9.352-5.27 18.54-8.89 27.452-6.49 15.985-9.114 18.438-17.78 30.142"/>
      <path fill="#FFECEB" d="M85.3 56.968c4.557-12.513 5.194-21.393 11.396-23.337 7.806-2.44 10.582 3.39 6.41 11.74-2.403 4.81-8.714 16.78-11.954 21.06 0 0-2.164-3.65-3.646-5.37"/>
      <path fill="#FFCDCA" fill-opacity=".379" d="M56.014 61.21c-.957-7.73-1.276-15.565-2.873-23.188-3.62-17.313-14.9-2.053-14.01 8.77.56 6.736 5.87 14.416 9.05 19.912"/>
      <path fill="#FFF" d="M89.21 61.297c-27.28-.977-28.96-7.43-46.693 11.23-19.977 21.02-13.992 52.433 18.133 54.337 8.475.503 34.738.95 38.438-13.402 6.07-23.538-5.346-50.245-30.418-53.253"/>
      <path stroke="#58402C" stroke-width=".96" d="M89.21 61.297c-27.28-.977-28.96-7.43-46.693 11.23-19.977 21.02-13.992 52.433 18.133 54.337 8.475.503 34.738.95 38.438-13.402 6.07-23.538-5.346-50.245-30.418-53.253"/>
      <ellipse cx="65.24" cy="99.204" fill="#FFE0C5" stroke="#58402C" stroke-width=".96" rx="5.757" ry="3.834"/>
      <path fill="#AEA399" d="M93.545 168.866l.034.038c-1.27-12.685-9.83-25.1-23.53-26.397l.49.56 8.07 16.75c4.08 5.84 7.94 9.965 14.63 12.37 0 0 .43-1.344.27-3.32zm-53.865-28.36c.555.024 1.112.04 1.667.04l-.476.44c.56-.098 1.03-.213 1.03-.213-1.55 1.33-1.23 3.76-4.54 7.698-3.62 4.31-10.59 11.38-16.58 15.51-3.44 2.37-6.9 3.34-8.35 3.34 1.65-10.73 6.31-24.54 19.19-26.76 2.64-.45 5.35-.16 8.04-.04l.12-.08-.08.09z"/>
      <path fill="#FFF" stroke="#58402C" stroke-width=".96" d="M16.445 201.88c-12.665-1.08 9.273-5.742 8.576-17.427-.97-16.41 1.02-26.13 12.24-38.195 8.88-9.546 11.23-12.418 23.84-11.97 3.85.138 11.74 12.133 13.07 15.092 5.61 12.505 9.47 25.69 7.84 39.652-.16 1.39 3.26 11.046 3.97 20.114.46 5.914-1.88 11.696-2.53 12.97-2.3 4.543-23.31-1.16-26.2.787-6.7 4.503-48.63-6.3-54.18-11.402"/>
      <path stroke="#58402C" stroke-width=".96" d="M60.732 127.194c-.4 2.36-.8 4.722-1.198 7.084"/>
      <path fill="#AEA399" d="M14.57 213.208c-.32-.974-.92-8.317 1.366-13.56 3.014-6.917 9.18-12.128 9.094-13.545-1.02-17.09 1.054-27.213 12.74-39.78 2.766-2.975 4.702-6.888 4.316-3.766-.113.916.9 5.773.935 6.928.14 4.426 1.93 9.664 2.87 13.27.52 1.99 1.05 3.092 2.06 3.867.49.377.65.943 1.83.985 1.15.04 5.22-1.688 8.03-4.853 1.33-1.493 2.11-3.61 3.75-5.436 1.08-1.203.77-2.444 1.65-3.644 4.91-6.65 6.97-12.633 7.65-11.117 5.84 13.023 15.23 33.773 13.54 48.315-.33 2.877 7.51 8.988 5.25 12.98-2.27 4-6.96 22.497-9.54 24.23-6.97 4.69-32.2 2.366-37.98-2.948-10.49-.895-24.65-3.16-27.51-11.926z"/>
      <path stroke="#58402C" stroke-width=".96" d="M70.058 142.507c13.694 1.297 22.26 13.712 23.52 26.397m-14.946-9.087c4.083 5.84 7.945 9.965 14.637 12.37m25.14 23.278c-.52.183.64 1.486 1.27 2.946.92 2.12 1.53 4.6.78 4.87-1.22.43-2.17-.7-3.17-1.51m-21.36-23.53v2.22-.14zm-54.59-37.69c-3.25 0-6.54-.55-9.74 0-12.88 2.22-17.54 16.03-19.19 26.77m0 0c6.26 0 11.5-6.03 15.72-9.65"/>
      <path fill="#BAEDBC" d="M7.492 188.032c-10.93 16.207 28.362 10.98 6.597-1.23"/>
      <path fill="#FFE0C5" d="M9.8 175.796c-1.75-3.945-3.32-7.99-5.647-11.616-9.99-15.574.904 18.086 3.084 22.1l.047-.103c5.09 8.374 5.616 3.392 4.066-6.972 0 0-1.266-3.06-1.55-3.41z"/>
      <path stroke="#58402C" stroke-width=".96" d="M11.806 167.26c-1.084 3.146-1.265 3.94-2.35 7.085"/>
      <path stroke="#FFAF6C" stroke-width=".96" d="M11.02 178.017c-2.088-4.332-3.665-8.95-6.262-12.997-9.234-14.392.834 16.714 2.85 20.423m-.338-.73c5.06 8.612 5.608 4.02 4.138-5.808"/>
      <path stroke="#6CBB85" stroke-width=".96" d="M8.585 190.415c0 3.93 1.01 5.8 3.146 5.37 1.63-.328-.56-4.392 1.03-4.852 4.44-1.283 2.07 13.708 3.21-2.164"/>
      <path stroke="#58402C" stroke-width=".96" d="M4.526 179.422c-.84 4.02-.344-.368 1.557.53.816.386-.552 4.33 2.053 1.34m41.627-75.118c0 11.92 22.3 18.3 28.51 3.54m-27.91-23.437c-1.032-2.4-1.51-6.2 1.273-7.798 2.784-1.6 7.556-1.41 8.258 2.32.54 2.88-1.98 6.2-3.87 7.29-1.89 1.08-4.63.58-5.66-1.82zm23.993 4.07c-.886-2.694.04-5.72 1.674-7.312 1.51-1.472 6.49-1.585 8.252 1.1 1.06 1.613.633 4.72-.45 6.683-1.082 1.962-1.987 2.4-4.495 2.275-2.507-.124-4.094-.05-4.98-2.745z"/>
      <ellipse cx="79.695" cy="90.669" fill="#AFB8D3" rx="2.399" ry="2.396"/>
      <ellipse cx="54.391" cy="85.825" fill="#AFB8D3" rx="2.399" ry="2.396"/>
      <path stroke="#58402C" stroke-width=".96" d="M41.984 141.613c.508 6.76 1.4 11.29 2.945 17.892 5.57 23.79 20.22-9.707 25.03-16.784"/>
      <path fill="#AFB8D3" d="M58.94 135.956c-2.433-2.567-4.678-10.073-7.302-7.7-3.85 3.48-4.043 11.083-1.327 15.504 1.62 2.63 4.47-5.438 7.56-5.365 2.07.05 6.1 7.673 6.1 7.673 1.32-1.176 5.22-4.774 5.72-6.47 2.54-8.637 1.79-7.874-5.8-5.52l-4.94 1.878z"/>
      <path stroke="#58402C" stroke-width=".96" d="M58.117 136.033c-2.243-2.364-4.31-9.28-6.728-7.093-3.55 3.206-3.73 10.21-1.23 14.282 1.49 2.424 4.11-5.01 6.96-4.942 1.9.045 5.62 7.07 5.62 7.07 1.21-1.085 4.81-4.4 5.26-5.962 2.34-7.957 1.65-7.254-5.35-5.084l-4.55 1.73zm-2.884-74.316c-.87-7.016-1.16-14.128-2.608-21.048-3.292-15.72-13.53-1.87-12.722 7.96.504 6.11 5.326 13.08 8.21 18.07m38.29-8.75c2.328-4.25 4.614-19 10.123-20.73 6.933-2.18 9.398 3 5.692 10.42-2.133 4.27-9.593 14.32-12.47 18.13"/>
    </g>
    <path fill="#FFF" stroke="#58402C" stroke-width=".96" d="M149.236 146.74c-9.236 0-20.622 4.494-30.05 5.97-22.09 3.46-45.026 6.88-67.3 5.23-8.554-.634-20.663-4.345-33.452-2.22-4.966.826-15.118.57-17.615 4.644-.23.36.66.564.88 1.077.6 1.45 1.57 3.44 1.65 3.6 1.04 1.9.92 1.74 1.53 3.94.62 2.26.55 4.78 1.13 7.05 1.17 4.57 3.51 8.66 4.1 13.42 1.37 11.07.52 22.47 1.74 33.56.09.85 1.09 1.15 1.72 1.36 2.13.71 4.28-1.34 6.41-.62 3.08 1.04 5.78-.06 8.32 0 5.26.13 9.72-1.01 15.7-.73.94.05 11.01-.02 14.1 0 9.66.06 19.39.71 29.04 1.36 4.97.33 9.14.55 14.07 0 9.49-1.06 17.29-1.79 25.97-3.63 2.45-.52 5.65-.68 8.14-1.5 3.08-1.01 1.12.83 3.96 2.29 4 2.06 5.73 1.5 9.92 1.5l13.34-2.27v-8.19s-.94-6.88 0-19.15c.3-3.87-.11-10.28 0-14.33.21-7.79-1-15.06-1.43-21.11-.34-4.76 1.38-7.15 0-9.19-.43-.63-.7-1.8-1.04-2.03-1.47-.97-2.78.02-4.09 0-3.26-.05-6.22 0-6.22 0l-.57.02z"/>
    <g stroke="#58402C" stroke-width=".96">
      <path d="M10.297 165.545l4.02 19.375m-3.695-19.02c6.518.073 15.192-3.35 17.63-.985 2.44 2.365 3.635 18.704 3.635 18.704s-6.376.68-8.947.8c-3.103.14-4.972-.15-8.074 0m18.094-18.87c1.257-.05 2.958.04 4.214 0 2.21-.09 5.382-.69 7.57-.78 2.543-.11.165.84 2.607.78 1.93-.05 4.07-.65 6.43-.78 2.85-.16 4.47-1.1 7.52-1.2 4.53-.16 10.45.53 14.08.4m15.29-3.84c1.26-.05 2.96.04 4.22 0 2.21-.09 3.27-.69 5.46-.78 2.55-.11 3.01-1.22 5.67-1.22s3.1.13 5.46 0m-20.8 6.79c1.26-.05 3.47-1.24 4.73-1.29 2.21-.08 3.26.09 5.44 0 2.55-.1 3.18-.62 5.84-.62 2.66 0 1.97-.55 4.33-.68m-20.33 7.38c1.26-.05 2.96.04 4.21 0 2.21-.08 3.82-1.25 6.01-1.34 2.54-.1 3.04-.77 5.7-.77s2.17-.44 4.53-.58m-20.45 7.47c1.26-.05 3.88-.74 5.13-.78 2.21-.08 4.74-.78 6.93-.87 2.55-.11 2.26 0 4.92 0s1.25-.88 3.61-1.01m-20.55 8.1c1.26-.05 2.91-.6 4.17-.64 2.21-.08 5.38-.69 7.57-.78 2.54-.1 1.45 0 4.11 0s2.16-1.06 4.52-1.19m-20.41 6.77c1.26-.05 2.96.05 4.22 0 2.21-.08 5.38-.69 7.57-.78 2.54-.1 1.45 0 4.11 0s2.28-1.05 4.64-1.18m-19.82 6.75c1.26-.05 2.24.04 3.5 0 .125-.01 1.89-.78 1.89-.78s3.49.86 5.55.78c2.55-.11 1.58-.78 4.24-.78s2.54-.5 4.9-.63m-20.79 6.2c1.26-.05 2.96.04 4.22 0 2.21-.08 3.01.09 5.196 0 2.54-.11 5.11 0 7.77 0 2.66 0 1.27-.65 3.63-.78m-20.82 5.57c1.23-.05 2.967-1.61 4.215-1.65.03 0 2.38 1.65 2.41 1.65 2.21-.09 2.97-.69 5.16-.78 2.54-.11 2.346-.87 5.007-.87 2.66 0 1.66 1 4.027.87m-20.82 5.57c1.26-.05 3.865-1.69 5.12-1.74 2.21-.09 4.477 1.04 6.665.95 2.54-.11 2.446-.96 5.107-.96 2.66 0 1.56 1.09 3.92.95m-20.816 5.58c1.26-.05 3.255-1.33 4.51-1.38 2.21-.09 5.087.68 7.275.59 2.54-.11 1.45 0 4.11 0s2.56.13 4.92 0m-20.81 5.57c1.255-.05 3.713-.74 4.97-.78 2.21-.09 4.623.09 6.81 0 2.54-.11 1.66-1.47 4.32-1.47s2.35 1.6 4.71 1.47m5.55-55.54c1.25-.04 2.953.05 4.21 0 2.21-.08 3.86-.93 6.05-1.02 2.54-.1 2.78-1.04 5.44-1.04s2.46.132 4.82 0m-20.53 6.852c1.256-.05 2.88-.736 4.138-.78 2.21-.08 2.85.09 5.04 0 2.544-.106 3.56 0 6.22 0 2.664 0 2.82-1.488 5.18-1.62m-20.58 7.19c1.256-.048 4.15-.735 5.41-.78 2.21-.08 4.184.09 6.373 0 2.546-.1 2.01-.878 4.67-.878s2.01 1.01 4.37.88m-20.82 5.58c1.256-.05 3.716-.74 4.97-.78 2.21-.088 4.62.09 6.81 0 2.544-.11 1.45 0 4.11 0s1.787-.69 4.147-.83M117 175.7c1.257-.045 3.93-.73 5.184-.78 2.21-.08 4.41.09 6.6 0 2.55-.1 1.45 0 4.11 0s2.31-.92 4.67-1.055m-20.56 6.63c1.255-.05 3.884-.736 5.14-.78 2.21-.08 4.453.09 6.64 0 2.54-.106 1.45 0 4.11 0s2.56.13 4.92 0M117 185.285c1.256-.05 3.847-1.39 5.103-1.435 2.21-.08 4.49.75 6.68.66 2.54-.1 2.33-.65 4.99-.65s1.68.79 4.04.656M117 190.09c1.257-.045 3.786-.73 5.04-.78 2.21-.08 4.555.09 6.744 0 2.542-.1 1.652-.78 4.313-.78 2.664 0 2.358.917 4.718.783m-20.812 5.57c1.257-.047 3.91-.733 5.168-.78 2.21-.08 4.43.09 6.62 0 2.55-.103 1.81-.91 4.47-.91s2.21 1.044 4.57.91m-20.81 5.57c1.26-.044 3.34-.73 4.6-.78 2.21-.08 5 .09 7.19 0 2.55-.1 1.85-.652 4.51-.652 2.66 0 2.16.79 4.52.66m-20.81 5.57c1.26-.04 3.6-.73 4.86-.78 2.21-.08 4.74.09 6.93 0 2.54-.1 2.29-.89 4.95-.89s1.72 1.02 4.08.89m-20.81 5.58c1.26-.04 3.62-1.38 4.88-1.42 2.21-.08 4.72.74 6.91.65 2.54-.1 1.45 0 4.11 0s2.15-.51 4.52-.65m-20.4 6.22c1.258-.04 3.62-1.38 4.88-1.43 2.21-.08 4.72.74 6.91.65 2.544-.1 1.45 0 4.11 0s2.154-.51 4.515-.65m4.756-58.47c1.26-.04 3.54.63 4.793.59 2.21-.08 4.81-1.28 6.99-1.36 2.55-.1-.37 0 2.29 0s-3.49.13-1.13 0m-12.94 5.57c.61-.02 1.32.69 2.04.7.76.01 1.53-.67 2.18-.7 2.21-.08 5.38-.69 7.57-.77 2.54-.1-.36.78 2.3.78m-14.09 4.79c1.26-.04 3.54-.73 4.794-.78 2.21-.08 3.035.09 5.224 0 2.54-.1 1.73.38 4.39.38m-14.41 5.19c1.253-.04 3.53-.73 4.79-.78 2.21-.08 3.176.09 5.364 0 2.54-.1 1.863.38 4.524.38m-14.04 4.42c1.26-.04 2.31.83 3.57.78 2.21-.08 2.448-.69 4.637-.78 2.54-.1 2.75 0 5.41 0m-14.26 5.57c.78-.02 1.3-1.36 2.21-1.34.56.01 1.526 1.37 2 1.35 2.21-.08 2.24-.69 4.43-.78 2.54-.1 3.59 0 6.25 0m-14.89 5.57c1.26-.05 3.538-.73 4.79-.78 2.21-.08 4.807.09 6.99 0 2.548-.1.04 0 2.7 0m-14.48 5.58c1.26-.05 3.54-.73 4.798-.78 2.21-.08 2.42.09 4.61 0 2.54-.1 2.215 0 4.875 0m-14.28 5.57c.67-.02 1.927-.79 2.87-.78.82.01 1.34.8 1.926.78 2.21-.08 2.507-.69 4.695-.78 2.54-.1 2.31 0 4.97 0m-14.46 5.57c1.26-.04 1.97-1.47 4.79 0 .66.34 3.64-.69 5.83-.78 2.546-.1 1.26 0 3.92 0m-14.55 5.56c1.252-.04 1.87.33 4.21 0 1.722-.24 3.66-.69 5.85-.78 2.54-.1 2.11 0 4.77 0m-14.836 5.57c1.253-.05 3.532-.73 4.79-.78 2.21-.08 3.193.09 5.382 0 2.55-.1 1.79 0 4.45 0m-14.63 5.57c1.26-.04 3.54-.73 4.79-.78 2.21-.08 3.56.09 5.75 0 2.54-.1.91.38 3.57.38M34.1 170.03c1.37-.054 2.83.056 4.2 0 2.105-.083 4.307-.717 6.407-.81 2.34-.1 5.6.44 7.93.38 3.35-.097 7.065-1.01 10.215-1.21 4.12-.26 7.663.18 12.078 0m-40.83 6.43c1.37-.05 2.83.06 4.202 0 2.105-.08 2.37-.34 4.47-.43 2.34-.1 7.54.067 9.866 0 3.36-.09 10.33.2 13.48 0 2.06-.13 1.57-2.665 3.51-2.61 1.96.055 3.1 1.5 5.31 1.41m-40.83 6.43c1.37-.056 2.4-.757 3.77-.81 2.11-.086 4.75.09 6.85 0 1.39-.063 3.103-.96 4.754-.828 1.13.09 5.77.85 6.716.823 3.353-.09 3.527-.626 6.677-.825 2.08-.133 4 .77 5.97.825 1.94.056 3.92-.737 6.11-.825m-40.86 6.43c1.37-.057 2.83.053 4.203 0 2.104-.087 4.306-.72 6.406-.81 2.34-.106 5.6.44 7.93.374 3.35-.093 7.066-1.005 10.216-1.205 4.12-.26 7.664.18 12.08 0m-59.73 8.26c2.007-.06 4.896-1.59 6.902-1.64 3.08-.09 5.55.92 8.624.82 1.907-.06 3.964.25 6.237.37 1.81.11 3.855.03 5.364 0 3.06-.05 5.165-1.63 8.31-1.95 1.89-.19 4.9.83 6.63.75 3.63-.15 7.047-1.67 10.528-1.61 2.298.04 4.57 1.68 7.14 1.61M15.2 195.82c2.003-.05 4.143.06 6.15 0 3.08-.08 6.3-.72 9.375-.81 3.423-.1 8.193.44 11.6.38 4.904-.09 10.335-1 14.943-1.2 6.024-.26 11.21.18 17.665 0m-58.814 5.99c2-.05 3.22 1.7 5.23 1.64 3.08-.08 6.47-1.54 9.54-1.64 3.43-.1 8.02 1.27 11.43 1.21 1.79-.03 4.88-2.01 6.74-2.19 3.25-.31 5.28 1.12 8.2.99 3.24-.14 7.1-1.04 10.17-.98 2.66.05 4.51 1.07 7.5.985m-59.74 7.62c2.01-.054 2.62-1.58 4.63-1.636 1.99-.05 2.55.94 5.04 1.21 1.35.14 7.87-1.17 8.96-1.21 3.42-.11 9.58 1.27 12.98 1.2 4.9-.1 12.29-1.61 16.9-1.81 6.02-.26 4.76.78 11.22.6M15.2 213.8c2.005-.06 5.43-.38 7.44-.44 3.08-.082 5.01-.283 8.084-.375 3.42-.103 9.92.064 13.327 0 4.91-.09 12.72 1.91 17.33 1.71 6.02-.26 7.09-2.36 13.55-2.537" stroke-linecap="round"/>
      <path d="M20.1 167.83c.998-.19 5.153.125 6.604 2.525 1.54 2.547.324 7.23-.676 8.518-1.883 2.425-9.35 2.17-10.855-.633-1.505-2.802.868-9.646 4.926-10.41z"/>
      <path d="M17.437 172.512s.6-.672 1.204-.873c.6-.2 1.21.87 1.21.87m2.39 0s.27-.8.87-1c.6-.2 1.54.99 1.54.99m2.59 2.86s-2.07 2.9-6.27 2.9c-4.2 0-5.86-3.7-5.86-3.7" stroke-linecap="round"/>
    </g>
    <path stroke="#58402C" stroke-width=".96" d="M149.236 146.74c-9.236 0-20.622 4.494-30.05 5.97-22.09 3.46-45.026 6.88-67.3 5.23-8.554-.634-20.663-4.345-33.452-2.22-4.966.826-15.118.57-17.615 4.644-.23.36.66.564.88 1.077.6 1.45 1.57 3.44 1.65 3.6 1.04 1.9.92 1.74 1.53 3.94.62 2.26.55 4.78 1.13 7.05 1.17 4.57 3.51 8.66 4.1 13.42 1.37 11.07.52 22.47 1.74 33.56.09.85 1.09 1.15 1.72 1.36 2.13.71 4.28-1.34 6.41-.62 3.08 1.04 5.78-.06 8.32 0 5.26.13 9.72-1.01 15.7-.73.94.05 11.01-.02 14.1 0 9.66.06 19.39.71 29.04 1.36 4.97.33 9.14.55 14.07 0 9.49-1.06 17.29-1.79 25.97-3.63 2.45-.52 5.65-.68 8.14-1.5 3.08-1.01 1.12.83 3.96 2.29 4 2.06 5.73 1.5 9.92 1.5l13.34-2.27v-8.19s-.94-6.88 0-19.15c.3-3.87-.11-10.28 0-14.33.21-7.79-1-15.06-1.43-21.11-.34-4.76 1.38-7.15 0-9.19-.43-.63-.7-1.8-1.04-2.03-1.47-.97-2.78.02-4.09 0-3.26-.05-6.22 0-6.22 0l-.57.02z"/>
    <path stroke="#58402C" stroke-width=".96" d="M163.167 183.99c-.517.184.638 1.486 1.277 2.946.925 2.112 1.53 4.597.783 4.86-1.217.432-2.172-.7-3.17-1.506"/>
    <path stroke="#58402C" stroke-width=".96" d="M161.5 187.488c3.643 2.996-1.39-1.547-1.476.898-.04 1.153 2.666 1.14 2.58 2.29-.068.916-3.086-1.173-3.628-.432-.566.772 2.405 2.05 1.864 2.842-.444.65-1.414-.675-2.12-1.013m-148.078 5.765c4.696-.46-2.075-.112-.407 1.677.786.844 2.69-1.08 3.444-.204.59.7-3.02 1.36-2.88 2.26.14.95 3.15-.25 3.33.69.14.78-1.48.53-2.22.79"/>
    <path fill="#DEDAD7" d="M55.002 157.987c-5.768 0-8.758 2.332-15.08 1.694-3.886-.39-7.434.84-11.94-1.34-4.508-2.17-9.893-2.51-3.48-2.76 6.414-.25 23.194 2.42 23.194 2.42"/>
    <path stroke="#58402C" stroke-width=".96" d="M55.002 157.987c-5.768 0-8.758 2.332-15.08 1.694-3.886-.39-7.434.84-11.94-1.34-4.508-2.17-7.843-2.63-7.843-2.63" stroke-linecap="round"/>
    <path stroke="#58402C" stroke-width=".96" d="M86.686 157.17c-.045 2.678.06 6.56 0 9.41-.167 7.94-.722 15.83-.567 23.09.12 5.873-.37 10.673-.4 14.544-.07 10.38.39 17.96.39 17.96"/>
    <path fill="#B49982" d="M171.313 236.817c3.464-.384-5.008-16.05-5.008-16.05s-24.162-.065-64.574.517c-7.8.112-14.77.576-22.88.717-33.89.6-67.85 1-67.85 1s-3.19 4.86-4.51 7.68C5.8 232.19 4.96 236 4.96 236H29s100.01 5.51 142.313.82z"/>
    <path stroke="#58402C" stroke-width=".6" d="M170.158 237.28s-2.003-14.84-4.178-15.984c-2.175-1.142-10.44-.43-16.69-.46-27.907-.135-50.254 1.613-54.158 1.603-17.363-.05-18.267-.66-83.023.67-1.84.04-1.57 2.72-2.64 4.34-1.04 1.55-2.61 5.14-4.23 9.19"/>
  </g>
</svg>
