<svg xmlns="http://www.w3.org/2000/svg" width="110" height="26" viewBox="0 0 110 26">
  <style>
    .style0{ fill: none; fill-rule: evenodd; } .style1{ fill: #4E3D1E; }
  </style>
  <g id="Page-1" class="style0">
    <g id="Blog-Post" class="style1">
      <g id="Header-Copy">
        <g id="logo">
          <path id="Mask-Copy-38" d="M23.2 6.5c-.1-.3-.3-.5-.4-.7-1.9-2.6-4.9-4.7-9-4.9-.3 0-.5-.1-.8-.1-.3 0-.5.1-.8.1-3.5.2-6.3 1.8-8.2 3.9-1.1 1.3-2 2.8-2.5 4.4-.4 1-.6 2.1-.6 3 .6 2.7 4.5 9 12.1 9s11.6-6.3 12.1-9c0-1.8-.6-3.9-1.9-5.7zm1.9 7.8c-.7 6.1-5.8 10.9-12.1 10.9S1.6 20.4.9 14.3C3 18.9 7.6 22 13 22c5.4 0 10-3.1 12.1-7.7zM13 26c7.2 0 13-5.8 13-13S20.2 0 13 0 0 5.8 0 13s5.8 13 13 13zM5.5 9.2c0-.2.1-.4.3-.5 0 0 .7-.4 2.3-.4 1.5 0 2.4.4 2.4.4.2.1.3.3.2.5-.1.2-.3.3-.5.3 0 0-.7-.3-2.1-.3-1.5 0-2.1.3-2.1.3-.2.1-.4-.1-.5-.3zm9.9 0c-.1-.2 0-.4.2-.5 0 0 .8-.4 2.3-.4 1.6 0 2.5.4 2.5.4.2.1.3.3.2.5-.1.2-.3.3-.5.3 0 0-.7-.3-2.2-.3-1.4 0-2 .3-2 .3-.2.1-.4-.1-.5-.3z"/>
          <path id="Teambit-Copy-5" d="M44.4 7.2c0 .2-.1.4-.4.4h-3.9v12.9c0 .3-.1.4-.4.4h-.9c-.3 0-.5-.1-.5-.4V7.6h-3.8c-.3 0-.4-.2-.4-.4v-.9c0-.3.1-.4.4-.4H44c.3 0 .4.1.4.4v.9zm9.8 7.5c.1.3 0 .6-.1.9-.2.2-.4.4-.9.4h-6.5c0 .6.1 1.2.2 1.7.1.4.3.8.5 1.1.3.3.6.5 1 .6.4.1.8.1 1.3.1h.8c.3 0 .6 0 .9-.1h.8c.3-.1.6-.1.7-.1.2-.1.3 0 .4 0 .1 0 .1.1.2.3l.1.5c0 .2-.1.3-.3.4-.2.1-.5.2-.8.3-.3 0-.6.1-.9.1-.4.1-.7.1-1 .2h-1c-1 0-1.9-.1-2.5-.5-.6-.3-1.1-.7-1.4-1.2-.3-.6-.5-1.2-.6-1.9-.1-.7-.2-1.4-.2-2.1 0-.5.1-1.1.1-1.8.1-.7.3-1.3.7-1.9.3-.6.8-1 1.4-1.4.6-.4 1.4-.6 2.5-.6 1 0 1.8.1 2.4.4.6.3 1 .7 1.4 1.1.3.5.5 1 .6 1.6.1.6.2 1.3.2 1.9zm-1.8-.2c0-.4-.1-.8-.1-1.1-.1-.4-.2-.8-.4-1.1-.2-.3-.5-.6-.9-.8-.4-.2-.8-.3-1.5-.3-.5 0-.9.1-1.2.3-.4.1-.7.3-.9.6-.2.3-.4.7-.5 1.1-.1.4-.1.8-.2 1.3h5.7zm11.2 5.2c-.6.3-1.2.6-1.9.9-.7.3-1.5.5-2.5.5-1.1 0-1.9-.3-2.4-.8-.4-.5-.7-1.3-.7-2.3 0-1.3.4-2.3 1-2.9.7-.6 1.8-.9 3.3-.9h3.2v-.8c0-.8-.2-1.4-.6-1.7-.4-.3-1.1-.5-2.1-.5h-.7c-.3 0-.6 0-.9.1h-.8c-.3.1-.6.1-.9.1-.2.1-.4 0-.4-.2l-.1-.6c-.1-.1-.1-.2 0-.2 0-.1.1-.2.3-.3.2 0 .5-.1.8-.2.4 0 .7-.1 1.1-.1.3-.1.7-.1 1-.1h.9c1 0 1.7.1 2.2.3.6.2 1 .4 1.3.8.3.3.5.8.5 1.3.1.4.1 1 .1 1.6v5c0 .2.1.4.1.5 0 .1 0 .2.1.3 0 0 .1.1.2.1s.3.1.5.1.4.1.4.3v.5c0 .1-.1.2-.1.3-.1.1-.2.1-.4.1-.3.1-.5.1-.8.1-.5 0-.9-.1-1.2-.3-.2-.2-.4-.5-.5-1zm0-4.1h-3.4c-.7 0-1.3.2-1.7.5-.4.3-.6.9-.6 1.8 0 .6.1 1.1.4 1.3.2.2.7.3 1.4.3.3 0 .6 0 .9-.1.4-.1.7-.2 1.1-.3.3-.1.7-.3 1-.4.3-.2.6-.3.9-.5v-2.6zm20.7 4.9c0 .3-.2.4-.4.4h-1c-.2 0-.4-.1-.4-.4v-6.8c0-.4 0-.8-.1-1.2 0-.3-.1-.5-.2-.7-.2-.2-.4-.4-.6-.4-.2-.1-.5-.2-.9-.2-.2 0-.5.1-.9.2-.3.1-.6.2-1 .3-.3.2-.6.3-.9.5-.4.1-.6.2-.8.3v8c0 .3-.1.4-.4.4h-1c-.2 0-.3-.1-.3-.4v-6.9c0-.8-.1-1.3-.3-1.8-.3-.4-.7-.6-1.4-.6-.3 0-.6.1-.9.2-.3 0-.6.1-.9.3-.4.1-.7.2-1 .4-.4.1-.6.3-.9.4v8c0 .3-.1.4-.4.4h-1c-.2 0-.3-.1-.3-.4V10.3c0-.3.1-.4.3-.4h1c.3 0 .4.1.4.4v.8c.3-.2.5-.3.8-.5.3-.1.6-.3.9-.4.3-.2.7-.3 1-.4.4-.1.8-.1 1.1-.1.9 0 1.5.1 2 .4.5.3.8.7 1 1.2.6-.4 1.2-.8 1.9-1.1.7-.4 1.5-.5 2.3-.5.7 0 1.3.1 1.7.3.4.2.8.4 1 .8.2.3.4.8.5 1.3 0 .5.1 1 .1 1.6v6.8zm12-5.2c0 1 0 1.8-.2 2.5-.1.7-.4 1.3-.8 1.8-.3.5-.8.9-1.4 1.1-.6.3-1.4.4-2.3.4h-1.1c-.4 0-.8-.1-1.2-.1-.4-.1-.7-.1-1.1-.2-.3-.1-.6-.1-.9-.2-.2-.1-.4-.2-.4-.4-.1-.2-.1-.4-.1-.5V5.4c0-.2 0-.3.1-.3 0-.1.1-.1.3-.1h.9c.2 0 .3 0 .4.1 0 0 .1.2.1.3v5c.7-.3 1.3-.5 1.8-.6.6-.1 1-.1 1.5-.1.8 0 1.6.1 2.2.4.6.2 1 .6 1.3 1.1.4.5.6 1.1.7 1.8.2.7.2 1.5.2 2.3zm-1.8.2c0-.8-.1-1.4-.1-2-.1-.5-.3-1-.5-1.3-.2-.3-.4-.6-.8-.7-.3-.2-.7-.3-1.1-.3-.5 0-1.1.1-1.7.2-.5 0-1.1.2-1.7.3v7.6c.4 0 .9.1 1.4.1.5.1 1 .1 1.5.1s.9-.1 1.3-.1c.3-.1.6-.3.9-.6.2-.3.4-.7.6-1.2.1-.5.2-1.2.2-2.1zm6.4-8.5c0 .2 0 .5-.2.7-.1.2-.3.3-.8.3-.4 0-.7-.1-.8-.3-.1-.2-.2-.5-.2-.7 0-.3.1-.6.2-.7.2-.2.4-.3.8-.3s.7.1.8.3c.2.1.2.4.2.7zm-.1 13.5c0 .3-.1.4-.4.4h-.9c-.3 0-.5-.1-.5-.4V10.3c0-.2.1-.3.1-.3.1-.1.2-.1.4-.1h.9c.3 0 .4.1.4.4v10.2zm9.2-.3c0 .2-.1.4-.2.4-.2.1-.3.2-.6.2-.2.1-.4.1-.7.2-.2 0-.5 0-.7.1h-.6c-.5 0-.9-.1-1.2-.2-.4-.1-.6-.3-.8-.5-.2-.2-.3-.4-.4-.7-.1-.3-.1-.6-.1-1v-7.4h-1.3c-.2 0-.4-.1-.4-.4v-.6c0-.3.2-.4.4-.4h1.3V7.5c0-.2 0-.3.1-.3.1-.1.2-.1.3-.2l.9-.2c.3-.1.4 0 .4.3v2.8h2.6c.1 0 .3 0 .3.1s.1.2.1.3v.6c0 .2-.1.3-.1.3 0 .1-.2.1-.3.1h-2.6v6.9c0 .2 0 .5.1.6 0 .2.1.3.2.4.1.1.3.2.5.3h1.5c.3 0 .5-.1.7-.1.2 0 .3 0 .4.1 0 0 .1.1.1.2l.1.5z"/>
        </g>
      </g>
    </g>
  </g>
</svg>
