<svg xmlns="http://www.w3.org/2000/svg" id="svg2" width="26" height="26" viewBox="0 0 26 26">
  <style id="style4">
    .style0{ fill: none; fill-rule: evenodd; } .style1{ fill: #4E3D1E; }
  </style>
  <g id="Page-1" fill="none" fill-rule="evenodd" class="style0">
    <g id="Blog-Post" fill="#4e3d1e" class="style1">
      <g id="Header-Copy">
        <g id="logo">
          <path id="Mask-Copy-38" d="M23.2 6.5c-.1-.3-.3-.5-.4-.7-1.9-2.6-4.9-4.7-9-4.9-.3 0-.5-.1-.8-.1-.3 0-.5.1-.8.1-3.5.2-6.3 1.8-8.2 3.9-1.1 1.3-2 2.8-2.5 4.4-.4 1-.6 2.1-.6 3 .6 2.7 4.5 9 12.1 9s11.6-6.3 12.1-9c0-1.8-.6-3.9-1.9-5.7zm1.9 7.8c-.7 6.1-5.8 10.9-12.1 10.9S1.6 20.4.9 14.3C3 18.9 7.6 22 13 22c5.4 0 10-3.1 12.1-7.7zM13 26c7.2 0 13-5.8 13-13S20.2 0 13 0 0 5.8 0 13s5.8 13 13 13zM5.5 9.2c0-.2.1-.4.3-.5 0 0 .7-.4 2.3-.4 1.5 0 2.4.4 2.4.4.2.1.3.3.2.5-.1.2-.3.3-.5.3 0 0-.7-.3-2.1-.3-1.5 0-2.1.3-2.1.3-.2.1-.4-.1-.5-.3zm9.9 0c-.1-.2 0-.4.2-.5 0 0 .8-.4 2.3-.4 1.6 0 2.5.4 2.5.4.2.1.3.3.2.5-.1.2-.3.3-.5.3 0 0-.7-.3-2.2-.3-1.4 0-2 .3-2 .3-.2.1-.4-.1-.5-.3z"/>
        </g>
      </g>
    </g>
  </g>
  <g id="g4150" fill="#4e3d1e" fill-rule="evenodd" class="style1">
    <g id="g4152">
      <g id="g4154">
        <path id="path4156" d="M23.2 6.5c-.1-.3-.3-.5-.4-.7-1.9-2.6-4.9-4.7-9-4.9-.3 0-.5-.1-.8-.1-.3 0-.5.1-.8.1-3.5.2-6.3 1.8-8.2 3.9-1.1 1.3-2 2.8-2.5 4.4-.4 1-.6 2.1-.6 3 .6 2.7 4.5 9 12.1 9s11.6-6.3 12.1-9c0-1.8-.6-3.9-1.9-5.7zm1.9 7.8c-.7 6.1-5.8 10.9-12.1 10.9S1.6 20.4.9 14.3C3 18.9 7.6 22 13 22c5.4 0 10-3.1 12.1-7.7zM13 26c7.2 0 13-5.8 13-13S20.2 0 13 0 0 5.8 0 13s5.8 13 13 13zM5.5 9.2c0-.2.1-.4.3-.5 0 0 .7-.4 2.3-.4 1.5 0 2.4.4 2.4.4.2.1.3.3.2.5-.1.2-.3.3-.5.3 0 0-.7-.3-2.1-.3-1.5 0-2.1.3-2.1.3-.2.1-.4-.1-.5-.3zm9.9 0c-.1-.2 0-.4.2-.5 0 0 .8-.4 2.3-.4 1.6 0 2.5.4 2.5.4.2.1.3.3.2.5-.1.2-.3.3-.5.3 0 0-.7-.3-2.2-.3-1.4 0-2 .3-2 .3-.2.1-.4-.1-.5-.3z"/>
      </g>
    </g>
  </g>
</svg>
