<svg xmlns="http://www.w3.org/2000/svg" width="176" height="26" viewBox="0 0 176 26">
  <g fill="none" fill-rule="evenodd">
    <path fill="#4E3D1E" d="M23.242 6.456c-.15-.23-.305-.458-.468-.678-1.9-2.578-4.916-4.654-8.954-4.903-.27-.018-.545-.027-.82-.027-.26 0-.515.008-.77.024-3.576.204-6.336 1.827-8.24 3.974-1.125 1.242-1.997 2.718-2.534 4.346-.354 1.038-.552 2.072-.59 3.034.608 2.7 4.492 8.97 12.134 8.97s11.564-6.265 12.144-8.97c-.044-1.8-.69-3.883-1.902-5.77zm1.844 7.823C24.446 20.39 19.28 25.15 13 25.15 6.72 25.152 1.553 20.39.914 14.28 3.01 18.86 7.634 22.042 13 22.042c5.367 0 9.99-3.183 12.086-7.764zM13 26c7.18 0 13-5.82 13-13S20.18 0 13 0 0 5.82 0 13s5.82 13 13 13zM5.522 9.24c-.072-.202.03-.437.23-.513 0 0 .73-.39 2.302-.39 1.573 0 2.432.4 2.432.4.2.076.295.307.215.504-.08.21-.31.31-.52.25 0 0-.67-.3-2.12-.3s-2.04.3-2.04.3c-.2.07-.42-.04-.49-.24zm9.89 0c-.07-.202.032-.437.233-.513 0 0 .728-.39 2.3-.39 1.574 0 2.432.4 2.432.4.202.076.295.307.215.504-.083.21-.314.31-.525.25 0 0-.67-.3-2.12-.3-1.454 0-2.042.3-2.042.3-.2.07-.422-.04-.492-.24z"/>
    <path fill="#30488F" d="M128.696 13.34c0 1.06-.088 2.052-.264 2.98-.177.927-.495 1.74-.955 2.438-.46.697-1.09 1.245-1.886 1.644-.79.4-1.81.598-3.05.598h-4.3c-.18 0-.31-.03-.38-.092-.07-.06-.1-.16-.1-.3V6.143c0-.245.14-.368.42-.368h4.37c1.23 0 2.24.195 3.04.587.8.392 1.43.928 1.89 1.61.46.683.78 1.484.97 2.404.19.92.28 1.91.28 2.967zm-1.886.185c0-1.288-.12-2.33-.356-3.128-.238-.797-.556-1.418-.955-1.863-.4-.445-.86-.744-1.37-.897-.52-.153-1.05-.23-1.6-.23h-2.99v11.937h2.83c.52 0 1.04-.065 1.56-.196.52-.13.99-.398 1.42-.805.43-.406.78-.992 1.04-1.76.27-.766.4-1.785.4-3.058zm6.946-6.716c0 .29-.057.53-.173.73-.115.2-.387.3-.816.3-.445 0-.72-.11-.828-.31-.11-.21-.17-.45-.17-.73 0-.29.06-.53.19-.72.13-.19.39-.28.79-.28.41 0 .68.09.8.26s.18.42.18.72zm-.138 13.8c0 .26-.123.39-.368.39h-.943c-.276 0-.414-.13-.414-.39V10.19c0-.17.035-.276.103-.322.07-.046.173-.07.31-.07h.944c.245 0 .368.13.368.392v10.42zm7.544-11.04c.353 0 .72.01 1.104.04.383.03.76.07 1.127.11.368.04.72.1 1.058.17.34.07.65.14.92.22.27.07.43.2.49.39.06.18.09.36.09.53v10.01c0 .61-.04 1.17-.14 1.69-.09.51-.29.96-.6 1.33-.3.37-.75.66-1.33.87-.58.2-1.36.31-2.34.31-.29 0-.6-.01-.94-.03-.34-.02-.67-.04-1-.08-.33-.04-.65-.09-.96-.16-.31-.07-.59-.16-.84-.27-.15-.06-.24-.14-.26-.22-.02-.09-.02-.18.01-.27l.09-.51c.03-.14.09-.22.19-.25.09-.03.22-.03.39 0 .49.08 1.04.13 1.64.16.6.03 1.14.05 1.61.05.54 0 .98-.04 1.33-.13.35-.09.62-.22.83-.4.21-.19.35-.42.44-.7.09-.29.13-.63.13-1.03v-.92c-.7.26-1.32.44-1.85.54-.53.1-1 .15-1.41.15-.89 0-1.62-.14-2.19-.4-.575-.27-1.03-.66-1.37-1.17-.335-.51-.57-1.11-.7-1.82s-.195-1.5-.195-2.37c0-.94.076-1.77.23-2.5.15-.72.413-1.34.78-1.85.365-.5.85-.89 1.46-1.15.603-.26 1.36-.39 2.263-.39zm-2.898 5.68c0 .81.046 1.49.138 2.04.092.55.24 1 .45 1.35.206.35.47.6.792.76.322.15.72.23 1.196.23.43 0 .943-.05 1.54-.14.6-.09 1.19-.22 1.772-.39v-7.66c-.445-.06-.924-.12-1.438-.17-.513-.06-1.015-.08-1.506-.08-.414 0-.8.04-1.16.14-.362.09-.676.28-.945.56-.268.28-.475.69-.62 1.22-.146.53-.22 1.24-.22 2.12zm19.182-.6c.015.37-.042.68-.172.93-.13.25-.41.38-.84.38h-6.486c.015.69.077 1.27.184 1.73.107.46.284.84.53 1.12.244.28.555.48.93.59.376.11.832.17 1.37.17.23 0 .49-.01.78-.04l.875-.07c.29-.02.57-.05.84-.08.268-.03.502-.06.7-.09.154-.02.273-.01.357.02.085.03.142.12.173.28l.092.5c.04.21-.04.36-.26.46-.22.09-.48.17-.78.25-.31.08-.63.14-.97.19-.34.05-.68.09-1.01.13-.34.03-.65.04-.92.04-1.06 0-1.9-.16-2.52-.49-.62-.33-1.09-.76-1.42-1.3-.32-.54-.54-1.16-.64-1.85-.1-.7-.15-1.42-.15-2.15 0-.56.04-1.17.14-1.86.09-.68.29-1.32.62-1.91.32-.59.79-1.08 1.4-1.48.61-.4 1.45-.597 2.5-.597.98 0 1.77.144 2.37.435.59.29 1.06.676 1.39 1.15.33.476.55 1.02.66 1.634.11.61.18 1.23.22 1.86zm-1.863-.14c0-.4-.035-.8-.103-1.21-.07-.41-.204-.77-.403-1.1-.2-.32-.483-.59-.85-.78-.37-.2-.86-.3-1.473-.3-.506 0-.93.08-1.276.24-.346.16-.625.39-.84.68-.215.29-.376.64-.483 1.06-.107.41-.176.88-.207 1.4h5.635zm11.822 3.26c0 .64-.12 1.18-.357 1.61-.237.43-.56.77-.965 1.04-.407.27-.867.46-1.38.57-.514.11-1.047.17-1.6.17-.29 0-.597-.01-.92-.03-.32-.02-.64-.05-.953-.09-.315-.05-.614-.11-.897-.18-.284-.07-.533-.15-.748-.24-.2-.1-.284-.26-.253-.49l.092-.49c.03-.16.088-.25.172-.28.085-.03.196-.04.334-.03.23.03.494.06.793.09.3.03.598.06.897.08.3.02.583.04.85.06.27.01.504.02.703.02.86 0 1.476-.14 1.85-.408.377-.267.565-.69.565-1.275 0-.338-.03-.618-.092-.84-.06-.22-.176-.4-.345-.54-.16-.14-.39-.246-.69-.32-.29-.08-.66-.156-1.12-.23-.52-.08-1.02-.18-1.5-.3s-.91-.3-1.27-.53c-.36-.23-.66-.53-.88-.898-.22-.37-.33-.85-.33-1.45 0-1.07.36-1.89 1.08-2.45.72-.56 1.71-.84 2.95-.84.23 0 .49.01.78.02.29.02.6.04.91.08.32.04.63.09.93.16.31.07.59.15.83.24.22.11.29.27.23.485l-.09.55c-.03.12-.09.2-.19.23s-.23.034-.4.02l-1.49-.15c-.52-.055-1.02-.08-1.52-.08-.86 0-1.44.13-1.75.39-.3.26-.46.69-.46 1.29 0 .29.04.52.12.69.08.166.21.304.38.41.18.103.42.19.73.26s.69.14 1.15.22c.51.073 1 .17 1.47.284.48.113.9.293 1.26.54.36.243.65.57.87.97.22.4.327.92.327 1.58zm8.44 2.5c.016.2-.053.34-.206.43-.14.07-.32.14-.54.19-.23.05-.46.1-.72.13-.26.04-.5.07-.74.09-.24.02-.44.03-.61.03-.49 0-.9-.06-1.22-.18-.32-.12-.58-.28-.76-.5-.19-.22-.32-.47-.39-.77-.08-.3-.12-.64-.12-1v-7.5h-1.27c-.26 0-.39-.13-.39-.39v-.64c0-.28.13-.42.39-.42h1.29V7.31c0-.14.03-.24.1-.3s.16-.107.29-.138l.92-.253c.26-.08.39.03.39.34V9.8h2.55c.17 0 .27.033.32.102.04.07.07.165.07.288v.667c0 .138-.03.238-.07.3-.05.06-.15.09-.32.09h-2.56v6.97c0 .276.02.498.06.667.04.17.12.307.24.414.12.107.29.18.49.22.21.037.48.056.84.056.12 0 .33-.01.63-.035l.7-.06c.18-.02.3-.01.37.03.06.04.1.12.13.24l.09.53z"/>
    <path fill="#4E3D1E" d="M44.403 7.167c0 .256-.138.384-.414.384h-3.88v12.98c0 .26-.13.39-.37.39h-.99c-.28 0-.42-.13-.42-.38V7.55h-3.84c-.28 0-.42-.127-.42-.383v-.882c0-.24.13-.36.39-.36H44c.26 0 .39.12.39.36v.882zm9.837 7.506c.016.362-.042.667-.172.916-.13.24-.41.37-.84.37H46.73c.016.68.077 1.24.184 1.7.108.46.285.83.53 1.1.246.28.557.47.933.59.377.11.834.17 1.37.17.23 0 .493-.01.784-.04l.88-.07c.29-.03.57-.05.84-.08s.51-.06.71-.09c.16-.02.28-.01.36.02.09.03.15.12.18.27l.1.49c.05.21-.04.36-.25.45-.22.09-.48.17-.78.25-.31.07-.63.14-.97.19-.33.05-.67.09-1.01.12-.34.03-.64.04-.92.04-1.06 0-1.9-.16-2.52-.49-.62-.33-1.09-.75-1.41-1.28-.32-.53-.53-1.14-.63-1.82-.1-.69-.15-1.39-.15-2.12 0-.54.05-1.15.14-1.82.1-.67.3-1.29.63-1.87.32-.58.79-1.07 1.407-1.46.614-.39 1.45-.59 2.51-.59.984 0 1.775.14 2.374.43.6.28 1.066.66 1.396 1.13.33.46.55 1 .67 1.6.11.6.183 1.21.213 1.83zm-1.866-.135c0-.392-.034-.788-.103-1.187-.06-.4-.2-.75-.4-1.07-.2-.31-.48-.57-.85-.77-.37-.19-.86-.29-1.47-.29-.5 0-.93.08-1.28.24-.34.16-.62.38-.84.67-.21.29-.37.64-.48 1.04-.1.41-.17.87-.2 1.38h5.65zm11.196 5.155c-.568.33-1.2.648-1.9.95-.7.3-1.51.45-2.43.45-1.122 0-1.92-.262-2.396-.79-.477-.528-.715-1.304-.715-2.33 0-1.28.33-2.233.99-2.86.66-.624 1.76-.937 3.29-.937h3.18v-.77c0-.828-.2-1.4-.59-1.717-.39-.32-1.1-.48-2.11-.48-.22 0-.46 0-.73.01-.27.01-.55.02-.84.04l-.88.06c-.29.02-.56.05-.81.08-.26.04-.42-.03-.46-.21l-.14-.59c-.03-.11-.02-.2.03-.27.05-.08.16-.16.33-.23.23-.08.5-.15.83-.21.32-.06.66-.11 1.01-.15.35-.04.7-.07 1.05-.08.34-.02.65-.02.93-.02.92 0 1.65.09 2.2.29.54.19.96.46 1.24.81.28.35.46.77.54 1.27.08.5.11 1.05.11 1.65v5c0 .22.01.4.03.52s.06.21.11.27c.05.06.13.1.24.12.1.02.25.04.44.06.26.01.39.11.39.29v.56c0 .1-.03.19-.09.26-.07.06-.19.11-.37.14-.28.04-.55.07-.81.07-.54 0-.94-.1-1.19-.3-.26-.2-.42-.53-.5-1.02h-.05zm.024-4.093h-3.387c-.706 0-1.267.16-1.682.475-.414.317-.622.927-.622 1.83 0 .635.127 1.064.38 1.29.254.226.718.34 1.394.34.292 0 .61-.038.956-.114.346-.07.695-.17 1.048-.3.36-.13.7-.26 1.03-.42.33-.15.63-.3.89-.45V15.6zm20.687 4.93c0 .255-.13.383-.39.383h-.96c-.26 0-.39-.128-.39-.384v-6.81c0-.47-.02-.86-.08-1.18-.05-.32-.15-.58-.28-.77-.14-.2-.32-.34-.55-.42-.23-.09-.52-.13-.87-.13-.28 0-.58.05-.91.14-.33.09-.66.21-1 .35-.33.13-.66.28-.96.43-.31.15-.56.28-.76.38.02.09.03.24.04.45.01.21.01.46.01.77v6.76c0 .25-.13.38-.39.38h-1.02c-.23 0-.34-.13-.34-.39l.02-6.97c0-.74-.12-1.31-.35-1.72-.23-.41-.7-.61-1.41-.61-.26 0-.54.04-.85.12-.31.09-.62.19-.95.32-.33.13-.66.27-.98.42-.32.15-.612.29-.873.43v8c0 .26-.13.38-.394.38h-.97c-.25 0-.37-.13-.37-.39v-10.2c0-.26.12-.39.37-.39h.94c.28 0 .42.13.42.38v.79h.02l.77-.45c.286-.16.59-.32.92-.46.33-.14.675-.26 1.028-.35.35-.09.71-.13 1.08-.13.85 0 1.5.14 1.97.42.47.28.8.68 1 1.21.6-.41 1.25-.78 1.95-1.12.7-.34 1.44-.51 2.227-.51.72 0 1.3.1 1.74.3.44.2.77.47 1 .83.23.36.384.78.46 1.28.08.5.12 1.05.12 1.65v6.81zm12.05-5.2c0 .934-.07 1.76-.22 2.475-.14.716-.4 1.32-.76 1.808-.36.49-.84.863-1.45 1.12-.6.256-1.37.384-2.29.384-.35 0-.72-.01-1.11-.034-.39-.023-.78-.056-1.16-.102-.38-.04-.74-.1-1.08-.16-.33-.07-.63-.14-.9-.24-.26-.09-.42-.22-.47-.39-.05-.17-.08-.34-.08-.51V5.41c0-.17.03-.28.08-.33.05-.054.16-.08.31-.08h.97c.17 0 .28.03.34.09s.08.166.08.316v4.907l.03.05c.69-.25 1.31-.43 1.85-.53.54-.1 1.02-.15 1.43-.15.89 0 1.63.13 2.21.4.59.265 1.04.646 1.37 1.14.33.5.56 1.095.7 1.788.13.7.2 1.47.2 2.33zm-1.84.202c0-.783-.04-1.45-.12-2s-.22-.995-.42-1.334c-.2-.34-.46-.584-.78-.735-.32-.15-.72-.226-1.19-.226-.49 0-1.03.04-1.61.124-.58.09-1.16.21-1.75.38v7.53c.45.08.93.13 1.44.17.52.04 1.02.06 1.51.06.45 0 .85-.04 1.22-.12.37-.08.68-.26.94-.54.25-.28.45-.68.59-1.2.14-.52.21-1.21.21-2.09zm6.43-8.568c0 .286-.06.527-.17.723-.11.196-.38.294-.81.294-.44 0-.72-.1-.83-.3-.1-.2-.16-.44-.16-.71 0-.28.07-.52.2-.7.13-.18.4-.27.8-.27.42 0 .68.09.81.26.13.18.19.41.19.72zm-.14 13.565c0 .25-.12.38-.37.38h-.94c-.27 0-.41-.13-.41-.39V10.28c0-.166.04-.27.11-.316.07-.046.17-.068.31-.068h.95c.25 0 .37.127.37.383v10.25zm9.22-.32c.02.19-.05.34-.2.43-.14.07-.32.14-.54.19-.22.05-.46.1-.71.13-.25.03-.5.06-.73.09-.23.02-.44.03-.61.03-.49 0-.9-.06-1.22-.17-.32-.11-.57-.28-.76-.49-.18-.21-.31-.47-.39-.76-.07-.3-.11-.62-.11-.98v-7.37h-1.27c-.26 0-.39-.13-.39-.39v-.63c0-.27.13-.41.39-.41h1.29V7.46c0-.135.04-.233.11-.293.07-.06.16-.105.28-.136l.92-.24c.26-.07.39.04.39.34v2.78H109c.17 0 .272.04.32.1.045.07.07.17.07.29v.66c0 .14-.025.24-.07.3-.048.06-.155.09-.324.09h-2.56v6.85c0 .27.02.49.057.66.04.17.12.31.24.41.122.11.29.18.495.22.206.04.486.06.84.06.12 0 .334-.01.63-.03.3-.02.535-.04.7-.05.18-.01.308 0 .37.04s.11.12.14.24l.09.52z"/>
  </g>
</svg>
