<svg xmlns="http://www.w3.org/2000/svg" viewBox="0 0 761 873">
  <g fill="none" fill-rule="evenodd">
    <path fill="#FFE7D2" d="M381.623 838.42c-5.65-.353-8.546 5.496-11.475 9.304-.067.086-.11.172-.16.257-9.935 3.14-20.785 3.13-30.382-1.33-2.13-.99-4.463-5.27-7.342-4.48-1.487.41-2.195 1.69-2.65 3.09-3.206-1.12-6.316-.56-8.586 2.78-.704 1.04-.236 2.67.85 3.25.666.35 1.257.72 1.803 1.11-2.54.43-4.71 1.69-6.01 4.54-1.4 3.07.7 6.92 4 7.6 7.05 1.44 13.98 2.8 21.13 3.68 8.25 1.02 17.76 1.87 26.08 1.67 3.29-.08 13.76 1.08 15.54-2.69 2.82-5.97 3.52-15.82 3.89-22.4.27-4.72-2.32-6.06-6.67-6.33M481.78 852c-2.86-.837-5.51-1.35-8.71-1.034-1.128.11-2.07.872-3.25.69-1.458-.227-4.615-3.754-6.118-3.243-3.428 1.165-4.8 3.546-8.18 4.83-7.003 2.668-9.33-.49-10.33-5.9-.997-5.382-6.097-7.71-11.06-6.76-.525.1-.912.33-1.19.626-1.3-.19-2.752.56-2.728 2.26.074 5.13-1.167 16.29 3.306 20.2 5.29 4.62 12.51 5.1 19.197 6.08 6.598.96 34.906 6.17 34.614-6.94-.11-5-.91-9.45-5.55-10.81m38.66-585.48c-.97-3.62-2.09-7.17-3.61-10.44-2.45-5.27-6.79-9.19-12.83-9.6-14.73-.99-22.86 12.25-29.56 23.31-9.44 15.57-18.36 30.71-29.84 44.92-4.7 5.82-9.3 11.72-13.29 18.06-4.38 6.96-6.96 14.54-9.59 22.27-2.84 8.37-7.13 16.64-16.18 19.38-9.72 2.94-15.18-8.05-17.8-15.28-5.98-16.49-10.78-33.31-17.28-49.64-6.5-16.34-13.86-32.34-21.88-47.99-6.22-12.14-12.18-28.93-26.53-33.15-19.83-5.84-35.11 13.16-45.09 27.09-1.41 1.97 1.31 4.45 3.25 3.24 4.69-2.93 8.91-6.53 13.63-9.41 6.91-4.21 14.29-3.3 21.09.48 11.75 6.53 17.81 20.55 22.56 32.41 4.5 11.22 8.35 22.66 14.69 33.04 3.4 5.57 7.47 10.72 11.08 16.15 3.97 5.98 6.47 12.27 8.46 19.13 1.58 5.45 4.11 10.13 6.68 15.16 4.05 7.91-5.45 13.5-9.55 19.88-7.08 11.03-6.81 25.93-10.22 38.44-3.35 12.29-3.01 23.77.03 36.05 3.21 12.96 8.22 25.47 7.11 39.01-.4.56-.53 1.3-.41 2.05.27 1.76.46 3.52.62 5.3.1 1.15.82 2.13 1.95 2.33.23.19.51.36.85.46 7.79 2.47 15.57 4.93 23.36 7.4 8.03 2.54 16 5.61 24.5 5.94 6.46.25 12.67-2.9 18.21-5.83 5.22-2.77 10.71-5.88 12.64-11.88 1.9-5.9 1.52-12.03 1.67-18.14.23-9.33 2.57-18.25 5.57-27.03 5.14-15.06 1.24-26.59-2.55-42.73-1.78-7.59-5.18-16.55-9.09-23.29-4.99-8.61-10.32-13.48-7.05-23.61 2.59-8.01 7.54-15.64 11.37-23.12l12.6-24.61c6.73-13.13 13.77-26.22 23.52-37.39 4.74-5.43 10.26-10.1 16.4-13.86 4.37-2.68 9.27-4.2 14.38-3.14.53.11 1.02.29 1.5.51 1.18 4.16 2.34 8.32 3.52 12.48.56 1.98 3.28 2.33 4.33.56 3.53-5.92 1.29-11.5-3.12-14.99"/>
    <path fill="#34A853" d="M454.523 558.038c-.13-3.888-1.227-7.414-2.878-10.9-2.76-5.824-5.054-11.1-5.838-17.565-.784-6.468 2.893-22.35-3.004-22.35-16.627 0-9.43 22.766-12.43 34.454-8.252.293-23.507 2.082-31.767 2.047-4.34-.02-8.68-.08-13.017-.25-6.75-.266-8.36-7.483-9.99-12.727-2.61-8.358-1.72-16.76-3.2-25.183-.88-5.008-6.34-7.136-10.54-5.066-1.2.59-1.42 1.702-1.05 2.656-.06.177-.11.365-.13.57-4.14 38.417-6.06 81.225-3.94 119.73 2.15 39.213 4.78 77.95 7.11 117.154 1.13 19.11 3.6 30.084 4.74 49.194.53 8.98 2.72 22.39 3.25 31.372.39 6.587-1.59 17.107 3.87 21.625 2.37 1.96 2.7-27.1 11.56 3.94.77 2.71 2.37-2.18 2.68-4.98.6-5.4 1.18-10.8 1.74-16.21 2.02-19.3 3.76-38.62 5.29-57.96 1.53-19.34 2.79-38.7 3.84-58.07.5-9.3.93-18.6 1.32-27.91.22-5.36 1.52-10.5 7.86-11.07 1.72-.16 2.83 13.21 3.07 14.86 5.72 38.98 5.97 73.09 7.38 112.51.33 9.3 2.75 24.62 5.07 32.94 1.64 5.86-.66 11.45 6.7 12.47 15.27 2.13 13.61-19.9 13.92-28.97 1.33-38.91 6.65-77.55 8-116.46.81-23.4.72-46.81.64-70.22-.09-23.2.44-46.49-.33-69.67"/>
    <path fill="#EB4335" d="M420.806 554.492c-2.91-2.706-7.054-1.532-10.465-.395-1.53.513-2.77-.79-4.37-.79-1.76 0-3.18.828-4.41 2.01-2.73 2.616-2.03 7.835-1.93 11.218.1 3.448 4.21 4.254 6.09 2.423 6.37-.288 6.99-.48 11.08-1.05.69.04 2.42-1.554 3.06-.113.02.045.82-.173.86-.192 1.39-.604 1.94-1.018 1.52-2.38l-.03-.11c-.02-.08-.06-.158-.09-.238.08-.606.37-1.594.42-1.952.06-.404.02-.775-.07-1.116.27-2.64.15-5.667-1.62-7.315"/>
    <path fill="#FFF" d="M412.344 392.822c-.173-2.18-.383-5.48-3.018-6.203-1.728-.48-3.75.95-5.318 1.38-2.864.79-2.956 5.23-3.362 7.41-1.615 8.68-2.368 19.66 1.124 27.99.19.45.478.79.812 1.04.278.81.99 1.43 2.14 1.33 7.473-.67 6.597-11.7 7.283-17.31.637-5.22.753-10.43.34-15.66m-18.215 30.81c-.794-4.33-7.756-5.82-11.2-6.02-5.07-.29-9.862 2.67-13.375 6.02-1.9 1.81.295 4.52 2.354 3.93.17.17.37.33.63.45 5.16 2.51 23.55 6.3 21.59-4.39m46.46 2.7c-7.39-8.36-17.16-5.19-25.33.05-2.48 1.59-.34 5.46 2.14 4.22.11.06.22.13.35.18 7.72 3.1 13.71 3.13 20.95-1.71 1.32-.89 2.94-1.56 1.89-2.75"/>
    <path stroke="#000" stroke-width="2" d="M395.698 426.198c-2.033-3.813-5.347-7.14-9.522-8.25-3.24-.862-6.76-.316-9.79 1.122-3.028 1.438-5.598 3.72-7.738 6.3 5.09 1.322 7.967 5.22 12.73 5.926 4.762.705 11.06-1.555 14.32-5.098m45.952.617c-2.347-2.485-4.91-4.92-8.107-6.125-4.937-1.86-10.595-.435-15.13 2.262-1.81 1.075-3.533 2.38-4.724 4.115.96 1.888 2.97 3.644 4.81 4.683 1.69.95 4.56 1.796 6.5 1.788 4.1-.014 5.99-.16 9.14-2.113 4.8-2.986 4.11-3.07 7.5-4.61z" stroke-linecap="round" stroke-linejoin="round"/>
    <path stroke="#000" stroke-width="2" d="M363.906 500.488c-.175-8.64 1.118-12.713-2.54-20.542-12.1-25.894-11.712-27.74-2.69-54.1 2.57-7.508 1.685-9.027 4.108-16.584 2.42-7.556 2.933-11.45 8.29-18.84.67-.926 5.728-5.85 5.195-7.6-.25-.788-.74-1.475-1.32-2.053-8.36-8.25-13.87-18.86-19.25-29.28-11.69-22.64-20.7-43.99-32.39-66.63-3.37-6.52-8.27-22.75-13.7-27.67-5.44-4.93-9.45-6.26-15.7-2.13-6.57 4.33-9.71 9.71-17.83 11.44 2.6-10.19 2.16-11.72 9.35-19.4 7.49-8.01 17.28-15.94 28.14-14.39 11.06 1.58 18.2 12.19 23.9 21.8 14.7 24.76 29.45 49.61 40.79 76.08 6.86 16 12.67 29.15 17.86 45.52 5.25 1.36 18.69 4.05 22.82.53 2.27-1.94 2.03-8.11 3.06-10.91 15.47-42.35 39.21-79.11 69.36-112.63 3.78-4.21 8.86-8.77 14.81-5.03 1.2.75 2.24 1.76 3.12 2.88 7.49 9.54 12.39 21.1 14.07 33.12-7.51-.63-6.76-15.3-15.37-14.77-1.84.11-3.57.97-4.88 2.27-28.37 28.13-32.96 72.35-57.48 103.57-2.63 3.34-5.62 6.91-5.59 11.16.02 2.6 1.2 5.03 2.27 7.4 7.98 17.66 9.83 25.14 12.67 42.88 3.15 19.7 2.48 23.8-4.26 41.54-3.16 8.31-5.2 9-6.71 21.01-.3 2.32-.99 3.56-1.19 7.2" stroke-linecap="round" stroke-linejoin="round"/>
    <path stroke="#000" stroke-width="2" d="M432.62 420.477c.024-.224-.32-.177-.53-.09-1.478.62-2.785 2.227-3.166 3.786-.38 1.56-.36 3.177-.12 4.765.278 1.85 1.182 3.186 2.943 3.405m-44.753-13.893c-1.41.444-2.545 1.573-3.183 2.906-.6 1.254-.79 2.674-.72 4.065.06 1.13.58 2.86 1.11 3.85.45.84.87 1.65 1.79 1.9m47.05-58.94c2.05-2.87 4.1-5.75 5.73-8.87 1.75-3.34 3-6.92 4.51-10.38 1.7-3.88 3.73-7.62 5.75-11.34l21.25-39.11c2.46-4.53 4.92-9.05 7.57-13.47 6.78-11.29 15.57-22.41 28.05-26.62 1.46-.49 3.03-.88 4.53-.55 2.31.51 3.92 2.57 5.14 4.59 1.64 2.71 2.97 5.61 3.94 8.63M277.93 261c5.1-5.846 11.32-10.698 18.23-14.21 5.17-2.63 11.6-4.446 16.58-1.47 2.298 1.37 3.945 3.583 5.47 5.782 10.56 15.22 18.2 32.24 25.68 49.183 10.685 24.214 21.28 48.718 36.607 70.296m74.83 179.84c-.425-3.75-1.123-5.43-4.53-7.06-.834-.39-1.768-.62-2.466-1.23-1.09-.94-1.32-2.53-1.46-3.97-1.05-10.55-1.53-21.15-1.43-31.76-3.5.6-6.98 1.28-10.45 2.02-.58.13-1.2.27-1.63.69-.65.63-.66 2.51-.65 3.41.16 9.15-.37 17.46-1.54 26.54-.16 1.27-.42 2.67-1.44 3.43-.63.46-1.43.6-2.2.72l-10.18 1.6c-7.27 1.14-14.64 2.29-21.96 1.55-4.18-.42-8.3-1.47-12.17-3.08-.72-.3-1.45-.63-2-1.19-.72-.73-1.02-1.77-1.3-2.76-2.66-9.63-4.56-19.48-5.69-29.41-.29-2.57-.83-5.12-1.8-7.52-.2-.49-.46-.96-.87-1.28-.55-.41-1.28-.49-1.97-.53-3.28-.2-6.58.09-9.77.85 1.05 14.11 1.05 27.74.45 41.88-.04 1.06-.11 2.17-.66 3.08-.39.65-.99 1.13-1.47 1.72-1.94 2.37-1.13 5.79-1.03 8.86.37 11.66 1.77 17.61 2.13 27.6.42 11.89 1.5 25.23 2.49 34.62 2.12 20.04-.83 53.11.88 73.18 1.03 12.03 2.57 24.01 4.1 35.99 1.41 11 1.72 24.1 2.06 35.22.14 4.38.59 11.52 1 15.89.37 3.81.75 8.16.96 11.12 1.42 20.04 2.68 24.15 5.13 48.84.09.82.55 1.6 1.13 2.18.96.96 2.45 1.08 3.81 1.15l10.53.5c1.03.05 1.92-.71 2.03-1.74 3.04-30.02 5.43-61.81 7.46-92.44.41-6.15.51-12.32.77-18.48.83-19.88 2.27-39.8 3.99-60.28.06-.74.54-1.4 1.24-1.66 1.7-.63 3.45-1.11 5.23-1.42 1.15-.21 2.22.66 2.29 1.82.58 10.17.62 13.78 1.43 25.22 1.45 20.51 2.84 30.85 3.91 54 1.07 23.42 2.62 46.82 4.64 70.17.51 5.93 1.95 11.04 3.38 19.82.22 1.36 1.34 2.4 2.71 2.5l.03.01 13.01 1c1.02.08 1.93-.64 2.08-1.65 2.58-17.41 2.61-35.68 4.34-53.17 2.16-21.81 2.14-43.62 2.97-67.45.35-9.84.77-14.85 1.19-24.69.32-7.37.89-13.08.99-17.38.18-7.26.69-17.86.2-25.09-.86-12.37 3.29-38.85 2.44-51.21-1.21-15.92-.45-34.88-2.23-50.68zm-47.083-164.3c.02.67.397 1.31.967 1.66.4-1.14 1.16-2.17 2.13-2.9 1.43 2.38 1.96 5.17 2.31 7.92 1.09 8.65.51 17.5-1.71 25.93-.41 1.56-.94 3.2-2.21 4.18-1.15.89-2.74 2.84-4.19 2.98-1.3.13-2.69-1.56-3.71-2.37-1.03-.82-1.54-4.66-1.7-5.96-.47-3.95-.56-5.52-.8-9.49-.46-7.6-.23-15.99 4.76-21.74.49 1.12 1.22 2.14 2.12 2.97.25-1.26 1.01-2.42 2.06-3.16z" stroke-linecap="round" stroke-linejoin="round"/>
    <path fill="#FFAAA6" d="M369.84 435.39c-1.142-1.53-2.868-2.008-4.725-2.254-1.8-.24-3.803.653-4.752 2.182-1.113 1.793.39 4.136 1.478 5.517 2.04 2.578 8.21 3.926 10.04.356 1.34-2.59.01-4.56-2.04-5.8m81.55-3.52c-1.23-1.47-2.92-1.42-4.48-.78-.23.04-.47.11-.72.23-2.07 1.03-5.53 3.54-4.59 6.31.45 1.33 1.58 2.54 3.1 2.47 1.4-.06 2.57-.68 3.73-1.41 2.12-1.33 5.12-4.23 2.98-6.8"/>
    <path stroke="#000" stroke-width="2" d="M389.3 843.23c-1.637 6.59-2.675 12.738-3.34 19.627-.13 1.35-.572 3.368-1.557 4.298-.604.57-2.255 2.09-3.038 2.37-5.844 2.097-10.913 2.25-17.117 1.997-6.203-.254-12.758-.318-18.963-.552-5.75-.217-11.186-.604-17.86-2.726-2.537-.806-4.773-1.455-6.722-3.267-.85-.788-1.533-1.813-1.682-2.962-.1-.83.07-1.677.37-2.46 1.31-3.37 5.59-3.933 8.88-2.45-1.51-.622-3.79-2.25-5.3-2.87-.84-.346-1.11-1.38-1.38-2.252-.24-.746.11-1.555.57-2.186 2.11-2.88 6.93-3.157 9.35-.54-.36-1.276-.66-2.844.3-3.765.78-.754 2.09-.666 3.04-.14.95.523 1.66 1.388 2.42 2.154 1.35 1.34 2.96 2.424 4.74 3.1 1.93.735 4.01.977 6.07 1.213 5.73.65 10.77 2.41 16.47 1.53 1.36-.21 3.44-.72 4.64-1.39 1.22-.68 2.77-2.43 3.67-3.49 1.58-1.87 2.41-4.11 3.44-6.32m53.52-.86l.25 10.39c.06 2.2.11 4.41.3 6.61.13 1.55.34 3.13 1.04 4.51.99 1.94 2.86 3.29 4.8 4.27 5.32 2.67 11.46 3.02 17.41 3.33l13.75.7c3.87.2 7.8.39 11.57-.52 3.77-.91 7.41-3.09 9.17-6.54.61-1.2.98-2.62.5-3.87-.22-.6-.61-1.11-1.03-1.59-1.86-2.13-4.44-3.77-7.26-3.95-2.82-.18-5.82 1.35-6.85 3.99-.03-.62.12-1.25.42-1.79" stroke-linecap="round" stroke-linejoin="round"/>
    <path stroke="#000" stroke-width="2" d="M480.373 854.17c-.69-1.78-2.215-3.22-4.035-3.806-.583-.188-1.19-.292-1.797-.377-1.23-.173-2.5-.268-3.72.026-1.21.294-2.37 1.03-2.91 2.153-.03.07-.08.155-.16.15-.08-.006-.05-.17.01-.122m-.05-1.07c.31-.522-.55-.95-1.15-.913-2.64.17-4.97 1.7-7.25 3.07-2.27 1.37-4.83 2.66-7.45 2.26-2.33-.35-4.28-2.02-5.61-3.97-1.79-2.63-2.65-5.88-2.38-9.06" stroke-linecap="round" stroke-linejoin="round"/>
    <path stroke="#231F1F" stroke-width="2" d="M374.224 507.3c15.355 13.447 40.436 14.824 58.437 5.2" stroke-linecap="round" stroke-linejoin="round"/>
    <path stroke="#000" stroke-width="2" d="M408.95 600.664c-3.448-3.142-7.402-5.728-11.664-7.627-1.108-7.454-1.713-14.982-1.81-22.518 8.98-1.12 17.994-1.97 27.024-2.57.416 7.54.334 15.12-.246 22.65-4.117 2.64-7.727 6.07-10.575 10.05-.23.31-.47.64-.82.77-.68.26-1.38-.28-1.91-.77zm-39.462-52.758c-.363.045-.716.173-1.024.37-1.49.96-1.255 3.632.382 4.315 1.127.48 2.574-.06 3.125-1.15.55-1.09.13-2.57-.92-3.2-.46-.28-1.02-.39-1.55-.33zm72.572-2.106c-1.226-.83-2.916-.627-4.225.064-.32.17-.636.372-.853.663-.248.333-.348.755-.373 1.17-.1 1.537.88 3.1 2.33 3.623 1.45.524 3.24-.086 4.01-1.42.77-1.33.37-3.237-.9-4.1z" stroke-linecap="round" stroke-linejoin="round"/>
    <path fill="#000" d="M393.877 423.235c-.707-.594-1.382-1.226-1.932-1.97-.64-.87-1.57-1.397-2.677-1.09-.023.005-.044.017-.066.024-.62-1.43-2.454-2.29-3.734-.79-1.304 1.53-2.06 3.17-2.166 5.19-.096 1.83.922 4.17 2.54 5.12 2.713 1.61 6.077.02 7.242-2.62.282-.11.55-.29.793-.53.853-.86.99-2.52 0-3.35"/>
    <path stroke="#000" d="M393.877 423.235c-.707-.594-1.382-1.226-1.932-1.97-.64-.87-1.57-1.397-2.677-1.09-.023.005-.044.017-.066.024-.62-1.43-2.454-2.29-3.734-.79-1.304 1.53-2.06 3.17-2.166 5.19-.096 1.83.922 4.17 2.54 5.12 2.713 1.61 6.077.02 7.242-2.62.282-.11.55-.29.793-.53.853-.86.99-2.52 0-3.35z"/>
    <path fill="#000" d="M439.613 424.29c-1.216-.974-2.425-1.678-3.87-2.26-.455-.183-.965-.134-1.43.05-.846-1.85-3.963-2.247-4.402.204-.38 2.122-.62 4.257-.7 6.412-.03.94-.18 2.096.32 2.943.49.82 1.7.75 2.69.63 2-.26 2.49-1.15 3.99-2.4.76-.63 2.05-.87 2.38-1.67 1.54-.55 2.58-2.69 1.05-3.92"/>
    <path stroke="#000" d="M439.613 424.29c-1.216-.974-2.425-1.678-3.87-2.26-.455-.183-.965-.134-1.43.05-.846-1.85-3.963-2.247-4.402.204-.38 2.122-.62 4.257-.7 6.412-.03.94-.18 2.096.32 2.943.49.82 1.7.75 2.69.63 2-.26 2.49-1.15 3.99-2.4.76-.63 2.05-.87 2.38-1.67 1.54-.55 2.58-2.69 1.05-3.92z"/>
    <path stroke="#000" stroke-width="2" d="M405.43 438.848c.716-.97 1.545-2.017 2.83-2.316.375-.087.8-.097 1.128.085.237.133.396.352.486.584.267.69-.02 1.44-.365 2.1-.77 1.48-1.84 2.83-3.14 3.99-.86.77-2.33.64-2.98-.26-1.28-1.8-2.38-3.71-2.56-5.8-.02-.2 0 0 .14-.56.04-.17.55-.41.73-.42.68-.01 1.03.02 1.66.25.49.18 1.08.83 1.48 1.14.4.32.67.79.56 1.24z" stroke-linecap="round" stroke-linejoin="round"/>
    <path fill="#000" d="M409.54 437.395c-.57-.842-1.985-1.244-2.97-.674-.57.34-1.062.75-1.51 1.21-.25-.25-.5-.51-.73-.79-.69-.83-1.74-1.19-2.835-.64-.947.48-1.098 1.8-.405 2.63.734.88 1.502 1.59 1.69 2.7.108.63.857 1.16 1.517 1.32 1.015.24 1.863-.17 2.45-.86.636-.74 1.268-1.49 1.898-2.24l.116-.06c.98-.57 1.41-1.64.78-2.57"/>
    <path stroke="#000" d="M409.54 437.395c-.57-.842-1.985-1.244-2.97-.674-.57.34-1.062.75-1.51 1.21-.25-.25-.5-.51-.73-.79-.69-.83-1.74-1.19-2.835-.64-.947.48-1.098 1.8-.405 2.63.734.88 1.502 1.59 1.69 2.7.108.63.857 1.16 1.517 1.32 1.015.24 1.863-.17 2.45-.86.636-.74 1.268-1.49 1.898-2.24l.116-.06c.98-.57 1.41-1.64.78-2.57z"/>
    <path stroke="#FFF" stroke-width="2" d="M389.864 423.62c-.077-.144-.324-.074-.383.08-.05.152.01.322.07.473.34 0 .52-.51.27-.726l.15.45m45.99.567c-.05.37.24.895.56.697.26-.17.2-.64-.09-.74" stroke-linecap="round" stroke-linejoin="round"/>
    <path stroke="#FFF" d="M371.633 483.018l.15 4.15m3.573-5.044l.337 4.647m-1.78 2.72c-.044.8-.01 1.59.1 2.38m2.067-2.32c.02.99.043 1.98.066 2.97m1.52-4.44l.08 2.03m.397-7.06c.052.9.14 1.78.263 2.67m2.227 4.55c.043.87.1 1.75.168 2.62m1.26-3.65c.08 1 .07 2.01-.05 3.01m28.54 12.84c.04 1.36.19 2.72.46 4.06m1.53-4.46c-.02 1.3.11 2.59.39 3.86m1.39-4.25c-.01 1 .12 2.01.39 2.97m-4.1-8.4c.04.83.16 1.66.37 2.47m1.77-2.96c-.01.73.05 1.46.17 2.18m2.4-6.13v4.25m1 2.08c-.06.9.06 1.82.34 2.68m1.17-7.13l.09 3.46m1.07 4.45v2.47m19.26-7.7v1.68m1.88-2.77v1.48m-1.04-7.41l-.09 2.27m3.44-35.16c-.26 1.34-.45 2.69-.55 4.05m2.5-4.05c.09 1.26-.04 2.54-.39 3.76m1.98-.19l-.32 2.27m-2.91 1.08l-.12 1.98m-3.24-6.33c-.05.82-.06 1.65-.03 2.47m1.48-9.97v1.29m-69.93-8.3c-.05 1.52-.03 3.04.07 4.55m2.1-7.51c.05.86.02 1.72-.09 2.57m2.38-2.57c-.04 1.12-.08 2.24-.11 3.36m-1.14 3.65c-.07 1.16-.03 2.32.12 3.47m2.82-8.9c.03 1.32 0 2.64-.1 3.95m-7.9-45.34l-.82 4.05m3-4.24c-.02 1-.13 1.99-.31 2.97m20.84-22.52c-.44 1.82-.74 3.67-.9 5.53m3.15-5.73c-.28 1.08-.5 2.17-.65 3.27m-.1 4.25c.02.82-.01 1.65-.11 2.46m2.08-5.23c.11.82.14 1.65.1 2.47m35.92 18.39c.48 1.42.87 2.87 1.17 4.34m2.2-3.86l.96 3.24m-3.62-6.3l.98 1.88m1.28-4.84c.11.87.32 1.74.62 2.56m2.26 3.56c.31.99.48 2.02.51 3.06m-.76-7.71l.85 3.37M428 379.79c.44 1.37.99 2.7 1.64 3.99m.355-4.98l1.44 3.83m.68-4.73c.34.93.616 1.88.83 2.85m-1.02 6.034l.62 1.67m1.19-2.96c.35.513.62 1.08.81 1.67M377.2 351.41c.32.92.72 1.81 1.19 2.67m.68-2.96l1.206 2.555m-1.7-7.8c.16.717.407 1.41.737 2.06m1.738.518l1.02 2.255M362.49 314l2.312 3.79m-.01-4.447c.52 1.176 1.15 2.307 1.87 3.372m-1.13-6.065c.73.953 1.36 1.985 1.86 3.073m-5.45-6.307c.47.59.86 1.25 1.14 1.95m.476-4.042l1.39 2.467m-22.68-30.29c.638 1.39 1.42 2.7 2.34 3.92m-1.04-4.99c.72.85 1.31 1.81 1.73 2.83m-2.93-7.28c.458.88.97 1.73 1.54 2.54m3.82 2.1l1.21 2.26m-22.69-33.14c.616.89 1.295 1.74 2.03 2.54m-.613-3.73c.7.73 1.34 1.51 1.9 2.35M292 242.18c.68-.684 1.466-1.27 2.317-1.727m-.396 2.166l.59-.41m1.78-3.66c.55-.46 1.2-.8 1.89-.98m-1.49 2.94c.59-.4 1.23-.72 1.89-.97m3.93-3.01c.57-.33 1.18-.58 1.81-.74m203.3 17.31c.47.78.97 1.54 1.51 2.28m.04-3.81l.8 1.87m-15.53-1.88c.48-.69 1.19-1.22 1.99-1.47m-.32 1.94c.48-.47 1.07-.83 1.71-1.05m-16.42 18.73c.82-1.02 1.77-1.94 2.81-2.73m-1.25 3.28c.73-.64 1.5-1.22 2.33-1.72m1.18-3.27c.41-.57 1.01-1 1.69-1.19m-.64 3.62c.52-.57 1.18-1.01 1.91-1.28m-7.77 9.34c.67-.51 1.3-1.08 1.88-1.69m-6.59 1.54c.37-.85 1.14-1.51 2.03-1.75m-17.18 16.61l.26-.23-2.21 3.4m2.93-1.21l-1.67 2.67m6.5-8.51l-1.18 1.78m.15 2.53l-2.03 3m4.28-3.26c-.05.41-.29.77-.52 1.12l-2.18 3.22m-2.73 4.9l-2.18 3.71m-18.39 23l-1.95 3.67m3.63-3.28l-.98 2.17m4.25-7.61l-.89 1.78m1.97 3.35l-.68 1.38m-3.96 7.31l-1.83 3.88m-12.79 16.37c-.56.9-1.02 1.87-1.37 2.87m2.09-.79c-.09.85-.33 1.69-.71 2.46" stroke-linecap="round" stroke-linejoin="round"/>
    <path stroke="#000" d="M404.778 397.522c-.172.776-.22 1.58-.138 2.37m2.347-7.115c-.15.63-.195 1.285-.13 1.928m-.437 7.708c-.056.69-.112 1.382-.17 2.073m1.787-4.446v1.63m1.037-6.074v1.482m-4 11.112v2.667m1.926-3.26v2.224m-1.334 5.49v2.37m2.222-3.7v1.48m.874-6.37c.118.85.036 1.73-.235 2.54m1.563-7.71c.14.9.052 1.82-.252 2.67m-7.58-3.41v1.78m1.342 11.26c-.074.5-.033 1.01.12 1.49m-1.166-7.26v1.19m3.26 9.19v1.93m2.666-4.29v1.19" stroke-linecap="round" stroke-linejoin="round"/>
    <path stroke="#FFF" stroke-width=".5" d="M398.082 573.406l.318 2.368m-.14 2.543c.04.807.078 1.614.116 2.42m.377 2.493c.013.563.054 1.124.124 1.68m.073 1.682c.046.51.1 1.02.165 1.527m-.005 1.33c.06.51.1 1.03.118 1.55m1.06.78l2.106 1.55m1.443.7c.562.35 1.072.78 1.51 1.28m1.55.77c.56.38 1.057.85 1.47 1.39m.953.62c.32.24.627.5.917.78m.856-1.14c.287-.46.635-.88 1.032-1.24.004-.03.008-.06.01-.09m1.045-1.22c.36-.44.776-.83 1.23-1.17m1.328-1.39c.465-.51.994-.96 1.57-1.34m.995-.67c.373-.34.804-.62 1.27-.81.153-.07.31-.12.452-.21m.145-1.54l.125-1.71m.185-4.62l.025 1.27c.008.36.015.73-.035 1.09m-.118-6.7l.03 2.15c0 .03-.017.08-.05.07m.038-5.78l.035 1.75m-.205-5.48c.067.64.132 1.28.198 1.93m-20.658.14c.782 0 1.564-.02 2.346-.06m1.95-.57c.726-.02 1.45-.07 2.174-.13m1.53-.46l2-.19m1.68-.23c.734-.02 1.468-.07 2.2-.13m1.627-.09c.692-.02 1.384-.01 2.074.05m-55.32-67l.13 2.22m.15 1.88c.14.57.22 1.15.23 1.73m.11 1.97c.17.59.23 1.22.18 1.83l.06-.4m.65-9.94l1.61.02c.15.01.3.01.448-.02m1.36-.09c.545.02 1.09.01 1.63-.01m1.827 1.01c-.03.66.09 1.32.333 1.93m4.65 29.68c.13.7.24 1.41.323 2.12m.97 2.32c.04.54.13 1.07.27 1.59m2.15 2.72c.47.36.91.75 1.33 1.16l-.04-.08m2.75 1.3c.64.28 1.29.51 1.96.69m11.86 1.61l1.73.06m23.61-2.02c.64-.21 1.35.01 2-.17m2.16-.42c.51-.01 1.01-.12 1.48-.31m6.31-15l.06 1.78-.05-.44m.05-5.14c.06.56.07 1.12.05 1.68m.65-10.67v1.63m1.63-9.34c.8.07 1.61-.01 2.37-.25m1.79-.27l1.48-.1m.64 1.18l.06 2.07m1.13 16.2c.02.63.11 1.26.25 1.88m-.11 3.16c.08.56.12 1.12.13 1.68m1.96 7.6c.36.34.79.62 1.24.82m2.64 1.68l1.01.72m2.43 8.85l.37 2.28m.12 2.03c.11.78.14 1.58.1 2.37m.2 2.03c.05.88.12 1.75.23 2.62m-.5 8.49l.24 2.22m-.24 1.18c.11.69.17 1.38.17 2.08m-.16 2.27l.09 1.33m.24 15.27c-.05.61-.022 1.23.08 1.83m-.11 1.88c.1.62.16 1.25.19 1.87m-.26 2.13l.06 1.48m.21 9.28c.1.57.16 1.15.17 1.73m-1.78 19.12l-.067 1.98m-.04 1.43c.03.87.01 1.75-.05 2.62m.01 1.43v1.68m0 1.48c-.05.54-.05 1.08.004 1.62m.15 1.72c.11.72.17 1.45.19 2.18" stroke-linecap="round" stroke-linejoin="round"/>
    <path stroke="#FFF" d="M335.176 867.518c1.023.22 2.046.442 3.068.663m-1.972-2.38l2.968.25m10.17-.75l2.96.33m-1.873-1.59c.757-.04 1.52-.01 2.272.09m-16.79-9.29l3.26.87m-2.58-2.45c.62.04 1.23.22 1.77.52m-3.86-2.95l1.29.68m35.17 15.68c1.08.22 2.22.12 3.25-.29m-.89-2.44c.82-.1 1.62-.34 2.37-.7m1.77 2.56c1.05-.33 2.02-.94 2.77-1.76m-2.87-16.11c-.19.83-.5 1.63-.89 2.37m3.08-.48c-.45 1.07-1.06 2.07-1.81 2.95m55.63-7.2l-.12 4.05m1.73-3.56c.18 1.05.23 2.11.15 3.17m1.68 12.45c.43.94 1 1.8 1.69 2.56m7.76-6.55c.84.41 1.71.75 2.61 1m2.27.43c.71-.17 1.44-.25 2.17-.21m-5.54 1.5c.71.22 1.44.35 2.18.38m14.53 7.7c1.4.22 2.82.32 4.24.3m-2.97-1.79l2.17.11m-8.7-.09c.83-.04 1.66.03 2.47.2m7.97-13.28c-.59.3-1.12.73-1.55 1.24m.87 1.65l-2.47 1.09" stroke-linecap="round" stroke-linejoin="round"/>
    <path stroke="#FFF" stroke-width=".5" d="M403.425 639.044l.087 2.74m.078 2.446v2.814m.15 1.926v2.372m.37 2.74c.002.77.075 1.54.216 2.3m.37 2.146c.008.844.09 1.686.25 2.515m.964 1.7c.275.74.873 1.35 1.605 1.644m1.633.283c.47.05.94.096 1.408.144" stroke-linecap="round" stroke-linejoin="round"/>
    <path fill="#CADAFD" d="M397.366 834.112c-.16-.96-3.433-1.76-4.393-1.675-6.02.538-11.88-.313-17.91.036-2.604.15-3.116 6.442-1.252 7.332-.83 1.62-.02 1.097 1.98 2.353 1.75 1.1 5.12 1.6 7.02 1.61 3.15.016 6.37-.798 9.49-.798 4.78 0 5.61-5.76 5.09-8.858m47.49-2.242c-5.73-.28-11.58.3-17.33.21-2.38-.038-2.9 2.834-1.56 4.123-1.44 1.13-1.45 3.658.69 4.188 5.03 1.25 10.14 1.07 15.28 1.32 2.97.15 7.62 1.8 7.76-2.73.14-4.21-.31-6.88-4.82-7.11"/>
    <path stroke="#000" stroke-width="2" d="M425.925 832.436c.048-.153.107-.316.238-.41.13-.09.3-.093.46-.09 5.236.057 10.472.115 15.707.174 2.132.023 4.277.048 6.373.442.347 3.082.12 6.228-.67 9.228-3.662-.095-7.33.062-10.99-.118s-7.346-.71-10.73-2.115c-.26-.11-.53-.23-.702-.452-.18-.237-.23-.55-.26-.85-.21-1.95-.01-3.94.58-5.81zm-31.465 9.29c-.063.3-.14.623-.363.834-.228.215-.56.27-.87.31-4.39.554-8.832 0-13.22-.555l-5.223-.66c-.262-.033-.536-.07-.754-.22-.35-.24-.466-.698-.545-1.116-.316-1.68-.488-3.39-.513-5.1-.01-.65.004-1.31.18-1.94.062-.23.154-.46.34-.6.21-.16.496-.18.762-.19 5.705-.18 11.41-.35 17.12-.38 1.32-.01 2.664 0 3.935.36.06 3.1-.23 6.2-.85 9.24z" stroke-linecap="round" stroke-linejoin="round"/>
    <path stroke="#FFF" d="M437.7 391.958l1.36 3.962m-4.152-.705l1.03 3.992m-8.816-10.057c.49 1.42.98 2.84 1.468 4.26m-1.614-11.966l.3 2.243m-3.15-12.027c-.28 1.09-.144 2.28.37 3.282m6.914-6.58c.937-1.064 1.875-2.13 2.813-3.193m1.507-6.5l2.792-3.47m-2.57-2.07l2.014-1.99" stroke-linecap="round" stroke-linejoin="round"/>
    <path stroke="#FFF" stroke-width=".5" d="M387.84 547.824c.623.158 1.268.228 1.91.207m10.666.58h1.916m1.75.17l2.33-.28m7.338-.3l1.916-.25m2.414-.35l2.168-.23" stroke-linecap="round" stroke-linejoin="round"/>
    <path fill="#FFF" d="M411.57 452.71c-1.948.714-4.035 2.15-6.11 1.33-1.164-.46-2.134-.26-2.855.287-.362-.928-1.076-1.675-2.215-1.99-1.672-.458-4.035.554-4.305 2.446-.82 5.745 2.602 7.3 7.083 5.42 1.05-.44 2.003.777 3.05.41 1.3-.453 5.33-.983 6.772.268 1.66 1.45 1.665-1.35 2.533-3.03 1.293-2.49-.864-6.27-3.953-5.14"/>
    <path stroke="#000" stroke-width="1.711" d="M398.122 452.398c.845-.248 1.757.02 2.55.405.793.384 1.536.885 2.38 1.142 1.348.412 3.23.45 4.58.034 1.348-.42 2.457-1.45 3.85-1.68 1.392-.23 2.18-.29 3.255.62.23.19.77.77.883 1.05.122.3.287 1.11.27 1.44-.16 2.93-1.532 5.35-3.762 7.26-.513.44-1.072.83-1.692 1.1-.807.35-2.35.53-3.228.6-2.842.23-5.174-.25-7.55-1.82-2.378-1.58-4.01-4.44-3.61-7.26.176-1.25.866-2.56 2.074-2.91z" stroke-linecap="round" stroke-linejoin="round"/>
    <path stroke="#000" d="M399.27 461.566c.46-.662 1.28-.966 2.07-1.137.755-.17 1.53-.25 2.305-.23.657 0 1.374.11 1.82.59m-.422 1.68c.34-1.57 1.905-2.69 3.507-2.83 1.603-.14 3.188.56 4.44 1.57" stroke-linecap="round" stroke-linejoin="round"/>
    <path stroke="#000" stroke-width="1.711" d="M365.2 429.403c2.297.626 4.454 1.756 6.276 3.286m67.012 1.9c1.162-2.12 2.98-3.86 5.14-4.94" stroke-linecap="round" stroke-linejoin="round"/>
    <path fill="#FFE7D2" d="M334.102 507.13c-7.923-.66-12.637-7.312-15.883-13.858-3.72-7.504-6.33-15.715-9.37-23.514l-12.27-31.492c.76-.802 1.15-1.904.71-3.133-2.82-7.872-5.65-15.742-8.75-23.505-.7-2.21-1.37-4.427-2.01-6.656-2.54-8.873-3.68-18.407-8.45-26.46-1.21-2.033-3.71-2.148-5.32-.8-.64-1.276-1.2-2.6-1.68-3.976-1.48-4.25-7.73-2.57-6.75 1.86l.15.702c-2.37-.852-5.66 1.576-4.61 4.273l.81 2.09c-.85.91-.71 1.37-.48 2.6.93 4.96 3.19 5.5 6.62 9.19.51.55 1.87 1.31 2.6 3.62 6.43 25.46 14.93 50.31 24.25 74.85 4.75 12.51 9.73 24.92 14.74 37.33 1.92 4.75 3.41 10.21 6.44 14.4 2.98 4.14 8.22 5.4 12.95 6.25 1.78.32 3.89-.45 4.3-2.44 1.14-5.51 2.73-10.86 4.96-16.03 1.08-2.52-.19-5.03-3.02-5.26m152.27-4.34l.39-.57c.06 0 .12-.01.18-.02-.69 1.12-1.4 2.21-2.12 3.3.52-.9 1.03-1.8 1.54-2.7m-15.89 11.32c-.09-.13-.18-.26-.28-.39.31-.24.61-.49.92-.73-.22.41-.43.78-.64 1.13M534 366.88c-.065.08-2.467 5.42-2.53 5.49-.55-1.35.55-7.39-.91-7.5-.82-.683-4.49 5-5.305 4.31-.97-3.09-1.78-9.605-3.55-7.207-1.4 1.9-.855 5.307-2.254 7.207-1.39 1.885-2.78 2.01-3.41 4.29-.47 1.716-.73 3.812-.41 5.48l2 7.624c-3.66 23.59-12.76 48.03-21.15 70.35-7.37 19.64-15.65 41.86-34.02 53.82-.4.27-.72.59-.98.95-1.7.77-3 2.81-1.97 5.01l6.74 14.37c.99 2.11 3.98 2.145 5.5.71 9.56-9.06 17.64-19.45 24.09-30.927 7.41-13.184 12.14-27.894 17.54-41.96 5.48-14.28 5-32.24 10-46.696 5.13-14.82 14.26-26.42 16.5-41.91.47-3.26-3.13-6.08-5.85-3.4"/>
    <path stroke="#000" stroke-width="2" d="M445.605 512.775c10.77-2.273 11.69-2.978 18.103-6.08 3.912-1.89 8.71-6.92 11.048-10.584 18.06-28.32 26.78-59.87 36.173-92.12 2.04-7.01 3.55-14.13 4.36-21.38.48-4.3-1.18-9.46-1.57-13.77-.07-.73.85-1.12 1.34-.55l2.23 2.6c.89-5.74 2.95-11.29 6-16.24.48-.78 1.69-.46 1.74.46l.44 7.89c.05.99 1.31 1.37 1.9.57l2.12-2.85c.79-1.06 2.51-.6 2.62.72.17 2.03.05 4.09-.38 6.09.31 1.24 3.81-1.93 5.61-3.07.8-.5 1.78.25 1.5 1.15l-20.39 64.88c-9.41 29.94-17.51 60.28-36.15 85.53-3.66 4.96-7.41 8.82-12.52 12.27-6.22 4.2-10.58 6.08-23.17 8m-86.8-26.07c-5.59-.33-14.76-.27-19.63-2.25-5.61-2.27-10.37-5.34-14.08-10.13-8.17-10.53-12.41-25.72-17.79-37.96-10.73-24.42-18.39-50.06-22.93-76.34-.85-4.91-1.67-9.83-2.47-14.75-.16-.97-1.49-1.22-1.95-.34-1.27 2.41-1.34 5.51-1.3 8.33-2.16-4-5.13-7.56-8.67-10.42-1.07-.86-2.63-.03-2.53 1.33.28 3.83 1.19 7.62 2.69 11.15-1.57-2.32-3.59-4.34-5.92-5.9-.91-.61-2.13.22-1.87 1.28.64 2.62 1.62 5.15 2.92 7.5-.82-1.37-2.52-2.16-4.1-1.9.43 2.69 2.12 4.97 3.65 7.23 6.68 9.84 12.71 27.82 15.93 39.28 6.67 23.69 10.02 35.21 18.08 57.98 3.05 8.62 8.24 20.99 13.18 28.67 3.15 4.89 7.24 8.69 10.09 10.88 11.9 9.14 23.11 8.72 37.29 11.98" stroke-linecap="round" stroke-linejoin="round"/>
    <path stroke="#000" stroke-width="2" d="M335.603 529.852c-.74-3.692-.155-7.572 1.238-11.07 1.4-3.498 3.57-6.64 6.02-9.5m114.07.75c1.15.4 2.03 1.323 2.8 2.263 4.02 4.88 6.33 11.132 6.46 17.45" stroke-linecap="round" stroke-linejoin="round"/>
    <path fill="#FFAAA6" d="M279.837 385.633c-.628-1.063-1.785-1.734-3.022-1.734-1.443 0-3.11 1.05-3.375 2.57-.175 1-.19 1.93-.01 2.85.118 1.43.732 2.61 1.633 3.77.74.95 2.318 1.2 3.405.9 1.605-.44 2.426-1.81 2.57-3.38.157-1.72-.33-3.51-1.2-4.99m248.332-7.31c-.15-1.57-.96-2.93-2.57-3.38-1.643-.46-3 .33-3.952 1.6-.053.07-.098.14-.147.22-.47.28-.88.67-1.11 1.2-.94 2.1-1.21 4.07-.77 6.34.4 2.04 2.54 2.7 4.31 2.44 3.42-.5 4.52-5.63 4.25-8.44"/>
    <path stroke="#000" stroke-width="2" d="M398.674 569.5c-.707-2.533-1.363-5.564-1.375-8.35-.01-2.16.49-4.212 2.24-5.624 1.76-1.42 4.74-2.672 7.04-2.16 1.57.35 2.78 2.217 4.37 2.264 2.39.07 4.34-2.258 7-1.526 5.77 1.588 3.4 9.627 3.33 13.68.06-.12.06-.256 0-.41" stroke-linecap="round" stroke-linejoin="round"/>
    <path stroke="#000" stroke-width="2" d="M413.568 547.937c.172-.123.386-.24.586-.172.18.062.28.25.344.43.43 1.172.134 2.514-.494 3.594s-1.554 1.95-2.466 2.8l-.88.82c-.573-1.17-.92-2.45-1.018-3.75-.02-.27-.028-.54.08-.78.106-.24.362-.44.62-.39.43.08.51.65.492 1.08l-.173 3.92c.03-1.4.15-2.82.57-4.15.42-1.34 1.19-2.6 2.33-3.42zM393.052 82.3c-1.008-4.13-2.43-8.15-4.245-11.997-.723-1.533-1.612-3.245-3.222-3.93-1.137-.48-2.458-.494-3.67-.222-28.64 6.44-55.88 13.81-86.584 22.29-23.94 6.62-46.68 11.26-72.75 18.44-1.13.31-2.46.56-2.96 1.6-.36.76-.17 1.64.03 2.45 5.59 22.44 12.41 44.55 19.22 66.64.58 1.87 1.21 3.83 2.63 5.18 2.43 2.31 6.34 2.48 9.64 1.72 21.02-4.84 36.66-9.22 55.6-13.97 14.07-3.53 23.49-6.24 35.39-9.95l61.77-19.25c2.68-.83 4.3-3.53 3.72-6.22-3.85-17.84-10.19-34.97-14.54-52.76z" stroke-linecap="round" stroke-linejoin="round"/>
    <path fill="#4185F4" d="M258.082 157.066c-1.77-5.716-3.44-11.46-5.014-17.233-.61-2.234-4.077-1.284-3.466.956 1.573 5.77 3.244 11.51 5.013 17.23.684 2.2 4.154 1.26 3.467-.96m17.528-3.71c-2.174-6.03-4.247-12.09-6.22-18.19-.712-2.2-4.184-1.26-3.468.95 1.974 6.1 4.047 12.16 6.22 18.19.78 2.16 4.256 1.23 3.468-.96"/>
    <path stroke="#000" stroke-width="1.798" d="M241.625 139.36c-.39 8.125 5.038 16.142 12.662 18.975 7.624 2.834 16.857.388 22.222-5.725 5.36-6.114 6.62-15.457 3.23-22.85-.51-1.118-1.12-2.194-1.87-3.165-4.03-5.198-10.06-7.182-17.22-6.91-1.7.066-4.1.754-5.72 1.287-1.26.415-3.39 1.406-4.48 2.144-5.52 3.722-8.53 9.593-8.84 16.245zm55.247-13.83c-.39 8.125 5.037 16.142 12.66 18.975 7.626 2.834 16.858.388 22.224-5.726 5.365-6.12 6.62-15.46 3.233-22.85-.52-1.12-1.13-2.2-1.88-3.17-4.02-5.2-10.06-7.18-17.21-6.91-1.7.06-4.1.75-5.72 1.28-1.26.41-3.39 1.4-4.48 2.14-5.52 3.72-8.52 9.59-8.84 16.24zm52.893-14.472c-.39 8.124 5.038 16.14 12.662 18.975 7.624 2.833 16.857.387 22.222-5.726 5.36-6.114 6.62-15.457 3.23-22.85-.51-1.118-1.12-2.194-1.87-3.165-4.03-5.198-10.06-7.182-17.22-6.91-1.7.066-4.1.754-5.72 1.287-1.26.41-3.39 1.4-4.48 2.14-5.52 3.72-8.53 9.59-8.84 16.24z" stroke-linecap="round" stroke-linejoin="round"/>
    <path stroke="#000" stroke-width="1.798" d="M248.668 141.718c.16-.95 1.07-1.568 1.92-2.02 1.486-.787 3.278-1.423 4.81-.732m8.495-1.562c.312-.84 1.09-1.41 1.86-1.872.93-.56 1.93-1.043 3.005-1.198 1.075-.154 2.24.057 3.07.76m-25.928.596c1.426-1.946 2.96-3.814 4.592-5.59m15.19-4.847c1.814.562 3.52 1.46 5.015 2.63m-7.502 16.374c-.63-.434-1.453-.578-2.194-.383-.74.194-1.38.724-1.72 1.413-.36.74-.36 1.607-.21 2.417.29 1.604 1.13 3.103 2.35 4.186.8.71 2 1.25 2.91.702.62-.367.9-1.11 1.03-1.813.36-1.91-.09-3.95-1.2-5.54-.26-.38-.57-.73-.95-.99zm48.235-7.66c5.587-1.295 11.11-2.87 16.54-4.717m48.856-16.15c1.12-.66 2.545-2.15 2.843-3.385.75 3.574.26 6.923-2.26 9.563-2.53 2.64-7.4 3.234-10.46 1.243-2.24-1.45-3.43-4.03-4.38-6.51 4.74 2.4 9.67 1.79 14.25-.9z" stroke-linecap="round" stroke-linejoin="round"/>
    <path stroke="#000" stroke-width="2" d="M590.698 373.706c2.53-6.516 2.768-8.334 7.69-9.945 14.587-4.77 32.11-2.37 46.41-2.65 10.15-.19 21.616-.03 31.958.93 3.254.3 6.673.4 9.185 2.5 3.73 3.1 3.67 9.11 3.68 13.95.02 4.52.09 7.56-.68 12.74-.44 2.96-1.82 5.86-4.04 7.85-1.76 1.57-4.06 2.38-6.34 2.99-4.65 1.25-9.44 1.86-14.23 2.32-29.59 2.84-59.73-.08-88.23-8.53-1.04-.31-2.28-.86-2.35-1.95 3.2 1.24 6.95 2.2 9.94.53 2.12-1.18 3.39-3.45 4.2-5.73 1.56-4.36 1.16-10.65 2.84-14.97zm50.662 42.448c-4.427.342-9.14.79-12.638 3.524-3.765 2.944-5.28 7.876-6.332 12.54-.673 2.98-.927 7.468-.43 10.484.712 4.335 3.29 6.686 6.875 9.228 3.584 2.54 7.703 4.632 12.07 5.107 29.755 3.237 54.25 1.53 80.988-3.857 8.814-1.775 17.7-3.572 25.976-7.087-3.82.967-7.93-.897-10.6-3.8-2.67-2.9-4.13-6.69-5.31-10.447-.78-2.455-1.47-4.976-2.82-7.166-3.89-6.303-12.04-8.268-19.39-9.192-22.67-2.847-45.63-1.092-68.4.666z" stroke-linecap="round" stroke-linejoin="round"/>
    <path fill="#000" d="M307.435 120.044c-4.057 0-4.057 6.292 0 6.292s4.057-6.292 0-6.292m14.98-5.692c-4.057 0-4.057 6.29 0 6.29s4.057-6.29 0-6.29"/>
    <path fill="#EB4335" d="M359.885 93.14c-1.897-1.34-3.855-1.212-5.575.297-1.003.88-1.184 2.163-1.043 3.476-2.5-.478-4.91.443-5.342 3.662-.723 5.4 6.7 8.225 10.358 10.076.457.24.9.26 1.293.15 1.112.76 2.968.33 2.803-1.35-.48-4.83 2.44-12.8-2.5-16.29m22.74-2.06c-.79-2.67-3.9-3.06-6.12-2.13-1.01.43-1.83 1.12-2.43 1.96-.5-.5-1.09-.9-1.87-1.11-1.64-.42-3.37 1.36-3.63 2.86-.66 3.84 1.27 10.4 4.57 12.76.41.87 1.39 1.43 2.43.75 4.61-3.05 8.73-9.32 7.04-15.07"/>
    <path stroke="#000" d="M600.38 374.943c2.91-.787 5.218-3.45 5.584-6.442-1.66.72-2.843 2.43-2.923 4.23-.02.56.06 1.13.36 1.59.72 1.07 2.28 1.07 3.52.77 2.82-.67 5.41-2.29 7.25-4.53.61-.74 1.14-1.87.52-2.6-1.32.18-2.6.9-3.24 2.07-.64 1.17-.48 2.78.52 3.66.69.6 1.64.79 2.55.81 3.33.07 6.6-2.07 7.87-5.15-1.32-.66-3.02.71-2.97 2.2.05 1.49 1.41 2.68 2.87 2.96 1.46.28 2.96-.18 4.3-.82 2.41-1.16 4.7-3.26 4.8-5.93-1.69-.4-3.04 1.48-3.47 3.16-.12.48-.21.98-.1 1.45.31 1.31 1.89 1.82 3.23 1.9 4.51.29 9.11-1.75 11.93-5.29.34-.42.64-1.06.26-1.43-.2-.2-.52-.22-.8-.21-1.89.07-3.71 1.17-4.66 2.81-.29.51-.51 1.08-.49 1.66.03.98.73 1.84 1.58 2.32.86.48 1.85.64 2.82.74 2.57.27 5.23.21 7.65-.71 2.41-.92 4.56-2.79 5.33-5.26-1.08-.66-2.56-.23-3.47.65-.9.89-1.37 2.11-1.82 3.3-.21.58-.43 1.19-.3 1.79.28 1.31 1.91 1.76 3.25 1.85 5.44.36 11.49-1.13 14.6-5.61.33-.47.62-1.1.3-1.58-.21-.33-.65-.45-1.05-.46-1.85-.06-3.51 1.79-3.25 3.62.25 1.75 1.95 3 3.69 3.29 1.74.29 3.51-.18 5.2-.68 1.42-.43 3.11-1.23 3.14-2.72l-1.79-.12m-62.51 24.18c1.42-.98 2.87-2 3.85-3.43.98-1.42 1.39-3.37.59-4.89-.71-.1-1.24.62-1.54 1.27-.71 1.52-1.18 3.16-1.37 4.82-.08.71-.1 1.47.25 2.09.62 1.14 2.14 1.38 3.43 1.27 4-.35 7.69-3.12 9.16-6.86.3-.77.29-1.98-.54-2.09-.3-.04-.6.11-.87.27-1.25.78-2.22 1.99-2.71 3.38-.23.66-.36 1.37-.23 2.05.25 1.29 1.4 2.27 2.66 2.63 1.26.37 2.62.21 3.89-.09 2.14-.5 4.22-1.4 5.85-2.87 1.63-1.47 2.78-3.55 2.84-5.75-1.51-.14-2.71 1.2-3.55 2.46-.57.85-1.11 1.74-1.3 2.74-.19 1 .05 2.14.82 2.79.63.53 1.5.67 2.32.74 3.46.3 7.07-.19 10.05-1.97 2.98-1.78 5.22-4.97 5.31-8.44-.73-.48-1.72-.43-2.51-.03-.78.39-1.38 1.08-1.87 1.8-.65.97-1.16 2.15-.88 3.28.28 1.13 1.32 1.95 2.44 2.27 1.12.32 2.31.22 3.46.05 2.74-.4 5.47-1.2 7.76-2.76 2.29-1.56 4.09-3.96 4.51-6.7-1.39-.38-2.71.78-3.61 1.92-.6.77-1.17 1.59-1.42 2.52-.25.94-.15 2.02.49 2.76.36.42.86.7 1.37.92 2.38 1.02 5.21.94 7.53-.21 2.32-1.16 4.08-3.37 4.69-5.89-.95.9-.93 2.55-.13 3.58.8 1.04 2.22 1.48 3.52 1.34m-42.69 45.26c2.01-1.17 3.42-3.32 3.68-5.63.08-.72-.05-1.61-.72-1.88-.63 1.74-1.2 3.73-.35 5.38.71 1.38 2.32 2.14 3.87 2.12 1.55-.02 3.03-.72 4.25-1.66 2.01-1.55 3.54-4.1 2.93-6.57-.68.01-1.19.64-1.54 1.23-1.15 1.91-1.84 4.45-.59 6.29 1.03 1.52 3.13 2.04 4.91 1.62 1.79-.42 3.29-1.62 4.54-2.96 1.25-1.34 2.36-3.1 1.97-4.88-1.4-.5-3.02.73-3.21 2.21-.19 1.47.77 2.93 2.07 3.66 1.29.73 2.85.84 4.34.71 2.05-.18 4.1-.83 5.69-2.14 1.58-1.31 2.64-3.34 2.49-5.39-.02-.34-.09-.7-.31-.97-.34-.42-.99-.48-1.49-.27-.5.21-.88.63-1.21 1.07-1.44 1.93-2.11 4.8-.63 6.71 1.24 1.6 3.55 1.97 5.56 1.68 3.99-.57 7.59-3.31 9.2-7 .23-.52.28-1.34-.28-1.45-.75.76-1.33 1.71-1.66 2.73-.16.48-.27 1-.16 1.49.21 1.02 1.27 1.68 2.31 1.77 1.04.09 2.06-.26 3.04-.61m18.84 1.52c2.45-1.24 4.4-3.46 5.31-6.06-.56-.27-1.2.19-1.61.66-.72.82-1.3 1.8-1.403 2.88-.11 1.08.37 2.25 1.33 2.76.86.45 1.91.29 2.83-.03 1.58-.56 2.99-1.61 3.99-2.96-.53 1.4.75 2.95 2.2 3.29 1.454.33 2.96-.17 4.37-.67M589.32 497.1c1.85-.57 3.23-2.08 4.463-3.57 1.18-1.41 2.37-3.27 1.62-4.943-.51.29-.71.91-.86 1.48-.27 1.07-.5 2.17-.39 3.27.11 1.094.61 2.2 1.53 2.815 1.51 1.015 3.57.405 5.16-.48 2.15-1.2 4.18-3.12 4.34-5.57.03-.36.01-.73-.17-1.03-.33-.57-1.15-.71-1.76-.46-.61.25-1.05.8-1.39 1.36-.53.87-.91 1.932-.6 2.91.37 1.17 1.59 1.84 2.75 2.24 1.18.4 2.42.64 3.66.712m21.4-.88c2.68-2.55 5.57-5.55 5.52-9.243-.01-.5-.16-1.11-.65-1.23-1.26 1.82-2.32 3.9-2.33 6.11-.01 2.22 1.3 4.56 3.44 5.13 1.45.38 2.99-.08 4.35-.72 3.22-1.53 6.07-4.52 6.16-8.08.01-.38-.07-.85-.43-.97-.163-.05-.34-.02-.505.03-2.31.63-4 3.04-3.81 5.43.19 2.39 2.24 4.5 4.62 4.76.965.11 1.943-.06 2.874-.33 3.058-.89 5.987-3.47 5.846-6.65-1.24 1.06-1.37 3.07-.55 4.48.815 1.42 2.37 2.29 3.96 2.65" stroke-linecap="round" stroke-linejoin="round"/>
    <path stroke="#000" stroke-width=".771" d="M24.54 334.735c-.964.51-1.566 1.502-2.06 2.475-3.94 7.736-3.956 16.804-3.874 25.485.007.766.02 1.56.35 2.25.663 1.382 2.33 1.903 3.822 2.252 16.45 3.844 33.654 3.98 49.9 8.613 3.05.87 6.264 2.046 8.082 4.645 1.42-8.533 2.252-17.163 2.493-25.81.065-2.35.073-4.777-.832-6.946-2.17-5.21-8.5-7-14.04-8.07-7.72-1.49-15.48-2.82-23.26-3.99-6.02-.91-12.1-1.71-18.19-1.41-.82.04-1.66.1-2.39.49zm162.092 29.74c.73-5.845 2.043-11.616 3.913-17.202 1.402-4.187 3.3-8.505 6.945-11 3.493-2.39 7.985-2.686 12.216-2.563 12.01.35 23.777 3.417 35.193 7.158 1.42.466 2.9.98 3.93 2.06 1.61 1.683 1.73 4.268 1.63 6.596-.26 6.02-1.36 11.97-2.45 17.897-.13.69-.27 1.41-.75 1.91-.77.81-2.06.73-3.16.58-14.45-2-28.37-6.9-42.79-9.06-2.64-.39-5.33-.7-7.96-.26-2.64.44-5.23 1.71-6.74 3.91zM76.04 481.05c-.596 2.557-1.357 5.28-3.387 6.945-1.79 1.47-4.236 1.822-6.55 1.912-6.486.253-12.913-1.11-19.26-2.466L8.86 479.33c-1.16-.248-2.35-.51-3.327-1.176-2.004-1.367-2.594-4.036-2.777-6.455-.204-2.7-.104-5.41.295-8.09.85-5.62 3.43-11.48 8.52-14.01 3.83-1.9 8.34-1.58 12.59-1.15 15.21 1.54 30.32 3.98 45.24 7.29 1.92.42 3.87.87 5.82.71 1.96-.16 3.97-1 5.03-2.65-.71 9.16-2.11 18.27-4.2 27.23zm115.325-1.093c-.507-.78-.48-1.78-.425-2.71.516-8.48 2.075-16.896 4.633-24.997 1.527 3.215 5.43 4.388 8.902 5.17 9.25 2.085 18.578 3.822 27.958 5.207 4.347.642 9.363 1.652 11.372 5.56.893 1.736 1 3.758 1.038 5.71.116 5.905-.225 11.82-1.02 17.672-.108.79-.264 1.65-.876 2.17-.675.56-1.66.5-2.537.41-16.196-1.81-32.11-6.12-46.996-12.76-.774-.35-1.587-.73-2.05-1.44z" stroke-linecap="round" stroke-linejoin="round"/>
    <path stroke="#000" stroke-width="1.542" d="M24.257 350.15c-.155 2.133-1.05 5.303-.572 7.37.41 1.774 2.628 1.578 4.125 1.563.82-.008 1.652-.077 2.418-.368.593-.225 1.13-.578 1.62-.982 2.874-2.37 3.972-6.665 2.587-10.124-.798-2-2.388-3.63-4.294-4.59-1.21-.61-4.47-1.86-5.39-.37-.4.64-.15 2.35-.19 3.07-.09 1.47-.19 2.95-.3 4.42zm11.89 4.857c-.036.044.05.02 0 0s-.104.03-.137.074c-.698.98-.21 2.43.704 3.21.876.76 2.155 1.08 3.233.67 1.078-.41 1.832-1.64 1.56-2.76-.167-.69-.672-1.25-1.257-1.65-.693-.47-1.68-.89-2.46-.58-.78.31-1.023.28-1.644 1.06zm6.77 4.936c.685-2.037 1.307-4.096 1.863-6.172.508 2.23 1.346 4.38 2.476 6.36.29-1.82.58-3.64.868-5.46m1.212 3.89c1.15.08 2.31 0 3.44-.23.38-.08.77-.18 1.066-.43.297-.25.472-.68.31-1.03-.143-.31-.493-.47-.823-.56-1.1-.32-2.38-.23-3.24.51-.87.75-1.08 2.24-.25 3.02.35.34.84.5 1.31.62.99.26 2.02.38 3.05.35" stroke-linecap="round" stroke-linejoin="round"/>
    <path stroke="#000" stroke-width=".771" d="M75.36 364.916c-.026-.244.01-.018-.02.12-.034.135-.01.06-.15.055l-3.182-.08c-1.282-.03-2.564-.07-3.843-.17-2.355-.18-4.692-.59-6.97-1.22l.8-10.93c.918-.27 1.71-.49 2.668-.45l10.375.46c-.368 4.03-.13 8.23.323 12.24z" stroke-linecap="round" stroke-linejoin="round"/>
    <path fill="#000" d="M83.067 344.6c-5.364 3.32-10.31 7.128-14.92 11.405-1.505-2.64-2.702-5.38-3.623-8.306-.596-1.9-3.465-.77-2.87 1.12 1.176 3.74 2.808 7.2 4.892 10.52.578.92 1.778.7 2.44.06 4.85-4.69 10.163-8.78 15.897-12.33 1.695-1.05-.135-3.54-1.816-2.49"/>
    <path stroke="#000" stroke-width="1.542" d="M196.263 348c-.206 1.932-1.114 4.784-.743 6.677.318 1.623 2.34 1.51 3.7 1.543.744.018 1.5-.02 2.206-.26.545-.187 1.044-.49 1.5-.843 2.683-2.065 3.81-5.933 2.658-9.116-.665-1.83-2.06-3.36-3.76-4.29-1.08-.59-4.006-1.82-4.888-.49-.382.58-.205 2.13-.267 2.79-.13 1.34-.27 2.68-.41 4.01zm10.65 4.772c-.033.038.046.02 0 0s-.095.023-.125.063c-.664.87-.264 2.197.54 2.937.774.71 1.925 1.044 2.917.7.992-.345 1.714-1.435 1.5-2.463-.13-.64-.57-1.17-1.09-1.55-.615-.45-1.5-.87-2.218-.61-.717.26-.936.22-1.524.91zm6 4.688c.684-1.83 1.31-3.68 1.88-5.55.393 2.036 1.09 4.013 2.055 5.846l.954-4.938m.983 3.572c1.043.103 2.1.065 3.132-.11.346-.06.703-.14.98-.356.277-.216.45-.605.314-.93-.12-.287-.43-.44-.73-.537-.98-.323-2.15-.287-2.95.362-.8.64-1.04 2-.31 2.73.32.31.75.47 1.18.6.9.26 1.83.4 2.76.41" stroke-linecap="round" stroke-linejoin="round"/>
    <path stroke="#000" stroke-width=".701" d="M242.227 362.96c-.017-.223.01-.016-.024.107-.033.123-.01.054-.136.047-.963-.06-1.925-.118-2.888-.176-1.17-.07-2.33-.142-3.49-.273-2.14-.24-4.25-.686-6.3-1.326l1.06-9.91c.84-.22 1.56-.4 2.43-.33l9.41.73c-.46 3.64-.37 7.46-.08 11.12z" stroke-linecap="round" stroke-linejoin="round"/>
    <path fill="#000" d="M249.84 344.742c-4.97 2.853-9.58 6.162-13.895 9.906-1.286-2.443-2.29-4.966-3.038-7.653-.484-1.74-3.125-.8-2.642.936.956 3.44 2.333 6.63 4.124 9.71.49.86 1.59.7 2.21.14 4.54-4.11 9.49-7.66 14.81-10.71"/>
    <path stroke="#000" stroke-width="1.542" d="M195.594 471.53c-.236 1.687-1.112 4.16-.84 5.83.23 1.43 2.006 1.39 3.197 1.457.66.037 1.32.026 1.95-.165.49-.148.93-.4 1.34-.696 2.41-1.734 3.51-5.09 2.59-7.913-.53-1.626-1.71-3.004-3.17-3.87-.93-.55-3.46-1.71-4.27-.574-.35.49-.24 1.86-.31 2.43-.15 1.16-.3 2.33-.47 3.5zm9.196 4.484c-.03.033.04.02 0 0s-.083.017-.11.052c-.608.742-.294 1.917.39 2.588.656.645 1.656.97 2.536.696.88-.273 1.543-1.208 1.385-2.115-.09-.556-.46-1.034-.91-1.383-.52-.414-1.29-.8-1.92-.59-.63.207-.83.17-1.36.752zm5.125 4.28c.65-1.585 1.253-3.19 1.804-4.81.28 1.794.84 3.546 1.63 5.18l.97-4.3m.76 3.158c.91.12 1.83.117 2.74-.008.3-.04.62-.102.87-.283.25-.18.41-.51.3-.8-.1-.25-.37-.4-.63-.49-.86-.31-1.88-.31-2.6.24-.73.55-.98 1.73-.36 2.39.26.29.64.44 1.01.56.77.26 1.59.41 2.4.44" stroke-linecap="round" stroke-linejoin="round"/>
    <path stroke="#000" stroke-width=".614" d="M235.446 485.945c-.008-.195.01-.014-.023.093-.034.107-.01.048-.12.037l-2.526-.236c-1.017-.1-2.035-.2-3.046-.34-1.86-.27-3.69-.72-5.47-1.34l1.21-8.65c.75-.17 1.39-.31 2.15-.22l8.23.9c-.5 3.18-.53 6.53-.38 9.74z" stroke-linecap="round" stroke-linejoin="round"/>
    <path fill="#000" d="M242.637 470.197c-4.438 2.36-8.57 5.128-12.458 8.286-1.06-2.178-1.87-4.417-2.45-6.792-.38-1.54-2.72-.78-2.34.75.74 3.04 1.85 5.88 3.34 8.63.41.77 1.37.66 1.93.18 4.1-3.47 8.54-6.44 13.28-8.96"/>
    <path stroke="#000" stroke-width="1.542" d="M14.414 466.158c-.155 2.133-1.05 5.303-.572 7.37.41 1.774 2.628 1.578 4.126 1.563.82 0 1.65-.07 2.417-.36.593-.22 1.13-.58 1.62-.98 2.874-2.37 3.972-6.66 2.587-10.12-.798-1.99-2.388-3.62-4.294-4.58-1.21-.61-4.472-1.85-5.393-.36-.4.65-.147 2.35-.192 3.07-.09 1.48-.192 2.95-.3 4.43zm11.89 4.858c-.036.043.05.02 0 0s-.104.03-.136.074c-.7.98-.21 2.426.703 3.21.88.753 2.16 1.078 3.24.663 1.08-.416 1.84-1.64 1.56-2.764-.16-.69-.67-1.26-1.25-1.66-.69-.48-1.68-.9-2.46-.58-.78.31-1.02.28-1.64 1.05zm6.77 4.936c.686-2.038 1.308-4.096 1.864-6.173.508 2.22 1.346 4.37 2.476 6.35l.868-5.47m1.212 3.89c1.15.07 2.31-.01 3.44-.24.38-.08.77-.18 1.066-.43.297-.25.472-.68.31-1.03-.143-.32-.493-.47-.823-.57-1.094-.32-2.374-.24-3.238.5-.87.74-1.08 2.24-.25 3.02.35.33.84.5 1.31.62.99.26 2.02.37 3.05.35" stroke-linecap="round" stroke-linejoin="round"/>
    <path stroke="#000" stroke-width=".771" d="M65.518 480.924c-.027-.244.01-.018-.022.12-.033.135-.01.06-.15.055l-3.18-.09c-1.283-.04-2.565-.07-3.844-.17-2.355-.19-4.692-.6-6.97-1.23l.8-10.93c.918-.28 1.71-.5 2.668-.45l10.375.45c-.368 4.02-.13 8.22.323 12.24z" stroke-linecap="round" stroke-linejoin="round"/>
    <path fill="#000" d="M73.224 460.607c-5.364 3.32-10.31 7.13-14.92 11.406-1.505-2.64-2.7-5.38-3.622-8.306-.597-1.897-3.466-.764-2.872 1.126 1.178 3.74 2.81 7.207 4.893 10.524.58.923 1.778.706 2.44.066 4.85-4.688 10.164-8.775 15.898-12.324"/>
    <path stroke="#000" stroke-width="2" d="M673.886 506.34c.633-8.826.378-17.715-.76-26.49-.287-2.227-.777-4.693-2.61-5.99-.978-.694-2.198-.936-3.378-1.155-21.087-3.915-42.527-5.928-63.975-6.004-4.877-.01-9.78.07-14.585.91-2.413.42-4.84 1.05-6.897 2.38-2.38 1.55-4.12 3.95-5.33 6.52-2.31 4.94-2.83 10.5-4.25 15.76-2.02 7.48-5.95 14.44-11.31 20.04 35.78 2.78 72.28 10.1 107.08 1.33 1.64-.41 3.37-.92 4.49-2.19 1.19-1.36 1.41-3.29 1.54-5.1z" stroke-linecap="round" stroke-linejoin="round"/>
    <path stroke="#000" stroke-width="1.813" d="M77.616 156.567c2.293-5.907 2.51-7.555 6.972-9.015 13.22-4.327 29.106-2.154 42.07-2.404 9.2-.177 19.593-.025 28.967.84 2.95.274 6.05.366 8.326 2.262 3.38 2.81 3.32 8.253 3.34 12.644.02 4.098.09 6.85-.62 11.544-.4 2.678-1.65 5.308-3.67 7.11-1.59 1.424-3.68 2.152-5.75 2.706-4.21 1.132-8.56 1.685-12.9 2.1-26.82 2.568-54.14-.073-79.98-7.733-.94-.28-2.07-.78-2.13-1.76 2.9 1.13 6.3 2 9.01.48 1.92-1.07 3.07-3.12 3.81-5.19 1.41-3.95 1.05-9.66 2.57-13.57zm45.924 38.478c-4.013.31-8.284.716-11.456 3.195-3.414 2.668-4.788 7.14-5.74 11.366-.61 2.702-.84 6.77-.39 9.504.646 3.93 2.984 6.06 6.232 8.365 3.25 2.303 6.983 4.2 10.942 4.63 26.972 2.934 49.175 1.385 73.412-3.497 7.99-1.61 16.045-3.238 23.547-6.424-3.462.876-7.187-.813-9.602-3.444-2.415-2.63-3.744-6.064-4.815-9.47-.7-2.226-1.327-4.51-2.553-6.496-3.527-5.714-10.914-7.495-17.577-8.332-20.543-2.58-41.355-.99-62 .603z" stroke-linecap="round" stroke-linejoin="round"/>
    <path stroke="#000" stroke-width=".906" d="M86.392 157.69c2.64-.714 4.73-3.127 5.062-5.84-1.504.646-2.576 2.197-2.65 3.833-.02.5.05 1.023.328 1.44.644.965 2.06.966 3.19.697 2.555-.61 4.9-2.078 6.564-4.112.554-.676 1.028-1.695.465-2.363-1.19.163-2.36.818-2.93 1.876-.57 1.06-.44 2.53.47 3.32.62.54 1.49.72 2.31.73 3.02.07 5.98-1.87 7.13-4.66-1.2-.6-2.74.65-2.69 1.99.04 1.35 1.28 2.43 2.6 2.68s2.68-.17 3.9-.75c2.19-1.05 4.26-2.95 4.35-5.37-1.54-.36-2.76 1.34-3.15 2.87-.11.43-.19.89-.09 1.32.28 1.19 1.71 1.65 2.92 1.72 4.1.26 8.27-1.59 10.82-4.79.31-.38.58-.96.24-1.3-.18-.18-.47-.2-.72-.19-1.71.06-3.37 1.06-4.23 2.55-.26.45-.46.97-.44 1.5.03.88.66 1.67 1.44 2.1.78.43 1.68.57 2.56.67 2.33.25 4.74.19 6.93-.65 2.19-.83 4.13-2.53 4.84-4.76-.98-.6-2.32-.21-3.14.59-.82.8-1.24 1.92-1.64 2.99-.2.52-.39 1.08-.28 1.62.25 1.19 1.73 1.59 2.94 1.68 4.94.33 10.42-1.02 13.23-5.08.3-.43.56-1 .28-1.44-.2-.3-.59-.4-.95-.42-1.68-.05-3.19 1.63-2.95 3.29.22 1.58 1.77 2.72 3.34 2.98 1.58.26 3.18-.16 4.71-.62 1.29-.39 2.82-1.12 2.84-2.46l-1.62-.11m-56.7 21.88c1.29-.89 2.61-1.82 3.49-3.11.89-1.29 1.27-3.05.53-4.44-.64-.09-1.11.57-1.39 1.15-.64 1.38-1.06 2.86-1.23 4.37-.07.65-.09 1.33.22 1.9.56 1.03 1.94 1.25 3.11 1.15 3.63-.32 6.98-2.83 8.31-6.22.28-.7.27-1.8-.48-1.9-.28-.04-.55.1-.78.25-1.13.71-2.02 1.81-2.46 3.07-.21.6-.33 1.24-.21 1.86.22 1.17 1.27 2.06 2.41 2.39 1.14.33 2.37.19 3.52-.08 1.94-.45 3.83-1.27 5.31-2.6 1.48-1.33 2.51-3.22 2.57-5.21-1.37-.13-2.46 1.09-3.22 2.24-.51.77-1 1.57-1.17 2.48-.17.91.04 1.93.74 2.53.57.48 1.36.61 2.1.67 3.13.28 6.4-.17 9.1-1.78 2.7-1.62 4.73-4.51 4.82-7.65-.66-.44-1.57-.39-2.28-.04s-1.25.98-1.69 1.63c-.59.88-1.05 1.95-.79 2.98.26 1.02 1.2 1.77 2.21 2.06 1.01.29 2.1.2 3.14.05 2.48-.36 4.96-1.09 7.03-2.5 2.07-1.42 3.71-3.59 4.09-6.07-1.26-.35-2.46.7-3.27 1.73-.54.69-1.06 1.43-1.29 2.28-.23.85-.13 1.83.44 2.5.33.38.78.63 1.24.83 2.16.93 4.72.85 6.82-.19 2.1-1.05 3.7-3.06 4.26-5.34-.86.82-.84 2.31-.11 3.25s2.01 1.34 3.19 1.21m-38.69 41.02c1.83-1.06 3.1-3.01 3.33-5.1.08-.65-.04-1.47-.65-1.71-.56 1.58-1.08 3.38-.31 4.87.65 1.24 2.11 1.93 3.51 1.92 1.4-.02 2.74-.65 3.85-1.51 1.83-1.4 3.21-3.72 2.66-5.96-.62.01-1.08.58-1.4 1.11-1.04 1.73-1.66 4.03-.53 5.71.93 1.38 2.83 1.85 4.45 1.47 1.62-.38 2.98-1.47 4.12-2.68 1.13-1.21 2.14-2.81 1.78-4.43-1.27-.45-2.73.66-2.91 2-.18 1.34.7 2.66 1.87 3.32 1.18.66 2.59.77 3.94.64 1.86-.17 3.72-.76 5.16-1.95 1.44-1.18 2.4-3.02 2.26-4.88-.02-.31-.08-.64-.28-.88-.31-.38-.9-.43-1.35-.24-.45.19-.8.57-1.09.96-1.31 1.75-1.91 4.35-.57 6.08 1.13 1.46 3.22 1.79 5.04 1.53 3.62-.51 6.88-3 8.34-6.34.21-.47.25-1.21-.25-1.32-.68.7-1.21 1.55-1.51 2.48-.14.44-.24.907-.15 1.356.2.927 1.16 1.52 2.1 1.606.94.08 1.87-.24 2.76-.56m17.08 1.38c2.22-1.124 3.99-3.133 4.81-5.49-.51-.25-1.09.17-1.46.59-.65.74-1.18 1.63-1.28 2.61-.09.98.34 2.05 1.21 2.508.78.41 1.74.27 2.57-.025 1.44-.51 2.72-1.46 3.62-2.69-.48 1.27.68 2.67 2 2.98 1.32.31 2.69-.15 3.96-.6M76.36 268.4c1.68-.518 2.93-1.89 4.05-3.23 1.07-1.28 2.15-2.97 1.47-4.49-.46.26-.65.83-.78 1.35-.24.97-.45 1.97-.35 2.96.1.99.55 2 1.38 2.55 1.37.92 3.24.364 4.68-.44 1.94-1.085 3.78-2.826 3.94-5.047.03-.32.01-.66-.16-.936-.3-.52-1.04-.65-1.59-.42-.55.23-.95.723-1.26 1.24-.48.79-.82 1.75-.54 2.64.34 1.06 1.44 1.67 2.49 2.03 1.07.36 2.19.58 3.32.65m19.4-.8c2.44-2.31 5.05-5.03 5.01-8.38 0-.458-.145-1.01-.59-1.12-1.14 1.65-2.1 3.53-2.11 5.54-.01 2 1.18 4.12 3.12 4.64 1.31.35 2.71-.07 3.94-.66 2.92-1.39 5.5-4.09 5.59-7.33.01-.35-.07-.77-.39-.88-.15-.05-.31-.02-.46.02-2.09.57-3.62 2.75-3.45 4.92.17 2.16 2.03 4.07 4.19 4.31.87.1 1.76-.05 2.6-.3 2.77-.81 5.42-3.14 5.29-6.02-1.13.95-1.24 2.77-.5 4.06.74 1.28 2.14 2.07 3.59 2.4" stroke-linecap="round" stroke-linejoin="round"/>
    <path stroke="#000" stroke-width="1.813" d="M153.024 276.796c.574-8 .343-16.06-.688-24.013-.26-2.018-.706-4.253-2.366-5.43-.888-.63-1.993-.848-3.063-1.046-19.115-3.55-38.55-5.373-57.99-5.443-4.423-.016-8.867.06-13.222.82-2.187.38-4.388.952-6.253 2.157-2.165 1.4-3.737 3.58-4.832 5.91-2.1 4.48-2.566 9.52-3.856 14.29-1.833 6.78-5.393 13.09-10.25 18.17 32.43 2.52 65.518 9.16 97.06 1.21 1.488-.37 3.057-.83 4.065-1.99 1.07-1.23 1.27-2.98 1.39-4.62z" stroke-linecap="round" stroke-linejoin="round"/>
    <path stroke="#000" stroke-width="2" d="M742.544 286.395c1.682-3.593 3.005-7.346 3.95-11.2.376-1.536.737-3.298-.014-4.726-.53-1.01-1.465-1.79-2.487-2.29-24.17-11.85-47.885-22.2-74.72-33.74-20.926-9-39.848-18.75-62.614-28.57-.99-.43-2.08-1.02-3.05-.55-.7.34-1.08 1.09-1.41 1.8-9.06 19.59-17.06 39.65-25.05 59.7-.68 1.69-1.37 3.48-1.14 5.29.39 3.08 3.08 5.46 5.87 6.82 17.81 8.6 31.51 14.44 47.77 21.91 12.08 5.55 20.38 9 31.02 13.17l55.25 21.63c2.39.94 5.12-.1 6.27-2.4 7.63-15.24 13.07-31.4 20.32-46.88z" stroke-linecap="round" stroke-linejoin="round"/>
    <path fill="#4185F4" d="M605.596 262.394c1.896-4.794 3.874-9.554 5.932-14.28.797-1.83-2.045-3.064-2.844-1.23-2.06 4.727-4.036 9.487-5.932 14.28-.733 1.853 2.107 3.093 2.844 1.23m13.774 6.97c1.793-5.223 3.672-10.414 5.637-15.574.708-1.858-2.13-3.1-2.844-1.228-1.965 5.16-3.844 10.35-5.637 15.573-.644 1.875 2.194 3.124 2.844 1.23"/>
    <path stroke="#000" stroke-width="1.549" d="M604.097 241.62c-4.646 5.247-5.327 13.56-1.735 19.578 3.592 6.018 11.114 9.358 18.016 8.147 6.903-1.21 12.79-6.81 14.504-13.604.26-1.02.43-2.07.45-3.13.103-5.66-2.88-10.25-7.832-13.93-1.175-.87-3.162-1.71-4.533-2.22-1.066-.4-3.03-.88-4.164-.97-5.718-.48-10.903 1.85-14.706 6.14zm44.573 20.526c-4.646 5.247-5.327 13.56-1.735 19.578 3.592 6.018 11.114 9.358 18.016 8.147 6.91-1.21 12.79-6.8 14.51-13.6.26-1.02.43-2.07.45-3.13.11-5.66-2.88-10.25-7.83-13.93-1.17-.87-3.16-1.71-4.53-2.22-1.06-.4-3.03-.88-4.16-.97-5.72-.48-10.9 1.85-14.7 6.14zm43.34 18.824c-4.645 5.247-5.327 13.56-1.735 19.578 3.592 6.018 11.114 9.358 18.016 8.147 6.91-1.21 12.79-6.81 14.51-13.604.26-1.02.43-2.07.45-3.13.11-5.66-2.88-10.25-7.83-13.93-1.17-.87-3.16-1.71-4.53-2.22-1.06-.4-3.03-.88-4.16-.97-5.72-.48-10.9 1.85-14.7 6.14z" stroke-linecap="round" stroke-linejoin="round"/>
    <path stroke="#000" stroke-width="1.549" d="M607.556 247.004c.62-.55 1.565-.476 2.38-.32 1.423.273 2.97.812 3.626 2.104m6.548 3.535c.664-.396 1.494-.36 2.26-.254.927.12 1.86.34 2.666.81.805.47 1.474 1.24 1.65 2.16m-17.736-13.59c2.008-.54 4.046-.97 6.102-1.28m12.818 4.94c.915 1.35 1.58 2.88 1.95 4.47m-13.876 6.95c-.19-.63-.664-1.17-1.267-1.44-.602-.27-1.322-.26-1.918.02-.65.3-1.11.88-1.45 1.51-.68 1.23-.92 2.69-.69 4.07.15.91.66 1.91 1.57 2.04.61.08 1.2-.26 1.67-.67 1.27-1.09 2.07-2.7 2.17-4.37.02-.39.01-.8-.11-1.17zm36.532 20.88c4.452 2.14 9.012 4.07 13.656 5.76m41.533 15.52c1.108.16 2.87-.07 3.736-.74-1.42 2.8-3.55 4.79-6.67 5.2-3.12.41-6.71-1.82-7.69-4.81-.71-2.18-.12-4.56.58-6.74 1.9 4.17 5.54 6.42 10.07 7.08z" stroke-linecap="round" stroke-linejoin="round"/>
    <path fill="#000" d="M658.727 264.16c-2.725-2.19-6.12 2.037-3.395 4.227 2.725 2.19 6.12-2.036 3.395-4.226m13.133 4.27c-2.724-2.19-6.12 2.04-3.394 4.23 2.725 2.19 6.12-2.03 3.395-4.22"/>
    <path fill="#EB4335" d="M708.477 274.397c-.55-1.925-1.935-2.896-3.905-2.81-1.15.05-1.962.814-2.576 1.772-1.42-1.68-3.538-2.36-5.565-.43-3.4 3.23.07 9.14 1.52 12.36.19.4.47.65.8.79.34 1.11 1.82 1.82 2.62.6 2.29-3.51 8.56-7.29 7.12-12.3m16.39 10.89c.92-2.23-.96-4.16-2.95-4.74-.9-.26-1.82-.24-2.69 0-.06-.61-.24-1.19-.65-1.75-.87-1.17-2.99-.91-3.97-.04-2.51 2.22-4.75 7.67-3.81 11.03-.19.8.17 1.71 1.23 1.81 4.74.44 10.9-1.55 12.86-6.33"/>
    <path stroke="#000" stroke-width=".75" d="M445 61.708c-.758.742-1.048 1.83-1.243 2.875-1.553 8.298.92 16.763 3.378 24.84.217.713.448 1.45.945 2.003.997 1.108 2.696 1.137 4.183 1.053 16.402-.93 32.492-5.52 48.92-5.66 3.084-.03 6.406.19 8.816 2.11-1.02-8.35-2.61-16.63-4.76-24.77-.59-2.21-1.25-4.48-2.68-6.26-3.45-4.26-9.86-4.2-15.31-3.68-7.62.73-15.22 1.62-22.8 2.66-5.87.81-11.77 1.73-17.36 3.68-.75.26-1.52.56-2.09 1.11zm159.395-16.722c-.922-5.654-1.28-11.4-1.068-17.123.16-4.292.746-8.84 3.462-12.168 2.6-3.19 6.71-4.697 10.69-5.743 11.3-2.97 23.12-3.336 34.8-2.977 1.45.044 2.97.118 4.23.842 1.96 1.128 2.79 3.506 3.33 5.706 1.41 5.688 2.02 11.54 2.62 17.37.07.67.13 1.383-.18 1.98-.5.963-1.72 1.245-2.79 1.404-14.03 2.095-28.36 1.344-42.41 3.28-2.57.353-5.17.81-7.5 1.94-2.34 1.13-4.41 3.025-5.22 5.49zm-71.202 139.108c.146 2.55.182 5.3-1.255 7.41-1.268 1.86-3.452 2.86-5.587 3.58-5.98 2.014-12.35 2.506-18.64 2.982l-37.66 2.85c-1.15.085-2.33.168-3.42-.185-2.24-.72-3.52-3.05-4.36-5.26-.93-2.45-1.58-5.02-1.94-7.62-.75-5.47.05-11.65 4.11-15.41 3.05-2.82 7.35-3.76 11.43-4.53 14.61-2.73 29.38-4.6 44.21-5.6 1.91-.13 3.85-.25 5.63-.93 1.79-.68 3.42-2.01 3.97-3.84 1.86 8.75 3.04 17.64 3.55 26.56zm107.3-32.66c-.687-.59-.937-1.53-1.14-2.412-1.845-8.053-2.7-16.332-2.535-24.593 2.307 2.58 6.27 2.6 9.724 2.38 9.202-.6 18.382-1.53 27.514-2.81 4.23-.6 9.19-1.03 12.136 2.06 1.31 1.37 1.963 3.23 2.535 5.04 1.728 5.47 3.032 11.09 3.895 16.76.117.77.21 1.62-.22 2.26-.475.71-1.41.93-2.255 1.08-15.606 2.76-31.64 3.1-47.347.99-.817-.11-1.68-.25-2.307-.79z" stroke-linecap="round" stroke-linejoin="round"/>
    <path stroke="#000" stroke-width="1.5" d="M448.966 76.168c.44 2.032.476 5.235 1.488 7.034.87 1.542 2.885.75 4.278.326.762-.233 1.52-.525 2.155-1.006.49-.373.896-.85 1.242-1.36 2.03-3 1.87-7.31-.37-10.157-1.29-1.64-3.22-2.723-5.27-3.1-1.3-.24-4.68-.504-5.14 1.137-.2.712.5 2.232.66 2.917.32 1.4.63 2.8.93 4.2zm12.424 1.27c-.02.05.055.005 0 0-.053-.005-.088.055-.105.106-.383 1.106.47 2.32 1.536 2.802 1.03.462 2.31.415 3.2-.268.9-.684 1.26-2.034.7-3.007-.34-.59-.97-.98-1.62-1.2-.77-.25-1.81-.37-2.45.14-.64.51-.87.55-1.24 1.44zm7.673 2.748c.08-2.09.095-4.18.045-6.27 1.084 1.936 2.455 3.71 4.053 5.25l-.69-5.34m2.2 3.3c1.1-.247 2.16-.64 3.15-1.165.33-.17.67-.37.88-.69.21-.31.26-.76.01-1.05-.22-.25-.59-.3-.92-.3-1.11.01-2.28.43-2.88 1.36-.6.93-.39 2.39.6 2.89.43.22.92.24 1.4.22 1-.03 1.99-.2 2.95-.51" stroke-linecap="round" stroke-linejoin="round"/>
    <path stroke="#000" stroke-width=".75" d="M500.698 75.925c-.093-.22.005-.02.012.117.007.136.01.058-.123.093-.998.264-1.996.528-2.994.79-1.205.32-2.412.64-3.632.895-2.24.472-4.54.73-6.84.767l-2.25-10.416c.78-.5 1.46-.93 2.37-1.15l9.81-2.42c.76 3.86 2.14 7.71 3.66 11.33z" stroke-linecap="round" stroke-linejoin="round"/>
    <path fill="#000" d="M502.314 54.854c-4.094 4.57-7.664 9.48-10.792 14.735-2.128-2.05-3.995-4.28-5.657-6.76-1.078-1.61-3.444.24-2.37 1.84 2.124 3.16 4.597 5.95 7.45 8.47.795.7 1.854.17 2.297-.61 3.24-5.71 7.075-10.98 11.45-15.86 1.294-1.45-1.095-3.26-2.378-1.83"/>
    <path stroke="#000" stroke-width="1.5" d="M608.86 26.973c.34 1.86.274 4.77 1.14 6.433.74 1.427 2.596.77 3.875.426.7-.188 1.396-.43 1.987-.85.46-.322.84-.743 1.17-1.197 1.935-2.663 1.926-6.58-.023-9.234-1.13-1.53-2.85-2.57-4.69-2.97-1.17-.25-4.24-.6-4.7.88-.2.64.39 2.05.51 2.67.25 1.28.48 2.57.72 3.85zm11.247 1.53c-.02.045.05.006 0 0s-.082.047-.1.093c-.38.993.357 2.122 1.31 2.592.917.45 2.083.446 2.914-.148.84-.593 1.21-1.808.73-2.71-.29-.55-.85-.926-1.44-1.14-.7-.252-1.63-.393-2.23.047-.59.44-.81.468-1.17 1.266zm6.885 2.727c.136-1.894.213-3.792.23-5.692.927 1.79 2.118 3.444 3.523 4.89l-.465-4.87m1.897 3.064c1-.19 1.976-.515 2.892-.962.3-.15.61-.323.81-.6.2-.28.25-.69.04-.954-.19-.236-.53-.292-.83-.3-1.01-.033-2.09.32-2.66 1.147-.58.826-.43 2.155.45 2.637.38.207.82.24 1.26.24.9 0 1.81-.126 2.69-.373" stroke-linecap="round" stroke-linejoin="round"/>
    <path stroke="#000" stroke-width=".681" d="M655.85 28.32c-.076-.202.006-.017.008.107.003.124.007.054-.114.08l-2.743.63c-1.1.252-2.21.505-3.32.7-2.05.36-4.14.525-6.23.49l-1.73-9.528c.73-.44 1.36-.81 2.19-.98l8.98-1.9c.57 3.52 1.71 7.06 2.98 10.4z" stroke-linecap="round" stroke-linejoin="round"/>
    <path fill="#000" d="M657.957 9.234c-3.856 4.026-7.247 8.378-10.247 13.055-1.87-1.93-3.5-4.01-4.933-6.31-.93-1.49-3.136.11-2.21 1.6 1.835 2.94 3.996 5.54 6.51 7.92.702.66 1.68.21 2.105-.49 3.115-5.09 6.76-9.76 10.88-14.06"/>
    <path stroke="#000" stroke-width="1.5" d="M642.127 142.412c.244 1.64.104 4.187.815 5.67.61 1.27 2.254.747 3.383.483.62-.145 1.236-.338 1.766-.687.42-.27.76-.63 1.06-1.017 1.78-2.27 1.88-5.71.25-8.09-.94-1.37-2.42-2.33-4.02-2.74-1.01-.26-3.69-.64-4.14.64-.19.56.29 1.8.38 2.36.18 1.13.36 2.27.52 3.4zm9.81 1.66c-.02.04.044.008 0 0s-.072.04-.09.08c-.36.86.253 1.87 1.076 2.308.79.42 1.812.45 2.557-.046.744-.497 1.108-1.55.712-2.354-.244-.492-.72-.836-1.23-1.04-.605-.242-1.424-.39-1.96-.023-.537.37-.725.387-1.064 1.076zm5.956 2.588c.173-1.657.295-3.32.364-4.983.76 1.595 1.758 3.078 2.948 4.385l-.27-4.28m1.575 2.738c.884-.138 1.747-.395 2.562-.76.274-.124.55-.267.734-.504.182-.238.24-.596.06-.834-.16-.213-.453-.27-.72-.288-.88-.056-1.834.223-2.36.93-.528.71-.436 1.877.325 2.325.33.19.72.23 1.1.24.8.02 1.6-.06 2.37-.25" stroke-linecap="round" stroke-linejoin="round"/>
    <path stroke="#000" stroke-width=".597" d="M683.265 144.928c-.062-.18.005-.015.004.094-.01.108 0 .046-.11.067l-2.43.47c-.98.19-1.95.38-2.94.52-1.81.25-3.65.34-5.48.25l-1.25-8.4c.65-.37 1.21-.67 1.94-.8l7.92-1.41c.4 3.1 1.29 6.24 2.31 9.19z" stroke-linecap="round" stroke-linejoin="round"/>
    <path fill="#000" d="M685.653 128.262c-3.493 3.418-6.59 7.135-9.35 11.15-1.585-1.743-2.953-3.61-4.145-5.668-.772-1.333-2.75.01-1.98 1.338 1.523 2.63 3.343 4.973 5.48 7.13.594.598 1.464.232 1.856-.364 2.874-4.366 6.2-8.355 9.935-12.01"/>
    <path stroke="#000" stroke-width="1.5" d="M471.61 187.106c.44 2.032.475 5.235 1.487 7.034.87 1.542 2.885.75 4.278.325.763-.232 1.52-.524 2.155-1.005.492-.373.896-.85 1.242-1.36 2.032-3 1.877-7.31-.364-10.157-1.29-1.64-3.22-2.723-5.264-3.1-1.297-.24-4.682-.504-5.133 1.137-.19.712.51 2.232.67 2.917.32 1.4.63 2.805.94 4.21zm12.424 1.27c-.02.05.055.006 0 0-.053-.004-.09.056-.106.107-.382 1.106.47 2.32 1.536 2.802 1.026.462 2.308.415 3.2-.27.892-.682 1.26-2.032.697-3.005-.34-.597-.97-.988-1.62-1.2-.77-.254-1.81-.374-2.45.132-.64.505-.87.544-1.24 1.435zm7.672 2.748c.08-2.09.095-4.18.045-6.27 1.09 1.936 2.46 3.71 4.06 5.25l-.69-5.34m2.2 3.3c1.1-.246 2.16-.64 3.15-1.164.33-.177.67-.378.88-.69.21-.314.26-.767.01-1.05-.22-.253-.59-.302-.92-.302-1.11.003-2.28.43-2.88 1.36-.6.93-.39 2.387.6 2.885.43.214.92.233 1.4.217 1-.033 1.99-.205 2.95-.51" stroke-linecap="round" stroke-linejoin="round"/>
    <path stroke="#000" stroke-width=".75" d="M523.34 186.863c-.092-.22.006-.02.013.117.007.136.01.058-.123.093-.998.264-1.996.528-2.994.79-1.205.32-2.412.64-3.632.895-2.25.472-4.543.73-6.84.767l-2.25-10.416c.78-.51 1.46-.94 2.363-1.16l9.805-2.42c.76 3.85 2.134 7.7 3.66 11.33z" stroke-linecap="round" stroke-linejoin="round"/>
    <path fill="#000" d="M524.957 165.793c-4.094 4.57-7.664 9.48-10.792 14.735-2.127-2.05-3.995-4.277-5.657-6.755-1.078-1.607-3.444.238-2.37 1.838 2.124 3.17 4.597 5.96 7.45 8.48.795.7 1.854.17 2.297-.61 3.24-5.7 7.075-10.97 11.45-15.86"/>
    <path stroke="#000" stroke-width="3" d="M575.694 317.715c.792-2.312 2.51-4.294 4.685-5.406 1.24 2.52 4.15 3.88 6.97 4.06 2.81.17 5.58-.64 8.28-1.44m-192.36-98.92c2.66-2.99 6.59-4.81 10.59-4.92.33 4.15-.34 8.37-1.94 12.21l13.09.79m173.04 342.79c1.35-2.44 4.17-3.98 6.96-3.8-.23 4.31-1.75 8.55-4.31 12.03-1.89 2.56-4.47 5.71-2.93 8.5l21.42-5.82c.46-.13.99-.24 1.37.05.46.35.38 1.06.26 1.63l-1.34 6.21c3.96 1.18 8.35.94 12.16-.67" stroke-linecap="round" stroke-linejoin="round"/>
    <path stroke="#000" stroke-width="2.641" d="M150.41 511.217c.807 4.326 4.015 8.122 8.145 9.64 2.15-3.705 3.26-8.008 3.168-12.292 1.785 1.732 3.61 3.493 5.84 4.594 2.228 1.1 4.97 1.45 7.182.31 2.77-1.43 4.073-4.78 6.736-6.4 2.1 1.07 4.04 2.46 5.72 4.11" stroke-linecap="round" stroke-linejoin="round"/>
    <path stroke="#000" stroke-width="3" d="M2.285 250.173c-.288-1.856.175-3.816 1.263-5.347.377 3.806-.06 7.694-1.277 11.32l11.56-2.746c1.35 5.09 1.46 10.51.31 15.65 4.15-1.254 8.37-2.25 12.64-2.982m132-165.983l-3.37 1.25c4.32-3.177 9.41-5.286 14.71-6.09 1.22 2.51.06 5.53-1.52 7.822-1.58 2.29-3.63 4.357-4.46 7.02 3.14-1.41 6.38-2.594 9.69-3.538 1.38-.4 2.95-.72 4.15.04 2.04 1.28 1.43 4.43.16 6.46-1.27 2.04-3.05 4.15-2.61 6.51 3.58.41 7.26-.16 10.54-1.64m30.13 153.6c.56-2.93 2.99-5.42 5.9-6.05-4.06 8.76-6.76 18.15-7.97 27.74 6.36-6.32 13.44-11.9 21.06-16.62 1.42 2.82 1.32 6.12 1.48 9.27.16 3.15.74 6.55 3.06 8.69 2.32 2.14 6.85 1.92 7.94-1.04m453.95-96.14c-.61 1.28-1.36-1.81.03-1.53 1.39.28 1.73 2.05 2.36 3.32 1.75 3.51 7.14 3.57 10.17 1.09 3.04-2.47 4.31-6.46 5.43-10.21 4.18 1.15 8.49 2.31 12.79 1.77 4.3-.55 8.62-3.24 9.74-7.42M386.9 2.21c.143.844-.382-.71.475-.708l16.847.07c-1.3 7.478-8.792 13.34-16.363 12.803 2.61 5.426 12.4 2.53 15.65 7.6 2.11 3.298-.09 7.666-2.75 10.54-2.66 2.876-6.01 5.65-6.48 9.538 3.25 3.14 7.51 5.21 11.98 5.83m326.09 305.78c-2.16 1.04-.17 4.788 2.22 4.55 2.38-.23 3.97-2.49 5.26-4.51 1.29-2.02 3-4.23 5.4-4.28l3 6.02c4.28.708 8.88-1.94 10.42-5.995m-509.72 190.49l11.85 3.233c1.43-4.53 1.99-9.33 1.64-14.08 3.2 1.23 6.54 2.48 9.95 2.12 3.4-.35 6.85-2.86 7.04-6.28" stroke-linecap="round" stroke-linejoin="round"/>
    <path stroke="#000" stroke-width="1.291" d="M540.482 116.53c-1.6-4.88-6.77-14.69-4.766-19.98 2.004-5.293 4.047-12.965 10.78-14.51 10.765-2.468 46.125-14.865 49.667-15.834 3.542-.968 11.916 2.294 15.678 6.395 5.41 5.9 9.68 28.85 10.94 32.78 1.26 3.94 3.01 11.08 1.42 15.56-1.76 4.98-3.38 8-12.97 10.11-24.54 5.42-40.05 12.29-43.83 13.01-3.78.73-11.95.76-15.01-1.79-3.06-2.55-7.48-7.88-8.82-12.59-1.34-4.7-2.01-9.93-3.07-13.14z" stroke-linecap="round" stroke-linejoin="round"/>
    <path stroke="#000" stroke-width="1.291" d="M574.9 124.332s9.98-2.475 13.222-3.573c1.798-.61 7.024-2.89 7.024-2.89s.852 6.95-3.136 10.55-8.438 1.97-10.098 1.29c-1.66-.68-4.874-.69-7.012-5.39zM564.818 67.92l-3.115-10.03c-1.52-.207-2.863-.812-3.8-1.745-2.043-2.037-3.612-4.772-2.636-8.27.976-3.496 1.897-5.016 4.803-6.01 1.75-.6 3.544-.704 7.336.977 4.605 2.04 4.427 6.72 4.08 8.126-.27 1.082-.45 2.903-2.117 4.512l3.13 9.99" stroke-linecap="round" stroke-linejoin="round"/>
    <path stroke="#000" stroke-width="1.291" d="M567.63 47.74s.95 2.293-.33 4.364c-1.28 2.07-3.992 2.665-4.822 2.484-.83-.18-2.39-.255-3.51-2.28-1.123-2.026-.912-4.37.25-5.603 1.16-1.232 2.942-1.804 5.01-1.29 2.067.516 2.387.195 3.403 2.326zm-14.788 46.158s6.366-2.43 11.95 1.245c5.584 3.675 7.01 11.164 6.447 13.428-.57 2.27-1.07 5.96-6.72 8.89-5.65 2.93-11.88 2.75-15.18-.54-3.3-3.28-5.83-7.69-4.25-13.32 1.57-5.63 3.31-7.47 7.74-9.69z" stroke-linecap="round" stroke-linejoin="round"/>
    <path stroke="#000" stroke-width="1.291" d="M555.655 97.814s-2.072 1.302-3.033 2.692c-1.236 1.787-3.226 3.596-3.226 3.596s1.68 3.223 2.022 4.33c.27.87.848 3.54.848 3.54s3.082 1.03 4.133 1.29c.92.228 3.75.688 3.75.688l3.16-2.812 2.56-3.025s-1.08-4.682-1.65-6.173c-.17-.444-.63-2.007-.63-2.007l-7.95-2.12z" stroke-linecap="round" stroke-linejoin="round"/>
    <path fill="#000" d="M556.645 102.432c-1.394.405-2.374 1.968-2.316 3.427.09 2.29.87 3.25 2.14 3.96 1.27.72 4.07-.82 4.88-1.56.8-.74.86-3.33-.41-4.29-.5-.38-.93-1.26-1.52-1.49-.78-.3-1.9-.3-2.7-.09l-.09.02"/>
    <path stroke="#000" stroke-width="1.291" d="M610.322 96.075s-1.42 6.664-7.54 9.354c-6.12 2.68-13.18-.19-14.777-1.89-1.595-1.7-4.418-4.14-3.803-10.47.616-6.33 4.154-11.47 8.7-12.45 4.545-.98 9.62-.71 13.496 3.68 3.876 4.38 4.473 6.84 3.924 11.76z" stroke-linecap="round" stroke-linejoin="round"/>
    <path stroke="#000" stroke-width="1.291" d="M605.505 96.307s.034-2.447-.61-4.01c-.828-2.008-1.264-4.66-1.264-4.66s-3.62-.344-4.73-.658c-.87-.25-3.43-1.22-3.43-1.22s-2.54 2.02-3.33 2.77c-.69.65-2.62 2.78-2.62 2.78l.65 4.18 1.15 3.79s4.52 1.64 6.08 1.97c.47.09 2.03.56 2.03.56l6.1-5.53z" stroke-linecap="round" stroke-linejoin="round"/>
    <path fill="#000" d="M601.09 94.628c.42-1.39-.36-3.062-1.616-3.807-1.978-1.17-3.205-1.03-4.5-.35-1.293.68-1.527 3.86-1.345 4.94.18 1.08 2.32 2.54 3.81 1.99.58-.21 1.56-.09 2.07-.46.67-.49 1.28-1.43 1.54-2.21l.03-.09"/>
    <path stroke="#000" stroke-width="1.291" d="M572.562 65.565c8.28-.273 10.446-3.106 13.99-3.835 3.242-.667 8.37 1.336 10.392 3.904M545.05 82.466s-.392-5.937 5.162-9.15c2.263-1.31 7.296-1.525 14.607-5.396M98.26 416.8c.79-5.075.642-16.163 4.83-19.967 4.19-3.804 9.496-9.71 16.195-8.027 10.712 2.69 47.844 7.712 51.44 8.458 3.596.746 9.573 7.457 11.06 12.82 2.142 7.71-4.482 30.093-5.152 34.166-.67 4.073-2.352 11.237-5.8 14.502-3.836 3.63-6.642 5.586-16.153 3.113-24.33-6.324-41.26-7.25-44.956-8.32-3.697-1.074-10.993-4.753-12.56-8.42-1.566-3.665-3.09-10.422-2.144-15.225.945-4.802 2.72-9.767 3.24-13.1z" stroke-linecap="round" stroke-linejoin="round"/>
    <path stroke="#000" stroke-width="1.291" d="M125.376 439.385s10.014 2.33 13.402 2.823c1.878.275 7.566.625 7.566.625s-2.398 6.577-7.585 7.97c-5.19 1.395-8.42-2.08-9.59-3.434-1.17-1.36-4.03-2.84-3.8-7.99zm16.647-54.835l1.782-10.35c-1.26-.875-2.182-2.024-2.593-3.282-.894-2.742-1.05-5.892 1.408-8.564 2.458-2.67 3.97-3.607 7.01-3.173 1.832.27 3.477.99 6.09 4.21 3.177 3.91.892 8-.057 9.09-.73.84-1.718 2.39-3.934 3.06l-1.75 10.33" stroke-linecap="round" stroke-linejoin="round"/>
    <path stroke="#000" stroke-width="1.291" d="M153.697 367.85s-.195 2.475-2.276 3.737c-2.08 1.263-4.76.56-5.42.023-.65-.54-2.01-1.313-2.09-3.627-.08-2.314 1.18-4.307 2.77-4.877 1.6-.57 3.44-.27 5.05 1.128 1.61 1.397 2.04 1.257 1.98 3.617zm-34.144 34.4s6.775.728 10.08 6.54c3.305 5.81 1.172 13.128-.357 14.89-1.53 1.764-3.66 4.822-10.018 4.86-6.358.04-11.83-2.952-13.273-7.372-1.443-4.42-1.692-9.497 2.27-13.803 3.96-4.306 6.347-5.153 11.298-5.114z" stroke-linecap="round" stroke-linejoin="round"/>
    <path stroke="#000" stroke-width="1.291" d="M120.28 407.02s-2.438.218-3.926 1.02c-1.913 1.03-4.507 1.737-4.507 1.737s.03 3.635-.166 4.776c-.15.897-.85 3.54-.85 3.54s2.28 2.317 3.1 3.025c.72.625 3.04 2.32 3.04 2.32l4.09-1.07 3.66-1.53s1.17-4.66 1.34-6.248c.05-.47.36-2.072.36-2.072l-6.12-5.5z" stroke-linecap="round" stroke-linejoin="round"/>
    <path fill="#000" d="M119.063 411.582c-1.426-.273-3.01.674-3.62 2-.963 2.088-.697 3.294.11 4.51.807 1.22 4 1.124 5.054.832 1.055-.29 2.28-2.568 1.587-4-.273-.562-.252-1.543-.68-2.014-.56-.615-1.56-1.126-2.36-1.31l-.09-.018"/>
    <path stroke="#000" stroke-width="1.291" d="M169.77 430.305s-4.293 5.29-10.968 4.906c-6.673-.38-11.656-6.15-12.304-8.39-.65-2.24-2.058-5.69 1.365-11.05s8.91-8.32 13.404-7.13c4.494 1.19 8.89 3.74 10.352 9.41 1.46 5.67.87 8.13-1.85 12.27z" stroke-linecap="round" stroke-linejoin="round"/>
    <path stroke="#000" stroke-width="1.291" d="M165.373 428.323s1.14-2.165 1.277-3.85c.175-2.165.992-4.727.992-4.727s-3.068-1.95-3.92-2.735c-.668-.61-2.506-2.64-2.506-2.64s-3.184.66-4.223.96c-.917.27-3.595 1.29-3.595 1.29l-1.326 4.02-.706 3.91s3.276 3.52 4.518 4.52c.37.3 1.546 1.43 1.546 1.43l7.943-2.14z" stroke-linecap="round" stroke-linejoin="round"/>
    <path fill="#000" d="M162.203 424.822c1.005-1.048 1.07-2.892.29-4.126-1.23-1.943-2.386-2.375-3.847-2.36-1.46.016-3.115 2.747-3.444 3.79-.33 1.045.916 3.312 2.494 3.507.62.077 1.433.628 2.06.525.82-.135 1.793-.697 2.38-1.27.025-.02.047-.044.067-.066"/>
    <path stroke="#000" stroke-width="1.291" d="M149.99 385.97c7.5 3.518 10.718 1.978 14.207 2.94 3.19.878 6.85 4.992 7.483 8.198m-53.877-8.58s2.35-5.467 8.757-5.808c2.61-.14 7.192 1.958 15.463 1.83" stroke-linecap="round" stroke-linejoin="round"/>
  </g>
</svg>
