<svg xmlns="http://www.w3.org/2000/svg" viewBox="0 0 1226 849" xmlns:xlink="http://www.w3.org/1999/xlink">
  <defs>
    <path id="a" d="M255.362.65H.674v253.546h254.688V.65z"/>
  </defs>
  <g fill="none" fill-rule="evenodd">
    <path fill="#4285F4" d="M1130.99 260.186c-42.55-15.213-83.536-27.59-127.458-38.216-7.52-1.82-9.442 10.062-1.923 11.88 43.92 10.626 83.64 22.694 126.19 37.907 7.3 2.612 10.42-8.985 3.19-11.57m4.98 83.043c-49.74-17.838-97-42.042-140.67-71.79-6.42-4.37-12.41 6.034-6.06 10.362 44.53 30.336 92.82 54.81 143.53 72.998 7.3 2.62 10.42-8.98 3.19-11.57m-19.56 113.554c-60.72-32.402-114.02-77.44-156.2-131.812-4.74-6.11-13.17 2.45-8.49 8.485 42.74 55.095 97.1 100.86 158.62 133.69 6.82 3.64 12.88-6.72 6.05-10.363m-134.92 62.978c-45.63-58.805-77.44-127.82-93.08-200.545-1.63-7.564-13.2-4.355-11.57 3.19 16.1 74.873 49.24 145.363 96.16 205.84 4.73 6.108 13.16-2.45 8.48-8.485m-115.95 27.18c-44.44-80.664-48.16-175.302-51.33-265.212-.27-7.716-12.28-7.742-12 0 3.25 92.11 7.46 188.664 52.97 271.27 3.73 6.777 14.1.724 10.36-6.058m-85.83-8.532C755 453.89 739.72 366.805 734.3 278.92c-.47-7.686-12.47-7.733-12 0 5.49 88.93 20.84 177.154 45.82 262.68 2.168 7.412 13.75 4.256 11.57-3.19m-46.91 27.316c-28.833-50.143-50.244-104.18-63.64-160.45-1.792-7.527-13.363-4.334-11.57 3.19 13.62 57.215 35.53 112.332 64.85 163.317 3.857 6.704 14.228.663 10.363-6.057"/>
    <path fill="#FEF4EB" d="M208.976 135.126c-.348.55-.673 1.104-.96 1.666-.06-1.772-.108-3.544-.16-5.316.36 1.22.738 2.435 1.12 3.65m42.36 98.865c-.464-5.24-.928-10.49-1.397-15.74-.94-10.49-1.9-20.98-2.91-31.47-1.95-20.31-4.12-40.61-6.67-60.86-1.25-9.85-2.6-19.69-4.05-29.51-.59-3.99-.74-10.22-5.18-12.21-4.31-1.93-7.99-1.54-12.51-.45-9.89 2.4-17.25 9.66-20.87 18.52-3.39.61-6.35 3.13-6.32 7.59.26 32.95 2.15 65.86 5.66 98.63.84 7.86 1.8 15.71 2.83 23.55.94 7.18.65 16.85 4.55 23.15 4.57 7.4 13.29 4.33 19.68 1.74 6.18-2.5 12.01-5.59 17.51-9.3 1.8-.06 3.68-.72 5.38-2.14 4.12-3.42 4.72-6.22 4.25-11.47"/>
    <path fill="#FEE8D3" d="M418.1 24.01c-16.178 4.54-32.51 8.297-48.967 11.677-16.12 3.31-31.235 8.925-46.62 14.64C290.3 62.29 234.835 79.73 202.623 91.694c-9.585 3.56-16.21 23.066-6.517 19.465 32.213-11.97 97.406-36.75 130.66-45.41 22.673-5.91 27.572-8.94 46.62-14.64 16.097-4.82 32.785-7.14 48.968-11.68 9.92-2.79 5.7-18.22-4.253-15.43"/>
    <path fill="#FEF4EB" d="M430.334 91.726c-.942-10.81 1.065-24.353-.325-35.375-.82-6.46-7.87-9.24-15.15-7.18-9.89 2.81-9.89 2.81-21.3 6.43-1.16.37-6.91 1.6-8 2.13-5.75 1.06-8.73 3.13-8.21 9.15 2.8 32.42 4.94 64.89 6.42 97.4.21 4.76 5.03 9.67 10.12 7.72 5.47-2.1 10.9-4.29 16.29-6.6 4.4-1.88 9.41-4.9 12.87-8.41 3.94-4 5.38-7.29 5.86-12.66.51-5.84.8-11.7.97-17.57.34-11.73 1.46-23.33.44-35.02"/>
    <path fill="#DEDAD7" d="M431.263 142.725c-.43 2.947-3.753 4.846-5.867 6.64-2.38 2.02-4.808 3.993-7.28 5.9-5.572 4.3-11.357 8.32-17.238 12.185-11.33 7.443-23.19 14.052-35.24 20.25-24.37 12.534-49.705 23.078-74.708 34.26-12.523 5.6-24.964 11.388-37.194 17.607-12.207 6.207-23.706 13.517-35.68 20.11-3.913 2.155-10.633 5.547-14.727 2.065-4.35-3.698-4.77-11.8-5.66-16.977-2.77-15.974-4.38-32.126-5.66-48.28-2.78-35.082-9.36-70.83 1.42-104.967.48-1.52.75-3.604 2.28-4.826 2.73-1.823 6.5-3.174 8.22-3.99 7.06-3.336 14.28-6.314 21.57-9.1 14.18-5.415 28.73-9.85 43.39-13.776 29.63-7.933 59.87-13.377 90-18.985l49.13-9.14 11.79-2.19c2.07-.38 6.06-1.94 8.13-.87 3.02 1.56 2.15 13.31 2.28 15.7.85 16.57 1.33 33.15 1.52 49.74.09 7.96.08 15.93.01 23.89-.07 8.06.63 16.78-.53 24.76m15.63-84.47c-.3-7.72-.63-15.44-1.15-23.14-.45-6.58-2.04-12.36-6.24-17.52-4.47-5.49-12.14-5.41-18.42-4.52-8.42 1.2-16.79 3.11-25.15 4.67l-48.97 9.11c-31.77 5.91-63.55 11.97-94.62 20.98-15.24 4.42-30.23 9.69-44.84 15.88-12.48 5.3-30.23 11.05-31 27.1-.09 1.82.34 3.3 1.1 4.48-6.87 28.15-4.58 56.72-2.72 85.61 1.04 16.25 2.38 32.48 4.45 48.63 1 7.81 2.17 15.6 3.56 23.35 1.15 6.48 3.07 12.97 7.28 18.15 9.9 12.2 25.49 8.22 37.38 1.68 11.97-6.59 23.48-13.84 35.69-20.05 13.06-6.64 26.38-12.73 39.76-18.68.4 10.57-.02 20.36.48 30.98.26 5.51-.33 9.73.58 15.67.87 5.68 10.39 10.74 15.33 13.34 19.66 10.34 33.68 14.08 51.86 4.74 4.56-2.34 8.84-5.21 13.37-7.64 5.32-2.85 11.19-4.58 16.75-6.91 9.36-3.92 18.4-9.69 22.81-19.22 2.06-4.46 3.73-11.54.41-15.92-3.64-4.8-6.5-5.66-11.98-8-4.85-2.07-8.89-1.61-14.1-2.36-2.96-.42-7.58-.71-10.57-.75-1.18-.01-6.77-.67-8.13-.56-.29-1.91-.59-7.49-.75-8.44-.52-3.03-.88-6.31-1.19-9.37-.72-6.92-.49-13.01-.34-19.96.01-.28 2.76-1.23 2.74-1.49 10.23-5.45 20.25-11.27 29.96-17.65 5.43-3.56 10.71-7.35 15.88-11.29 5.63-4.29 11.92-8.63 16.5-14.06 5.05-5.98 4.68-13.75 4.85-21.13.2-8.62.29-17.25.3-25.88.03-16.58-.32-33.17-.96-49.75"/>
    <path fill="#BDB5AF" d="M644.918 347.296c-.266-21.6-.215-43.202.115-64.8-4.87-.19-9.74-.21-14.61-.212-.265 18.145-1.053 36.248-2.03 54.403-1.3 24.182-1.897 48.42 1.78 72.436.223 1.466 1.857 1.918 3.074 1.746 3.667-.52 8.99 1.98 11.557-2.04 2.803-4.4 1.245-11.02 1.09-15.93-.476-15.2-.79-30.41-.976-45.61m-225.75 162.33c-4.075-1.93-8.96-.69-13.2-2.06-1.38-.45-2.4.28-2.834 1.3-1.454-.43-3.296.33-3.276 2.29.53 50.02 1.176 100.04 1.577 150.06.197 24.58-7.1 50.6-8.42 75.13-1.3 24.19-3.676 54.95 0 78.96.224 1.46 10.873.71 12.09.54 3.667-.52 8.07-4.92 10.636-8.94 2.81-4.4 1.25-11.02 1.1-15.93-.47-15.2-.79-30.41-.98-45.61-.37-30.42-.13-60.83.66-91.24.77-29.75 6.73-59.48 8.61-89.17.96-15.18-2.52-30.34-1.27-45.5.35-4.22-.66-7.96-4.68-9.86M76.37 468.33c-4.074-1.926-8.96-.69-13.2-2.06-1.38-.445-2.4.282-2.833 1.306-1.456-.427-3.298.333-3.278 2.296.53 50.02 1.17 100.04 1.57 150.06.19 24.577-.79 49.015-2.11 73.55-1.3 24.182-1.9 48.42 1.78 72.436.22 1.466 1.85 1.918 3.07 1.746 3.66-.518 8.99 1.986 11.55-2.037 2.8-4.393 1.24-11.014 1.09-15.925-.48-15.2-.79-30.405-.98-45.61-.38-30.414-.13-60.833.65-91.237.77-29.744 2.13-59.472 4-89.166.96-15.18 2.08-30.35 3.33-45.5.35-4.22-.66-7.96-4.68-9.86"/>
    <path fill="#FBBC05" d="M269.358 365.64c-9.96.25-19.888-.11-29.803-1.083-2.033-.2-3.833.46-5.284 1.61-1.92-.78-4.08-.98-5.96-.463-5.09 1.4-7.09 6.237-6.28 11.07L227.76 411c.94 5.608 3.32 10.11 8.985 12.15 4.91 1.77 10.013 2.993 15.25 3.104 11.158.236 19.564-7.91 21.838-18.39 1.14-5.25.623-10.652.673-15.968.05-5.163 1.565-10.133 3.53-14.862 2.256-5.428-3.35-11.527-8.678-11.393"/>
    <path fill="#BDB5AF" d="M1155.552 826.88c-27.54-9.626-55.535-17.863-83.9-24.693-14.176-3.413-28.45-6.417-42.784-9.103-7.478-1.4-14.98-2.677-22.492-3.878-3.675-.588-7.355-1.138-11.037-1.676 2.61-3.23 5.22-6.457 7.83-9.685 5.17-6.39 10.25-12.875 15.69-19.04 4.57-5.172 9.53-9.738 15.36-13.426 6.24-3.95 12.51-9.82 11.68-17.89-.82-7.89-9.14-11.81-15.37-6.37l-36.1 31.55c-1.46-20.95-2.58-41.92-3.36-62.9.92-1.44 1.48-3.15 1.63-4.97.78-9.81.57-19.01-3.71-28.05-3.22-6.82-12.65-5.13-15.76.47-5.05-.93-10.86 1.9-10.76 8.52l1.12 77.09.29 19.76c.08 5.8 1.12 12.51.01 18.22-.72 3.67-8.44 5.73-11.4 6.73-5.48 1.84-11.26 2.77-16.96 3.64-24.99 3.81-50.05 7.16-75.04 11.05-12.69 1.97-25.52 3.61-38.1 6.19-11.08 2.27-21.84 10.96-21.02 23.22.39 5.87 5.44 10.18 11.39 8.68 30.38-7.67 60.89-14.79 91.53-21.35 15.32-3.28 30.67-6.4 46.04-9.39 15.2-2.96 29.52-5.15 44.82-1.54 13.89 3.28 27 9.32 40.51 13.82 14.34 4.77 29.29 7.41 44.14 9.98 14.28 2.46 28.58 4.85 42.57 8.72 10.98 3.03 27.71 12.79 37.11 1.32 4.4-5.38 2.79-12.68-3.97-15.04"/>
    <path fill="#FBBC05" d="M1217.106 337.518c-1.614-16.665-2.265-31.716-6-48.667-3.074-13.95-10.906-29.41-19.16-41.09-8.947-12.66-24.12-22.22-40.017-16.5-18.65 6.71-18.68 26.43-18.36 43.15.3 16.14 2.22 32.21 4.19 48.21 3.59 29.07 7.47 58.21 4.07 87.48-.03-.01-.5 3.4-.46 3.16-.25 1.57-.54 3.13-.83 4.69-.58 3.11-1.31 6.18-2.08 9.24-.78 3.04-1.7 6.04-2.69 9.02-.49 1.48-1.04 2.95-1.58 4.41-.88 2.37-.89 2.27-1.6 3.83-5.72 12.66-12.58 21.54-22.7 30.6-10.28 9.2-22.82 16.42-34.88 23.48-12.29 7.19-25.13 14-38.22 19.06-29.3 11.32-56.92 14.74-87.19 22.2-29.7 7.31-54.28 16.69-85.14 14.11-20.13-1.68-43.88-5.07-63.13-10.81-1.63-.48-6.31-.73-7.92-.58-1.51-.57-7.2.13-8.97.13-7.27 0-11.3-1.04-10.82 6.59 1.69 26.92 5.01 56.41 26.31 75.54 11.4 10.25 23.22 17.96 37.65 22.55 14.43 4.6 26.44 7.03 41.49 8.37 29.59 2.64 69.91 2.83 99.51 1.67 15.04-.59 27.46-.5 42.49.33 16.34.9 32.65.28 49 1.2 28.98 1.63 56.61-3.68 82.58-17.51 12.31-6.56 22.51-16 30.68-27.2 8.54-11.72 13.18-26.29 16.61-40.22 7.73-31.4 8.16-61.69 12.45-93.71 4.3-32.14 4.37-58.61 5.91-91 .76-16.02.3-35.68-1.25-51.67"/>
    <path fill="#FBBC05" d="M1161.227 257.605l-.022.003-.044.026h.02c.02-.008.04-.02.05-.03"/>
    <path fill="#FFCDCA" d="M717.284 276.16c-43.848-14.62-76.983-17.972-118.295 3.056-9.62 4.894-26.46 8.097-35.39 14.094-4.77 3.2-7.72 2.994-13.18 1.526-6.25-1.68-12.49-3.414-18.73-5.12-10.5-2.87-19.47-5.44-26.77-13.92-8.34-9.68-15.96-20.07-23.89-30.087-6.96-8.79-19.79.85-17.55 10.21l6.78 28.37c2.26 9.48 3.24 20.49 9.35 28.34 5.9 7.57 19.63.64 27.81 1.03 2.08.1 8.83 3.69 10.71 4.71-.77.46 1.37 4.65.61 5.12-15.62 9.64-34.46 23.93-52.57 28.28-11.1 2.67-24.18 3.9-33.9-5.34-8.77-8.33-19.91-20.08-20.48-9.96-.53-.72-1.06-1.42-1.58-2.14-3.33-4.64-9.08-6.87-14.37-3.77-4.59 2.69-7.11 9.71-3.77 14.37 14.82 20.66 38.99 56.42 69.25 45.4 6.5-2.38 15.54-8.7 22.45-9.52 15.61-1.84 13.46-.96 21.08-2.59 15.75-3.36 29.49-9.04 45.02-13.29 15.53-4.25 30.93-8.99 46.2-14.11 3.66-1.23 7.31-2.49 10.96-3.77 2.91-1.02 6.18-2.72 9.25-3.1 5.12-.64 14.47 4.48 18.07 7.35 11.55 9.2 23.17 10.91 36.61 20.27 6.32 4.4 7.39-8.99 10.19-15.19 3.32-7.36 7.48-16.43 11.04-23.68 8.77-17.82 14.2-30.52 25.05-47.15 3.01-4.62 5.22-7.7-.01-9.45m377.92-35.26c-.08-7.92-.14-16.14-3.03-23.62-5.33-13.77-19.54-23.01-34.2-17.27-14.98 5.87-20.47 20.52-23.66 35.09-1.69 7.67-3.35 15.35-5.02 23.03-1.8 8.25-4.66 16.93-5.18 25.37-.42 6.62 4.03 11.98 2.32 18.38-1.72 6.4-5.67 12.43-8.47 18.41-6.38 13.61-12.2 27.48-19.45 40.67-3.46 6.29-3.61 15.65-8.1 21.26-2.83 3.54-9.91 4.68-13.74 7.92-1.37-1.46-5.12-1.29-6.48-2.76-2.74-2.95-3.06-7.56-5.75-10.55-5.4-5.99-10.67-12.09-15.81-18.31-10.01-12.11-19.14-24.93-27.05-38.5-7.69-13.18-15.7-28.39-17.66-43.72-1.16-9-1.27-18.06-2.54-27.06-1.22-8.63-2.73-14.76-4.74-23.23-2.69-11.34-15.52-9.73-14.17 2.16 1.09 9.64-8.11 17.47-14.53 24.96-.67.75-1.37 1.47-2.09 2.18-1.35-.88-2.81-2.28-3.73-2.99-5.07-3.96-11.39-6.87-16.94-10.1-4.81-2.79-7.92-7.1-11.75-3.27-4.26 4.26-3.75 10.53 0 14.85 1.75 2.02 3.58 3.94 5.46 5.8-.04.99.01 2.01.16 3.03 2.18 14.44 14.84 23.29 26.47 30.19 4.83 2.86 9.99 5.75 13.39 10.36 4.3 5.82 9.63 7.62 12.71 14.12 6.68 14.1 20.75 30.97 28.61 44.43 6.98 11.95 12.32 23.97 20.07 35.45 7.78 11.51 12.3 21.47 22.27 31.17 4.89 4.76 7.1 11.92 12.61 15.93 6.91 5.02 19.6 7.46 28 4.37 13.8-5.08 22.28-16.64 31.54-27.55 9.28-10.93 17.38-20.11 25.36-32.02 15.6-23.32 23.81-51.31 30.08-78.73 3.49-15.28 4.7-31.02 5.03-46.65.16-7.61.07-15.22-.01-22.83"/>
    <g transform="translate(895 -.65)">
      <mask id="b" fill="#fff">
        <use xlink:href="#a"/>
      </mask>
      <path fill="#FFCDCA" d="M239.993 17.097c12.773-4.885 19.768-8.62 12.316-13.604-6.18-4.13-15.75-2.84-22.6-1.806-13.84 2.09-26.3 10.98-37.35 18.99-2.76 1.996-5.47 4.038-8.29 5.94-1.53 1.035-4.55 3.334-6.61 2.996-2.86-.47-5.75-2.445-8.43-3.46-3.94-1.494-8.5-1.786-12.67-1.938-7.23-.263-14.66 1.115-21.8 2.08-7.74 1.047-9.54 5.122-17.07 7.176-13.48 3.67-21.13 13.7-32.83 21.11-10.47 6.63-20.13 11.78-32.25 14.95-8.22 2.15-27.98-2.99-36.04.02C5.22 73.73-1.17 84.5 1.15 96.36c2.068 10.562 9.957 18.16 19.383 22.64 10.733 5.1 22.623 8.186 33.888 11.88 11.07 3.63 18.91 9.37 30.02 12.872 5.38 1.693 16.77 4.672 22.34 5.595 4.97.823 7.36-3.696 12.2-2.914-.03.72 11 1.177 10.81 2.077-1.06 4.844-.5 15.008-1.67 19.833-2.84 11.742-7.67 26.854-19.25 39.914-4.08 4.61 7.34 1.67 12.13 2.213 3.73 3.545 9.61 4.66 14.17-.175 7.62-8.072 15.46-17.2 24.49-23.73 9.04-6.536 20.09-7.357 27.88-1.85 18.8 13.29 28.66 44.275 38.34 64.314 2.03 4.19 7.59 6 11.86 4.82 4.83-1.33.55-8 1-12.71 1.54-16.35 1.41-35.86-1.92-51.53-3.48-16.37-4.37-19.65-6.07-36.25-2.65-25.99-16.29-58-30.39-84.26 19.54-12.87 17.48-43.53 39.67-52.02" mask="url(#b)"/>
    </g>
    <path fill="#FFF" d="M1006.308 38.29c-5.62 2.956-11.588 5.05-17.13 8.18-2.997 1.695-5.836 3.66-8.628 5.667-1.317.944-2.656 1.703-3.024 3.364-.07.33-.07.62-.04.91-.378.07-.753.14-1.127.2-3.18.54-1.83 5.36 1.32 4.82 4.21-.72 8.2-1.11 12.45-.82 2.74.19 6.48.78 9.01-.7 2.19-1.28 3.18-4.91 4.15-7.04 1.78-3.93 3.94-7.6 6.42-11.14 1.53-2.18-1.36-4.5-3.42-3.42"/>
    <path fill="#4285F4" d="M455.065 387.465c-2.445.38-5.844.69-8.29 1.07-3.823.592-9.138-1.715-12.002-4.23-4.275-3.75-10.702-8.846-15.372-12.064-9.24-6.37-11.44-14.73-18.04-23.68-2.63-3.57-5.35-7.1-8-10.69.53-.43 1.01-1.02 1.4-1.77.29-.55.53-1.09.74-1.63.87.97 2.11 1.66 3.73 1.8 4.67.4 8.69 4.65 12.87 6.74 2.93 1.46 7.8-2.55 8.47-6.26.94-5.12-.12-9.24-3.58-13.17-.52-.59-1.13-1.13-1.76-1.64.12-.72.1-1.46-.12-2.2-2.2-7.08-8.99-10.58-15.17-13.83-6.46-3.39-14.51-5.4-21.44-2.24-12.01 5.49-9.24 16.3-3.95 25.79-.5 3.27.4 7.07 1.18 9.86 3.37 12 13.45 22.46 21.75 31.31 8.75 9.34 17.92 19.04 28.83 25.86 9.46 5.92 23.95 4.25 31.91-3.67 4.24-4.21 2.02-6.11-3.1-5.32m27.28-76.73c-2.78.26-5.69-13.5-6.43-15.85-.14-.43-.27-.86-.4-1.29.15-.74.16-1.54-.05-2.38-.99-4.13-2.46-8.11-4.17-12.02-.24-.89-.49-1.78-.72-2.67-2.25-8.53-4.66-23.09-5.58-31.83 4.89 4.19 10.63 13.7 17.78 12.65 2.48-.36 3.92-3.07 4.04-5.3.41-7.17-5.09-12.01-8.96-17.39-2.43-3.37-4.59-6.94-6.49-10.63.3-.92.37-1.93.1-2.98-.75-2.86-2.3-5.13-4.39-6.7-.07-.19-.15-.38-.22-.57-1.75-4.72-7.56-4.7-9.89-1.72-5.37 1.11-9.17 6.16-10.71 11.18-.59 1.91-.78 3.93-.74 5.99-1.51.79-2.58 2.32-2.49 4.67.51 12.88 5.99 23.91 11.52 34.98-.88 1.22-1.35 2.79-1.08 4.48 1.16 7.16 4.5 13.86 7.2 20.54 2.84 7.04 5.31 14.45 9.59 20.78.5.75 1.15 1.31 1.88 1.7 2.24 3.42 5.61 2.48 10.32 2.05 7-.65 6.97-8.3-.1-7.65"/>
    <path fill="#FFF" d="M1056.365 72.392c-5.906-3.484-17.937-5.016-24.6-5.823-1.59-.2-6.648 1.4-6.65 2.65-1.362.2 1.74.88 2.35 2.53 2.476 6.73 4.22 13.55 2.155 20.64-.425 1.45.783 3.31 2.41 3.16 5.843-.55 10.347.93 15.71-1.52 3.132-1.43 14.694-10.55 14.574-15.08-.123-4.64-2.38-4.48-5.95-6.59"/>
    <path stroke="#000" stroke-width="4" d="M1064.13 79.016c-.076-.162-.152-.323-.23-.483-2.6-5.254-8.3-8.038-13.794-9.767-8.892-2.8-18.596-3.79-27.466-.917-8.87 2.87-16.713 10.1-18.788 19.39 2.42 1.6 6.92 2.89 9.605 3.96 3.385 1.35 4.892 1.55 8.36 2.65 6.58 2.08 6.08 2.24 9.915 2.69 2.5.29 7.044.4 9.54.05 9.654-1.35 16.635-10.46 22.858-17.59z" stroke-linecap="round" stroke-linejoin="round"/>
    <path stroke="#000" stroke-width="4" d="M1071.303 33.1c-14.937-7.212-32.006-6.372-47.85-3.208-8.202 1.638-16.072 4.338-23.367 8.546-6.883 3.97-13.2 8.855-19.818 13.247-14.106 9.36-29.442 13.55-46.154 14.326-7.875.37-16.93-1.1-24.23 2.6-6.283 3.19-10.12 9.91-11.74 16.69-1.822 7.64-1.384 15.39 4.3 21.18 5.685 5.79 13.61 8.15 21.166 10.09 15.882 4.08 30.185 10.94 45.018 17.88 15.325 7.18 30.77 12.42 47.784 12.59 14.35.15 29.13-2.6 41.745-9.87 3.196-1.84 6.233-3.97 9.03-6.4 1.404-1.22 2.76-2.51 4.024-3.88.47-.51 1.29-1.13 1.34-1.88.07-.94-.56.01-.58.11m47.43 27.64c-1.96-14.45-5.01-29.99-7.12-44.42-1.85-12.71-4.41-27.37-9.19-39.42" stroke-linecap="round" stroke-linejoin="round"/>
    <path stroke="#000" stroke-width="4" d="M1023.53 67.646c.215-.463.903-.17 1.264.185 3.428 3.37 5.677 7.97 6.25 12.8.576 4.83-.528 9.85-3.067 13.96l-.038.13m9.13 2.1c1.24 3.27.58 6.99-.42 10.34m6.44-10.33c.51 3.13.54 7.69 0 10.81m5.86-13.86c.49 2.53 1.1 8.33 1.04 10.91m4.13-14.81c1.16 2.57 1.97 9.37.75 12.14m3.4-15.64c1.26 2.44 1.77 6.04 1.61 8.38m3.13-14.05c1.72 1.74 2.62 5.92 1.11 9.18M880.58 314.51c-20.23-9.355-40.106-19.466-59.58-30.305-17.596-9.794-36.077-24.29-56.744-26.192-20.15-1.854-36.41 11.768-46.967 27.597-12.05 18.07-21 38.664-30.24 58.26-9.67 20.498-18.84 41.227-27.92 61.995-8.76 20.05-19.23 40.284-23.79 61.82-2.2 10.38-2.73 21.178-.23 31.553 2.42 10.04 7.47 19.164 12.67 28 10.7 18.202 20.27 36.73 27.44 56.64 5.78 16.07 10.16 32.646 13.06 49.48 10.85-18.518 23.23-36.133 36.98-52.61 12.52-15.01 26.52-30.543 46.03-35.95 19.94-5.528 40.89-.364 60.53 3.957 21.33 4.692 42.02 7.257 63.83 4.41 22-2.872 43.29-9.59 64.15-16.948 21.54-7.6 42.96-15.576 64.43-23.39 37.13-13.52 77.59-28.215 100.82-62.348 11.77-17.3 15.44-37.29 16.19-57.87.81-22.54.26-45.2-.7-67.73-1.94-45.54-6.75-90.96-14.39-135.9-2.3-13.48-4.85-26.92-7.65-40.3" stroke-linecap="round" stroke-linejoin="round"/>
    <path stroke="#000" stroke-width="4" d="M999.42 223.123c-3.43 22.12-8.236 44.18-15.5 65.38-5.315 15.508-13.91 31.255-29.694 38.028-8.903 3.82-18.898 4.59-28.44 3.44" stroke-linecap="round" stroke-linejoin="round"/>
    <path stroke="#000" stroke-width="4" d="M873.053 270.644c-3.724-5.443-3.81-19.002-1.146-21.773 8.29-8.62 11.72-11.54 10.283-27.63-.247-2.77 2.79-4.61 5.148-3.13 3.448 2.16 6.15 7.88 5.6 10.62-2.874 14.38 5.5 24.82 6.47 39.92.51 7.91 0 14.61 1.72 22.35 1.72 7.74 7.068 14.41 12.033 21.43 8.66 12.24 7.73 12.47 12.89 17.62 9.46 12.03 12.29 14.85 22.93 31.43 2.34 3.65 6.42 8.53 7.22 9.46 9.12 10.6 9.78 12.14 17.14 19.77.85.88 1.72.86 2.58.86 9.46-1.72 15.47-9.45 19.77-17.19 9.46-19.76 20.63-37.81 28.36-57.58 3.44-8.59 6.88-17.19 7.74-25.78 0-6.88 3.44-12.03 2.93-19.06" stroke-linecap="round" stroke-linejoin="round"/>
    <path stroke="#000" stroke-width="4" d="M829.99 234.238c0 12.137 7.904 25.26 11.36 31.485 2.248 4.046 2.226 9.04 4.41 13.12 2.954 5.524 9.202 8.225 14.307 11.856 7.145 5.08 12.37 12.36 17.404 19.54 21.32 30.4 41.63 61.5 60.91 93.24 7.14 11.74 14.36 23.84 25.1 32.41 10.74 8.57 25.98 12.96 38.47 7.24 5.8-2.65 10.49-7.19 14.92-11.76 43.58-44.99 74.2-104.71 75.26-167.33m42.88-12.41c-2.26 1.47-3.79 1.32-6.45.84-7.62-1.4-11.21-9.95-14.17-17.12-5.64-13.64-11.15-25.86-19-38.35-3.59-5.72-6.15-7.87-11.46-12.04-5.3-4.17-17.5-4.96-23.79-2.55-9.37 3.59-17.62 10.07-23.75 18.01-9.74 12.61-23.15 15.24-36.3 6.23.15 6.37.08 12.46-.95 18.52" stroke-linecap="round" stroke-linejoin="round"/>
    <path stroke="#000" stroke-width="4" d="M1090.858 301.05c7.056-22.134 5.638-45.957 4.148-69.14-.51-7.934-.354-14.933-4.65-21.62-3.938-6.133-8.067-7.925-14.617-11.123-5.48-2.673-22.21.716-27.79 5.587-10.59 9.23-9.55 14.47-14.12 27.757-4.57 13.29-6.71 27.27-8.75 41.16-.7 4.72-1.38 9.48-.98 14.22.41 4.92 2.01 9.74 4.63 13.93m-23.5-93.32c.14-.76.3-1.54.47-2.34 3.61-17.18 12.33-42.55 10.7-59.14m54.03-101.18c.12-5.75 2.34-11.33 5.61-16.02 3.26-4.68 7.54-8.54 12.08-11.93 9.4-7.01 20.24-12.2 31.74-14.04 9.96-1.59 20.48-.59 29.77 3.55 5.08 2.26 4.05 5.3 2.98 10.42-1.15 5.48-3.15 10.77-5.9 15.62-3.11 5.47-7.15 10.31-11.23 15.06-3.4 3.97-6.89 7.93-11.07 11.02-5.88 4.35-12.88 6.8-19.83 8.92-7.19 2.19-14.77 4.1-22.13 2.65" stroke-linecap="round" stroke-linejoin="round"/>
    <path stroke="#000" stroke-width="4" d="M1075.834 53.923c6.344-16.216 19.685-29.4 35.722-35.305 3.587-1.32 7.29-2.29 11.032-3.038 8.312-1.658 17.013-2.193 25.178.11M917.908 85.484c.597-2.334 2.475-4.275 4.747-4.906.806-.224 1.704-.282 2.446.113.53.28.93.77 1.21 1.3.74 1.41.68 3.14.2 4.66-.48 1.52-1.35 2.87-2.21 4.21m-23.78 184.63c4.57 2.99 9.33 5.58 14.66 6.98 5.64-22.92 10.19-46.1 13.62-69.46l-45.09-23.16c-19.23-9.88-38.52-19.78-56.53-31.74l-61.26 46.63c36.07 14.38 69.98 31.99 103.83 51.02" stroke-linecap="round" stroke-linejoin="round"/>
    <path stroke="#000" stroke-width="4" d="M809.926 210.5l-.466-2.595c.14.48.47.9.9 1.153.434-1.4.618-2.876.54-4.34l2.878.928c1.584-1.807 1.007-4.548 1.07-6.95.006-.255.025-.523.163-.738.32-.496 1.09-.438 1.6-.157.52.29.97.73 1.54.86 1.15.27 2.19-.83 2.51-1.97.32-1.13.2-2.35.51-3.48.32-1.13 1.35-2.24 2.5-1.99 1.04.23 1.74 1.48 2.8 1.38 1.13-.11 1.46-1.56 1.51-2.69l.26-6.09c1.11.61 2.43.85 3.68.66l.83-4.87c.09-.49.41-1.14.88-.97m-4.38 45.05l.02-4.03 2.59 1.26c.31-1.82.4-3.68.25-5.52.85.63 2.15.03 2.63-.91.48-.94.36-2.06.22-3.11-.14-1.04-.3-2.15.09-3.13l4.56 2.13c-.27-4.15-.92-8.27-1.94-12.3 1.68 1.31 3.36 2.62 5.03 3.93.36-3.15.48-6.34.38-9.51l3.51 1.77.72-5.26m.88 40.14c.64.86 1.57 1.48 2.61 1.73.04-2.64-.36-5.29-1.18-7.79l5.03 3.34c.03-2.7-.22-5.4-.75-8.05 1.47 1.56 3.24 2.84 5.17 3.76-.24-3.53-.67-7.05-1.28-10.54 2.12 1.01 4.09 2.33 5.84 3.9.04-3.25-.17-6.5-.64-9.72 1.06.16 2.04-.74 2.35-1.76.31-1.02.12-2.12-.07-3.17.85.17 1.62.69 2.09 1.42m-.9 36.09l-.48-2.46c1.66.76 3.37 1.42 5.12 1.97.07-2.64-.13-5.29-.6-7.89l3.48 1.5v-7.89c0-.22.01-.46.18-.6.19-.15.46-.08.68 0l2.32.78.67-5.45c.08-.61.16-1.24.53-1.73.24-.32.58-.54.89-.79 1.92-1.53 2.77-4.27 2.06-6.61l2.96.65m12.06 41.71l.02-1.16c.97.98 2.43 1.45 3.79 1.23-.21-2.09-.75-4.14-1.6-6.06l4.69 1.49c-.47-2.61-1.1-5.2-1.89-7.75 1.07-.53 2.53.68 3.48-.04.62-.47.53-1.4.38-2.17l-1.23-6.16c1.208.29 2.36.8 3.39 1.49.31-2.61.045-5.29-.772-7.78l2.654.27v-1.14m-443 122.73c48.025-20.084 90.28-51.844 137.265-74.264 17.318-8.27 35.85-15.36 55.03-14.957 21.89.457 42.27 10.557 61.81 20.44.48.24 1.01.55 1.11 1.077.096.528-.69 1.048-.973.594M477.43 378.3c36.45-5.623 73.62-11.47 106.45-28.274 4.81-2.464 9.51-5.15 14.16-7.9 15.48-9.13 30.55-18.94 45.17-29.38m-11.43 8.49c6.3 3.29 12.6 6.59 18.9 9.89 3.01 1.57 6.02 3.15 9.02 4.75 8.23 4.39 16.37 8.96 24.4 13.71" stroke-linecap="round" stroke-linejoin="round"/>
    <path stroke="#000" stroke-width="4" d="M476.876 377.724c-6.48 1.514-11.12 6.986-15.876 11.642-6.74 6.6-16.176 12.368-25.162 9.497-3.45-1.103-6.386-3.373-9.206-5.644-24.203-19.5-47.245-39.56-56.29-69.29-1.277-4.2-.542-12.11 2.083-15.62 1.34-1.8 3.817-3.7 5.873-4.59 4.157-1.79 7.546-3.1 12.052-2.69 6.124.56 11.684 3.94 16.185 8.13 4.502 4.19 8.138 9.2 12.104 13.9 5.27 6.25 11.15 11.96 17.01 17.66 3.23 3.14 6.64 6.38 10.95 7.7 6.28 1.91 14.78.02 20.84-2.52" stroke-linecap="round" stroke-linejoin="round"/>
    <path stroke="#000" stroke-width="4" d="M462.604 387.026c-6.004-.608-11.975 1.92-17.993 1.466-7.31-.55-13.54-5.356-18.95-10.298-12.54-11.444-25-25.595-32.41-39.53-1.04-1.952.56-4.293 2.76-4.04 3.07.354 6.18 2.107 8.79 3.95 2.29 1.616 4.73 3.386 7.3 4.422 3.43 1.38 7.12-.923 7.5-4.597.14-1.33.07-2.67-.22-3.97-.44-1.98-1.37-3.98-.86-5.93.52-1.96 2.64-1.94 4.35-.68m217.54-52.44c3.71 2.76 9.65 1.73 12.22-2.12m-49.03 66.66c24.98 7.84 49.58 17.88 71.1 33.02m-107.9-81.07c-22.34-1.75-51.56 7.71-67.03-15.5-12.89-19.77-20.62-38.68-30.08-59.3-.86-1.72-2.58-2.58-3.44-3.44-1.72-.86-2.57-2.58-4.29-2.58-7.73-.86-12.03 6.01-15.47 12.03-.86 1.71-1.72 4.29-2.58 6.01-1.72 6.87-.86 13.75 1.72 19.76 7.74 17.19 11.17 35.23 16.33 53.28 2.58 7.73 7.74 13.75 16.33 15.47 3.44.86 6.88-.86 10.32-.86 9.46-1.72 21.49-6.88 29.57 1.62" stroke-linecap="round" stroke-linejoin="round"/>
    <path stroke="#000" stroke-width="4" d="M492.838 314.34c-4.323-.48-9.195-1.272-11.65-4.862-.93-1.362-1.39-2.983-1.833-4.574-5.312-19.114-10.347-37.83-14.73-57.178-.192-.848-.173-2.352.357-3.04.665-.862 2.09-.713 2.915-.003.825.71 1.215 1.786 1.627 2.793 2.01 4.926 6.122 9.762 11.442 9.726 2.543-.882 3.335-5.428 2.472-9.73m293.865 296.795c-11.57 30.828-4.97 60.183 21.136 80.25 24.5 18.834 49.18 29.28 75.5 30.834 26.31 1.56 51.82.52 78.16 1.5 32.06 1.2 66.08 3.58 98 .34 17.48-1.77 36.8-2.75 53.66-7.66 25.46-7.42 42.96-9.37 62.44-27.37 21.84-20.18 31.7-50.02 38.72-78.92 15.98-65.82 21.65-134.14 16.71-201.7-.66-9.03 1.12-17.54-.1-26.52-2.91-21.51-6.76-44.87-22.77-59.53-5.93-5.42-13.13-9.23-20.24-12.97-7.09-3.73-14.43-7.54-22.42-8.17-7.99-.63-16.86 2.74-20.24 10M458.62 487.4c-152.73-6.76-303.544-37.71-456.194-46.25-.07 5.25-.367 11.495-.437 16.747 59.67 9.792 119.86 15.76 179.89 23.01 29.03 3.504 48.57 6.578 70.55 9.278 70.89 8.708 130.59 15.056 204.99 21.748.34-8.632.86-15.905 1.2-24.537zm-89.64-257.14c8.946-5.322 16.377-9.754 25.312-15.092 28.856-17.242 59.983-36.793 91.838-55.475 5.855.62 13.694 1.568 18.308 1.936 67.695 5.4 156.166 9.43 223.332 19.45M2.922 441.29c98.62-55.065 196.634-111.215 294.02-168.437m364.576-16.608c22.06-25.06 43.816-50.436 66.255-75.16m-268.225 305.89c2.89-2.752 7.89-8.124 10.89-12.124 35-42 69-79 104.223-119.91" stroke-linecap="round" stroke-linejoin="round"/>
    <path stroke="#000" stroke-width="4" d="M58.343 466.148c-3.37 64.773-3.984 129.133-3.39 193.99.095 10.17.188 20.338.28 30.507.24 25.842.476 51.684.713 77.526 1.368 0 11.04-.23 11.993-.48 1.52-.39 3.18-2.02 4.47-2.93 1.66-1.17 2.64-2.33 4.3-3.5" stroke-linecap="round" stroke-linejoin="round"/>
    <path stroke="#000" stroke-width="4" d="M72.01 469.097C70.69 523.1 69.84 571.85 67.94 629.35c-1.526 46.1-1.346 89.75.67 138.247M80.69 469.6c-.64 14.382-.898 27.952-1.536 42.333-.38 8.55-.805 16.985-.84 25.543-.25 61.375.83 117.875-.79 183.125-.31 12.51-.665 24.74-.96 40.5m327.9-254.11c-1.525 86.87-7.346 220.16-11.19 307.37m23.86-306.14c-.862 38.65-1.452 76.9-2.03 112.98-.832 52.17-8.1 142.8-10 194.67m370.3-265.96c26.69 6.29 50.093 9.78 77.41 12.15 22.63 1.97 45.453 2.57 68.03.1 29.53-3.22 58.21-11.63 86.707-20.01 19.69-5.78 39.37-11.57 59.06-17.35 29.04-8.53 60.81-19.13 76.02-45.3 6.25-10.75 8.99-23.13 11.65-35.28 14.77-67.61 29.52-138.14 12.7-205.27M963.13 657.3c.707 43.577-2.01 85.79-1.3 129.37-41.39 7.183-52.462 6.04-103.14 16.183-17.964 3.598-16.25 2-39.44 7.31-15.937 3.65-19.23 14.43-14.06 29.94 37.363-8 18.918-2.966 45.147-8.05l99.595-19.29c7.28-1.41 20.76-4.943 28.173-4.907 10.467.052 26.253 3.52 36.334 6.334 50.65 14.138 82.71 22.976 134.5 32.167l5.35-16.392c-53.42-19.54-105.86-35.44-163.19-45.106 0-39.34 2.33-83.68 2-126.38" stroke-linecap="round" stroke-linejoin="round"/>
    <path stroke="#000" stroke-width="4" d="M992.022 755.768c8.336-7.54 17.396-15.13 25.946-22.427 4.64-3.96 17.924-18.9 23.918-9.79 5.726 8.71-6.176 17.36-11.49 22.48-7.936 7.65-15.66 15.52-23.155 23.61-4.64 5.01-9.2 10.11-13.67 15.28M676.19 259.74c17.97-21.173 35.31-42.848 51.53-65.42-.04-4.054-.143-8.07-.19-12.126M458.64 511.938c15.68-21.084 28.77-35.375 43.035-53.62 31.613-40.445 66.293-78.385 101-116.28M424.66 508.914c.463 20.06.34 38.064.463 56.06.148 21.39-2.077 41.86-1.93 63.25.084 12.084-.312 26.543-.374 38.626-.19 36.566-6.8 98.82-8.4 140.917m-21.41 7.548c3.86.648 7.76 1.046 11.67 1.19 1.32-1.01 3.02-1.877 4.34-2.886 1.94-1.49 3.89-2.99 5.64-4.7M634.4 351.35c-.895 20.894-1.764 40.652-2.55 58.484m14.617-52.57c-1.193 20.074-2.22 38.757-2.78 54.065m11.75-49.57c-1.054 14.8-1.965 29.02-2.436 41.48" stroke-linecap="round" stroke-linejoin="round"/>
    <path stroke="#000" stroke-width="4" d="M631.593 410.8c3.86.648 7.764 1.046 11.676 1.19 1.31-1.01 3.02-1.877 4.34-2.886 1.94-1.49 3.89-2.985 5.64-4.7m194-159.386c2.77 7.647 13.98 27.106 24.19 25.4m-573.85-34.054c1.35 16.187-2.03 37.045 1.93 52.8.49 1.955 1.12 3.94 2.42 5.48 1.5 1.787 3.72 2.78 5.87 3.688 8.24 3.475 16.65 6.545 25.2 9.193 4.64 1.44 9.46 2.767 14.3 2.308 5.77-.55 10.97-3.574 15.96-6.528 16.18-9.578 32.38-19.168 47.81-29.923 2.69-1.88 5.45-3.89 7.05-6.76 3.16-5.687.03-13.884-6.13-16.003-1.99-.69-4.13-.8-6.23-.9l-24.27-1.19c-3.07-.15-6.39-.4-8.69-2.44s-2.95-5.32-3.42-8.35c-1.79-11.52-2.34-25.55-2.83-37.2m-135.4 165.31l2.46 27.42c.79 8.68 1.6 17.51 4.81 25.62m44.99-54.81c.33 11.21-.13 22.45-1.36 33.61-.6 5.4-1.07 11.07-2.37 16.35-1.12 4.56-5.42 6.45-9.76 7.71-10.25 2.98-21.62 1.93-31.15-2.88m39.1-52.84c2-.28 4.25-.83 5.21-2.6.66-1.23.51-2.76-.02-4.05-.99-2.43-3.19-4.21-5.6-5.24-2.42-1.03-5.05-1.39-7.66-1.67-8.56-.93-17.26-1.1-25.73.4-3.07.54-6.16 1.32-8.82 2.95-2.66 1.62-4.87 4.21-5.44 7.27 9.93 3.94 20.93 3.89 31.62 3.78 5.48-.06 10.99-.11 16.43-.86z" stroke-linecap="round" stroke-linejoin="round"/>
    <path fill="#000" d="M1024.956 69.205c-.8-.817-1.756-.893-2.562-.558-.524-.114-1.114-.017-1.72.42-3.958 2.855-7.63 5.99-11.02 9.504 0 .01-.002.01-.002.01-1.32.94-2.558 1.98-3.585 3.3-4.862 6.29 6.158 8.74 9.807 9.89 4.88 1.54 13.567 5.26 14.554-2.86.87-7.15-.32-14.43-5.472-19.7"/>
    <path fill="#FFF" d="M1022.91 73.804c-3.223 0-3.223 5 0 5 3.225 0 3.225-5 0-5"/>
    <path fill="#FDAC9E" d="M1079.325 105.27c-2.227-3.228-7.286-2.755-10.78-2.94-3.374-.18-8.707-.56-10.594 3.082-1.64 3.176-.84 6.313 1.63 8.758 2.09 2.07 5.15 2.314 7.99 1.832 3.21.07 6.27-.064 9.13-1.967 2.52-1.672 4.57-5.955 2.63-8.764m-92.28-7.45c-3.22 0-3.22 5 0 5s3.23-5 0-5m8.55 4.89c-3.22 0-3.22 5 0 5s3.23-5 0-5m8.96 4.48c-3.22 0-3.22 5 0 5s3.23-5 0-5m13.44 3.26c-3.22 0-3.22 5 0 5s3.22-5 0-5m11.4 1.63c-3.22 0-3.22 5 0 5s3.22-5 0-5"/>
    <path fill="#FFF" d="M1092.057 146.838l.958 9.005"/>
    <path stroke="#FFF" stroke-width="2" d="M1092.057 146.838l.958 9.005m11.487 5.02c-.455 2.188-.136 4.528.886 6.514m-7.443-20.027c-.21 2.37.133 4.786.99 7.002m5.025-12.506c.52 2.162 1.04 4.324 1.558 6.486m-9.168-19.972l.573 5.492m15.537 30.492c.483 1.34.968 2.678 1.452 4.017m1.886 19.52l1.05 5.99m-20.418-17.51l1.507 7.5m6.923-2.47l1.91 5.04m-13.826-72.56l1.88 6.54m3.632-12.53c-.196 1.72.13 3.49.926 5.03m-4.426-20.54c1.104 2 1.763 4.24 1.915 6.52m-64.1 81.46c-.43 2.15-.53 4.36-.28 6.53m3.46-21.99v4.5m4.43 7.02c.33 2.17.66 4.33 1 6.5m3.54-16.5l.61 4.49m-1.6-16.99l1.17 5.47m5.43-.98l1.01 4.5m-24.09-127.53l7.99-1.54m-2.98 7.08h3.5m10.51-5.97c2.57-.35 5.25.17 7.51 1.46m-9.5 3.94l4 .51m.49 6.07h3m-36.5-5.49l6.48-1.6m-2.51 9.94l7.05-1.82m8.49.49l3.99-.61m-75.48 76.1c.94 1.81 2.96 3.01 5 2.97m8.4 3.69c2.39 1.54 4.97 2.77 7.66 3.66m-12.6-13.27c1.97 1.28 4.22 2.11 6.54 2.41m15.02 7c1.33.83 2.93 1.2 4.48 1.04m-11.49-8.53l7.48 2.07m7.53 14.38c2.12.48 4.31.68 6.48.6m12.5.46c3.36.32 6.77-.01 10.01-.96m-6-6.47l4.99-.57m18.47 3.49c1.4-1.28 3.17-2.14 5.04-2.44m23.88-97.56c.55-1.63 1.65-3.07 3.07-4.04m4.96-5.532c1.64-1.34 3.56-2.32 5.6-2.87m4.51-5c1.67-.95 3.57-1.49 5.49-1.55m-18.07 17.98l3.1-4.43m29.98-19.533c-2.36-.15-4.76.25-6.94 1.15 2.18-.45 4.77-.7 6.95-1.15zm12-1.48h4.5m-90.42 277.03c-1.29 3.36-2.14 6.89-2.53 10.47m-1.23 9.93l-1.94 5.52m10.56-15.94c.47 2.35.16 4.85-.86 7.02m6.44-21.53v5m.5 22.5l-2.03 7.99m-12.83 69.37c1.13-3 3.46-5.52 6.36-6.87m-14.11 20.91l4.07-4.44m-7.59-6.58c1.91-2.26 3.97-4.38 6.16-6.367m9.88-12.08c1.27-1.87 2.8-3.56 4.54-5.005m3.39 6.01c.89-2.53 2.55-4.79 4.71-6.39M1071 312.9l-1.06 5.49m8.61-40.98c-.555 2.45-.735 4.984-.53 7.49m-9.51-69.5v6m9-8v5.5m-4.567 5.505l.577 5.99m8.49-6v9.5m-83.52 153.98c-1.65 1.85-3.45 3.58-5.37 5.15 1.39-1.62 3.98-3.534 5.37-5.155zm-1.01 11.48c2.18-1.62 4.204-3.45 6.02-5.47m.92-13.55l4.515-7.49m-1.09 13.446l6.88-11.77m1.114-11.73c1.59-2.61 3.18-5.22 4.78-7.83m-74.77 30.99c1.02 3.02 2.83 5.76 5.19 7.91m-14.84-17.87c.9 2.48 1.8 4.95 2.71 7.43m12.52 20.03l4.59 4.92m-3.97-17.58c1.07.57 1.93 1.51 2.41 2.61m-15.84-23.11l3.88 6.57m25.91 43.05c.82 1.6 2.05 2.99 3.52 4.02m-7.1-16.4c2.18 2.02 4.07 4.34 5.61 6.87M884.8 300.93c1.07 1.896 2.3 3.704 3.667 5.398m6.94 7.544l1.507 2.496m-7.558-14.763c-.17.194-.37-.306-.128-.387.245-.08.475.146.634.35l3.007 3.836m6.02 4.973l2.61 4.43m3.39 12.065l4.59 7.444m-492.87 26.33c1.43 1.885 3.03 3.644 4.77 5.248m-3.16-8.842l2.74 3.008m4.38 3.614l4.25 3.996m-5.41-12.858c1.13.67 2.07 1.652 2.7 2.807m71.01 11.7l6.51-2.21m4.74-1.65c2.62.27 5.31-.13 7.74-1.15m-16.23-2.95c2.85-1.13 5.77-2.06 8.74-2.77m6.5.74c.89-.16 1.75-.49 2.51-.98m-1.01-5.75c1.76-.04 3.51-.21 5.25-.53m56.24-55.77c2.3-1.39 4.73-2.57 7.25-3.51m-4.78 8.21c1.49-.81 3.12-1.38 4.8-1.65m8.46-7.62l5.76-2.2m-32.48 17.05c1.05-.79 2.24-1.39 3.49-1.78m13.19 2.66c1.66-1.01 3.45-1.81 5.32-2.36m11.73-7.37l7.76-.65m59.98 31.28l4.24 2.78m1.01-7.78l5.02 2.71m-23.03-7.71c2.1 1.64 4.49 2.9 7.03 3.7m13-5.99l4.75 2.25m-24.98 35.44l5.74 1.77m4.72-3.45l3.51 1.98m-18.5-8c.97.3 1.89.71 2.76 1.22m-9.25-10.49l4.76 2.73m21.73-68.84c2.25-.28 4.53-.26 6.77.07m-1.26 5.28c1.69-.03 3.39.23 5 .76m8.99-1.99c2.39 1.39 4.91 2.55 7.51 3.48m-221.31-6.46c1.12 2.19 1.86 4.56 2.2 6.99m.67-8.54l1.21 4.01m-1.08-11.98c.29.97.74 1.89 1.33 2.72m2.39 15.29c.34 1 .69 1.99 1.03 2.99m.42-10.32l.67 1.54m19.22 33.01l2.5.52m-.5-3.77c1.26-.07 2.52.01 3.75.25" stroke-linecap="round" stroke-linejoin="round"/>
    <path stroke="#000" stroke-width="4" d="M177.39 98.35c-1.97 57.115 1.097 92.908 7.84 149.657 1.085 9.124 2.938 19.352 10.546 24.503 3.318 2.246 7.38 3.2 11.385 3.337 8.73.3 17.69-4.975 25.78-8.246 29.5-11.92 55.57-27.22 84.25-41 25.5-12.25 40.27-21.21 59.88-31.88 20.28-11.04 40.85-20.39 58.16-35.68 2.61-2.3 5.13-4.82 6.66-7.95 2.1-4.28 2.13-9.24 2.12-14.01l-.22-82.44c-.02-10.12-.08-20.43-3.21-30.06-1.18-3.64-3.07-7.42-6.56-9-2.2-1-4.72-.95-7.14-.82-19.85 1.06-39.18 6.5-58.31 11.91L202.09 73.7c-6.198 1.75-12.59 3.604-17.55 7.714-4.96 4.11-7.107 10.377-7.15 16.94" stroke-linecap="round" stroke-linejoin="round"/>
    <path stroke="#000" stroke-width="4" d="M424.288 153.736c-2.738 3.485-7.07 5.16-10.89 7.41-17.993 10.615-25.16 14.544-43.21 23.705-12.488 6.34-24.34 14.2-37.5 19-10.367 3.79-25.826 13.92-35.747 18.75-29.25 14.25-48 21.5-83 37.42-2.26 1.03-5.16 1.5-8.83-.83-1.31-.83-2.66-1.66-3.5-5.16-7.03-29.51-7.02-58.13-10-88.33-1.23-12.44-1.57-27.28-1.55-39.78.02-12.5 3.39-25.72 12.57-34.2 7.49-6.92 17.74-9.79 27.54-12.57 61.04-17.32 120.77-39.68 183-52.07 3.67-.73 7.67-1.38 10.98.34 5.03 2.62 6.09 9.23 6.47 14.89 2.13 32.14 1.54 64.46-1.77 96.5-.54 5.26-1.27 10.81-4.54 14.97z" stroke-linecap="round" stroke-linejoin="round"/>
    <path stroke="#A3A3A3" d="M251.69 136.642c15.792-7.052 31.584-14.102 47.377-21.153 21.584-9.64 43.574-15.2 64.447-26.3.924-.49 1.892-1.03 2.425-1.93.54-.92.53-2.04.51-3.1-.09-4.36-.57-12.8-.66-17.15-39.04 15.05-78.11 28.83-116.11 46.33 0 7 .87 16.37 2 23.29zm3.9 48.732l12.068-5.03c13.845-5.768 27.69-11.538 41.536-17.308 18.748-7.812 37.525-15.638 55.513-25.07 1.41-.74 2.898-1.57 3.624-2.987.65-1.27.57-2.78.47-4.2-.57-8.14-1.15-16.28-1.72-24.42-30.94 13.61-57.56 23.61-88.51 37.22-3.19 1.4-9.53 5.19-12.87 6.16-4.02 1.17-6.87 2.48-12.18 4.99.69 11.29 2.5 20.65 2.09 30.63zm119.876-12.71c-.57-8.76-1.902-16.438-2.34-23.563-38.355 14.47-79.01 29.63-115.478 48.36 1.51 11.23 2.242 18.06 2.79 29.15 20.816-9.07 44.123-20.05 64.94-29.12 17.992-7.84 31.213-16.06 50.088-24.81zm-175.456-28.72c3.44-3.17 5.956-7.335 7.162-11.856.463-1.74.117-4.336-1.684-4.33-1.203.005-1.946 1.293-2.343 2.43-1.17 3.345-1.562 6.96-1.135 10.48.22 1.81 1.108 4 2.93 4.056 1.274.04 2.28-1.034 3.028-2.066 3.812-5.256 5.787-11.818 5.51-18.305-.455.066-.91.132-1.362.2-1.324 2.408-2.687 4.98-2.54 7.726.15 2.74 2.487 5.56 5.204 5.14 1.632-.25 2.9-1.55 3.853-2.89 2.79-3.96 3.91-9.05 3.036-13.82l-1.59.62c-.68 3.02-1.12 6.24-.11 9.17 1 2.93 3.86 5.43 6.94 5.08m-25.79 41.86c4.04-3.21 6.41-8.42 6.16-13.57-.38-.7-1.5-.58-2.01.02-.51.6-.58 1.44-.63 2.23l-.29 4.91c-.09 1.52-.17 3.1.43 4.49.6 1.39 2.1 2.52 3.58 2.17 5-4.3 8.05-10.79 8.16-17.39-.49-.61-1.53-.43-2.05.15-.52.58-.66 1.4-.77 2.17-.25 1.67-.5 3.4-.07 5.03.43 1.64 1.71 3.17 3.4 3.35 2.07.21 3.75-1.58 5.05-3.2 3.23-4.02 6.6-8.37 7.06-13.5-1.87-.52-3.22 1.74-3.75 3.61-.52 1.82-.94 3.8-.32 5.59 1.12 3.3 6.05 4.45 8.52 1.99m-28.84 46.58c4.39-3.21 6.85-8.87 6.2-14.27-1.08-.44-1.95.98-2.21 2.11-.49 2.1-.73 4.41.22 6.34.95 1.94 3.49 3.22 5.37 2.14.72-.41 1.24-1.09 1.72-1.76 2.53-3.55 4.51-7.49 5.85-11.63.31-.97-.16-2.61-1.03-2.09-.23.13-.35.4-.46.64-.75 1.72-1.51 3.5-1.56 5.38-.06 1.87.77 3.9 2.45 4.72 2.58 1.25 5.51-.75 7.58-2.74 3.09-2.96 6.13-6.58 6.16-10.87 0-.55-.27-1.29-.81-1.18-.18.03-.32.15-.44.28-1.77 1.73-2.4 4.53-1.53 6.85.87 2.32 3.18 4.02 5.65 4.15M209.9 240.3c4.726-3.574 8.26-8.693 9.93-14.38-1.05-.66-2.26-1.07-3.494-1.2-1.81 3.46-1.296 7.99 1.24 10.96.785.92 1.8 1.726 2.994 1.937 2.714.48 4.91-2.08 6.463-4.36 2.356-3.45 4.82-7.35 4.165-11.473-1.176-.5-2.247.88-2.707 2.07-.74 1.91-1.25 3.906-1.51 5.935-.19 1.44-.15 3.14.98 4.05.77.61 1.82.68 2.8.62 4.22-.28 8.25-2.69 10.48-6.27" stroke-linecap="round" stroke-linejoin="round"/>
    <path fill="#FFF" d="M417.835 91.246l-.457-11.45c-.134-3.37-2.318-7.012-5.873-7.714-5.54-1.094-2.566.144-13.566 2.27-.12.022-2.55.782-2.63.873-4.51 1.294-7.77 3.506-7.48 9.15.37 7.355.79 14.704 1.27 22.052.42 6.475 6.37 9.402 12.03 6.907 6.04-2.663 14.51-4.68 16.5-11.898.89-3.23.32-6.91.19-10.19m1.01 40.59c-.81-4.665-3.35-9.006-8.29-7.235-1.81.65-5.35 2.26-7.25 2.56-.87.14-1.65.47-2.34.93-2.15.31-4.04 1.55-5.72 3.73-2.45 3.19-1.33 9.63-1.33 13.44.01 7.58 8.57 8.29 15.12 5.23 9.87-4.61 11.62-8 9.78-18.64"/>
    <path stroke="#000" stroke-width="4" d="M1118.187 504.63c2.347-2.3 6.293-.934 9.058.838 3.977 2.55 19.694 29.883 17.194 36.383m-8.67-52.28c5.62-1.1 10.95 2.59 15.45 6.14 6.85 5.42 13.91 11.48 16.5 19.83m-80.09 4.03c.16-.86 1.23-1.31 2.09-1.1.86.21 1.52.87 2.11 1.53 3.15 3.6 5.22 8.14 5.85 12.87m77.46-235.23c7.25-3.64 16.26-3.52 23.42.31M976.57 658.37c.193 39.697.45 79.393.76 119.09.075 9.494.156 19.022 1.467 28.426" stroke-linecap="round" stroke-linejoin="round"/>
  </g>
</svg>
