<svg xmlns="http://www.w3.org/2000/svg" viewBox="0 0 833 849">
  <g fill="none" fill-rule="evenodd">
    <path fill="#FFCDCA" d="M434.16 814.636c-5.65-.354-8.546 5.495-11.476 9.303-.066.08-.108.17-.16.25-9.934 3.13-20.785 3.12-30.38-1.34-2.13-.99-4.464-5.27-7.343-4.48-1.48.41-2.19 1.68-2.65 3.08-3.2-1.13-6.31-.57-8.58 2.77-.7 1.03-.23 2.67.85 3.24.67.35 1.26.71 1.81 1.11-2.54.42-4.71 1.68-6.01 4.53-1.4 3.07.7 6.92 4 7.59 7.05 1.44 13.98 2.79 21.13 3.67 8.25 1.02 17.76 1.87 26.08 1.67 3.29-.08 13.76 1.08 15.53-2.69 2.82-5.97 3.52-15.82 3.89-22.4.28-4.73-2.31-6.06-6.67-6.34m100.15 13.57c-2.86-.84-5.51-1.35-8.71-1.04-1.12.11-2.07.87-3.25.68-1.45-.23-4.61-3.76-6.11-3.24-3.43 1.16-4.8 3.55-8.18 4.83-7 2.67-9.33-.49-10.33-5.9-.99-5.38-6.09-7.71-11.06-6.76-.52.1-.91.33-1.19.63-1.3-.19-2.75.56-2.72 2.26.08 5.14-1.16 16.29 3.31 20.2 5.29 4.62 12.51 5.1 19.2 6.08 6.6.97 34.91 6.17 34.62-6.94-.11-5-.91-9.45-5.55-10.81M404.66 381.7c-.77 3.26-4.08 5.16-5.34 8.323l-.03.045h.01c-.07.19-.162.37-.22.572-.21.75-.08 1.367.25 1.834-3.98 7.79-13.35 14.48-19.24 19.76-4.09 3.68-8.32 7.2-12.61 10.64-3.184 2.56-6.995 4.95-9.39 8.33-5.37 7.57-.08 15.44 3.05 22.94 4.07 9.77 8.473 19.39 13.63 28.63 1.19 2.14 3.99.93 4.29-1.01.18-.064.365-.15.55-.27 3.49-2.315 6.704-4.876 9.76-7.74.824-.774.72-1.974.26-2.885-3.99-7.93-8.48-15.8-11.85-24.01-4.3-10.47 5.185-19.77 12.1-26.38 5.753-5.5 10.984-10.35 14.72-17.49 3.346-6.4 4.716-13.67 4.753-20.84.01-2.72-4.073-3.02-4.68-.45m142.54 71.3c-2.4-7.57-7.57-15.12-11.277-22.13-4.204-7.96-8.82-14.05-13.565-21.7-.59-.95-1.28-2.99-2.09-2.86-3.58-8.05-6.5-16.36-8.28-25.12-.57-2.83-4.37-1.82-4.65.63-.49 4.32-3.9 9.58-2.14 13.7.4.93.56 4.5 1.38 4.42.36 4.14 1.54 6.88 2.88 10.91 2.28 6.87 7.69 11.92 11.55 17.97 1.91 3 3.86 5.98 5.74 8.99 1.13 1.81 2.19 3.66 3.25 5.51 1.93 3.41-2.28 5.83-4.46 8.56-4.65 5.79-7.44 11.29-12.86 16.34-2.01 1.88-.11 6.53 2.04 5.58 2.88 3.48 5.53 10 9.17 12.65.69.5 2.91-1.94 3.61-2.32 5.57-2.99 9.65-12.06 13.62-16.88 3.65-4.43 8.07-8.16 6.14-14.26"/>
    <path fill="#FFCDCA" d="M572.966 242.74c-.975-3.617-2.09-7.17-3.613-10.44-2.453-5.273-6.79-9.19-12.83-9.595-14.737-.99-22.863 12.252-29.567 23.314-9.438 15.56-18.364 30.71-29.843 44.92-4.706 5.82-9.3 11.72-13.294 18.06-4.39 6.96-6.97 14.54-9.59 22.27-2.85 8.37-7.14 16.64-16.18 19.38-9.72 2.94-15.18-8.05-17.81-15.28-5.99-16.49-10.79-33.31-17.29-49.64-6.51-16.34-13.86-32.34-21.89-47.99-6.22-12.14-12.18-28.93-26.53-33.15-19.83-5.84-35.12 13.16-45.09 27.09-1.41 1.97 1.31 4.45 3.24 3.24 4.69-2.93 8.91-6.53 13.63-9.41 6.9-4.21 14.29-3.3 21.09.48 11.75 6.52 17.8 20.55 22.56 32.41 4.5 11.22 8.34 22.66 14.68 33.04 3.4 5.56 7.47 10.71 11.07 16.15 3.96 5.97 6.47 12.27 8.45 19.13 1.58 5.46 4.11 10.13 6.68 15.16 4.04 7.92-5.45 13.5-9.55 19.88-7.09 11.03-6.82 25.93-10.23 38.44-3.35 12.28-3.01 23.76.03 36.05 3.21 12.96 8.21 25.47 7.1 39.01-.4.56-.53 1.3-.42 2.05.26 1.76.46 3.53.61 5.3.1 1.15.82 2.13 1.95 2.33.23.2.51.36.86.47l23.35 7.39c8.03 2.54 16 5.61 24.5 5.94 6.45.25 12.67-2.9 18.21-5.83 5.21-2.77 10.7-5.88 12.64-11.88 1.9-5.9 1.52-12.03 1.67-18.14.23-9.33 2.57-18.25 5.56-27.03 5.13-15.06 1.23-26.6-2.55-42.74-1.78-7.59-5.18-16.54-9.09-23.29-4.99-8.61-10.32-13.49-7.05-23.61 2.58-8.02 7.54-15.65 11.36-23.12 4.2-8.21 8.4-16.42 12.6-24.62 6.73-13.13 13.77-26.22 23.52-37.39 4.74-5.43 10.26-10.09 16.4-13.85 4.37-2.68 9.27-4.2 14.38-3.14.52.11 1.02.29 1.5.51 1.17 4.16 2.34 8.32 3.52 12.48.56 1.98 3.28 2.33 4.33.56 3.53-5.93 1.3-11.5-3.12-14.99"/>
    <path fill="#30488F" d="M507.06 534.253c-.13-3.888-1.227-7.414-2.88-10.9-2.76-5.824-5.052-11.1-5.836-17.565-.784-6.468 2.893-22.35-3.004-22.35-16.627 0-9.43 22.766-12.43 34.454-8.252.293-23.507 2.082-31.767 2.046-4.34-.018-8.68-.08-13.017-.25-6.742-.265-8.356-7.482-9.99-12.726-2.604-8.358-1.717-16.76-3.193-25.182-.88-5.01-6.34-7.137-10.534-5.067-1.2.59-1.42 1.702-1.05 2.656-.06.17-.11.36-.13.57-4.14 38.41-6.06 81.22-3.94 119.72 2.15 39.21 4.78 77.95 7.11 117.15 1.13 19.11 3.6 30.08 4.74 49.19.53 8.98 2.72 22.39 3.25 31.37.39 6.58-1.59 17.1 3.86 21.62 2.37 1.97 2.7-27.09 11.56 3.94.77 2.71 2.37-2.18 2.69-4.98.6-5.4 1.17-10.8 1.74-16.21 2.01-19.3 3.76-38.62 5.29-57.96 1.53-19.34 2.79-38.7 3.84-58.07.5-9.3.93-18.6 1.32-27.9.22-5.36 1.52-10.5 7.86-11.07 1.72-.16 2.83 13.21 3.07 14.86 5.72 38.98 5.97 73.09 7.38 112.51.33 9.3 2.75 24.62 5.07 32.94 1.64 5.86-.66 11.45 6.7 12.47 15.27 2.13 13.61-19.9 13.92-28.97 1.34-38.91 6.66-77.55 8.01-116.46.81-23.4.72-46.82.64-70.22-.09-23.2.44-46.49-.33-69.67"/>
    <path fill="#B5EDBA" d="M476.718 500.37c-.302-1.143-1.693-2.018-2.865-1.703-.066-.003-.132-.007-.198-.004-.75-.493-1.768-.46-2.588.013-.833-.358-1.872-.265-2.648.442-2.5 2.276-2.67 5.464-3.27 8.635-.75 3.908-1.58 18.35-2.55 22.207-.54-2.155-1.13-14.872-1.66-17.027l-2.83-11.386c-.26-1.037-1.25-1.717-2.29-1.74-1.21-.027-1.94.478-2.57 1.238-.81.084-1.45.197-2.05.51-.65-.234-1.28-.183-1.84.1-.9-.793-2.34-.833-3.21-.012-1.56.1-3.07 1.755-2.06 3.544l.66 1.184c.64 1.14 2.14 1.45 3.21.88.9.5 2.07.34 2.83-.39l.18-.18c1 .24 1.98-.18 2.61-1.08-.17.24.16.25.65.15.97 3.91 3.51 8.28 4.48 12.18.59 2.38.48 8.46 2.93 9.82.82.45.24.48.92.07 1.22.69 1.65-1.44 2.12-3.19.9-3.41 1.89-7.63 2.67-11.08.44-1.97 1.83-4.5 2.49-7.2.86.12 1.77-.21 2.29-1.12.07-.13.15-.25.23-.39.26.02.52-.02.78-.11 1.23.8 3.13.58 3.56-1.26.28-1.2.29-1.86-.03-3.05"/>
    <path stroke="#000" d="M447.73 504.45c.58.717.68 1.94 1.573 2.18.48.13.995-.13 1.312-.514.317-.382.476-.868.628-1.34-.097.79.53 1.6 1.32 1.704.79.104 1.603-.515 1.715-1.304 1.374 1.812 2.14 4.002 2.844 6.164 1.637 5.023 3.33 12.093 4.533 17.237.195-3.193-.612-8.357-1.145-11.51l-2.71-16.042c-.026-.15-.063-.32-.192-.4-.108-.068-.245-.052-.37-.034-3.543.52-7.085 1.03-10.625 1.56-.563.09-1.138.17-1.64.44-.5.27-.92.77-.94 1.33-.012.37.142.73.375 1.01.854 1.04 2.793.76 3.32-.47zm19.627 5.412c-3.045 14.203-4.253 21.838-3.4 17.86 1.172-7.595.465-18.104 3.035-25.347.24-.672.543-1.38 1.152-1.752.465-.283 1.034-.322 1.578-.353l7.125-.41c-.05 2.53-.346 5.058-.888 7.532-.62-.632-1.14-1.346-1.56-2.12.21.49-.63.795-1.08.51-.45-.284-.74-.82-1.25-.968-.1.503-.36.974-.73 1.328-.02-.636-.77-1.058-1.4-.93-.63.127-1.1.637-1.43 1.18-.64 1.045-.91 2.27-1.17 3.47z" stroke-linecap="round" stroke-linejoin="round"/>
    <path fill="#FBBC07" d="M468.538 528.355c-1.073-1.382-3.745-.946-5.168-.75-1.766.243-4.78.57-5.988 2.125-2.81 3.613-2.005 9.34-2.16 13.663-.078 2.13 2.196 2.768 3.623 1.93 2.28-.11 4.98.02 7.044-.643 2.14-.69 2.42-2.07 2.85-4.133.79-3.824 2.45-8.772-.21-12.192"/>
    <path fill="#FFF" d="M464.88 369.037c-.172-2.18-.382-5.48-3.017-6.204-1.728-.475-3.75.956-5.318 1.387-2.864.788-2.956 5.228-3.362 7.413-1.615 8.68-2.368 19.667 1.124 27.997.19.454.478.79.812 1.042.27.818.98 1.433 2.14 1.33 7.47-.664 6.59-11.692 7.28-17.305.63-5.213.75-10.428.34-15.66m-18.22 30.806c-.8-4.327-7.76-5.817-11.2-6.013-5.07-.288-9.86 2.672-13.38 6.023-1.9 1.813.29 4.52 2.35 3.932.17.17.37.325.63.45 5.17 2.514 23.55 6.296 21.59-4.392m46.55 2.707c-7.39-8.36-17.16-5.19-25.33.052-2.48 1.59-.34 5.465 2.14 4.224.11.064.22.13.35.18 7.72 3.1 15.12 4.106 22.36-.734 1.32-.882 1.53-2.534.48-3.723"/>
    <path stroke="#000" stroke-width="2" d="M448.235 402.413c-2.033-3.813-5.347-7.14-9.522-8.25-3.24-.862-6.76-.316-9.79 1.122-3.028 1.438-5.598 3.72-7.738 6.3 4.26 2.733 7.967 5.22 12.73 5.926 4.762.71 11.062-1.55 14.32-5.09m45.952.62c-2.347-2.48-4.91-4.92-8.107-6.12-4.937-1.86-10.595-.43-15.13 2.26-1.81 1.08-3.533 2.38-4.724 4.12.964 1.89 2.292 3.63 4.14 4.67 1.687.95 3.594 1.43 5.494 1.8 3.6.71 7.366 1.07 10.907.11 3.54-.96 6.295-3.34 7.42-6.83zm-40.612 24.95c-1.03 2.68-.97 5.65.136 8.3.41.98.83 2.14 1.68 2.87.6.51 1.45.77 2.18.5.81-.31 1.26-1.16 1.61-1.95.89-2.02 1.6-4.25 1.13-6.41-.19-.91-.6-1.77-1.06-2.58-.43-.77-.94-1.52-1.69-2.01-.72-.47-1.63-.52-2.44-.22-1.02.39-1.08.33-1.54 1.52z" stroke-linecap="round" stroke-linejoin="round"/>
    <path stroke="#000" stroke-width="2" d="M416.444 476.703c-.176-8.64 1.117-12.713-2.542-20.542-12.1-25.89-11.71-27.74-2.69-54.1 2.57-7.5 1.687-9.02 4.11-16.58 2.42-7.55 2.933-11.45 8.29-18.84.67-.92 5.728-5.85 5.194-7.6-.24-.79-.732-1.47-1.32-2.05-8.36-8.25-13.867-18.85-19.25-29.27-11.685-22.63-20.697-43.99-32.383-66.62-3.367-6.52-8.266-22.74-13.703-27.67-5.437-4.93-9.446-6.25-15.7-2.13-6.57 4.34-9.71 9.72-17.826 11.45 2.607-10.18 2.165-11.72 9.35-19.39 7.496-8.01 17.284-15.93 28.144-14.38 11.063 1.58 18.2 12.19 23.906 21.8 14.702 24.76 29.45 49.61 40.795 76.08 6.86 16.01 12.67 29.16 17.86 45.52 5.25 1.36 18.69 4.05 22.82.54 2.27-1.94 2.03-8.1 3.06-10.91 15.47-42.34 39.21-79.11 69.36-112.63 3.78-4.2 8.86-8.77 14.81-5.02 1.2.76 2.23 1.77 3.11 2.89 7.49 9.55 12.39 21.1 14.07 33.12-7.51-.62-6.76-15.3-15.37-14.77-1.84.12-3.57.97-4.88 2.27-28.36 28.13-32.95 72.35-57.48 103.57-2.63 3.34-5.62 6.92-5.59 11.17.02 2.6 1.2 5.03 2.27 7.4 7.97 17.66 9.83 25.15 12.67 42.88 3.15 19.7 2.48 23.81-4.26 41.55-3.16 8.32-5.2 9-6.71 21.02-.3 2.32-1.05 4.39-1.26 8.04" stroke-linecap="round" stroke-linejoin="round"/>
    <path stroke="#000" stroke-width="2" d="M485.16 396.692c.022-.224-.34-.21-.53-.09-1.355.864-2.234 2.347-2.615 3.906-.382 1.56-.307 3.198-.068 4.785.278 1.85.963 3.902 2.672 4.665m-45.09-15.293c-1.41.444-2.55 1.573-3.19 2.906-.6 1.26-.79 2.68-.73 4.07.05 1.13.57 2.86 1.11 3.85.45.84.87 1.65 1.79 1.91m47.04-58.94c2.04-2.87 4.09-5.75 5.73-8.87 1.75-3.34 3-6.92 4.51-10.38 1.69-3.88 3.72-7.62 5.75-11.34l21.24-39.12c2.45-4.52 4.91-9.05 7.56-13.47 6.78-11.29 15.57-22.41 28.05-26.62 1.46-.49 3.03-.88 4.53-.55 2.31.51 3.91 2.57 5.13 4.59 1.64 2.71 2.96 5.62 3.94 8.63m-241.58-14.1c5.09-5.84 11.32-10.69 18.23-14.21 5.17-2.62 11.6-4.44 16.57-1.47 2.3 1.37 3.94 3.59 5.47 5.79 10.56 15.22 18.2 32.24 25.68 49.19 10.68 24.21 21.28 48.72 36.6 70.29m74.83 179.84c-.42-3.75-1.12-5.43-4.53-7.06-.83-.39-1.77-.62-2.47-1.23-1.1-.94-1.33-2.52-1.47-3.97-1.06-10.55-1.54-21.15-1.44-31.76-3.5.6-6.99 1.28-10.46 2.02-.59.13-1.21.27-1.64.69-.66.63-.67 2.51-.65 3.41.15 9.15-.37 17.46-1.55 26.54-.16 1.26-.42 2.67-1.44 3.43-.63.46-1.43.6-2.2.72l-10.18 1.6c-7.28 1.14-14.64 2.29-21.97 1.54-4.18-.42-8.3-1.47-12.18-3.08-.72-.3-1.46-.63-2-1.19-.72-.73-1.03-1.76-1.3-2.75-2.66-9.64-4.56-19.48-5.68-29.41-.29-2.58-.84-5.12-1.81-7.53-.2-.49-.46-.96-.88-1.28-.55-.42-1.28-.49-1.97-.53-3.28-.19-6.58.1-9.77.86 1.05 14.11 1.05 27.74.45 41.87-.05 1.06-.11 2.17-.66 3.08-.39.65-1 1.13-1.48 1.72-1.95 2.37-1.13 5.79-1.03 8.86.36 11.66 1.77 17.61 2.12 27.6.42 11.89 1.51 25.23 2.5 34.62 2.12 20.04-.83 53.12.88 73.19 1.03 12.03 2.56 24.01 4.1 35.99 1.41 11.01 1.71 24.1 2.06 35.22.13 4.38.58 11.53 1 15.89.36 3.82.75 8.17.96 11.13 1.42 20.04 2.67 24.15 5.13 48.84.08.83.54 1.6 1.12 2.18.96.96 2.45 1.09 3.8 1.15l10.52.5c1.03.05 1.92-.71 2.03-1.74 3.04-30.02 5.43-61.81 7.46-92.44.41-6.15.51-12.32.77-18.48.82-19.88 2.27-39.8 3.99-60.28.06-.75.54-1.41 1.23-1.67 1.7-.63 3.45-1.1 5.24-1.42 1.15-.2 2.23.66 2.29 1.83.57 10.17.62 13.78 1.43 25.22 1.45 20.51 2.84 30.85 3.9 54 1.07 23.42 2.62 46.82 4.64 70.17.51 5.93 1.95 11.04 3.38 19.82.22 1.36 1.34 2.4 2.71 2.5h.03l13.01 1c1.01.08 1.93-.64 2.08-1.65 2.57-17.41 2.61-35.68 4.34-53.16 2.16-21.81 2.13-43.62 2.96-67.45.34-9.84.76-14.85 1.18-24.69.31-7.37.88-13.08.99-17.38.17-7.25.69-17.86.2-25.09-.86-12.36 3.29-38.84 2.43-51.21-1.21-15.92-.44-34.88-2.23-50.67z" stroke-linecap="round" stroke-linejoin="round"/>
    <path stroke="#000" stroke-width="2" d="M411.64 484.676c-5.378-1.002-10.142-4.233-13.88-8.228-3.736-3.995-6.557-8.744-9.27-13.494-1.71-2.994-3.39-6.01-4.807-9.153-1.9-4.21-3.318-8.65-4.215-13.19-.343-1.74-.608-3.55-.16-5.27.59-2.27 2.328-4.03 4.023-5.65 4.34-4.14 8.85-8.1 13.52-11.86 2.94-2.37 5.97-4.68 8.43-7.55 5.97-6.96 7.96-16.44 8.99-25.55-.12 1-1.11 1.82-2.12 1.73 1.63-3.55 1.98-7.68.96-11.46l-5.76 13.65-.89-5.54-4.4 11.79c-1.23 3.29-4.54 7.7-7.39 9.75-10.31 7.44-20.2 13.38-29.27 21.78-2.76 2.57-5.56 5.41-6.53 9.06-.67 2.54-.39 5.23.09 7.82 1.4 7.5 3.82 10.96 6.83 18.47.96 2.38 2.75 6.18 4.05 8.39 2.34 3.96 2.98 6.54 6.45 11.57 2.85 4.12 5.89 8.52 8.25 11.98 7.65 11.2 16.71 19.96 25.72 30.1" stroke-linecap="round" stroke-linejoin="round"/>
    <path stroke="#231F1F" stroke-width="2" d="M504.184 395.222c-.142-1.47-.96-3.64-1.51-5.62-.365-1.31.793-2.53 2.125-2.27.95.19 1.81.427 1.98.987-.75-3.03-.66-3.4-.38-6.25.04-.42.62-1.53 1.08-1.61 1.36-.23 2.61.82 2.78 2.19.68 5.49.25 4.06 1.94 8 .23-.9.57-5.83.81-6.72.33-.14 1.12-.12 1.29.21 2.62 5.03 3.76 14.87 6.23 19.97 2.52 5.22 5.81 10.03 8.91 14.94 6.95 11 12.69 21.85 17.77 33.84-.23-.24 1.09 2.37.86 2.14 1.78 3.61.39 4.09-1.02 6.12-1.64 2.35-3.43 4.47-5.1 6.34-3.51 3.93-6.06 7.36-9.57 11.3-11.01 12.35-22.09 24.81-30.48 39.08" stroke-linecap="round" stroke-linejoin="round"/>
    <path stroke="#000" stroke-width="2" d="M506.41 405.956c1.752 7.695 8.17 13.67 12.234 20.434l10.918 18.17c.636 1.058 1.29 2.175 1.343 3.41.07 1.644-.932 3.117-1.918 4.44-2.694 3.614-5.47 7.165-8.398 10.593-1.67 1.948-2.55 3.168-4.39 4.76-1.86 1.6-4 4.077-5.88 5.648-1.43 1.19-3.66 3.24-4.94 4.59-2.04 2.16-3.45 4.66-7.45 5.53m-37.17-121.19c.02.67.39 1.32.96 1.67.4-1.15 1.15-2.17 2.13-2.9 1.42 2.38 1.96 5.17 2.31 7.91 1.09 8.65.5 17.5-1.72 25.93-.41 1.56-.95 3.2-2.22 4.18-1.16.89-2.74 2.84-4.19 2.98-1.3.13-2.7-1.56-3.72-2.37-1.03-.82-1.55-4.65-1.71-5.96-.48-3.95-.56-5.52-.8-9.49-.47-7.6-.24-15.99 4.75-21.74.49 1.12 1.21 2.14 2.11 2.97.25-1.26 1-2.42 2.05-3.16z" stroke-linecap="round" stroke-linejoin="round"/>
    <path fill="#FC8181" d="M422.377 411.604c-1.142-1.528-2.868-2.007-4.726-2.253-1.8-.23-3.8.66-4.75 2.19-1.11 1.8.39 4.14 1.48 5.52 2.03 2.58 8.21 3.93 10.04.36 1.33-2.59.01-4.56-2.04-5.8m81.54-3.52c-1.23-1.47-2.92-1.42-4.48-.78-.23.04-.47.11-.72.23-2.07 1.03-5.53 3.54-4.59 6.31.45 1.33 1.58 2.54 3.1 2.47 1.4-.06 2.56-.68 3.72-1.41 2.12-1.33 5.13-4.23 2.98-6.8"/>
    <path stroke="#000" stroke-width="2" d="M441.838 819.444c-1.638 6.59-2.676 12.74-3.34 19.628-.13 1.35-.573 3.368-1.558 4.298-.604.57-2.255 2.09-3.038 2.37-5.844 2.097-10.913 2.25-17.117 1.997-6.203-.254-12.758-.318-18.963-.552-5.75-.217-11.186-.604-17.86-2.726-2.537-.81-4.773-1.46-6.722-3.27-.85-.79-1.532-1.82-1.682-2.97-.11-.83.068-1.68.37-2.46 1.304-3.37 5.583-3.94 8.88-2.45-1.517-.63-3.79-2.25-5.308-2.87-.847-.35-1.11-1.38-1.387-2.26-.238-.75.108-1.56.57-2.19 2.106-2.88 6.928-3.16 9.352-.54-.365-1.28-.66-2.85.295-3.77.78-.76 2.085-.67 3.035-.14.95.52 1.654 1.39 2.423 2.15 1.347 1.34 2.96 2.42 4.736 3.1 1.933.73 4.013.97 6.067 1.21 5.73.66 10.77 2.41 16.47 1.53 1.36-.21 3.44-.72 4.65-1.39 1.22-.67 2.77-2.42 3.67-3.49 1.58-1.86 2.41-4.1 3.44-6.32m53.52-.87l.26 10.39c.06 2.2.11 4.41.3 6.61.13 1.55.34 3.13 1.04 4.51.99 1.94 2.86 3.29 4.81 4.27 5.32 2.67 11.46 3.02 17.4 3.33 4.58.23 9.17.47 13.75.7 3.87.2 7.8.39 11.57-.52 3.77-.91 7.41-3.09 9.17-6.54.61-1.2.97-2.62.5-3.87-.22-.6-.62-1.11-1.04-1.59-1.87-2.13-4.44-3.77-7.26-3.95-2.82-.18-5.83 1.36-6.85 3.99-.03-.62.12-1.25.42-1.79" stroke-linecap="round" stroke-linejoin="round"/>
    <path stroke="#000" stroke-width="2" d="M532.91 830.386c-.69-1.782-2.214-3.22-4.034-3.807-.583-.19-1.19-.3-1.797-.38-1.24-.18-2.51-.27-3.73.02-1.22.29-2.37 1.03-2.92 2.15-.04.07-.09.15-.17.15-.08-.01-.06-.17.01-.12m-.06-1.07c.3-.53-.55-.96-1.16-.92-2.65.16-4.98 1.7-7.25 3.07-2.28 1.36-4.84 2.65-7.46 2.26-2.34-.36-4.29-2.02-5.62-3.97-1.79-2.63-2.65-5.89-2.38-9.06" stroke-linecap="round" stroke-linejoin="round"/>
    <path stroke="#231F1F" stroke-width="2" d="M426.762 483.514c15.355 13.448 40.436 14.825 58.437 5.202m28.29-18.553c6.35 4.27 10.16 9.936 11.07 17.536m-146.31-3.05c4.11-5.22 9.61-9.33 15.78-11.8" stroke-linecap="round" stroke-linejoin="round"/>
    <path stroke="#000" stroke-width="2" d="M461.488 576.88c-3.45-3.143-7.403-5.73-11.665-7.628-1.108-7.454-1.713-14.982-1.81-22.518 8.98-1.112 17.994-1.97 27.024-2.57.416 7.547.334 15.12-.246 22.656-4.11 2.64-7.72 6.07-10.57 10.05-.22.31-.46.64-.82.777-.67.26-1.37-.28-1.91-.768zm-39.462-52.76c-.364.046-.717.174-1.025.372-1.49.96-1.25 3.63.39 4.314 1.13.47 2.58-.064 3.13-1.155.55-1.09.12-2.57-.92-3.2-.46-.27-1.02-.39-1.55-.33zm72.57-2.106c-1.225-.83-2.915-.625-4.224.066-.32.168-.636.37-.853.662-.25.334-.35.755-.38 1.17-.1 1.537.88 3.1 2.33 3.623 1.45.524 3.24-.086 4.01-1.418.77-1.332.37-3.238-.9-4.102z" stroke-linecap="round" stroke-linejoin="round"/>
    <path fill="#000" d="M446.414 399.45c-.707-.593-1.382-1.226-1.932-1.97-.64-.87-1.568-1.396-2.677-1.09-.023.005-.044.018-.066.025-.63-1.423-2.46-2.29-3.74-.79-1.31 1.53-2.06 3.17-2.17 5.196-.1 1.84.92 4.17 2.54 5.13 2.71 1.61 6.08.03 7.24-2.62.28-.11.55-.28.79-.52.85-.85.99-2.52 0-3.35"/>
    <path stroke="#000" d="M446.414 399.45c-.707-.593-1.382-1.226-1.932-1.97-.64-.87-1.568-1.396-2.677-1.09-.023.005-.044.018-.066.025-.63-1.423-2.46-2.29-3.74-.79-1.31 1.53-2.06 3.17-2.17 5.196-.1 1.84.92 4.17 2.54 5.13 2.71 1.61 6.08.03 7.24-2.62.28-.11.55-.28.79-.52.85-.85.99-2.52 0-3.35z"/>
    <path fill="#000" d="M492.966 401.06c-1.216-.976-2.425-1.68-3.87-2.262-.455-.183-.965-.134-1.43.05-.846-1.85-3.963-2.247-4.402.204-.38 2.122-.626 4.257-.704 6.412-.035.94-.182 2.096.314 2.943.482.82 1.706 1.603 2.695 1.478 1.99-.252 3.2-1.51 4.7-2.757.75-.63 1.32-1.348 1.65-2.153 1.54-.548 2.58-2.684 1.04-3.916"/>
    <path stroke="#000" d="M492.966 401.06c-1.216-.976-2.425-1.68-3.87-2.262-.455-.183-.965-.134-1.43.05-.846-1.85-3.963-2.247-4.402.204-.38 2.122-.626 4.257-.704 6.412-.035.94-.182 2.096.314 2.943.482.82 1.706 1.603 2.695 1.478 1.99-.252 3.2-1.51 4.7-2.757.75-.63 1.32-1.348 1.65-2.153 1.54-.548 2.58-2.684 1.04-3.916z"/>
    <path stroke="#231F1F" stroke-width="2" d="M457.968 415.063c.715-.97 1.544-2.017 2.83-2.315.374-.087.8-.097 1.127.084.237.134.396.353.486.584.27.687-.02 1.438-.36 2.098-.77 1.472-1.84 2.827-3.14 3.986-.86.764-2.33.642-2.97-.267-1.28-1.805-2.37-3.714-2.56-5.805-.01-.2-.01-.42.15-.565.13-.115.33-.146.52-.15.68-.02 1.26-.252 1.89-.026.5.178 1.09.823 1.49 1.135.4.313.67.786.57 1.24z" stroke-linecap="round" stroke-linejoin="round"/>
    <path fill="#231F1F" d="M462.077 413.61c-.57-.842-1.984-1.244-2.968-.674-.58.33-1.07.75-1.52 1.208-.25-.256-.5-.517-.73-.794-.69-.83-1.88-1.23-2.97-.674-.95.48-1.47 1.738-.78 2.57.73.88 2.01 1.68 2.2 2.797.1.624.85 1.154 1.51 1.312 1.01.24 1.86-.176 2.45-.864.63-.74 1.27-1.49 1.9-2.24l.11-.06c.98-.57 1.4-1.64.77-2.57"/>
    <path stroke="#000" d="M462.077 413.61c-.57-.842-1.984-1.244-2.968-.674-.58.33-1.07.75-1.52 1.208-.25-.256-.5-.517-.73-.794-.69-.83-1.88-1.23-2.97-.674-.95.48-1.47 1.738-.78 2.57.73.88 2.01 1.68 2.2 2.797.1.624.85 1.154 1.51 1.312 1.01.24 1.86-.176 2.45-.864.63-.74 1.27-1.49 1.9-2.24l.11-.06c.98-.57 1.4-1.64.77-2.57z"/>
    <path stroke="#FFF" stroke-width="2" d="M442.4 399.836c-.076-.144-.323-.075-.382.078-.058.153.005.323.068.474.335 0 .52-.51.266-.726l.144.45m46.236 1.33c-.05.37.24.896.557.698.25-.175.19-.644-.1-.747" stroke-linecap="round" stroke-linejoin="round"/>
    <path stroke="#FFF" d="M424.17 459.233l.15 4.15m3.574-5.043l.337 4.646m-1.78 2.717c-.04.793-.01 1.59.11 2.376m2.07-2.33l.07 2.96m1.52-4.45l.08 2.02m.4-7.07c.06.89.14 1.78.27 2.66m2.23 4.54c.05.87.1 1.75.17 2.62m1.26-3.66c.08 1 .06 2.01-.05 3.01m28.54 12.84c.04 1.36.19 2.72.46 4.06m1.53-4.46c-.02 1.3.11 2.59.4 3.86m1.38-4.25c-.01 1 .12 2 .39 2.97m-4.1-8.4c.04.83.16 1.66.37 2.46m1.78-2.96c-.01.73.05 1.46.17 2.18m2.4-6.13v4.24m1 2.07c-.05.9.06 1.82.34 2.68m1.17-7.13l.09 3.45m1.06 4.45v2.47m19.26-7.71v1.68m1.88-2.77v1.48m-1.04-7.42l-.09 2.28m3.43-35.16c-.27 1.33-.45 2.68-.55 4.04m2.5-4.04c.09 1.26-.04 2.54-.39 3.75m1.98-.2l-.32 2.27m-2.91 1.09l-.12 1.98m-3.24-6.33c-.05.82-.06 1.65-.03 2.47m1.48-9.98v1.28m-69.93-8.3c-.06 1.51-.03 3.03.07 4.54m2.09-7.51c.04.86.01 1.72-.09 2.57m2.37-2.57l-.12 3.36m-1.14 3.65c-.07 1.15-.03 2.32.12 3.47m2.82-8.9c.03 1.31 0 2.63-.1 3.95m-7.89-45.34l-.82 4.04m3.01-4.24c-.03.99-.13 1.99-.31 2.96m20.84-22.52c-.44 1.82-.75 3.67-.9 5.54m3.14-5.73c-.28 1.07-.49 2.17-.65 3.27m-.1 4.24c.02.82-.01 1.65-.11 2.47m2.08-5.24c.11.82.15 1.65.1 2.47m35.92 18.39c.48 1.42.87 2.88 1.17 4.35m2.21-3.86l.97 3.24m-3.61-6.3l.98 1.87m1.28-4.84c.11.88.32 1.74.62 2.56m2.26 3.56c.31.99.48 2.02.5 3.06m-.77-7.71l.85 3.37m-9.66-29.51c.44 1.37.99 2.7 1.64 3.99m.35-4.98l1.44 3.83m.68-4.74c.34.93.62 1.88.83 2.85m-1.02 6.04l.62 1.66m1.19-2.97c.34.52.62 1.08.81 1.67m31.38 53.82l1.99 3.303m-1.9-7.127l1.35 2.07m2.37.88c.75.8 1.32 1.77 1.62 2.82m8.76 14.66c.53.69.97 1.44 1.32 2.24m-14.26 32.71c.76-.915 1.62-1.75 2.56-2.486m-.74 3.86l2.8-2.536m.59-3.11l1.94-1.91m-.14 5.34c.5-.68 1.1-1.28 1.76-1.79m1.14-4.48c.46-.72 1.1-1.32 1.84-1.74m-156.47 12c.33.88.83 1.7 1.46 2.39m-.12-4.16l1.63 2.52m-5.52-8.13c.34.844.8 1.64 1.36 2.36m2.42-.966c.94 1.23 1.92 2.44 2.93 3.614m-8.79-23.08l1.64 3.255m-.14-5.04l1.468 2.98m-9.77-8.75c.07-.536.28-1.05.61-1.48m14.34-16.35l3.31-2.14m-1.2 3.38l1.92-1.19m-5.03 5.2l1.63-1.04m5.038-6.52c.79-.73 1.77-1.25 2.81-1.51m-1.79 4.29l1.92-1.186m42.62-92.67c.32.92.72 1.81 1.19 2.67m.678-2.96l1.21 2.55m-1.7-7.8c.16.716.41 1.41.74 2.06m1.735.517l1.02 2.25M415 290.21l2.317 3.79m-.01-4.45c.52 1.178 1.148 2.31 1.87 3.374m-1.13-6.066c.73.958 1.355 1.99 1.86 3.078m-5.444-6.307c.468.59.85 1.25 1.13 1.95m.473-4.04l1.39 2.46m-22.686-30.3c.635 1.39 1.422 2.7 2.343 3.92m-1.04-5c.72.84 1.31 1.8 1.73 2.83m-2.925-7.28c.453.88.966 1.73 1.534 2.54m3.82 2.09l1.21 2.26m-22.695-33.15c.616.89 1.295 1.74 2.03 2.53m-.613-3.73c.7.72 1.337 1.51 1.9 2.34m-37.56-4.69c.68-.69 1.464-1.27 2.316-1.73m-.397 2.17l.588-.41m1.78-3.66c.55-.46 1.2-.8 1.88-.98m-1.49 2.95c.59-.4 1.23-.72 1.89-.97m3.93-3.01c.57-.32 1.18-.57 1.81-.74m203.33 17.32c.47.78.98 1.55 1.52 2.28m.04-3.81l.79 1.87m-15.53-1.88c.48-.69 1.19-1.22 1.99-1.47m-.32 1.94c.48-.47 1.07-.84 1.71-1.05m-16.44 18.73c.82-1.02 1.77-1.94 2.81-2.73m-1.25 3.28c.72-.64 1.5-1.21 2.33-1.72m1.18-3.27c.41-.57 1.01-1 1.68-1.19m-.63 3.62c.52-.57 1.19-1.01 1.91-1.28m-7.8 9.34c.67-.51 1.3-1.07 1.88-1.69m-6.59 1.54c.37-.85 1.14-1.51 2.03-1.76m-17.17 16.61l.26-.23-2.2 3.4m2.93-1.21l-1.68 2.67m6.51-8.5l-1.17 1.79m.15 2.54l-2.02 3m4.28-3.26c-.04.42-.29.78-.52 1.12l-2.18 3.22m-2.73 4.91l-2.18 3.71m-18.39 23.01l-1.95 3.67m3.63-3.28l-.99 2.17m4.26-7.6l-.89 1.78m1.96 3.36l-.68 1.39m-3.96 7.3l-1.82 3.87m-12.8 16.36c-.56.9-1.02 1.87-1.37 2.87m2.09-.79c-.09.86-.34 1.69-.71 2.47" stroke-linecap="round" stroke-linejoin="round"/>
    <path stroke="#000" d="M457.316 373.737c-.172.776-.22 1.58-.14 2.37m2.348-7.115c-.152.63-.195 1.285-.13 1.93m-.436 7.706l-.17 2.073m1.786-4.44v1.63m1.036-6.07v1.49m-4 11.11v2.67m1.927-3.26v2.23m-1.334 5.48v2.37m2.223-3.7v1.49m.874-6.37c.117.85.036 1.72-.235 2.53m1.563-7.72c.14.9.05 1.82-.253 2.68m-7.58-3.41v1.78m1.343 11.27c-.075.5-.034 1.01.12 1.49m-1.168-7.26v1.18m3.26 9.19v1.93m2.668-4.29v1.18M417.904 405c1.512.3 2.945.98 4.142 1.95m73.35.296c-.9.77-1.747 1.61-2.524 2.51" stroke-linecap="round" stroke-linejoin="round"/>
    <path stroke="#FFF" stroke-width=".5" d="M450.62 549.62l.318 2.37m-.14 2.542l.115 2.42m.377 2.495c.013.56.054 1.12.124 1.678m.074 1.682c.045.51.1 1.02.164 1.527m-.005 1.336c.06.517.1 1.036.118 1.555m1.06.785l2.106 1.554m1.45.7c.56.35 1.07.784 1.51 1.28m1.55.776c.56.382 1.06.854 1.47 1.393m.96.624c.32.245.63.508.92.788m.86-1.137c.29-.458.64-.877 1.04-1.243l.01-.087m1.05-1.224c.36-.437.78-.83 1.23-1.166m1.33-1.39c.47-.51 1-.96 1.57-1.34m1-.665c.38-.34.81-.616 1.27-.81.16-.065.31-.12.46-.208m.15-1.543l.13-1.704m.19-4.618l.03 1.274c.01.367.02.735-.03 1.1m-.12-6.696l.03 2.153c0 .04-.02.09-.05.08m.04-5.78l.03 1.75m-.2-5.48l.2 1.93m-20.66.15c.79 0 1.57-.01 2.35-.05m1.95-.56c.73-.02 1.45-.06 2.17-.13m1.53-.46l2-.19m1.68-.22c.73-.02 1.47-.07 2.2-.13m1.63-.08c.69-.02 1.38 0 2.07.06m-55.33-67.1l.13 2.23m.15 1.88c.14.57.22 1.14.24 1.72m.1 1.97c.17.6.23 1.22.17 1.84l.05-.39m.64-9.94l1.6.03c.14 0 .29 0 .44-.02m1.36-.09c.55.02 1.09.01 1.63-.01m1.83 1.01c-.03.66.09 1.32.33 1.93m4.65 29.68c.13.7.24 1.41.33 2.12m.97 2.32c.04.54.13 1.07.26 1.59m2.15 2.72c.47.36.91.74 1.33 1.16l-.04-.08m2.74 1.29c.63.28 1.29.51 1.96.69m11.86 1.62l1.73.06m23.61-2.02c.64-.22 1.35 0 2-.18m2.16-.42c.5-.02 1.01-.12 1.48-.31m6.31-15c.02.6.04 1.19.07 1.78l-.04-.44m.05-5.14c.05.56.07 1.12.05 1.68m.64-10.67v1.63m1.63-9.34c.8.07 1.61-.01 2.37-.25m1.78-.27l1.48-.11m.64 1.18l.06 2.07m1.13 16.2c.02.63.11 1.26.25 1.88m-.1 3.16c.08.56.12 1.12.13 1.68m1.96 7.6c.36.35.78.63 1.24.82m2.64 1.68l1.01.72m2.42 8.84l.37 2.28m.12 2.02c.11.79.14 1.58.1 2.37m.21 2.03c.05.88.12 1.75.23 2.62m-.5 8.49l.23 2.23m-.232 1.19c.118.69.17 1.38.168 2.08m-.16 2.27l.09 1.33m.24 15.26c-.05.61-.03 1.23.08 1.83m-.116 1.88c.1.62.165 1.25.19 1.87m-.26 2.13l.06 1.48m.21 9.29c.1.58.16 1.15.18 1.74m-1.794 19.11l-.06 1.98m-.04 1.43c.03.88.01 1.75-.05 2.62m.01 1.43v1.68m.01 1.48c-.06.54-.06 1.09 0 1.63m.16 1.73c.11.72.17 1.45.19 2.18" stroke-linecap="round" stroke-linejoin="round"/>
    <path stroke="#000" d="M455.49 533.355c.613.133 1.245.188 1.873.162m1.582 2.265c1.16.152 2.336.2 3.506.148m.35-2.71c.61.02 1.23-.013 1.83-.098m1.58-2.518c.75.01 1.49-.04 2.22-.152m-4.79 9.818c1.58.052 3.16-.09 4.7-.422m-11.41 2c.69-.048 1.39-.058 2.08-.028" stroke-linecap="round" stroke-linejoin="round"/>
    <path stroke="#FFF" d="M387.713 843.733c1.023.22 2.046.442 3.068.663m-1.97-2.383l2.97.244m10.17-.752l2.96.326m-1.87-1.59c.76-.04 1.52-.01 2.28.09m-16.79-9.29l3.27.88m-2.57-2.45c.62.04 1.23.22 1.78.52m-3.86-2.95l1.29.68m35.17 15.67c1.08.22 2.23.12 3.25-.28m-.88-2.45c.82-.1 1.63-.33 2.37-.7m1.78 2.56c1.06-.33 2.03-.95 2.78-1.76m-2.88-16.12c-.19.82-.5 1.62-.89 2.37m3.08-.49c-.45 1.07-1.06 2.06-1.8 2.95m55.63-7.2l-.12 4.05m1.74-3.56c.18 1.05.23 2.11.15 3.17m1.68 12.45c.43.93 1 1.8 1.7 2.56m7.77-6.55c.84.41 1.71.75 2.61 1m2.27.43c.71-.18 1.44-.25 2.17-.21m-5.53 1.49c.71.22 1.44.35 2.18.38m14.52 7.71c1.41.22 2.83.32 4.25.3m-2.96-1.79l2.18.11m-8.69-.09c.83-.03 1.66.03 2.47.2m7.98-13.28c-.59.31-1.12.73-1.54 1.24m.87 1.65l-2.47 1.09" stroke-linecap="round" stroke-linejoin="round"/>
    <path stroke="#FFF" stroke-width=".5" d="M455.962 615.26c.03.913.06 1.826.088 2.74m.08 2.444v2.815m.147 1.92v2.37m.37 2.74c.003.77.075 1.54.216 2.3m.37 2.14c.008.84.09 1.68.25 2.51m.964 1.7c.276.74.874 1.35 1.606 1.64m1.633.28l1.408.14" stroke-linecap="round" stroke-linejoin="round"/>
    <path fill="#CADAFD" d="M449.904 810.327c-.16-.96-3.433-1.76-4.394-1.675-6.018.538-11.878-.312-17.91.037-2.604.15-3.116 6.44-1.252 7.33-.833 1.62-.02 1.09 1.972 2.35 1.744 1.1 5.112 1.6 7.015 1.61 3.15.01 6.37-.8 9.483-.8 4.773 0 5.605-5.76 5.086-8.86m47.492-2.24c-5.732-.28-11.58.3-17.336.21-2.387-.04-2.9 2.83-1.562 4.12-1.436 1.13-1.45 3.66.686 4.19 5.028 1.25 10.137 1.07 15.274 1.32 2.97.14 7.615 1.8 7.76-2.73.136-4.21-.31-6.89-4.822-7.11"/>
    <path stroke="#000" stroke-width="2" d="M478.462 808.65c.048-.152.107-.315.238-.408.13-.092.302-.094.46-.092l15.707.175c2.132.023 4.277.048 6.373.442.347 3.082.12 6.228-.67 9.228-3.662-.095-7.33.062-10.99-.118s-7.346-.71-10.73-2.115c-.26-.11-.528-.23-.702-.452-.186-.237-.234-.55-.266-.85-.21-1.95-.01-3.94.58-5.81zm-31.466 9.292c-.062.3-.138.622-.362.833-.228.215-.56.27-.87.31-4.39.554-8.833 0-13.22-.555l-5.223-.66c-.26-.033-.53-.07-.75-.22-.35-.24-.46-.698-.54-1.116-.31-1.68-.49-3.388-.51-5.097-.01-.65.01-1.31.18-1.938.06-.23.16-.46.34-.6.21-.17.5-.18.76-.19 5.71-.18 11.42-.35 17.12-.38 1.33-.01 2.67 0 3.94.36.06 3.1-.22 6.2-.85 9.24z" stroke-linecap="round" stroke-linejoin="round"/>
    <path stroke="#FFF" d="M490.237 368.173l1.36 3.962m-4.152-.705l1.03 3.992m-8.815-10.058l1.467 4.26m-1.614-11.964l.3 2.243m-3.15-12.028c-.28 1.09-.144 2.28.37 3.282m6.913-6.58l2.814-3.193m1.508-6.492l2.79-3.467m-2.568-2.065c.67-.663 1.342-1.325 2.014-1.987" stroke-linecap="round" stroke-linejoin="round"/>
    <path stroke="#000" stroke-width="2" d="M111.772 236.59c1.208-.923 1.98-2.292 2.714-3.623 4.87-8.81 9.81-17.836 17.257-24.608 10.123-9.21 23.786-13.29 37.045-16.67 1.78-.46 3.63-.91 5.44-.58 1.565.28 2.966 1.12 4.323 1.95 26.33 16.11 50.85 35.15 72.97 56.67-10.22-.23-19.85 5.91-25.82 14.2s-8.73 18.49-10.11 28.62c-29.35-1.51-58.57 18.01-68.41 45.71-29.31-16.27-63.64-22.62-91.57-41.15-1.44-.96-2.93-2.04-3.58-3.64-.5-1.23-.42-2.61-.28-3.93 1.46-13.4 9.54-25.47 20.04-33.92 10.49-8.45 23.25-13.64 36.18-17.42 1.34-.4 2.72-.79 3.83-1.64z" stroke-linecap="round" stroke-linejoin="round"/>
    <path stroke="#000" stroke-width="2" d="M111.772 236.59c12.675 7.8 28.678 12.85 42.222 19.02 4.37 1.99 11.534 5.657 15.716 8.017 16.114 9.092 31.473 17.307 45.87 28.93m-66.752 42.613l4.83 2.063c1.79-4.47 3.608-8.995 6.463-12.873 1.48-2.002 3.21-3.803 5-5.538 9.47-9.2 20.59-16.702 32.66-22.038 2.79-1.23 5.64-2.352 8.61-3.008 2.66-.587 5.4-.796 8.04-1.475l-1.99-.32" stroke-linecap="round" stroke-linejoin="round"/>
    <path stroke="#000" stroke-width="2" d="M156.1 333.45c1.63-.004 3.26.258 4.806.773 7.808-15.274 21.187-27.243 36.292-35.37 5.54-2.982 11.466-5.524 17.735-6.068l-.834-.14m1.69-.64c.71-6.18 2.87-12.19 6.27-17.404 1.74-2.67 3.78-5.13 5.83-7.58 1.22-1.46 2.45-2.93 3.86-4.21 2.2-1.99 4.82-3.46 7.51-4.72 4.04-1.88 8.3-3.28 12.66-4.18-.54-1.28-1.31-2.47-2.28-3.48M69.93 281.3c-.935-1.516-3.408-1.42-4.617-.11-1.208 1.31-1.324 3.332-.83 5.045.682 2.378 2.41 4.41 4.583 5.59 2.174 1.182 4.762 1.53 7.2 1.11.656-.113 1.34-.3 1.8-.78.32-.33.503-.773.61-1.22.534-2.206-.818-4.705-2.956-5.465 1.54.49 3.1.923 4.673 1.296m-2.228-10.09c-.37.978.245 2.11 1.134 2.658.88.55 1.97.65 3.02.69 1.02.045 2.11.03 2.99-.503.56-.34.98-.86 1.35-1.4.95-1.35 1.69-3.19.8-4.58-.38-.58-.99-.98-1.63-1.26-1.22-.54-2.65-.74-3.9-.29-1.26.46-3.31 3.45-3.79 4.7zm14.13-15.494c-1.615 1.73-1.323 4.78.44 6.355 1.766 1.578 4.62 1.627 6.593.322 1.616-1.07 2.677-3.15 2.086-5-.233-.73-.696-1.37-1.227-1.92-.868-.9-2.007-1.62-3.256-1.66-1.25-.03-4.42.66-4.63 1.89zm19.53-8.706c-.145-.59-.687-1.023-1.274-1.18-.58-.158-1.21-.08-1.8.06-1.65.398-3.25 1.376-3.97 2.913-.72 1.53-.29 3.64 1.19 4.47.92.51 2.03.47 3.07.36 1.69-.18 3.59-.68 4.39-2.19.61-1.14.39-2.58-.25-3.7-.64-1.13-1.63-2-2.62-2.83-2.22-1.88-4.58-3.74-7.4-4.44-.24.48.31.97.79 1.23l13.2 7.27-.51-.65m11.85-22.8c2.05 1.48 5.14 4.6 7.64 5.13 2.13.45 4.83-1.22 6.1-2.78 1.47-1.8 2.04-4.29 1.51-6.54-.18-.78-.49-1.53-.99-2.15-.97-1.21-2.6-1.78-4.15-1.7-1.55.08-3.02.76-4.27 1.67-2.41 1.76-4.19 4.8-3.45 7.69.09-1.93-.07-3.87-.46-5.76-.17-.85-.41-1.73-1.02-2.35-.61-.62-1.68-.86-2.34-.29-.34.29-.51.74-.63 1.18-.84 3.03-.21 4.2 2.08 5.86zm21.8-14.21c.5-.02.68-.76.37-1.15-.31-.38-.87-.45-1.36-.4-1.99.21-3.62 2.21-3.43 4.21.2 2 2.18 3.64 4.18 3.47.45-.04.9-.17 1.28-.42.85-.57 1.15-1.68 1.2-2.7.06-1.22-.14-2.46-.6-3.6-.21-.53-.53-1.09-1.08-1.25.9.79 1.83 1.6 2.95 2 1.13.41 2.51.32 3.36-.53.18-.18.27-.58.01-.62m9.63-9.65c.1-.21-.05-.47-.26-.57-.21-.1-.45-.09-.68-.06-1.41.15-2.84.59-3.87 1.57-1.03.98-1.55 2.56-1 3.87.31.73.91 1.31 1.61 1.68.88.46 1.95.62 2.87.25 1.5-.61 2.17-2.4 2.14-4.02-.03-1.73-.69-3.44-1.84-4.74-1.34-1.52-3.26-2.44-4.6-3.97.08.68.64 1.2 1.17 1.65l3.7 3.14c.83.7 1.68 1.42 2.68 1.85 1 .42 2.2.52 3.16-.01.26-.14.53-.44.4-.71" stroke-linecap="round" stroke-linejoin="round"/>
    <path stroke="#000" d="M95.636 299.89c1.34-3.68 1.48-7.785.398-11.55-.94.033-1.02 1.472-.5 2.255 1.342 2.015 4.405 2.37 6.485 1.133 2.08-1.238 3.22-3.68 3.44-6.09.08-.892.05-1.833-.37-2.623-.43-.79-1.33-1.38-2.21-1.2-.89.894-.65 2.538.31 3.352.96.813 2.41.865 3.57.386 1.17-.48 2.09-1.41 2.85-2.412 1.47-1.93 2.48-4.23 2.89-6.63.28-1.61.07-3.65-1.42-4.32-.65 1.4.18 3.18 1.53 3.93s3.04.64 4.49.13c3.89-1.38 6.47-5.76 5.79-9.84-.09-.52-.58-1.17-.99-.84-1.01.74-.35 2.56.86 2.89 1.21.33 2.47-.39 3.34-1.3.86-.9 1.51-2.02 2.46-2.83m-14.83 48.89c.57.2.97-.56 1.1-1.15.41-1.87.82-3.78.67-5.68-.16-1.91-.97-3.86-2.55-4.94-.64 2.12-.14 4.59 1.43 6.15 1.57 1.56 4.19 2.01 6.09.88 1.8-1.07 2.66-3.2 3.2-5.23.5-1.87.85-3.82.64-5.74-.22-1.92-1.06-3.84-2.57-5.04-.13-.1-.27-.2-.43-.22-.38-.05-.66.33-.81.68-.63 1.46-.38 3.27.62 4.5 1.01 1.23 2.73 1.84 4.28 1.51 2.3-.48 3.81-2.7 4.7-4.88 1.46-3.58 1.68-8.24-1.21-10.82-.34-.3-.82-.58-1.23-.37-.29.15-.42.5-.48.82-.56 2.79 1.93 5.77 4.78 5.7.68-.01 1.38-.19 1.93-.6.88-.67 1.22-1.82 1.44-2.9.61-3.03.7-6.17.27-9.23-.12-.85-.46-1.88-1.32-1.99-.87 1.35-.84 3.22.06 4.55.9 1.33 2.63 2.04 4.2 1.74 1.9-.37 3.34-2.07 3.88-3.93.53-1.86.32-3.85-.07-5.74-.18-.85-.68-1.91-1.54-1.78-.87 1.56.54 3.59 2.26 4.04 1.72.46 3.53-.16 5.2-.78m-9.26 47.8c.22.46.71.78 1.22.8.16-1.92.33-3.88-.13-5.74-.47-1.87-1.68-3.67-3.5-4.3-.29 2.07.77 4.26 2.58 5.31 1.8 1.05 4.23.89 5.88-.38 2.56-1.97 2.79-5.75 2.29-8.94-.35-2.24-1.04-4.59-2.75-6.09-1.13 2.66.41 6.35 3.26 6.72 2.55.34 4.85-2.04 5.24-4.58.39-2.55-.64-5.09-1.94-7.32-.58-.98-1.6-2.08-2.65-1.64-.72 1.81-.28 4.02 1.08 5.42 1.35 1.39 3.55 1.9 5.38 1.23 1.99-.73 3.36-2.68 3.84-4.75s.19-4.24-.32-6.3c-.33-1.33-1.08-2.9-2.45-2.93-1.06 1.72.48 3.85 2.05 5.12 1.25 1.02 2.81 1.96 4.38 1.59.94-.22 1.71-.89 2.31-1.64 2.49-3.14 2.14-8.17-.77-10.93-1 1.73.27 4.06 2.07 4.91 1.81.86 3.92.66 5.9.44M155.38 246c1.23-3.17.37-7.047-2.084-9.4-.89 1.89.27 4.34 2.18 5.18 1.91.84 4.258.24 5.82-1.14s2.42-3.43 2.76-5.49c.31-1.87.22-3.86-.603-5.56-.2-.41-.62-.87-1.03-.67-.137.066-.23.19-.307.32-1.02 1.67.22 4.063 2.09 4.63 1.87.564 3.94-.37 5.22-1.85 1.27-1.48 1.88-3.41 2.32-5.318.22-.957.408-1.95.196-2.9-.21-.96-.91-1.868-1.877-2.03-.08 1.993 1.69 3.78 3.67 4.042 1.98.26 3.99-.803 5.19-2.4 1.2-1.596 1.67-3.644 1.69-5.64.01-1.196-.137-2.42-.67-3.49-.17-.33-.47-.69-.83-.62-.198.04-.34.194-.46.355-1.094 1.53.053 3.83 1.77 4.61 1.713.78 3.7.49 5.56.19m-10.8 35.78c1.02-2.65.446-5.84-1.435-7.96-.85 2.02.54 4.53 2.608 5.24 2.06.71 4.46-.17 5.93-1.78 1.47-1.62 2.13-3.84 2.256-6.03.13-2.35-.47-4.99-2.46-6.26-.31 1.76.43 3.66 1.85 4.74 1.415 1.08 3.445 1.29 5.055.53 2.08-.99 3.19-3.3 3.77-5.54.73-2.81.6-6.34-1.82-7.93-.26 1.88.45 4.02 2.13 4.89 1.45.75 3.28.38 4.66-.52 1.37-.89 2.38-2.23 3.36-3.54M212.08 258c.624-1.647.82-3.457.55-5.2-.086-.536-.22-1.085-.54-1.52-.327-.438-.88-.74-1.41-.627-.02 1.686.94 3.346 2.4 4.177 1.05.594 2.49.72 3.37-.106.414-.39.65-.935.79-1.49.36-1.41.18-2.952-.507-4.24.65 1.06 1.91 1.715 3.15 1.64 1.24-.075 2.41-.88 2.93-2.01" stroke-linecap="round" stroke-linejoin="round"/>
    <path stroke="#000" stroke-width="2" d="M215.267 293.065c2.16-9.696 7.94-18.542 15.95-24.417 3.57-2.617 7.527-4.643 11.433-6.725.37-.197.76-.413.968-.776.215-.377.196-.836.2-1.27.014-1.113.233-2.224.643-3.26M407.27 50.054c1.13-2.013 3.023-3.462 4.865-4.853 4.744-3.58 9.615-7.23 15.298-8.97 3.365-1.03 6.9-1.36 10.406-1.68l55.61-5.1c.63-.05 1.29-.11 1.86.16.92.44 1.27 1.54 1.53 2.53 6.93 27.01 6.94 55.35 4.52 83.12-.03.37-.08.76-.3 1.04-.21.26-.54.39-.85.51-28.99 10.76-61.71 4.01-91.73 11.42-2.26-23.32-3.16-46.78-2.72-70.21.05-2.72.15-5.57 1.48-7.94z" stroke-linecap="round" stroke-linejoin="round"/>
    <path stroke="#000" stroke-width="2" d="M406.502 51.852c6.35 1.392 11.102 1.485 16.85 1.592.382.008.796 0 1.095-.238.214-.17.332-.43.434-.684 1.97-4.925.7-10.68 2.62-15.625m-11.19 89.693c.61 2.192.46 3 .86 4.832 21.61-1.896 43.82-3.79 65.43-5.686 7.1-.623 14.23-1.25 21.14-3.003 1.61-.407 3.34-.973 4.24-2.364.78-1.2.75-2.73.69-4.15-.97-24.57-3-51.89-5.82-76.32-.36-3.17-1.57-4.46-4.77-4.38" stroke-linecap="round" stroke-linejoin="round"/>
    <path stroke="#000" stroke-width="2" d="M421.404 131.483c.3 1.673.382 2.923 1.013 4.614 21.884-1.762 43.728-3.986 65.57-6.21 9.444-.96 18.924-1.93 28.15-4.167 1.097-26.408-7.55-52.228-9.56-78.582-1.18-.22-1.363.01-2.543-.21" stroke-linecap="round" stroke-linejoin="round"/>
    <path stroke="#000" stroke-width="2" d="M460.577 133.468c1.854 7.89 3.71 15.78 5.563 23.67 27.894-8.73 55.553-18.206 82.94-28.416-2.49-24.883-12.233-48.4-17.894-72.758l-21.908 6.03c-.332.09-.736.272-.73.617.004.35.73.19.478-.05m-94.404 5.67c-.44.54-.495 1.35-.13 1.94.364.59 1.12.91 1.794.75.48-.65.645-1.52.438-2.3-.07-.26-.183-.51-.387-.69-.62-.53-1.7.15-1.684.97.016.82.803 1.45 1.61 1.58.113-.87.042-1.77-.21-2.62-.473-.03-.83.49-.808.97.022.48.304.89.576 1.28.41.25.98.07 1.26-.32.28-.38.3-.91.18-1.37-.35-.24-.8-.33-1.21-.24-.26.36-.36.87-.16 1.27.2.4.75.62 1.13.39.39-.23.4-.91-.01-1.09-.27-.16-.66-.14-.86.1-.2.24-.13.68.17.8m-.67 15.34c.17-.17-.13-.46-.36-.36-.22.1-.3.36-.36.6-.18.75-.27 1.71.38 2.1.69.42 1.61-.31 1.69-1.11.08-.8-.36-1.54-.8-2.22-.75.32-1.15 1.28-.85 2.04.31.76 1.26 1.18 2.02.89.19-.75.23-1.61-.19-2.26-.42-.66-1.43-.96-2-.43-.26.24-.38.6-.4.96-.08 1.29 1.22 2.47 2.49 2.26.21-.51.42-1.06.31-1.6-.11-.54-.68-1.03-1.19-.83-.6.23-.63 1.06-.55 1.69l.73.01m-1.56 14.5c-.26-.25-.56.29-.52.66.08.71.21 1.46.68 2 .47.54 1.37.77 1.91.3.33-.28.44-.73.51-1.16.06-.36.1-.76-.09-1.08-.43-.72-1.73-.27-1.81.57-.07.84.79 1.53 1.63 1.53.45-.67.19-1.7-.52-2.09-.89.37-.87 1.91.03 2.26m13.98-36.85c2.41-.56 4.3-2.87 4.37-5.34-2.03-.92-4.4 1.58-3.83 3.73.58 2.16 3.16 3.31 5.35 2.89 2.19-.42 3.97-2.02 5.31-3.8 1.02-1.36 1.86-2.87 2.47-4.46-1.85-.27-3.62 1.45-3.7 3.31-.08 1.87 1.27 3.61 2.99 4.34 1.72.73 3.71.57 5.47-.06 2.83-1.02 5.25-3.4 5.85-6.34-1.61-1.17-4.13.6-4.03 2.6.1 1.99 2.08 3.5 4.06 3.69 1.99.19 3.93-.64 5.67-1.61 2.65-1.48 5.25-3.6 5.95-6.56-1.56-1.02-3.32 1-4.01 2.73-.29.73-.57 1.55-.3 2.28.36.99 1.52 1.39 2.55 1.55 4.75.74 9.83-1.42 12.59-5.35-1.2-.53-2.67.66-2.69 1.97-.02 1.32 1.06 2.46 2.31 2.89 1.24.43 2.61.28 3.9.01M429.85 90.4c3.056-.91 5.575-3.45 6.462-6.51.23-.81.15-1.97-.67-2.135-.41-.08-.816.153-1.14.414-1.938 1.55-2.595 4.5-1.5 6.73 1.09 2.23 3.82 3.52 6.235 2.94 1.37-.33 2.57-1.17 3.59-2.13 2.32-2.18 3.93-5.09 4.53-8.21-2.26-.48-4.54 1.75-4.44 4.07.1 2.31 2.19 4.25 4.48 4.58 2.3.33 4.64-.74 6.25-2.41 1.61-1.67 2.56-3.87 3.16-6.1-2.36-.22-4.37 2.39-3.94 4.73.42 2.33 2.735 4.03 5.1 4.22 2.37.19 4.7-.88 6.52-2.41 2.513-2.12 4.23-5.17 4.703-8.43-1.802-.42-3.783.88-4.252 2.67-.47 1.79.51 3.81 2.15 4.68 1.637.87 3.76.61 5.24-.51" stroke-linecap="round" stroke-linejoin="round"/>
    <path stroke="#000" stroke-width="2" d="M430.784 110.946c3.133.106 6.17-2.27 6.82-5.337.078-.37.12-.77-.055-1.1-.37-.69-1.4-.63-2.07-.26-1.9 1.04-2.51 3.74-1.55 5.68.95 1.95 3.13 3.1 5.3 3.22 2.16.12 4.29-.67 6.15-1.79 3.22-1.95 5.9-5.24 6.01-9-2.08-.56-4.3 1.32-4.45 3.46-.15 2.14 1.46 4.16 3.48 4.89 2.02.73 4.31.34 6.23-.62 3.49-1.76 5.92-5.48 6.12-9.38-2.51-.52-4.86 2.24-4.49 4.78.37 2.53 2.76 4.42 5.28 4.88 2.51.46 5.11-.23 7.48-1.2 2.54-1.03 5.18-2.65 5.93-5.29.4-1.42-.2-3.36-1.66-3.47-.46-.04-.91.13-1.3.37-2.41 1.47-1.94 5.43.22 7.24 2.16 1.81 5.21 2.01 8.03 1.94m145.62 183.65c-.33-.42-.66-.88-.68-1.41-.02-.68.49-1.24.96-1.72 25.34-25.61 53.55-48.17 81.68-70.67.48-.39 1-.79 1.62-.8.77-.01 1.39.59 1.92 1.15l33.66 35.73c5.16 5.47 10.43 11.04 17.04 14.63l-79.69 69.23c-.87.75-1.81 1.54-2.95 1.71-1.47.21-2.86-.64-4.08-1.48-18.8-12.74-35.58-28.47-49.51-46.4z" stroke-linecap="round" stroke-linejoin="round"/>
    <path stroke="#000" stroke-width="2" d="M713.3 232.254c-4.704 3.653-9.474 7.222-14.307 10.703l.86-1.133m7.32-8.986c.84 1.963 2.07 3.758 3.595 5.252m-1.618 9.657c.255-.932-.333-1.96-1.194-2.4-.88-.453-2.013-.36-2.805.233-.23.172-.43.384-.58.632-.45.772-.23 1.833.41 2.453.65.62 1.64.81 2.5.584.76-.2 1.47-.75 1.68-1.51zm14.895 14.456c.427-.2.642-.714.607-1.184-.035-.47-.277-.91-.564-1.28-1.356-1.78-3.894-2.54-6.007-1.82-1.08.37-2.15 1.36-1.95 2.49.1.55.49 1.02.94 1.36 1.4 1.08 3.35 1.21 5.05.75 1.71-.46 3.23-1.42 4.71-2.37 1.62-1.04 3.29-2.12 4.3-3.76-1.41.46-2.53 1.51-3.6 2.53l-6.74 6.45.43-.24m11.16 5.82c.19-.37.27-.8.27-1.21-.01-1.83-1.59-3.38-3.37-3.81-1.06-.26-2.34-.1-2.98.78-.36.49-.45 1.13-.41 1.74.14 1.74 1.48 3.33 3.18 3.74 1.24.3 2.75-.11 3.33-1.25zm12.21 1.19c.01-.2-.31-.25-.44-.1-.12.15-.1.38-.07.57.19.14.43.2.66.17v-.5l-.49-.2m-6.93 6.72l-.1.63c.29.06.6 0 .84-.16.13-.43-.51-.83-.84-.53m-54.15-27.64v-.5c-.17 0-.34-.01-.51-.01-.24.32-.22.81.05 1.12.27.3.76.38 1.11.18.25-.31.23-.82-.05-1.11-.28-.29-.78-.33-1.1-.09.51.51 1.3.73 1.99.55l-.02-.45c-.48-.41-1.35-.15-1.53.45m-12.28 9.18h-.5v1c.47.23 1.04.23 1.51.01v-.69c-.54-.17-1.11-.22-1.67-.14-.11.14-.17.32-.18.5.61.16 1.26.2 1.89.12-.22-.67-1.26-.86-1.7-.3m-12.36 10.86c-.08-.18-.37-.13-.47.04-.09.17-.05.38 0 .57.35.12.71.23 1.07.17.36-.06.71-.34.75-.7.05-.48-.47-.87-.95-.82-.47.04-.87.4-1.13.8.41.29.99.32 1.42.06l-.84-.01m-13.46 12.32c-.13-.36.48-.69.7-.38.23.32-.27.79-.57.55.42.05.86.07 1.22-.13.37-.2.6-.7.37-1.05-.14-.23-.42-.33-.68-.37-.42-.06-.93.04-1.12.43-.19.38.29.94.64.69m48.12-22.93c3.53 3.25 6.89 6.7 10.04 10.31 4.76 5.45 9.07 11.27 13.37 17.09M676.74 271c4.8 6.82 11.67 12 16.4 18.88 1.7 2.47 3.1 5.14 4.77 7.63 1.56 2.344 3.352 4.536 5.34 6.533m-40.46-20.62c3.88 3.23 6.09 8 9.3 11.89 2.02 2.447 4.42 4.54 6.73 6.707 4.99 4.68 9.6 9.78 13.76 15.21m-41.52-23.56c1.55 3.92 5.18 6.53 8.41 9.23 5.33 4.465 9.98 9.745 13.74 15.6m-505.72 88.07c-1.5-.786-3.24-.92-4.92-1.04-4.34-.31-8.78-.607-12.96.585-2.48.703-4.78 1.91-7.06 3.11l-36.16 19.02c-.41.213-.84.445-1.08.84-.39.633-.17 1.45.07 2.16 6.51 19.324 17.79 36.71 30.33 52.79.17.21.35.432.6.516.23.08.48.03.72-.03 22.07-4.94 39.45-22.11 60.82-29.52-7.91-15.21-16.69-29.96-26.3-44.16-1.11-1.65-2.31-3.35-4.07-4.28z" stroke-linecap="round" stroke-linejoin="round"/>
    <path stroke="#000" stroke-width="2" d="M168.643 407.42c-3.34 3.383-6.22 5.333-9.703 7.69-.23.155-.488.315-.764.29-.2-.02-.376-.133-.54-.25-3.17-2.234-4.678-6.275-7.826-8.543m42.592 50.563c.5 1.588.912 2.025 1.398 3.307-14.013 7.446-28.388 15.128-42.4 22.573-4.602 2.446-9.228 4.902-14.162 6.578-1.148.39-2.433.732-3.54.237-.952-.426-1.543-1.374-2.076-2.27-9.188-15.462-18.824-33.026-26.828-49.13-1.04-2.093-.807-3.364 1.18-4.588" stroke-linecap="round" stroke-linejoin="round"/>
    <path stroke="#000" stroke-width="2" d="M191.222 462.204c.483 1.146.93 1.946 1.216 3.234-14.126 7.636-28.41 14.973-42.696 22.31-6.176 3.17-12.376 6.353-18.927 8.655-11.192-15.762-16.172-35.046-25.438-52.012.636-.6.84-.53 1.477-1.14" stroke-linecap="round" stroke-linejoin="round"/>
    <path stroke="#000" stroke-width="2" d="M167.982 479.026l6.016 16.736c-20.588 5.756-41.33 10.96-62.196 15.606-8.384-16.256-11.775-34.563-18.006-51.76l15.84-5.028c.24-.076.56-.126.695.088.14.213-.37.403-.31.158m60.17-34.126c.49.152.84.632.86 1.138.01.506-.33 1-.8 1.174-.55-.207-1-.674-1.18-1.234-.06-.187-.09-.39-.03-.578.17-.573 1.11-.583 1.42-.076.32.507.09 1.21-.36 1.608-.42-.49-.73-1.07-.91-1.688.28-.21.71-.03.89.27.18.3.17.67.16 1.016-.15.316-.57.43-.9.303-.32-.127-.54-.44-.65-.77.12-.288.36-.522.65-.632.3.12.57.39.6.72.04.33-.21.68-.54.69-.32.02-.6-.4-.42-.67.1-.21.35-.35.57-.28.22.07.35.37.22.56m6.52 9.14c-.17-.03-.1-.33.08-.36.18-.03.33.1.46.22.41.39.85.94.61 1.44-.26.53-1.12.45-1.49-.01-.37-.46-.39-1.09-.4-1.68.59-.1 1.22.33 1.33.91.12.59-.3 1.23-.88 1.35-.42-.39-.78-.89-.79-1.46 0-.57.5-1.16 1.06-1.06.26.05.48.22.64.43.57.76.24 2-.62 2.38-.33-.23-.68-.48-.83-.86-.15-.37.01-.9.4-.99.46-.1.81.4 1.01.82l-.45.3m6.73 8.31c.07-.26.46-.04.58.2.24.47.45.98.38 1.5s-.53 1.02-1.05.94c-.31-.04-.56-.28-.77-.51-.18-.2-.36-.43-.37-.7-.02-.61.96-.85 1.34-.37.38.48.13 1.26-.39 1.59-.54-.23-.79-.97-.51-1.49.69-.13 1.29.82.88 1.4m-23.25-17.03c-1.7.61-3.78-.06-4.81-1.54.88-1.38 3.33-.79 3.84.76.51 1.55-.62 3.28-2.13 3.89-1.51.61-3.24.34-4.77-.23-1.17-.43-2.28-1.02-3.29-1.75 1.02-.9 2.8-.55 3.59.56s.66 2.72-.1 3.85c-.76 1.14-2.05 1.83-3.38 2.14-2.14.5-4.57.01-6.11-1.56.53-1.36 2.78-1.27 3.51-.01s.12 2.98-1.02 3.88c-1.15.91-2.66 1.17-4.12 1.27-2.21.15-4.65-.12-6.26-1.65.55-1.24 2.44-.7 3.55.08.47.33.97.72 1.1 1.29.17.75-.38 1.46-.95 1.97-2.62 2.34-6.59 3.04-9.85 1.73.52-.81 1.9-.66 2.44.14s.33 1.93-.26 2.69-1.49 1.21-2.39 1.56m41.21-5.27c-2.24.66-4.8.1-6.56-1.42-.47-.41-.88-1.15-.44-1.58.22-.21.56-.23.86-.2 1.81.19 3.39 1.73 3.61 3.53.22 1.81-.94 3.69-2.65 4.3-.97.34-2.04.3-3.05.12-2.29-.41-4.44-1.56-6.05-3.23 1.2-1.2 3.487-.73 4.34.73.86 1.46.35 3.47-.92 4.59-1.27 1.11-3.132 1.39-4.782 1.01s-3.11-1.35-4.37-2.49c1.36-1.08 3.63-.27 4.3 1.33s-.07 3.56-1.45 4.62c-1.37 1.06-3.23 1.33-4.95 1.12-2.39-.3-4.66-1.49-6.25-3.3.94-.98 2.67-.97 3.67-.06 1 .91 1.2 2.54.54 3.73-.66 1.19-2.07 1.87-3.42 1.77" stroke-linecap="round" stroke-linejoin="round"/>
    <path stroke="#000" stroke-width="2" d="M177.287 453.343c-1.88 1.313-4.69 1.065-6.31-.557-.193-.194-.378-.423-.402-.695-.05-.56.603-.94 1.17-.98 1.58-.11 3.022 1.3 3.214 2.88.19 1.58-.69 3.16-1.97 4.09-1.28.94-2.9 1.31-4.49 1.36-2.75.09-5.71-.85-7.27-3.12 1.05-1.16 3.16-.9 4.1.36.94 1.26.76 3.13-.19 4.39-.95 1.26-2.51 1.93-4.07 2.1-2.85.32-5.82-1-7.5-3.31 1.33-1.31 3.87-.55 4.65 1.15.78 1.71.06 3.82-1.3 5.1-1.36 1.29-3.23 1.9-5.07 2.25-1.97.38-4.24.44-5.75-.88-.81-.71-1.22-2.14-.36-2.79.27-.2.61-.28.94-.29 2.06-.05 3.35 2.56 2.74 4.53-.61 1.97-2.4 3.31-4.15 4.39m145.4-405.38c.29-.37.59-.78.6-1.26.02-.6-.44-1.11-.87-1.54-22.74-22.98-48.06-43.23-73.31-63.42-.43-.34-.91-.7-1.46-.71-.69-.01-1.25.53-1.72 1.04L183.7 34.11c-4.63 4.92-9.37 9.91-15.3 13.14l71.51 62.13c.78.68 1.62 1.39 2.64 1.54 1.31.19 2.56-.573 3.66-1.32 16.87-11.44 31.92-25.55 44.42-41.65z" stroke-linecap="round" stroke-linejoin="round"/>
    <path stroke="#000" stroke-width="2" d="M232.5 38.748c-3.168 2.92-6.178 6.013-9.012 9.26-4.27 4.89-8.133 10.117-11.99 15.34m35.396-15.698c-4.315 6.12-10.477 10.77-14.72 16.942-1.528 2.22-2.787 4.612-4.282 6.853-1.404 2.104-3.013 4.07-4.798 5.863m36.312-18.503c-3.48 2.898-5.465 7.177-8.345 10.672-1.8 2.195-3.96 4.072-6.03 6.02-4.48 4.203-8.61 8.775-12.34 13.653m37.26-21.154c-1.39 3.515-4.65 5.858-7.55 8.284-4.78 4.007-8.96 8.746-12.33 14m-59.79-39.493c.7-1.932 1.41-3.898 1.52-5.95.12-2.052-.44-4.24-1.94-5.643-.43-.403-1-.75-1.58-.646-.59.106-1.01.646-1.24 1.2-.86 2.1.26 4.492 1.7 6.25 1.4 1.706 3.32 3.232 5.52 3.206 1.93-.023 3.69-1.277 4.7-2.913 1.02-1.63 1.36-3.6 1.42-5.52.07-2.57-.71-5.61-3.12-6.52-1.84 1.6-1.33 4.94.72 6.26 2.05 1.32 4.96.71 6.66-1.03 1.7-1.74 2.29-4.35 2.01-6.76s-1.31-4.68-2.51-6.79c-1.46 2.03-.52 5.2 1.66 6.43 2.18 1.23 5.1.63 6.92-1.08 1.82-1.7 2.62-4.31 2.53-6.81-.1-2.61-1.3-5.39-3.68-6.49-1.44 3.28 1.43 7.31 4.97 7.84 3.53.54 7.04-1.67 9.03-4.64M750.2 416.27c1.28.26 2.797.007 4.26-.248 9.707-1.69 19.63-3.45 28.48-2.427 12.04 1.39 20.83 7.75 28.847 14.235 1.075.87 2.173 1.788 2.565 3.095.34 1.13.12 2.46-.11 3.754-4.47 25.14-12.24 50.73-23.12 76.14-3.65-6.52-12.76-9.25-22.42-8.53s-19.806 4.47-29.37 9.05c-9.71-19.19-38.158-26.99-66.607-18.26 3.487-27.1-3.78-52 2.25-79.45.31-1.42.71-2.93 1.896-4.2.91-.97 2.17-1.67 3.41-2.29 12.52-6.28 26.34-7.71 37.84-5.68 11.5 2.03 20.94 7.23 29.19 13.29.86.63 1.73 1.28 2.9 1.52z" stroke-linecap="round" stroke-linejoin="round"/>
    <path stroke="#000" stroke-width="2" d="M750.173 416.234c-2.19 12.128-.673 24.862-1.08 36.657-.132 3.81-.707 10.27-1.24 14.15-2.05 14.98-3.6 29.01-8.556 44.27m-63.212-18.88l-.02 4.13c4.666-1.28 9.393-2.57 13.93-2.87 2.346-.15 4.608-.03 6.83.15 11.785.99 22.673 3.91 31.99 8.61 2.15 1.09 4.225 2.27 5.93 3.78 1.528 1.35 2.746 2.96 4.347 4.24l-.464-1.42" stroke-linecap="round" stroke-linejoin="round"/>
    <path stroke="#000" stroke-width="2" d="M680.362 496.05c.618 1.018.998 2.18 1.12 3.425 16.584-3.322 32.316-1.38 45.267 3.71 4.75 1.865 9.25 4.208 12.1 7.84l-.19-.597m1.21.716c5.79-2.875 11.97-4.75 17.9-5.43 3.04-.35 6.01-.388 8.96-.427 1.77-.023 3.54-.045 5.22.155 2.6.31 4.91 1.156 7.04 2.167 3.2 1.51 6.06 3.43 8.51 5.68.94-1.03 1.71-2.15 2.25-3.3" stroke-linecap="round" stroke-linejoin="round"/>
    <path stroke="#000" d="M687.558 440.156c3.79-1.14 7.51-3.258 10.463-5.958-.38-.57-1.69.152-2.19.9-1.29 1.922-.46 4.03 1.43 4.668 1.89.637 4.5.038 6.74-1.114.83-.427 1.66-.953 2.21-1.643.55-.69.74-1.57.25-2.03-1.13-.08-2.51.96-2.87 2s.14 1.97 1.01 2.44 2.05.55 3.23.49c2.29-.12 4.72-.73 7.02-1.76 1.55-.7 3.29-1.92 3.33-3.21-1.49.34-2.77 1.81-2.93 3.06-.16 1.24.58 2.24 1.59 2.87 2.7 1.69 7.58.95 10.97-1.67.43-.34.84-1 .38-1.08-1.04-.24-2.42 1.16-2.26 2.09.17.93 1.29 1.33 2.42 1.39 1.14.05 2.38-.14 3.46.02m-49.26 17c.04.46.87.3 1.44.07 1.83-.75 3.69-1.52 5.33-2.64 1.65-1.13 3.09-2.68 3.46-4.25-2.13.74-4.15 2.38-4.95 4.2-.8 1.81-.21 3.7 1.51 4.29 1.64.55 3.86-.06 5.88-.81 1.86-.69 3.73-1.52 5.37-2.69 1.64-1.17 3.04-2.73 3.54-4.32.04-.14.08-.28.04-.39-.09-.26-.54-.24-.9-.15-1.54.39-3.06 1.51-3.78 2.81-.72 1.29-.61 2.69.27 3.49 1.3 1.18 3.85.93 6.13.32 3.75-1.02 7.99-3.38 9.21-6.58.14-.37.21-.83-.13-.97-.25-.1-.6.01-.92.14-2.7 1.15-4.42 4.31-3.29 6.06.27.42.69.76 1.27.88.93.19 2.09-.22 3.14-.66 2.94-1.25 5.78-2.88 8.36-4.79.71-.54 1.5-1.31 1.28-1.9-1.54.18-3.19 1.2-4.04 2.47-.85 1.27-.84 2.74.03 3.56 1.04.99 3.1.98 4.96.31 1.86-.67 3.56-1.87 5.11-3.14.69-.57 1.45-1.45 1.01-1.92-1.72.3-3 2.27-2.76 3.6.25 1.32 1.48 2.12 2.66 2.84m-46.18 19.9c-.32.38-.43.86-.25 1.19 1.78-.93 3.59-1.88 5.08-3.18 1.5-1.3 2.64-3.02 2.52-4.5-1.95.93-3.51 2.77-3.77 4.46-.26 1.69.8 3.13 2.56 3.48 2.72.55 6.18-1.34 8.84-3.37 1.88-1.43 3.71-3.12 4.41-4.99-2.79.72-5.51 3.67-4.77 5.66.66 1.77 3.65 1.93 6.07.81 2.42-1.12 4.3-3.14 5.8-5.15.66-.89 1.25-2.12.46-2.54-1.88.52-3.69 1.98-4.43 3.58-.73 1.6-.35 3.24.93 4.03 1.4.86 3.66.67 5.69-.14 2.03-.81 3.86-2.16 5.51-3.59 1.07-.93 2.19-2.24 1.69-3.11-1.93.26-3.26 2.37-3.8 4.03-.43 1.33-.69 2.81.23 3.59.55.47 1.44.59 2.34.56 3.75-.13 8.1-3.05 9.48-6.35-1.92.3-3.52 2.34-3.61 3.93-.08 1.59.9 2.8 1.84 3.93m29.9-32.22c3.3-.94 6.43-3.56 7.61-6.36-2.02.46-3.78 2.5-3.81 4.15-.03 1.65 1.39 2.79 3.22 3.03 1.83.24 3.98-.32 5.95-1.22 1.78-.81 3.52-1.94 4.73-3.37.29-.35.54-.85.2-1-.11-.05-.25-.04-.4-.02-1.87.26-3.55 2.32-3.35 3.8.2 1.47 1.82 2.27 3.62 2.27 1.81 0 3.76-.66 5.63-1.4.93-.38 1.89-.8 2.66-1.44.77-.65 1.32-1.57 1.1-2.27-1.81 1.03-2.74 3.09-2.23 4.47.52 1.38 2.22 2.07 4.1 1.96 1.88-.11 3.89-.91 5.68-1.97 1.07-.64 2.11-1.39 2.86-2.3.24-.28.45-.66.24-.85-.1-.1-.3-.11-.48-.09-1.78.14-3.4 2.09-3.45 3.59-.05 1.49.96 2.58 1.93 3.58M758.1 465.5c2.74-.78 5.38-2.86 6.56-5.18-2.12.55-3.84 2.77-3.69 4.45.14 1.68 1.82 2.71 3.82 2.76 2 .06 4.23-.73 6.23-1.82 2.15-1.18 4.285-2.98 4.666-4.9-1.68.75-3.1 2.23-3.53 3.7-.43 1.47.15 2.85 1.44 3.45 1.67.77 4.15.22 6.365-.615 2.78-1.06 5.89-3.04 6.4-5.41-1.78.85-3.43 2.44-3.57 3.97-.12 1.32.9 2.26 2.22 2.64 1.31.38 2.89.3 4.43.21m-20.48 21.68c1.7-.49 3.39-1.35 4.85-2.45.45-.34.89-.72 1.16-1.16.26-.44.33-.95.02-1.22-1.51.89-2.63 2.38-2.82 3.74-.13.98.3 1.95 1.37 2.06.51.05 1.08-.1 1.63-.31 1.4-.53 2.71-1.48 3.6-2.59-.7.97-.81 2.11-.28 2.85.54.73 1.69 1.03 2.9.75" stroke-linecap="round" stroke-linejoin="round"/>
    <path stroke="#000" stroke-width="2" d="M738.725 511.384c9.474-3.86 19.552-4.996 27.818-3.14 3.682.83 6.984 2.22 10.315 3.545.315.12.654.25 1.057.18.418-.07.82-.33 1.21-.56 1-.59 2.074-1.05 3.153-1.35m-93.582-86.25c1.566-1.14 2.725-2.83 3.224-4.69.15-.56.234-1.18-.034-1.69s-1.018-.79-1.44-.4c-.226.2-.297.52-.354.82-.3 1.57-.467 3.38.578 4.59.906 1.05 2.505 1.28 3.83.88 1.327-.41 2.425-1.34 3.392-2.33 1.73-1.78 3.22-3.94 3.574-6.39.114-.8-.048-1.82-.822-2.03-1.007-.27-1.597 1.09-1.737 2.12-.214 1.58-.423 3.2-.065 4.76.358 1.55 1.408 3.05 2.946 3.48 1.496.42 3.087-.25 4.365-1.13 2.924-2.02 4.944-5.3 5.43-8.82.14-1.01-.184-2.41-1.2-2.39-.585.01-1.012.54-1.302 1.05-1.35 2.37-1.56 5.36-.53 7.89.58 1.42 1.65 2.77 3.14 3.1 2.5.55 4.6-1.86 5.86-4.09.99-1.75 1.89-3.83 1.21-5.72-1.95.9-2.76 3.22-3.12 5.34-.26 1.52-.31 3.3.81 4.37.86.83 2.23.96 3.36.58 1.14-.38 2.07-1.2 2.87-2.09.93-1.03 1.74-2.25 1.87-3.62-.65 1.23-1.33 2.53-1.35 3.92-.02 1.39.85 2.91 2.23 3.13 2 .32 4.11-2.07 5.79-.94m28.04 7.61c2.9-1.41 4.8-4.67 4.59-7.89-.89-.12-1.56.77-1.96 1.57-1 2.02-1.62 4.23-1.82 6.47-.11 1.26-.03 2.67.85 3.57 1.37 1.38 3.71.74 5.41-.21 3.01-1.69 5.63-4.08 7.59-6.92.87-1.26 1.64-2.76 1.38-4.27-1.34-.21-2.71.49-3.59 1.53-.87 1.04-1.32 2.38-1.58 3.71-.25 1.28-.33 2.64.08 3.87.41 1.24 1.4 2.35 2.68 2.61 2.08.42 3.91-1.4 5.02-3.21.97-1.58 1.73-3.28 2.26-5.06-.53-.13-.94.46-1.16.97-.54 1.23-1.05 2.52-1.11 3.87-.06 1.35.41 2.79 1.49 3.61 1.95 1.46 4.82.27 6.47-1.52 1.56-1.69 2.58-3.87 2.86-6.15-1.3 1.38-2.07 3.25-2.12 5.15-.02.64.05 1.31.38 1.86.95 1.57 3.35 1.3 4.93.38 1.57-.9 2.88-2.25 3.75-3.84-.57 1.29-.24 2.92.78 3.88 1.02.97 2.67 1.21 3.92.57M704.63 136.3c.412.06.857.115 1.247-.07.5-.233.742-.772.936-1.26 10.33-25.99 17.5-52.754 24.65-79.446.12-.454.24-.948.044-1.353-.245-.5-.89-.69-1.47-.84l-37.114-9.06c-5.69-1.39-11.484-2.82-16.277-5.85l-24.263 77.62c-.265.85-.53 1.75-.278 2.56.324 1.05 1.405 1.64 2.415 2.15 15.474 7.7 32.453 12.97 50.11 15.58z" stroke-linecap="round" stroke-linejoin="round"/>
    <path stroke="#000" stroke-width="2" d="M707.014 81.847c-3.534-1.13-7.15-2.075-10.823-2.83-5.53-1.135-11.2-1.835-16.85-2.535m25.73 19.52c-6.55-.668-12.59-3.287-19.16-3.882-2.36-.214-4.76-.163-7.13-.345-2.22-.172-4.41-.55-6.52-1.127m28.34 19.05c-3.63-1.37-7.83-1.08-11.72-1.767-2.45-.43-4.76-1.24-7.1-1.97-5.05-1.56-10.28-2.73-15.61-3.48M697 121.14c-3.362.42-6.46-1.02-9.493-2.15-5.01-1.87-10.39-2.99-15.89-3.32m10.167-59.82c1.827-.27 3.684-.55 5.39-1.3 1.71-.75 3.28-2.05 3.87-3.72.17-.48.24-1.04-.055-1.42-.3-.39-.9-.48-1.43-.42-2.02.225-3.55 2.018-4.45 3.78-.88 1.716-1.41 3.744-.58 5.346.72 1.4 2.39 2.18 4.08 2.256 1.7.078 3.42-.47 5-1.21 2.11-.997 4.29-2.804 4.15-4.94-1.97-.694-4.5 1.04-4.82 3.07-.32 2.03 1.24 3.917 3.28 4.45 2.03.536 4.37-.094 6.23-1.28 1.86-1.18 3.32-2.864 4.6-4.6-2.18-.244-4.42 1.736-4.62 3.83-.2 2.09 1.35 3.98 3.41 4.62 2.05.64 4.46.16 6.46-.92 2.09-1.136 3.9-3.147 3.92-5.33-3.19.274-5.41 4.016-4.55 6.82.86 2.81 3.94 4.48 7.08 4.726" stroke-linecap="round" stroke-linejoin="round"/>
    <path stroke="#FFF" stroke-width=".5" d="M440.378 524.04c.622.157 1.267.227 1.908.206m10.667.577h1.917m1.75.17c.776-.093 1.553-.19 2.33-.282m7.337-.29l1.916-.25m2.414-.35l2.168-.23" stroke-linecap="round" stroke-linejoin="round"/>
    <path stroke="#000" stroke-width="2" d="M556.053 355.142c3.182 3.637 6.96 6.75 11.138 9.176-.34-4.587-1.88-9.077-4.42-12.916 3.28-.277 6.89 4.125 9.1 1.692.55-.603.71-1.457.83-2.265.42-2.9.53-5.83.33-8.74 3.52.33 7.47.52 10.14-1.8M614.46 204c1.223 3.4 4.103 6.157 7.552 7.233.01-3.355.018-6.71.026-10.065 3.145.397 6.46 4.136 8.736 1.927.743-.72.92-1.823 1.286-2.79 1.276-3.372 5.537-5.253 8.888-3.923m173.087-8.227c.732 4.07 2.553 7.942 5.225 11.1 1.972-4.167 4.02-8.3 6.14-12.393 1.397.55 1.764 2.295 2.324 3.688.56 1.393 2.242 2.765 3.402 1.812M153.823 140.11l-1.773 8.043c5.048-5.392 11.407-9.55 18.372-12.01-1.17 5.743-3.333 11.282-6.366 16.297l16.25-7.775c.383 4.245-.512 8.596-2.538 12.345l5.268-.854m33.17 218.038c-1.047 4.823-.09 10.05 2.6 14.188 1.33-5.617 3.924-10.932 7.53-15.44l1.283 14.22c1.44.315 3.4-.478 3.23-1.943m79.46-218.31c-.24-.39.57-.67.81-.29.24.38.03.87-.18 1.27-2.03 3.83-4.05 7.67-6.07 11.51 6-1.24 12.08-2.05 18.19-2.45-.35 2.37-.56 4.77-.65 7.17M2.14 387.76c.427.457 1.095-.6.566-.932-.53-.33-1.25.24-1.307.86-.06.626.3 1.2.65 1.72l9.42 14.1c2.51-4.88 3.58-10.498 3.02-15.96 2.41 1.966 4.82 3.933 7.22 5.9 1.14.934 2.34 1.895 3.78 2.227 2.39.553 4.9-.83 6.4-2.782 1.49-1.952 2.19-4.385 2.85-6.753l5.28.02m292.03-38.98l-6.01 10.04c3.62-2.75 7.73-4.86 12.08-6.193-.33 5.344-1.7 10.625-4.01 15.456 3.78-1.7 9.06-3.027 11.38.41M600 52.093c3.7-.32 7.515 1.227 9.947 4.034l-13.91 3.07c-.175 2.38 3.13 3.25 4.48 5.21 1.99 2.9-.847 6.55-3.097 9.25s-3.48 7.758-.162 8.924m203.28 274.56c.23-1.2.758-2.35 1.52-3.3l2.52 9.27c.25.92.81 2.05 1.748 1.9.38-.06.69-.34.944-.64 2.84-3.3 1.56-9.62 5.53-11.4l5.033 5.16c.435.45.91.92 1.52 1.05 1.09.24 2.073-.67 2.766-1.54 1.69-2.13 3.01-4.56 3.88-7.14" stroke-linecap="round" stroke-linejoin="round"/>
  </g>
</svg>
