<svg xmlns="http://www.w3.org/2000/svg" viewBox="0 0 190 160">
  <g fill="none" fill-rule="evenodd" stroke="#000" stroke-linecap="round" stroke-linejoin="round">
    <path stroke-width="2" d="M30.91 13.96c2.53-6.516 2.77-8.334 7.692-9.945 14.586-4.774 32.11-2.377 46.41-2.652 10.15-.196 21.615-.028 31.957.928 3.25.31 6.67.41 9.18 2.5 3.72 3.1 3.66 9.11 3.67 13.95.01 4.52.09 7.56-.69 12.74-.45 2.96-1.82 5.86-4.05 7.85-1.76 1.57-4.07 2.38-6.35 2.99-4.65 1.25-9.45 1.86-14.24 2.32-29.6 2.83-59.73-.08-88.24-8.53-1.04-.31-2.29-.86-2.35-1.95 3.2 1.24 6.94 2.2 9.94.53 2.11-1.18 3.38-3.45 4.2-5.73 1.56-4.36 1.16-10.65 2.83-14.97zm50.665 42.448c-4.428.342-9.14.79-12.64 3.524-3.765 2.944-5.28 7.876-6.332 12.54-.672 2.98-.926 7.468-.43 10.484.713 4.335 3.292 6.686 6.876 9.228 3.58 2.54 7.7 4.632 12.07 5.107 29.75 3.24 54.24 1.53 80.98-3.85 8.81-1.77 17.7-3.57 25.97-7.08-3.82.97-7.93-.89-10.6-3.8-2.67-2.9-4.13-6.69-5.31-10.44-.77-2.45-1.47-4.97-2.82-7.16-3.9-6.3-12.04-8.26-19.39-9.19-22.67-2.85-45.63-1.09-68.4.67z"/>
    <path d="M40.592 15.197c2.91-.787 5.22-3.45 5.585-6.442-1.66.714-2.843 2.425-2.923 4.23-.025.55.054 1.128.36 1.587.71 1.065 2.273 1.066 3.518.77 2.82-.673 5.407-2.293 7.243-4.537.61-.746 1.134-1.87.513-2.606-1.318.18-2.604.9-3.24 2.06-.638 1.16-.484 2.78.518 3.65.684.59 1.635.78 2.543.8 3.32.07 6.59-2.07 7.86-5.15-1.33-.66-3.03.71-2.98 2.19.05 1.48 1.41 2.68 2.86 2.95 1.46.27 2.96-.19 4.29-.83 2.41-1.16 4.69-3.26 4.79-5.93-1.7-.4-3.05 1.47-3.48 3.16-.12.47-.22.97-.1 1.45.3 1.3 1.88 1.81 3.22 1.9 4.51.28 9.11-1.76 11.93-5.29.33-.42.63-1.06.25-1.44-.2-.2-.52-.23-.81-.22-1.89.07-3.72 1.17-4.67 2.81-.29.51-.51 1.07-.49 1.66.03.98.73 1.84 1.58 2.32.856.48 1.85.63 2.82.73 2.57.27 5.23.2 7.645-.72 2.41-.92 4.56-2.79 5.33-5.25-1.08-.667-2.56-.235-3.47.65-.907.882-1.376 2.11-1.82 3.3-.213.572-.43 1.185-.305 1.79.278 1.31 1.91 1.752 3.25 1.842 5.44.37 11.49-1.13 14.6-5.61.327-.47.617-1.108.303-1.586-.22-.33-.65-.447-1.05-.46-1.85-.065-3.52 1.79-3.254 3.622.25 1.74 1.95 3 3.69 3.29 1.74.29 3.51-.18 5.195-.69 1.427-.43 3.11-1.23 3.14-2.72l-1.795-.12m-62.5 24.18c1.42-.98 2.87-2 3.85-3.423.98-1.43 1.39-3.37.583-4.9-.71-.1-1.24.62-1.54 1.27-.717 1.52-1.18 3.155-1.37 4.82-.08.71-.1 1.47.24 2.095.616 1.13 2.14 1.38 3.425 1.265 4.002-.356 7.695-3.12 9.163-6.86.305-.78.29-1.98-.54-2.1-.31-.04-.606.11-.87.27-1.25.78-2.22 1.992-2.71 3.38-.236.655-.36 1.37-.23 2.05.244 1.29 1.394 2.265 2.654 2.63 1.26.36 2.61.2 3.89-.098 2.14-.495 4.22-1.4 5.85-2.87 1.63-1.47 2.77-3.55 2.83-5.75-1.51-.14-2.717 1.205-3.56 2.466-.57.84-1.11 1.734-1.3 2.732-.19 1 .044 2.13.82 2.79.63.53 1.5.67 2.323.74 3.45.3 7.06-.193 10.04-1.97 2.98-1.78 5.22-4.97 5.31-8.44-.73-.485-1.72-.43-2.505-.04-.785.395-1.38 1.08-1.875 1.804-.65.97-1.16 2.15-.877 3.28.28 1.13 1.32 1.95 2.44 2.27 1.12.32 2.31.22 3.46.05 2.74-.4 5.47-1.2 7.76-2.76 2.283-1.56 4.09-3.96 4.51-6.7-1.393-.38-2.712.78-3.61 1.915-.6.76-1.17 1.58-1.42 2.52-.257.94-.15 2.02.484 2.75.36.42.86.695 1.37.914 2.38 1.03 5.21.946 7.53-.21 2.32-1.16 4.083-3.37 4.694-5.89-.96.9-.93 2.55-.13 3.583.81 1.04 2.22 1.48 3.52 1.34M72.32 76.75c2.017-1.16 3.42-3.31 3.677-5.62.08-.72-.05-1.613-.73-1.88-.62 1.74-1.19 3.73-.34 5.375.71 1.372 2.32 2.134 3.87 2.113 1.548-.02 3.02-.72 4.25-1.664 2.01-1.548 3.536-4.104 2.93-6.57-.69.005-1.19.634-1.545 1.224-1.148 1.91-1.838 4.45-.59 6.295 1.03 1.52 3.127 2.045 4.91 1.625 1.785-.42 3.29-1.62 4.54-2.96 1.245-1.335 2.36-3.095 1.965-4.88-1.405-.493-3.02.735-3.215 2.21-.195 1.476.77 2.934 2.067 3.665 1.3.73 2.86.844 4.34.71 2.05-.182 4.1-.832 5.68-2.142s2.64-3.33 2.49-5.38c-.02-.35-.09-.7-.31-.97-.35-.42-1-.48-1.5-.27-.5.21-.88.63-1.21 1.06-1.45 1.93-2.11 4.8-.637 6.71 1.24 1.61 3.55 1.97 5.56 1.68 3.98-.57 7.59-3.31 9.2-7 .22-.52.27-1.34-.28-1.45-.76.77-1.33 1.71-1.67 2.74-.16.48-.26 1-.16 1.5.21 1.02 1.28 1.68 2.31 1.77 1.03.09 2.05-.26 3.03-.61m18.84 1.52c2.456-1.24 4.4-3.46 5.31-6.053-.56-.27-1.2.19-1.613.66-.72.816-1.302 1.796-1.404 2.875-.1 1.08.37 2.257 1.33 2.76.86.45 1.913.296 2.83-.03 1.582-.56 2.992-1.61 3.99-2.96-.526 1.4.75 2.95 2.21 3.287 1.46.34 2.96-.17 4.37-.67m-127.4 61.88c1.85-.57 3.23-2.084 4.47-3.57 1.172-1.41 2.37-3.27 1.62-4.946-.51.29-.715.92-.86 1.49-.27 1.07-.5 2.17-.39 3.27.11 1.096.607 2.2 1.524 2.817 1.51 1.01 3.57.4 5.16-.485 2.145-1.2 4.175-3.12 4.34-5.57.027-.35.006-.723-.175-1.03-.34-.57-1.15-.71-1.76-.453-.61.258-1.05.806-1.39 1.37-.53.876-.91 1.94-.607 2.914.366 1.17 1.583 1.84 2.745 2.24 1.18.4 2.41.64 3.65.715m21.4-.886c2.683-2.54 5.567-5.54 5.52-9.24-.006-.5-.16-1.11-.65-1.23-1.26 1.82-2.325 3.89-2.335 6.11-.01 2.214 1.3 4.55 3.44 5.12 1.45.387 2.99-.074 4.346-.72 3.22-1.534 6.07-4.516 6.17-8.08.01-.38-.07-.847-.43-.967-.16-.055-.34-.018-.502.03-2.31.634-3.997 3.04-3.806 5.43.19 2.39 2.238 4.5 4.62 4.76.967.105 1.94-.06 2.875-.33 3.05-.895 5.98-3.47 5.84-6.65-1.24 1.06-1.37 3.065-.555 4.48.812 1.42 2.364 2.283 3.96 2.65"/>
    <path stroke-width="2" d="M114.1 146.593c.632-8.826.377-17.715-.76-26.49-.288-2.227-.778-4.693-2.61-5.99-.98-.694-2.2-.936-3.38-1.155-21.086-3.915-42.526-5.928-63.974-6.004-4.877-.018-9.78.067-14.585.904-2.41.42-4.84 1.05-6.89 2.38-2.39 1.544-4.12 3.945-5.33 6.52-2.31 4.936-2.83 10.496-4.25 15.76-2.02 7.48-5.95 14.44-11.31 20.038 35.78 2.78 72.28 10.1 107.08 1.332 1.64-.413 3.37-.922 4.49-2.196 1.19-1.362 1.41-3.295 1.54-5.1z"/>
  </g>
</svg>
