<svg xmlns="http://www.w3.org/2000/svg" viewBox="0 0 35 34" width="36" xmlns:xlink="http://www.w3.org/1999/xlink"><defs><path id="a" d="M0 35.625h35.625V0H0z"/></defs><g fill="none" fill-rule="evenodd" transform="matrix(1 0 0 -1 0 34.625)"><mask id="b" fill="#fff"><use xlink:href="#a"/></mask><g mask="url(#b)"><path fill="#DD2E44" d="M11.837 27.667a1.27 1.27 0 0 1-.25-.37l-.01.007L1.064 3.618l.01-.01c-.195-.378.132-1.146.8-1.816.668-.667 1.436-.994 1.814-.8l.01-.008 23.687 10.514-.007.01c.14.064.264.144.37.25 1.465 1.464-.91 6.213-5.303 10.606-4.393 4.394-9.143 6.768-10.607 5.303"/><path fill="#EA596E" d="M13.125 23.438L1.328 4.212l-.265-.595.01-.01c-.195-.378.132-1.146.8-1.816.218-.21.443-.38.665-.52l14.337 17.48-3.75 4.69z"/><path fill="#A0041E" d="M22.51 22.438c4.38-4.38 6.81-9.05 5.428-10.43-1.38-1.38-6.05 1.05-10.43 5.428-4.38 4.38-6.81 9.05-5.43 10.43 1.383 1.382 6.052-1.05 10.433-5.428"/><path fill="#AA8DD8" d="M18.365 21.93a.929.929 0 0 0-.688-.203c-.813.088-1.498.37-1.977.82-.507.472-.757 1.107-.69 1.744.12 1.12 1.242 2.15 3.154 1.94.743-.08 1.075.16 1.086.28.013.12-.26.42-1.003.5-.814.09-1.498.37-1.978.82-.51.48-.76 1.11-.69 1.75.12 1.12 1.24 2.15 3.15 1.94.54-.06.82.06.95.13.09.06.13.118.14.15.01.115-.26.42-1.01.5a.93.93 0 0 0-.83 1.033c.05.51.51.884 1.03.83 1.91-.207 2.78-1.45 2.66-2.566-.12-1.116-1.24-2.14-3.16-1.934-.54.06-.83-.056-.95-.128-.096-.06-.135-.118-.14-.15-.01-.113.26-.42 1.005-.5 1.91-.204 2.787-1.444 2.666-2.563-.12-1.12-1.24-2.146-3.15-1.94-.54.06-.83-.052-.95-.124-.096-.06-.133-.117-.137-.15-.01-.11.26-.42 1-.5a.932.932 0 1 0 .48-1.66"/><path fill="#77B255" d="M29.682 13.26c1.85.52 3.126-.304 3.43-1.387.303-1.082-.355-2.452-2.203-2.97-.73-.203-.94-.548-.91-.66.03-.11.4-.292 1.12-.087 1.84.52 3.12-.306 3.42-1.388.3-1.082-.36-2.45-2.21-2.972-.72-.202-.94-.548-.91-.658.03-.11.39-.29 1.12-.09a.929.929 0 0 0 1.15-.647.934.934 0 0 0-.65-1.15c-1.85-.52-3.128.3-3.43 1.39-.307 1.09.352 2.45 2.203 2.97.72.21.94.55.91.66-.03.11-.396.3-1.117.09-1.85-.52-3.126.3-3.43 1.39-.305 1.09.354 2.45 2.204 2.97.72.2.937.55.906.66-.03.11-.397.29-1.12.09a.94.94 0 0 0-.512 1.81"/><path fill="#AA8DD8" d="M22.5 15.787a.933.933 0 0 0-.732.352c-.324.4-.258.99.146 1.31.204.16 5.08 3.99 11.97 3.01a.941.941 0 0 0 .794-1.06.928.928 0 0 0-1.06-.8c-6.088.86-10.49-2.59-10.532-2.62a.93.93 0 0 0-.585-.21"/><path fill="#77B255" d="M6.332 19.688a.936.936 0 0 0-.898 1.207c1.062 3.537 2.025 9.182.842 10.653-.133.167-.332.33-.79.296-.88-.067-.795-1.923-.794-1.942a.938.938 0 0 0-.865-1.005.94.94 0 0 0-1.005.866c-.097 1.293.306 3.783 2.523 3.95.99.075 1.812-.27 2.394-.99 2.22-2.767-.04-10.788-.51-12.368a.951.951 0 0 0-.9-.668"/><path fill="#5C913B" d="M26.25 25.78a1.406 1.406 0 0 0-2.813.001 1.408 1.408 0 0 0 2.813.01"/><path fill="#9266CC" d="M4.688 17.813a1.876 1.876 0 1 0-3.751.003 1.876 1.876 0 0 0 3.751-.004"/><path fill="#5C913B" d="M32.813 16.406a1.407 1.407 0 1 0-2.814.002 1.407 1.407 0 0 0 2.814-.002m-8.438-11.25a1.408 1.408 0 1 0-1.416 1.407c.77 0 1.4-.63 1.4-1.407"/><path fill="#FFCC4D" d="M29.063 30.938a1.876 1.876 0 1 0-3.751.003 1.876 1.876 0 0 0 3.751-.004m3.75-4.217A1.407 1.407 0 0 0 30 26.719a1.405 1.405 0 0 0 2.813-.01M30 22.97a1.407 1.407 0 0 0-2.813-.001 1.406 1.406 0 0 0 2.813-.01M9.375 12.65a1.408 1.408 0 1 0-1.416 1.411c.77 0 1.4-.63 1.4-1.4"/></g></g></svg>