<svg xmlns="http://www.w3.org/2000/svg" viewBox="0 0 178 86">
  <g fill="none" fill-rule="evenodd">
    <path stroke="#000" stroke-width="2" d="M175.308 9.027c-.302-1.668-.718-3.552-2.096-4.63-.973-.76-2.246-1.113-3.487-1.164-29.33-1.2-57.547-1.13-89.402-.88-24.838.195-48.008-1.21-75.044-1.026-1.17.008-2.53-.102-3.28.773-.55.63-.6 1.54-.61 2.37-.4 23.12.46 46.24 1.32 69.345.07 1.954.17 4.004 1.2 5.68 1.74 2.856 5.48 4.036 8.86 4.155 21.56.76 37.79.585 57.31.897 14.5.232 24.3.046 36.75-.455l64.65-2.602c2.8-.11 5.06-2.3 5.19-5.05.9-18.23-.797-36.42-.39-54.724.096-4.25-.238-8.5-.994-12.686z" stroke-linecap="round" stroke-linejoin="round"/>
    <path fill="#4185F4" d="M26.58 59c-.228-5.98-.356-11.96-.382-17.944-.01-2.315-3.605-2.295-3.595.027.025 5.983.153 11.964.382 17.943.09 2.31 3.685 2.297 3.596-.026m17.9.957c-.54-6.386-.97-12.778-1.3-19.178-.11-2.31-3.71-2.3-3.59.02.33 6.4.76 12.79 1.3 19.18.2 2.29 3.8 2.29 3.6-.03"/>
    <path stroke="#000" stroke-width="1.798" d="M15.267 37.64c-2.478 7.745.69 16.894 7.32 21.603 6.63 4.71 16.182 4.738 22.946.222 6.764-4.518 10.395-13.217 9.038-21.236-.2-1.22-.51-2.41-.99-3.55-2.54-6.06-7.85-9.54-14.83-11.13-1.65-.38-4.15-.34-5.85-.24-1.31.07-3.63.48-4.88.91-6.29 2.16-10.71 7.06-12.74 13.4zm56.943.94c-2.476 7.746.69 16.894 7.32 21.604 6.63 4.71 16.183 4.737 22.948.22 6.764-4.516 10.394-13.216 9.036-21.234-.205-1.212-.514-2.408-.99-3.54-2.54-6.063-7.855-9.54-14.836-11.13-1.656-.376-4.157-.334-5.853-.236-1.318.076-3.632.48-4.88.912-6.297 2.166-10.715 7.06-12.744 13.403zm54.84-.29c-2.48 7.745.687 16.894 7.318 21.605 6.63 4.71 16.182 4.736 22.947.22 6.764-4.517 10.395-13.217 9.037-21.235-.206-1.212-.514-2.41-.99-3.54-2.54-6.063-7.856-9.542-14.837-11.13-1.656-.376-4.157-.334-5.853-.236-1.318.076-3.63.482-4.88.912-6.296 2.166-10.715 7.06-12.743 13.403z" stroke-linecap="round" stroke-linejoin="round"/>
    <path stroke="#000" stroke-width="1.798" d="M21.46 41.738c.402-.876 1.44-1.238 2.38-1.454 1.637-.376 3.533-.526 4.834.538m8.61.69c.52-.732 1.417-1.08 2.28-1.327 1.044-.3 2.136-.508 3.213-.38 1.08.13 2.15.635 2.768 1.53M20.347 35.2c1.882-1.512 3.847-2.92 5.883-4.213m15.928-.75c1.605 1.013 3.023 2.32 4.162 3.84M34.836 47.95c-.497-.58-1.254-.933-2.02-.937-.765-.004-1.527.34-2.03.92-.538.62-.762 1.46-.832 2.28-.137 1.623.286 3.288 1.182 4.65.588.893 1.6 1.722 2.63 1.43.69-.195 1.153-.84 1.463-1.484.83-1.75.93-3.84.26-5.66-.16-.43-.36-.85-.66-1.2zm48.572 5.085c5.733.196 11.476.104 17.2-.275m51.37-2.955c1.253-.347 3.015-1.418 3.622-2.534-.196 3.65-1.535 6.76-4.658 8.66-3.122 1.9-7.982 1.21-10.424-1.5-1.78-1.98-2.262-4.78-2.545-7.42 3.965 3.54 8.882 4.24 14.005 2.82z" stroke-linecap="round" stroke-linejoin="round"/>
    <path fill="#000" d="M83.835 36.013c-3.92-1.05-5.547 5.027-1.63 6.077 3.92 1.05 5.55-5.027 1.63-6.077m15.942-1.62c-3.92-1.05-5.547 5.025-1.628 6.075 3.91 1.05 5.54-5.026 1.62-6.076"/>
    <path fill="#EB4335" d="M141.46 23.602c-1.484-1.786-3.41-2.17-5.46-1.157-1.198.59-1.704 1.783-1.908 3.088-2.292-1.11-4.858-.844-6.108 2.154-2.096 5.03 4.344 9.68 7.398 12.414.38.35.803.48 1.21.48.878 1.03 2.785 1.08 3.06-.58.793-4.79 5.677-11.73 1.81-16.38m22.503 3.89c-.07-2.79-2.968-3.96-5.353-3.64-1.085.148-2.05.608-2.855 1.26-.347-.613-.816-1.152-1.516-1.552-1.47-.84-3.6.43-4.24 1.82-1.63 3.535-1.46 10.373 1.11 13.505.18.943.98 1.743 2.16 1.35 5.25-1.75 10.85-6.74 10.7-12.735"/>
  </g>
</svg>
