<svg xmlns="http://www.w3.org/2000/svg" viewBox="0 0 179 128">
  <g fill="none" fill-rule="evenodd" stroke="#000" stroke-linecap="round" stroke-linejoin="round">
    <path stroke-width="2" d="M84.326 15.06c1.513.15 3.01-.326 4.455-.798 9.58-3.12 19.34-6.355 29.41-6.228 13.68.17 26.46 6.504 38.46 13.075 1.61.88 3.27 1.81 4.38 3.28.96 1.27 1.41 2.84 1.83 4.37 8.27 29.73 13.21 60.38 14.72 91.21-7.32-7.14-18.55-9.22-28.57-7.23-10.02 1.99-19 7.57-26.91 14.03-20.44-21.12-55.13-26.77-81.22-13.22C30.52 81.67 9.75 53.61 1.96 21.01c-.4-1.68-.76-3.487-.14-5.1.472-1.24 1.47-2.2 2.472-3.067C14.49 4.043 28.63.73 42.07 1.707c13.44.977 26.305 5.888 38.344 11.94 1.246.626 2.524 1.277 3.912 1.413z"/>
    <path stroke-width="2" d="M84.326 15.06c3.95 14.35 12.21 28.957 17.907 42.707 1.838 4.436 4.578 12.003 6.027 16.58 5.584 17.64 11.214 34.123 13.817 52.44M44.194 112.43l2.128 4.802c4.357-2.05 8.772-4.118 13.504-5.007 2.446-.458 4.942-.593 7.43-.644 13.2-.27 26.446 1.83 38.918 6.16 2.877 1 5.726 2.13 8.35 3.68 2.346 1.39 4.492 3.1 6.886 4.41l-1.24-1.6"/>
    <path stroke-width="2" d="M50.686 116.13c1.195 1.11 2.208 2.413 2.99 3.844 16.126-5.845 34.073-5.474 50.664-1.117 6.085 1.6 12.152 3.78 17.108 7.658l-.514-.67m1.676.685c4.736-4.033 10.416-6.95 16.453-8.453 3.094-.77 6.268-1.17 9.432-1.57 1.894-.238 3.795-.478 5.704-.446 2.96.05 5.89.76 8.71 1.68 4.23 1.38 8.31 3.26 12.12 5.58.48-1.3.73-2.7.71-4.09M23.23 19.22c.35-1.746-1.525-3.36-3.302-3.23-1.776.136-3.24 1.535-4.05 3.125-1.12 2.204-1.242 4.868-.46 7.214.786 2.34 2.44 4.36 4.51 5.72.558.36 1.185.69 1.85.66.46-.03.894-.23 1.28-.48 1.893-1.25 2.61-4 1.563-6.02.79 1.41 1.64 2.79 2.54 4.13m5.25-8.9c-.94.46-1.26 1.71-.98 2.71s1.01 1.82 1.74 2.56c.72.73 1.53 1.46 2.54 1.67.64.13 1.31.03 1.95-.1 1.61-.34 3.42-1.18 3.71-2.8.13-.69-.05-1.4-.33-2.04-.52-1.23-1.42-2.35-2.65-2.87s-4.77.26-5.97.85zm20.9-1.7c-2.36.16-4.23 2.59-4.01 4.95.22 2.36 2.27 4.34 4.6 4.73 1.91.32 4.1-.48 4.93-2.23.33-.69.42-1.47.41-2.24-.02-1.26-.36-2.56-1.25-3.44-.89-.88-3.68-2.54-4.68-1.78zm20.22 6.96c.3-.53.2-1.22-.13-1.73-.32-.52-.83-.88-1.36-1.18-1.47-.84-3.31-1.21-4.89-.58-1.57.63-2.7 2.46-2.18 4.08.32.99 1.16 1.73 1.99 2.35 1.36 1.02 3.09 1.94 4.7 1.39 1.23-.42 2.04-1.63 2.34-2.89.3-1.26.17-2.58.02-3.86-.34-2.89-.8-5.87-2.39-8.3-.51.19-.43.92-.26 1.44 1.56 4.77 3.13 9.55 4.69 14.32l.07-.82m24.24-8.59c.49 2.48.62 6.87 2.09 8.96 1.26 1.78 4.36 2.4 6.36 2.13 2.3-.32 4.41-1.74 5.56-3.76.4-.69.69-1.45.74-2.24.12-1.55-.69-3.08-1.88-4.07-1.19-.99-2.73-1.5-4.27-1.69-2.96-.36-6.34.65-7.77 3.27 1.38-1.36 2.59-2.88 3.6-4.53.46-.74.88-1.55.86-2.42-.02-.87-.65-1.78-1.52-1.81-.45-.02-.89.19-1.27.43-2.69 1.65-3.02 2.93-2.48 5.71zM126 26.8c.376.32 1.015-.09 1.05-.59.03-.5-.33-.93-.725-1.23-1.602-1.21-4.16-.857-5.38.74-1.22 1.593-.892 4.15.69 5.39.36.28.77.49 1.22.56 1.01.16 1.984-.44 2.718-1.16.886-.85 1.58-1.9 2.02-3.04.21-.538.35-1.16.06-1.66.12 1.19.248 2.415.79 3.478.55 1.06 1.62 1.942 2.82 1.9.26-.01.598-.245.435-.446m13.63-.49c.217-.085.286-.38.203-.596-.09-.22-.28-.38-.46-.52-1.14-.85-2.49-1.5-3.91-1.49-1.42.014-2.88.815-3.37 2.146-.27.74-.22 1.576.03 2.324.32.94 1 1.78 1.93 2.14 1.51.58 3.23-.272 4.31-1.474 1.16-1.29 1.84-2.996 1.89-4.72.06-2.03-.72-4.018-.66-6.047-.41.55-.35 1.31-.27 1.99l.56 4.83c.13 1.086.26 2.19.71 3.186.447 1 1.258 1.89 2.318 2.16.298.08.698.04.78-.25"/>
    <path d="M29.355 50.35c3.49-1.778 6.39-4.684 8.167-8.174-.71-.618-1.75.38-1.902 1.308-.394 2.388 1.604 4.737 3.97 5.25 2.366.514 4.863-.494 6.674-2.1.672-.596 1.29-1.306 1.52-2.173.23-.86-.03-1.91-.793-2.38-1.26.05-2.2 1.42-2.05 2.67.15 1.25 1.18 2.28 2.35 2.72 1.18.45 2.49.4 3.74.19 2.4-.41 4.7-1.4 6.64-2.88 1.31-.99 2.55-2.62 1.91-4.13-1.43.58-2.03 2.45-1.55 3.91.48 1.47 1.79 2.54 3.2 3.16 3.8 1.64 8.67.2 10.95-3.25.3-.43.38-1.25-.15-1.29-1.24-.15-2 1.64-1.34 2.7.66 1.07 2.08 1.4 3.33 1.33 1.25-.07 2.48-.44 3.74-.39m-44.2 25.64c.29.53 1.1.25 1.59-.09 1.58-1.09 3.18-2.2 4.37-3.7s1.93-3.48 1.51-5.35c-1.9 1.12-3.22 3.27-3.14 5.47.09 2.21 1.7 4.33 3.86 4.8 2.05.45 4.13-.53 5.92-1.64 1.64-1.02 3.23-2.21 4.38-3.76 1.16-1.56 1.85-3.53 1.56-5.44-.02-.16-.05-.33-.16-.45-.24-.29-.7-.21-1.05-.06-1.46.64-2.51 2.13-2.61 3.72-.1 1.58.74 3.2 2.11 4.02 2.02 1.21 4.63.62 6.77-.36 3.52-1.63 6.85-4.88 6.5-8.74-.04-.45-.2-.98-.64-1.11-.316-.09-.644.08-.91.28-2.314 1.66-2.52 5.54-.393 7.43.51.46 1.14.81 1.823.88 1.1.11 2.13-.5 3.03-1.14 2.52-1.8 4.73-4.03 6.5-6.562.49-.704.94-1.695.39-2.354-1.56.4-2.81 1.78-3.06 3.36-.25 1.59.523 3.29 1.882 4.14 1.64 1.03 3.85.766 5.51-.23 1.66-.99 2.86-2.595 3.868-4.25.46-.74.81-1.86.1-2.35-1.7.55-2.06 3-1.11 4.51.95 1.51 2.7 2.29 4.34 2.98m-39.4 28.59c-.152.49-.012 1.05.348 1.41 1.43-1.29 2.89-2.61 3.825-4.29.93-1.69 1.27-3.83.37-5.53-1.62 1.31-2.34 3.64-1.74 5.64.6 2 2.48 3.54 4.56 3.74 3.21.31 5.95-2.3 7.76-4.98 1.27-1.89 2.37-4.07 2.14-6.33-2.64 1.17-4.03 4.92-2.2 7.14 1.64 1.98 4.94 1.81 6.96.22 2.02-1.59 3-4.16 3.57-6.67.25-1.11.25-2.61-.82-3.01-1.76.83-2.94 2.75-2.9 4.69.04 1.94 1.3 3.81 3.09 4.57 1.956.83 4.29.33 6.05-.85 1.76-1.19 3.03-2.97 4.064-4.83.66-1.2 1.19-2.86.2-3.81-1.94.54-2.27 3.15-1.99 5.14.22 1.59.72 3.35 2.12 4.15.83.48 1.86.52 2.81.38 3.97-.6 7.14-4.52 6.9-8.52-1.91.58-2.58 3.15-1.84 5 .74 1.86 2.42 3.142 4.02 4.34m15.43-41.01c3.06-1.48 5.07-4.9 4.884-8.294-1.94.78-2.76 3.36-1.94 5.28.83 1.92 2.95 3.08 5.04 3.13 2.09.056 4.11-.85 5.77-2.13 1.5-1.15 2.79-2.664 3.346-4.474.14-.434.14-1.05-.3-1.184-.14-.04-.3-.013-.44.028-1.88.523-2.61 3.12-1.63 4.81.98 1.69 3.14 2.42 5.08 2.205 1.94-.21 3.71-1.204 5.33-2.3.81-.544 1.628-1.15 2.12-1.99.5-.84.608-1.98.01-2.76-1.42 1.4-1.34 3.92-.07 5.46s3.46 2.13 5.43 1.78c1.96-.35 3.71-1.52 5.09-2.97.82-.865 1.55-1.86 1.89-3.01.1-.356.13-.823-.19-1.02-.17-.1-.385-.09-.58-.05-1.843.376-2.574 2.84-1.85 4.58.72 1.74 2.37 2.887 3.93 3.935M118.47 71.5c2.55-1.238 4.304-3.965 4.375-6.8-1.997.894-2.693 3.68-1.664 5.61 1.03 1.93 3.38 2.922 5.56 2.747 2.18-.177 4.18-1.357 5.76-2.87 1.7-1.624 3.06-3.974 2.48-6.25-1.42 1.07-2.18 2.967-1.88 4.724.3 1.76 1.64 3.3 3.34 3.84 2.2.7 4.59-.23 6.54-1.47 2.45-1.56 4.76-4.23 4.08-7.05-1.47 1.2-2.41 3.25-1.77 5.04.55 1.54 2.15 2.52 3.76 2.8 1.62.29 3.27 0 4.88-.29m-10.79 27.62c1.58-.77 2.96-1.97 3.95-3.42.31-.45.59-.94.65-1.48.07-.54-.13-1.14-.6-1.42-1.16 1.22-1.59 3.09-1.09 4.7.36 1.15 1.33 2.23 2.54 2.22.57 0 1.12-.24 1.6-.55 1.23-.78 2.15-2.04 2.53-3.44-.24 1.21.23 2.55 1.19 3.34s2.36 1 3.51.53"/>
    <path stroke-width="2" d="M121.5 126.947c8.194-5.618 18.453-8.147 28.318-6.98 4.395.52 8.673 1.74 12.95 2.88.404.108.836.215 1.236.092.414-.13.713-.48 1.013-.8.77-.81 1.687-1.47 2.693-1.95"/>
  </g>
</svg>
