<svg xmlns="http://www.w3.org/2000/svg" viewBox="0 0 253 145">
  <g fill="none" fill-rule="evenodd">
    <path stroke="#000" stroke-width=".771" d="M6.612 18.088c-.85.685-1.25 1.773-1.55 2.822-2.392 8.346-.677 17.25 1.06 25.756.153.75.318 1.528.773 2.142.914 1.23 2.65 1.424 4.18 1.48 16.88.636 33.796-2.513 50.627-1.065 3.16.27 6.54.813 8.82 3.017-.235-8.647-1.064-17.277-2.477-25.81-.385-2.32-.84-4.704-2.142-6.66-3.123-4.692-9.686-5.244-15.32-5.238-7.87.01-15.737.186-23.597.527-6.086.26-12.21.63-18.125 2.09-.79.19-1.61.42-2.24.93zM191.4 36.353c-.398-5.877-.21-11.793.56-17.633.576-4.378 1.617-8.98 4.718-12.122 2.972-3.014 7.325-4.16 11.502-4.848 11.855-1.95 23.992-1.183 35.912.31 1.485.188 3.034.41 4.256 1.273 1.904 1.344 2.517 3.86 2.864 6.163.898 5.96.957 12.01 1.013 18.035.008.7 0 1.43-.372 2.02-.6.94-1.877 1.11-2.988 1.17-14.563.79-29.16-1.36-43.73-.73-2.665.12-5.367.33-7.866 1.26-2.5.93-4.81 2.67-5.87 5.12zM76.084 131.888c-.097 2.623-.324 5.443-2 7.463-1.477 1.79-3.81 2.6-6.064 3.13-6.32 1.49-12.888 1.38-19.377 1.26l-38.835-.72c-1.184-.02-2.403-.05-3.49-.52-2.227-.96-3.316-3.46-3.957-5.8-.71-2.6-1.13-5.29-1.25-7.99-.24-5.68 1.17-11.92 5.69-15.38 3.4-2.59 7.89-3.14 12.14-3.53 15.22-1.38 30.52-1.87 45.8-1.47 1.97.05 3.96.12 5.85-.4 1.9-.52 3.7-1.73 4.44-3.55 1.05 9.138 1.41 18.35 1.07 27.538zm121.996-3.078c-.646-.67-.81-1.657-.933-2.58-1.112-8.422-1.187-16.98-.222-25.42 2.112 2.864 6.168 3.27 9.725 3.375 9.478.282 18.966.207 28.438-.223 4.39-.2 9.506-.165 12.224 3.287 1.208 1.53 1.698 3.49 2.108 5.4 1.24 5.77 2.035 11.64 2.37 17.54.046.8.058 1.68-.445 2.3-.554.68-1.532.81-2.412.88-16.242 1.32-32.688.12-48.566-3.55-.825-.19-1.697-.42-2.286-1.03z" stroke-linecap="round" stroke-linejoin="round"/>
    <path stroke="#000" stroke-width="1.542" d="M9.275 33.274c.255 2.123-.018 5.405.845 7.344.74 1.663 2.88 1.047 4.347.746.804-.164 1.607-.39 2.304-.822.54-.334 1-.783 1.41-1.273 2.37-2.88 2.63-7.31.61-10.44-1.16-1.81-3.03-3.1-5.09-3.68-1.3-.37-4.74-.97-5.36.67-.27.71.31 2.33.4 3.05.2 1.46.38 2.93.55 4.4zm12.597 2.5c-.026.05.055.01 0 0s-.095.047-.12.1c-.497 1.093.26 2.42 1.305 3.015 1.003.57 2.32.64 3.3.03s1.485-1.96 1.004-3.01c-.29-.65-.9-1.11-1.55-1.39-.77-.34-1.82-.56-2.52-.1-.7.45-.95.47-1.41 1.35zm7.588 3.552c.285-2.13.503-4.27.652-6.414.923 2.087 2.156 4.035 3.643 5.764l-.19-5.53m1.932 3.588c1.144-.146 2.268-.445 3.332-.888.35-.148.72-.323.96-.623s.33-.76.11-1.074c-.2-.28-.58-.37-.92-.4-1.14-.11-2.38.22-3.08 1.11-.71.89-.63 2.4.33 3.01.41.26.91.32 1.4.35 1.02.06 2.06-.02 3.06-.24" stroke-linecap="round" stroke-linejoin="round"/>
    <path stroke="#000" stroke-width=".771" d="M62.258 38.017c-.073-.234.006-.02 0 .12-.006.14.004.062-.135.085-1.046.174-2.093.348-3.14.52-1.265.21-2.53.42-3.805.565-2.348.266-4.72.308-7.076.125l-1.3-10.88c.848-.445 1.585-.812 2.532-.953l10.27-1.54c.408 4.02 1.442 8.09 2.654 11.95z" stroke-linecap="round" stroke-linejoin="round"/>
    <path fill="#000" d="M65.945 16.603c-4.632 4.283-8.76 8.965-12.47 14.043-1.98-2.304-3.677-4.764-5.14-7.462-.948-1.748-3.548-.088-2.604 1.654 1.87 3.447 4.14 6.538 6.82 9.397.75.795 1.88.353 2.41-.4 3.87-5.53 8.3-10.554 13.25-15.132 1.47-1.353-.8-3.442-2.26-2.1"/>
    <path stroke="#000" stroke-width="1.542" d="M197.71 18.343c.167 1.936-.18 4.91.546 6.696.62 1.53 2.584 1.03 3.925.8.74-.13 1.48-.31 2.12-.68.5-.29.93-.68 1.31-1.12 2.24-2.54 2.61-6.55.87-9.46-1-1.67-2.66-2.91-4.51-3.5-1.17-.38-4.28-1.028-4.89.44-.26.632.21 2.124.27 2.78.13 1.334.25 2.672.37 4.01zm11.366 2.652c-.025.044.05.01 0 0s-.09.04-.11.086c-.487.98.16 2.21 1.09 2.78.895.55 2.09.66 2.996.13.91-.52 1.41-1.73 1.004-2.7-.25-.59-.783-1.03-1.365-1.3-.69-.32-1.63-.56-2.29-.17-.65.4-.87.4-1.32 1.19zm6.784 3.457c.323-1.926.585-3.862.786-5.805.775 1.922 1.835 3.73 3.133 5.345-.01-1.676-.01-3.353-.01-5.03m1.64 3.318c1.04-.097 2.07-.335 3.05-.704.33-.124.66-.272.89-.537.23-.27.32-.68.13-.98-.18-.26-.51-.35-.82-.39-1.03-.13-2.17.12-2.83.92-.67.79-.65 2.16.21 2.74.37.24.82.32 1.26.36.93.08 1.87.04 2.79-.12" stroke-linecap="round" stroke-linejoin="round"/>
    <path stroke="#000" stroke-width=".701" d="M245.685 24.258c-.06-.216.007-.018-.003.11-.01.127 0 .054-.125.072-.956.126-1.912.25-2.868.378-1.16.152-2.32.305-3.48.397-2.14.17-4.3.136-6.43-.1l-.85-9.922c.78-.377 1.46-.69 2.32-.79l9.37-1.08c.24 3.664 1.06 7.398 2.04 10.935z" stroke-linecap="round" stroke-linejoin="round"/>
    <path fill="#000" d="M249.683 4.922c-4.336 3.75-8.228 7.877-11.75 12.375-1.73-2.152-3.196-4.438-4.443-6.932-.807-1.617-3.22-.188-2.414 1.422 1.593 3.188 3.555 6.064 5.9 8.74.653.746 1.697.38 2.2-.29 3.68-4.903 7.86-9.332 12.496-13.34"/>
    <path stroke="#000" stroke-width="1.542" d="M200.624 119.73c.092 1.702-.297 4.297.287 5.884.51 1.36 2.24.983 3.42.82.65-.088 1.3-.225 1.88-.532.45-.237.84-.57 1.18-.94 2.04-2.16 2.47-5.665 1.03-8.26-.83-1.495-2.25-2.623-3.85-3.193-1.01-.37-3.72-1.02-4.3.25-.25.55.12 1.87.16 2.44.08 1.17.15 2.35.21 3.52zm9.884 2.648c-.023.038.043.01 0 0s-.08.033-.1.073c-.453.85.078 1.94.878 2.47.768.51 1.81.64 2.622.2.81-.43 1.284-1.48.956-2.34-.2-.53-.657-.92-1.16-1.18-.596-.3-1.418-.54-2.003-.21-.58.33-.78.33-1.19 1zm5.847 3.222c.337-1.68.62-3.368.853-5.065.625 1.706 1.502 3.32 2.594 4.773l.138-4.407m1.35 2.96c.916-.05 1.824-.23 2.694-.53.292-.1.59-.22.8-.44.21-.22.305-.58.142-.85-.144-.23-.438-.32-.708-.36-.896-.14-1.9.05-2.51.73-.606.68-.625 1.88.11 2.41.317.23.713.31 1.1.36.81.11 1.638.1 2.446-.02" stroke-linecap="round" stroke-linejoin="round"/>
    <path stroke="#000" stroke-width=".614" d="M242.496 126.277c-.046-.19.006-.015-.006.096-.012.11 0 .05-.112.06l-2.523.25c-1.017.1-2.034.2-3.055.25-1.88.087-3.77-.004-5.632-.272-.155-2.9-.31-5.81-.463-8.71.698-.31 1.302-.56 2.062-.62l8.246-.68c.113 3.22.72 6.51 1.483 9.64z" stroke-linecap="round" stroke-linejoin="round"/>
    <path fill="#000" d="M246.55 109.446c-3.907 3.163-7.435 6.67-10.65 10.51-1.453-1.935-2.674-3.978-3.695-6.2-.662-1.44-2.817-.256-2.157 1.178 1.305 2.84 2.943 5.414 4.922 7.827.55.68 1.477.38 1.936-.19 3.363-4.19 7.153-7.95 11.33-11.33"/>
    <path stroke="#000" stroke-width="1.542" d="M12.75 129.028c.254 2.124-.02 5.406.844 7.345.74 1.663 2.88 1.047 4.348.746.803-.17 1.606-.39 2.303-.83.54-.34 1-.79 1.402-1.28 2.37-2.88 2.628-7.3.608-10.43-1.164-1.81-3.035-3.1-5.09-3.68-1.305-.37-4.744-.97-5.364.67-.26.71.31 2.33.4 3.05.2 1.46.38 2.93.55 4.39zm12.596 2.5c-.026.05.055.01 0 0s-.095.048-.118.1c-.5 1.094.257 2.42 1.302 3.016 1.004.572 2.322.647 3.3.034.98-.615 1.487-1.96 1.005-3.01-.296-.646-.9-1.106-1.55-1.388-.77-.334-1.82-.557-2.527-.1-.705.455-.948.472-1.412 1.348zm7.59 3.552c.283-2.13.5-4.27.65-6.413.923 2.086 2.156 4.035 3.643 5.764-.07-1.84-.13-3.68-.2-5.53m1.93 3.59c1.14-.14 2.26-.44 3.33-.89.35-.14.72-.32.96-.62s.33-.76.11-1.07c-.2-.28-.58-.36-.92-.39-1.14-.1-2.38.22-3.09 1.12-.71.9-.63 2.41.33 3.01.413.26.92.33 1.41.36 1.02.06 2.054-.02 3.06-.24" stroke-linecap="round" stroke-linejoin="round"/>
    <path stroke="#000" stroke-width=".771" d="M65.732 133.772c-.073-.234.006-.02 0 .12-.006.14.003.062-.135.085l-3.14.52c-1.265.21-2.53.42-3.805.565-2.348.266-4.72.308-7.076.125l-1.3-10.88c.848-.445 1.585-.812 2.532-.953 3.424-.51 6.848-1.023 10.27-1.533.408 4.02 1.442 8.1 2.654 11.96z" stroke-linecap="round" stroke-linejoin="round"/>
    <path fill="#000" d="M69.42 112.358c-4.633 4.283-8.76 8.965-12.47 14.043-1.98-2.3-3.678-4.76-5.14-7.46-.95-1.75-3.55-.09-2.605 1.66 1.87 3.45 4.133 6.54 6.81 9.4.746.8 1.88.36 2.41-.4 3.866-5.53 8.302-10.55 13.253-15.13"/>
    <path stroke="#000" stroke-width="1.291" d="M94.635 84.578c-.19-5.132-2.453-15.988.934-20.52 3.38-4.534 7.46-11.344 14.36-10.97 11.03.597 48.43-1.56 52.11-1.513 3.67.046 10.82 5.493 13.3 10.473 3.57 7.16 1.34 30.396 1.46 34.522.12 4.126-.17 11.48-2.93 15.343-3.08 4.296-5.46 6.75-15.27 6.138-25.09-1.56-41.89.76-45.72.41-3.84-.34-11.7-2.56-13.94-5.86-2.24-3.3-5.02-9.64-5.01-14.53.01-4.89.8-10.1.68-13.48z" stroke-linecap="round" stroke-linejoin="round"/>
    <path stroke="#000" stroke-width="1.291" d="M125.564 101.575s10.274.375 13.694.214c1.896-.09 7.546-.83 7.546-.83s-1.1 6.91-5.924 9.27c-4.826 2.36-8.655-.44-10.063-1.55-1.41-1.11-4.494-2.01-5.253-7.11zm5.878-57.005l-.226-10.5c-1.402-.617-2.528-1.57-3.17-2.726-1.402-2.52-2.155-5.583-.253-8.675 1.903-3.1 3.208-4.3 6.277-4.46 1.847-.1 3.6.3 6.78 2.96 3.864 3.23 2.4 7.68 1.678 8.93-.556.96-1.232 2.66-3.28 3.75l.254 10.46" stroke-linecap="round" stroke-linejoin="round"/>
    <path stroke="#000" stroke-width="1.291" d="M139.715 25.952s.28 2.465-1.522 4.1c-1.802 1.638-4.573 1.462-5.32 1.06-.748-.405-2.227-.906-2.746-3.162-.52-2.257.33-4.452 1.786-5.316 1.456-.864 3.328-.922 5.173.144 1.845 1.064 2.24.845 2.63 3.174zm-26.953 40.282s6.79-.58 11.142 4.495c4.353 5.07 3.656 12.66 2.49 14.68-1.164 2.02-2.67 5.43-8.906 6.68-6.233 1.25-12.177-.64-14.436-4.71-2.26-4.07-3.473-9-.406-13.99 3.068-4.99 5.248-6.27 10.116-7.18z" stroke-linecap="round" stroke-linejoin="round"/>
    <path stroke="#000" stroke-width="1.291" d="M114.385 70.776s-2.35.68-3.66 1.75c-1.68 1.377-4.09 2.566-4.09 2.566s.723 3.562.747 4.72c.02.91-.162 3.636-.162 3.636s2.678 1.84 3.617 2.38c.827.476 3.42 1.7 3.42 1.7l3.81-1.833 3.3-2.198s.26-4.798.122-6.39c-.05-.472-.05-2.1-.05-2.1l-7.06-4.23z" stroke-linecap="round" stroke-linejoin="round"/>
    <path fill="#000" d="M114.062 75.488c-1.452.004-2.826 1.235-3.172 2.654-.547 2.233-.056 3.366.968 4.407 1.025 1.04 4.14.33 5.12-.15.98-.49 1.75-2.96.795-4.23-.376-.5-.542-1.47-1.05-1.85-.668-.5-1.747-.81-2.57-.84-.03 0-.06-.01-.09 0"/>
    <path stroke="#000" stroke-width="1.291" d="M167.41 84.19s-3.205 6.014-9.83 6.91c-6.625.896-12.617-3.816-13.68-5.892-1.066-2.077-3.107-5.195-.77-11.108 2.34-5.913 7.158-9.874 11.797-9.56 4.64.313 9.44 1.976 11.957 7.26 2.515 5.282 2.41 7.81.525 12.39z" stroke-linecap="round" stroke-linejoin="round"/>
    <path stroke="#000" stroke-width="1.291" d="M162.715 83.084s.707-2.343.52-4.022c-.243-2.16.07-4.83.07-4.83s-3.383-1.328-4.368-1.937c-.775-.478-2.965-2.113-2.965-2.113s-3 1.247-3.963 1.742c-.85.436-3.29 1.947-3.29 1.947l-.54 4.2.05 3.97s3.88 2.83 5.3 3.58c.42.23 1.79 1.11 1.79 1.11l7.38-3.62z" stroke-linecap="round" stroke-linejoin="round"/>
    <path fill="#000" d="M158.935 80.252c.786-1.22.498-3.043-.503-4.105-1.577-1.673-2.795-1.877-4.227-1.582-1.43.293-2.533 3.29-2.657 4.377-.124 1.088 1.53 3.076 3.117 2.966.624-.043 1.527.343 2.122.122.782-.29 1.628-1.026 2.096-1.7.02-.026.036-.052.052-.078"/>
    <path stroke="#000" stroke-width="1.291" d="M139.535 44.444c8.032 2.023 10.897-.103 14.505.175 3.3.25 7.675 3.59 8.91 6.62m-54.524 1.85s1.263-5.82 7.488-7.37c2.536-.64 7.433.55 15.528-1.16" stroke-linecap="round" stroke-linejoin="round"/>
  </g>
</svg>
