<svg xmlns="http://www.w3.org/2000/svg" viewBox="0 0 79 123">
  <g fill="none" fill-rule="evenodd" stroke="#000" stroke-width="2" stroke-linecap="round" stroke-linejoin="round">
    <path d="M5.76 121.008c-.53-.02-1.097-.056-1.51-.385-.53-.42-.634-1.17-.697-1.844C.23 82.9 1.077 46.79 1.927 10.78c.014-.61.046-1.278.434-1.75.49-.6 1.35-.69 2.12-.73l49-2.82c7.51-.436 15.17-.9 22.17-3.65l1.82 105.545c.02 1.15.02 2.374-.58 3.354-.77 1.26-2.32 1.78-3.75 2.18-21.84 6.21-44.67 8.95-67.37 8.09z"/>
    <path d="M13.627 16.123c-.226 5.952-.558 11.9-.998 17.84-.11-.46-.21-.924-.32-1.387m-2.18-11.384c2.04.618 4.21.83 6.33.623m6.35 7.447c-.55-.795-1.72-1.004-2.61-.63-.92.384-1.57 1.313-1.63 2.3-.02.288.01.58.11.85.3.842 1.25 1.36 2.14 1.266.89-.094 1.67-.73 2.05-1.537.332-.7.37-1.6-.078-2.24zm20.65-2.12c.12-.455-.14-.95-.52-1.225-.39-.275-.87-.367-1.34-.388-2.23-.11-4.45 1.34-5.25 3.43-.42 1.07-.35 2.52.65 3.1.49.28 1.09.28 1.64.16 1.722-.37 3.08-1.79 3.822-3.39s.984-3.38 1.212-5.13c.244-1.91.49-3.89-.12-5.71-.555 1.37-.47 2.91-.37 4.39l.6 9.31.09-.49m11.632-4.8c-.164-.385-.44-.716-.76-.98-1.41-1.16-3.615-.95-5.085.132-.876.65-1.584 1.727-1.322 2.786.144.59.574 1.08 1.07 1.437 1.424 1.02 3.503 1.01 4.915-.03 1.03-.755 1.69-2.17 1.185-3.345zm8.756-8.586c-.15-.138-.398.082-.36.28.037.195.223.32.394.425.226-.05.427-.193.55-.39l-.383-.323-.464.25m.69 9.63l.423.485c.23-.185.38-.46.42-.75-.25-.375-.968-.138-.946.31M8.654 51.47l-.383-.322c-.11.13-.22.256-.33.385.09.393.49.694.89.682.41-.012.78-.336.85-.734-.07-.39-.47-.7-.87-.67-.4.03-.753.38-.78.79.72-.05 1.398-.52 1.707-1.17-.12-.09-.24-.18-.36-.28-.624.11-.99.95-.64 1.47m-.85 15.3l-.32.39.76.64c.478-.2.847-.64.97-1.14-.172-.15-.35-.3-.524-.44-.48.305-.88.716-1.18 1.193.04.178.13.34.27.46.516-.364.964-.83 1.307-1.363-.653-.27-1.468.42-1.317 1.1m.37 16.45c-.19-.057-.34.203-.27.39.073.18.264.28.44.364.317-.182.633-.396.817-.713.185-.31.2-.75-.055-1.02-.332-.34-.965-.19-1.24.2-.27.4-.25.93-.11 1.38.48-.12.874-.55.954-1.04l-.55.64m.79 18.2c-.36-.13-.217-.807.166-.78.384.03.43.72.052.797.3-.285.6-.61.68-1.02.08-.41-.16-.905-.57-.96-.27-.036-.53.114-.73.292-.32.285-.57.743-.4 1.137.17.396.91.39.94-.04m13.37-51.6c4.76-.61 9.55-.966 14.35-1.06 7.23-.143 14.46.304 21.68.75M19.81 69.104c8.315.7 16.697-1.23 25.005-.43 2.99.286 5.934.924 8.917 1.253 2.8.308 5.633.344 8.44.104m-41.8 17.75c4.965-.89 10.04.48 15.085.52 3.17.03 6.31-.46 9.46-.84 6.792-.81 13.66-1.07 20.5-.76M20.68 103.34c3.99 1.33 8.33.223 12.48-.51 6.85-1.218 13.88-1.387 20.78-.5"/>
  </g>
</svg>
