<svg xmlns="http://www.w3.org/2000/svg" width="31" height="32" viewBox="0 0 31 32">
  <g fill="none" fill-rule="evenodd">
    <g fill="#FF9D27">
      <path d="M4.598 24.498c2.067-2.098 2.274-2.623 3.565-1.31 1.292 1.31.775 1.468-1.29 3.62-1.55 1.572-3.515 1.258-3.515 1.258s-.31-1.994 1.24-3.568"/>
      <path d="M8.525 26.65c.827-2.204 1.085-2.466-.103-3.148-1.19-.682-1.19-.21-1.964 1.993-.62 1.626.104 3.095.104 3.095s1.395-.262 1.963-1.94"/>
    </g>
    <path fill="#FDF516" d="M7.337 24.603c.465-1.206.465-1.47 1.085-1.1.67.366.516.523.05 1.73-.31.892-1.084 1.1-1.084 1.1s-.36-.785-.05-1.73"/>
    <path fill="#FF9D27" d="M7.802 22.925c-.672-1.207-.93-.945-3.1-.105-1.602.63-1.912 1.993-1.912 1.993s1.447.735 3.048.105c2.17-.84 2.635-.84 1.964-1.993"/>
    <g fill="#FDF516">
      <path d="M6.717 24.026c1.188-.472 1.446-.472 1.085-1.1-.362-.683-.517-.526-1.705-.054-.88.315-1.085 1.102-1.085 1.102s.826.367 1.705.052"/>
      <path d="M6.148 23.92c1.137-1.153 1.24-1.468 1.964-.733.723.734.413.84-.724 1.993-.878.892-1.963.682-1.963.682s-.103-1.05.723-1.94"/>
    </g>
    <path fill="#3BAACF" d="M8.525 18.885C5.322 13.43 0 15.685 0 15.685s7.595-7.71 12.71-2.518l-4.185 5.718z"/>
    <path fill="#428BC1" d="M11.005 14.846l1.653-1.68C7.595 7.976 0 15.686 0 15.686s6.665-4.826 11.005-.84"/>
    <path fill="#3BAACF" d="M12.4 22.82c5.373 3.252 3.152 8.655 3.152 8.655s7.595-7.71 2.48-12.905L12.4 22.82z"/>
    <path fill="#428BC1" d="M16.378 20.302l1.654-1.68c5.115 5.194-2.48 12.906-2.48 12.906s4.753-6.82.826-11.226"/>
    <path fill="#C5D0D8" d="M24.18 15.16c-6.045 6.086-12.71 9.39-15.035 7.03-2.325-2.36.93-9.128 6.923-15.265C23.095-.21 30.898.105 30.898.105s.257 7.92-6.718 15.056"/>
    <path fill="#DAE3EA" d="M22.63 13.43c-5.993 6.085-11.987 10.072-13.382 8.655-1.395-1.416 2.532-7.5 8.525-13.587C24.8 1.364 31 0 31 0s-1.343 6.295-8.37 13.43z"/>
    <path fill="#C94747" d="M11.522 23.87c-.26.26-.672.26-.93 0l-3.1-3.15c-.26-.26-.26-.733 0-.995l.93-.945 4.03 4.092-.93.997"/>
    <path fill="#F15744" d="M10.643 22.925c-.258.262-.568.367-.723.21L8.163 21.35c-.155-.157-.05-.47.207-.734l.93-.944 2.273 2.308-.93.945"/>
    <path fill="#3E4347" d="M9.765 24.236c-.155.157-.517.157-.672 0L7.078 22.19c-.155-.157-.103-.472.052-.63l.62-.63 2.635 2.677-.62.63"/>
    <path fill="#62727A" d="M9.352 23.816c-.155.158-.465.21-.57.105L7.39 22.507c-.103-.105-.05-.367.155-.525l.62-.63 1.81 1.838-.62.63"/>
    <path fill="#C94747" d="M30.897.105S28.107 0 24.335 1.47l5.218 5.297C31 2.937 30.897.105 30.897.105"/>
    <path fill="#F15744" d="M30.897.105s-2.222.472-5.58 2.413L28.52 5.77C30.432 2.36 30.897.105 30.897.105"/>
    <ellipse cx="21.442" cy="9.705" fill="#EDF4F9" rx="2.583" ry="2.623"/>
    <ellipse cx="21.442" cy="9.705" fill="#3BAACF" rx="1.705" ry="1.731"/>
    <ellipse cx="16.275" cy="14.951" fill="#EDF4F9" rx="2.583" ry="2.623"/>
    <ellipse cx="16.275" cy="14.951" fill="#3BAACF" rx="1.705" ry="1.731"/>
    <g fill="#FFF" transform="translate(23.25 1.574)">
      <path d="M.982.997c-.155.157-.465.157-.62 0C.207.84.207.525.362.367.517.21.827.21.982.367c.155.158.155.472 0 .63"/>
      <ellipse cx="1.86" cy="1.889" rx=".413" ry=".42"/>
      <ellipse cx="3.1" cy="3.148" rx=".413" ry=".42"/>
      <ellipse cx="4.288" cy="4.407" rx=".413" ry=".42"/>
      <ellipse cx="5.528" cy="5.613" rx=".413" ry=".42"/>
    </g>
  </g>
</svg>
